%TF.GenerationSoftware,KiCad,Pcbnew,(6.0.2-0)*%
%TF.CreationDate,2022-03-06T07:27:11+00:00*%
%TF.ProjectId,L86,4c38362e-6b69-4636-9164-5f7063625858,rev?*%
%TF.SameCoordinates,Original*%
%TF.FileFunction,Copper,L2,Bot*%
%TF.FilePolarity,Positive*%
%FSLAX46Y46*%
G04 Gerber Fmt 4.6, Leading zero omitted, Abs format (unit mm)*
G04 Created by KiCad (PCBNEW (6.0.2-0)) date 2022-03-06 07:27:11*
%MOMM*%
%LPD*%
G01*
G04 APERTURE LIST*
G04 Aperture macros list*
%AMRoundRect*
0 Rectangle with rounded corners*
0 $1 Rounding radius*
0 $2 $3 $4 $5 $6 $7 $8 $9 X,Y pos of 4 corners*
0 Add a 4 corners polygon primitive as box body*
4,1,4,$2,$3,$4,$5,$6,$7,$8,$9,$2,$3,0*
0 Add four circle primitives for the rounded corners*
1,1,$1+$1,$2,$3*
1,1,$1+$1,$4,$5*
1,1,$1+$1,$6,$7*
1,1,$1+$1,$8,$9*
0 Add four rect primitives between the rounded corners*
20,1,$1+$1,$2,$3,$4,$5,0*
20,1,$1+$1,$4,$5,$6,$7,0*
20,1,$1+$1,$6,$7,$8,$9,0*
20,1,$1+$1,$8,$9,$2,$3,0*%
G04 Aperture macros list end*
%ADD10C,0.100000*%
%TA.AperFunction,NonConductor*%
%ADD11C,0.100000*%
%TD*%
%TA.AperFunction,EtchedComponent*%
%ADD12C,0.080000*%
%TD*%
%TA.AperFunction,EtchedComponent*%
%ADD13C,0.250000*%
%TD*%
%TA.AperFunction,SMDPad,CuDef*%
%ADD14R,1.400000X0.200000*%
%TD*%
%TA.AperFunction,SMDPad,CuDef*%
%ADD15R,0.400000X0.200000*%
%TD*%
%TA.AperFunction,SMDPad,CuDef*%
%ADD16R,0.200000X1.200000*%
%TD*%
%TA.AperFunction,SMDPad,CuDef*%
%ADD17R,0.400000X0.400000*%
%TD*%
%TA.AperFunction,SMDPad,CuDef*%
%ADD18R,0.600000X0.600000*%
%TD*%
%TA.AperFunction,SMDPad,CuDef*%
%ADD19R,0.200000X1.000000*%
%TD*%
%TA.AperFunction,SMDPad,CuDef*%
%ADD20R,0.200000X0.200000*%
%TD*%
%TA.AperFunction,SMDPad,CuDef*%
%ADD21R,0.200000X0.800000*%
%TD*%
%TA.AperFunction,SMDPad,CuDef*%
%ADD22R,1.000000X0.200000*%
%TD*%
%TA.AperFunction,SMDPad,CuDef*%
%ADD23R,0.200000X0.400000*%
%TD*%
%TA.AperFunction,SMDPad,CuDef*%
%ADD24R,0.200000X0.600000*%
%TD*%
%TA.AperFunction,SMDPad,CuDef*%
%ADD25R,0.600000X0.200000*%
%TD*%
%TA.AperFunction,SMDPad,CuDef*%
%ADD26R,0.800000X0.200000*%
%TD*%
%TA.AperFunction,ComponentPad*%
%ADD27RoundRect,0.250000X0.675000X-0.600000X0.675000X0.600000X-0.675000X0.600000X-0.675000X-0.600000X0*%
%TD*%
%TA.AperFunction,ComponentPad*%
%ADD28O,1.850000X1.700000*%
%TD*%
%TA.AperFunction,ViaPad*%
%ADD29C,0.800000*%
%TD*%
%TA.AperFunction,Conductor*%
%ADD30C,0.250000*%
%TD*%
G04 APERTURE END LIST*
D10*
%TO.C,U2*%
D11*
X102428571Y-106373809D02*
X102404761Y-106350000D01*
X102357142Y-106326190D01*
X102238095Y-106326190D01*
X102190476Y-106350000D01*
X102166666Y-106373809D01*
X102142857Y-106421428D01*
X102142857Y-106469047D01*
X102166666Y-106540476D01*
X102452380Y-106826190D01*
X102142857Y-106826190D01*
X101833333Y-106326190D02*
X101785714Y-106326190D01*
X101738095Y-106350000D01*
X101714285Y-106373809D01*
X101690476Y-106421428D01*
X101666666Y-106516666D01*
X101666666Y-106635714D01*
X101690476Y-106730952D01*
X101714285Y-106778571D01*
X101738095Y-106802380D01*
X101785714Y-106826190D01*
X101833333Y-106826190D01*
X101880952Y-106802380D01*
X101904761Y-106778571D01*
X101928571Y-106730952D01*
X101952380Y-106635714D01*
X101952380Y-106516666D01*
X101928571Y-106421428D01*
X101904761Y-106373809D01*
X101880952Y-106350000D01*
X101833333Y-106326190D01*
X101476190Y-106373809D02*
X101452380Y-106350000D01*
X101404761Y-106326190D01*
X101285714Y-106326190D01*
X101238095Y-106350000D01*
X101214285Y-106373809D01*
X101190476Y-106421428D01*
X101190476Y-106469047D01*
X101214285Y-106540476D01*
X101500000Y-106826190D01*
X101190476Y-106826190D01*
X101000000Y-106373809D02*
X100976190Y-106350000D01*
X100928571Y-106326190D01*
X100809523Y-106326190D01*
X100761904Y-106350000D01*
X100738095Y-106373809D01*
X100714285Y-106421428D01*
X100714285Y-106469047D01*
X100738095Y-106540476D01*
X101023809Y-106826190D01*
X100714285Y-106826190D01*
X100500000Y-106635714D02*
X100119047Y-106635714D01*
X99785714Y-106326190D02*
X99738095Y-106326190D01*
X99690476Y-106350000D01*
X99666666Y-106373809D01*
X99642857Y-106421428D01*
X99619047Y-106516666D01*
X99619047Y-106635714D01*
X99642857Y-106730952D01*
X99666666Y-106778571D01*
X99690476Y-106802380D01*
X99738095Y-106826190D01*
X99785714Y-106826190D01*
X99833333Y-106802380D01*
X99857142Y-106778571D01*
X99880952Y-106730952D01*
X99904761Y-106635714D01*
X99904761Y-106516666D01*
X99880952Y-106421428D01*
X99857142Y-106373809D01*
X99833333Y-106350000D01*
X99785714Y-106326190D01*
X99452380Y-106326190D02*
X99142857Y-106326190D01*
X99309523Y-106516666D01*
X99238095Y-106516666D01*
X99190476Y-106540476D01*
X99166666Y-106564285D01*
X99142857Y-106611904D01*
X99142857Y-106730952D01*
X99166666Y-106778571D01*
X99190476Y-106802380D01*
X99238095Y-106826190D01*
X99380952Y-106826190D01*
X99428571Y-106802380D01*
X99452380Y-106778571D01*
X98928571Y-106635714D02*
X98547619Y-106635714D01*
X98214285Y-106326190D02*
X98166666Y-106326190D01*
X98119047Y-106350000D01*
X98095238Y-106373809D01*
X98071428Y-106421428D01*
X98047619Y-106516666D01*
X98047619Y-106635714D01*
X98071428Y-106730952D01*
X98095238Y-106778571D01*
X98119047Y-106802380D01*
X98166666Y-106826190D01*
X98214285Y-106826190D01*
X98261904Y-106802380D01*
X98285714Y-106778571D01*
X98309523Y-106730952D01*
X98333333Y-106635714D01*
X98333333Y-106516666D01*
X98309523Y-106421428D01*
X98285714Y-106373809D01*
X98261904Y-106350000D01*
X98214285Y-106326190D01*
X97619047Y-106326190D02*
X97714285Y-106326190D01*
X97761904Y-106350000D01*
X97785714Y-106373809D01*
X97833333Y-106445238D01*
X97857142Y-106540476D01*
X97857142Y-106730952D01*
X97833333Y-106778571D01*
X97809523Y-106802380D01*
X97761904Y-106826190D01*
X97666666Y-106826190D01*
X97619047Y-106802380D01*
X97595238Y-106778571D01*
X97571428Y-106730952D01*
X97571428Y-106611904D01*
X97595238Y-106564285D01*
X97619047Y-106540476D01*
X97666666Y-106516666D01*
X97761904Y-106516666D01*
X97809523Y-106540476D01*
X97833333Y-106564285D01*
X97857142Y-106611904D01*
D12*
%TO.C,Logo1*%
X100250000Y-97210000D02*
X100150000Y-97210000D01*
D13*
X99400000Y-93000000D02*
X99400000Y-97200000D01*
D12*
X100250000Y-97050000D02*
X100250000Y-97350000D01*
D13*
X97600000Y-93100000D02*
X99400000Y-95100000D01*
X99400000Y-95100000D02*
X97600000Y-97200000D01*
D12*
X100150000Y-97210000D02*
X100050000Y-97350000D01*
D13*
X99400000Y-95100000D02*
X100900000Y-95100000D01*
X99400000Y-93000000D02*
X102400000Y-97200000D01*
D12*
X100250000Y-97050000D02*
X100150000Y-97050000D01*
X100150000Y-97050000D02*
G75*
G03*
X100150000Y-97210000I0J-80000D01*
G01*
D13*
X99400000Y-97200000D02*
G75*
G03*
X100900000Y-97200000I750000J0D01*
G01*
D12*
X100470000Y-97210000D02*
G75*
G03*
X100470000Y-97210000I-300000J0D01*
G01*
%TD*%
D14*
%TO.P,U2,*%
%TO.N,*%
X101400000Y-105000000D03*
D15*
X100300000Y-105000000D03*
X99700000Y-105000000D03*
D14*
X98600000Y-105000000D03*
D16*
X102000000Y-104300000D03*
X100800000Y-104300000D03*
D17*
X99900000Y-104700000D03*
D16*
X99200000Y-104300000D03*
X98000000Y-104300000D03*
D18*
X101400000Y-104400000D03*
X98600000Y-104400000D03*
D15*
X100300000Y-104400000D03*
X99700000Y-104400000D03*
D19*
X100400000Y-103800000D03*
D20*
X100000000Y-104200000D03*
D21*
X99600000Y-103900000D03*
D20*
X100200000Y-104000000D03*
D22*
X101400000Y-103800000D03*
D23*
X100000000Y-103700000D03*
D22*
X98600000Y-103800000D03*
D20*
X100200000Y-103600000D03*
D24*
X99800000Y-103400000D03*
D20*
X102000000Y-103400000D03*
X101200000Y-103400000D03*
D15*
X100700000Y-103400000D03*
D22*
X99000000Y-103400000D03*
D20*
X98000000Y-103400000D03*
X101600000Y-103200000D03*
X100600000Y-103200000D03*
D21*
X100000000Y-102900000D03*
D25*
X99400000Y-103200000D03*
D20*
X98800000Y-103200000D03*
X98200000Y-103200000D03*
D24*
X102000000Y-102800000D03*
D23*
X101400000Y-102900000D03*
D20*
X100800000Y-103000000D03*
D15*
X99100000Y-103000000D03*
X98500000Y-103000000D03*
D20*
X98000000Y-103000000D03*
X101800000Y-102800000D03*
D23*
X101200000Y-102700000D03*
D20*
X100200000Y-102800000D03*
D25*
X99400000Y-102800000D03*
D24*
X98800000Y-102600000D03*
D23*
X98200000Y-102700000D03*
D26*
X100700000Y-102600000D03*
D15*
X99700000Y-102600000D03*
D24*
X99200000Y-102400000D03*
D20*
X98000000Y-102600000D03*
D23*
X100400000Y-102300000D03*
D15*
X99500000Y-102400000D03*
X98500000Y-102400000D03*
D14*
X101400000Y-102200000D03*
D17*
X99900000Y-102100000D03*
D20*
X99400000Y-102200000D03*
D16*
X102000000Y-101500000D03*
X100800000Y-101500000D03*
D20*
X99000000Y-102000000D03*
X98000000Y-102000000D03*
D18*
X101400000Y-101600000D03*
D15*
X100300000Y-101800000D03*
D17*
X98300000Y-101700000D03*
D24*
X100200000Y-101400000D03*
D20*
X99800000Y-101600000D03*
D15*
X99100000Y-101600000D03*
D21*
X98600000Y-101300000D03*
D20*
X98000000Y-101600000D03*
D24*
X99600000Y-101200000D03*
X99200000Y-101200000D03*
D20*
X98400000Y-101400000D03*
D23*
X100000000Y-101100000D03*
X99400000Y-101100000D03*
X98800000Y-101100000D03*
X98000000Y-101100000D03*
D22*
X101400000Y-101000000D03*
D20*
X100400000Y-101000000D03*
X99000000Y-101000000D03*
X98200000Y-101000000D03*
%TD*%
D27*
%TO.P,J1,1,Pin_1*%
%TO.N,Net-(J1-Pad1)*%
X117000000Y-106250000D03*
D28*
%TO.P,J1,2,Pin_2*%
%TO.N,Net-(J1-Pad2)*%
X117000000Y-103750000D03*
%TO.P,J1,3,Pin_3*%
%TO.N,GND*%
X117000000Y-101250000D03*
%TO.P,J1,4,Pin_4*%
%TO.N,Net-(J1-Pad4)*%
X117000000Y-98750000D03*
%TO.P,J1,5,Pin_5*%
%TO.N,Net-(J1-Pad5)*%
X117000000Y-96250000D03*
%TO.P,J1,6,Pin_6*%
%TO.N,Net-(J1-Pad6)*%
X117000000Y-93750000D03*
%TD*%
D29*
%TO.N,Net-(J1-Pad1)*%
X106000000Y-106250000D03*
%TO.N,Net-(J1-Pad2)*%
X106000000Y-103750000D03*
%TO.N,Net-(J1-Pad4)*%
X106000000Y-98750000D03*
%TO.N,Net-(J1-Pad5)*%
X106000000Y-96250000D03*
%TO.N,Net-(J1-Pad6)*%
X106000000Y-93750000D03*
%TD*%
D30*
%TO.N,Net-(J1-Pad1)*%
X117000000Y-106250000D02*
X106000000Y-106250000D01*
%TO.N,Net-(J1-Pad2)*%
X117000000Y-103750000D02*
X106000000Y-103750000D01*
%TO.N,Net-(J1-Pad4)*%
X117000000Y-98750000D02*
X106000000Y-98750000D01*
%TO.N,Net-(J1-Pad5)*%
X117000000Y-96250000D02*
X106000000Y-96250000D01*
%TO.N,Net-(J1-Pad6)*%
X117000000Y-93750000D02*
X106000000Y-93750000D01*
%TD*%
%TA.AperFunction,Conductor*%
%TO.N,GND*%
G36*
X112987153Y-85256421D02*
G01*
X113000000Y-85258976D01*
X113012171Y-85256555D01*
X113024581Y-85256555D01*
X113024581Y-85257198D01*
X113035326Y-85256527D01*
X113239491Y-85271129D01*
X113257285Y-85273687D01*
X113483101Y-85322810D01*
X113500350Y-85327875D01*
X113583148Y-85358757D01*
X113716877Y-85408635D01*
X113733226Y-85416102D01*
X113936049Y-85526852D01*
X113951173Y-85536571D01*
X114136176Y-85675063D01*
X114149762Y-85686836D01*
X114313164Y-85850238D01*
X114324937Y-85863824D01*
X114463429Y-86048827D01*
X114473148Y-86063951D01*
X114583898Y-86266774D01*
X114591367Y-86283127D01*
X114672125Y-86499650D01*
X114677190Y-86516899D01*
X114726313Y-86742715D01*
X114728871Y-86760509D01*
X114743473Y-86964674D01*
X114742802Y-86975419D01*
X114743445Y-86975419D01*
X114743445Y-86987829D01*
X114741024Y-87000000D01*
X114743445Y-87012170D01*
X114743579Y-87012844D01*
X114746000Y-87037425D01*
X114746000Y-90962575D01*
X114743579Y-90987153D01*
X114741024Y-91000000D01*
X114746000Y-91025017D01*
X114760737Y-91099106D01*
X114816876Y-91183124D01*
X114900894Y-91239263D01*
X115000000Y-91258976D01*
X115012847Y-91256421D01*
X115037425Y-91254000D01*
X123120000Y-91254000D01*
X123188121Y-91274002D01*
X123234614Y-91327658D01*
X123246000Y-91380000D01*
X123246000Y-108620000D01*
X123225998Y-108688121D01*
X123172342Y-108734614D01*
X123120000Y-108746000D01*
X115037425Y-108746000D01*
X115012847Y-108743579D01*
X115000000Y-108741024D01*
X114987828Y-108743445D01*
X114974983Y-108746000D01*
X114900894Y-108760737D01*
X114816876Y-108816876D01*
X114760737Y-108900894D01*
X114741024Y-109000000D01*
X114743445Y-109012170D01*
X114743579Y-109012844D01*
X114746000Y-109037425D01*
X114746000Y-112962575D01*
X114743579Y-112987153D01*
X114741024Y-113000000D01*
X114743445Y-113012171D01*
X114743445Y-113024581D01*
X114742802Y-113024581D01*
X114743473Y-113035326D01*
X114728871Y-113239491D01*
X114726313Y-113257285D01*
X114677190Y-113483101D01*
X114672125Y-113500350D01*
X114591367Y-113716873D01*
X114583898Y-113733226D01*
X114473148Y-113936049D01*
X114463429Y-113951173D01*
X114324937Y-114136176D01*
X114313164Y-114149762D01*
X114149762Y-114313164D01*
X114136176Y-114324937D01*
X113951173Y-114463429D01*
X113936049Y-114473148D01*
X113733226Y-114583898D01*
X113716877Y-114591365D01*
X113583148Y-114641243D01*
X113500350Y-114672125D01*
X113483101Y-114677190D01*
X113257285Y-114726313D01*
X113239491Y-114728871D01*
X113035326Y-114743473D01*
X113024581Y-114742802D01*
X113024581Y-114743445D01*
X113012171Y-114743445D01*
X113000000Y-114741024D01*
X112987153Y-114743579D01*
X112962575Y-114746000D01*
X87037425Y-114746000D01*
X87012847Y-114743579D01*
X87000000Y-114741024D01*
X86987829Y-114743445D01*
X86975419Y-114743445D01*
X86975419Y-114742802D01*
X86964674Y-114743473D01*
X86760509Y-114728871D01*
X86742715Y-114726313D01*
X86516899Y-114677190D01*
X86499650Y-114672125D01*
X86416852Y-114641243D01*
X86283123Y-114591365D01*
X86266774Y-114583898D01*
X86063951Y-114473148D01*
X86048827Y-114463429D01*
X85863824Y-114324937D01*
X85850238Y-114313164D01*
X85686836Y-114149762D01*
X85675063Y-114136176D01*
X85536571Y-113951173D01*
X85526852Y-113936049D01*
X85416102Y-113733226D01*
X85408633Y-113716873D01*
X85327875Y-113500350D01*
X85322810Y-113483101D01*
X85273687Y-113257285D01*
X85271129Y-113239491D01*
X85256527Y-113035326D01*
X85257198Y-113024581D01*
X85256555Y-113024581D01*
X85256555Y-113012171D01*
X85258976Y-113000000D01*
X85256421Y-112987153D01*
X85254000Y-112962575D01*
X85254000Y-107350000D01*
X97050000Y-107350000D01*
X102950000Y-107350000D01*
X102950000Y-106243096D01*
X105340729Y-106243096D01*
X105358113Y-106400553D01*
X105412553Y-106549319D01*
X105500908Y-106680805D01*
X105506527Y-106685918D01*
X105506528Y-106685919D01*
X105517903Y-106696269D01*
X105618076Y-106787419D01*
X105757293Y-106863008D01*
X105910522Y-106903207D01*
X105994477Y-106904526D01*
X106061319Y-106905576D01*
X106061322Y-106905576D01*
X106068916Y-106905695D01*
X106223332Y-106870329D01*
X106293742Y-106834917D01*
X106358072Y-106802563D01*
X106358075Y-106802561D01*
X106364855Y-106799151D01*
X106370626Y-106794222D01*
X106370629Y-106794220D01*
X106479542Y-106701199D01*
X106479543Y-106701198D01*
X106485314Y-106696269D01*
X106495586Y-106681974D01*
X106551581Y-106638326D01*
X106597909Y-106629500D01*
X115694500Y-106629500D01*
X115762621Y-106649502D01*
X115809114Y-106703158D01*
X115820500Y-106755500D01*
X115820500Y-106897756D01*
X115820869Y-106901152D01*
X115820869Y-106901153D01*
X115821350Y-106905576D01*
X115827202Y-106959448D01*
X115877929Y-107094764D01*
X115883309Y-107101943D01*
X115883311Y-107101946D01*
X115949287Y-107189977D01*
X115964596Y-107210404D01*
X115971776Y-107215785D01*
X116073054Y-107291689D01*
X116073057Y-107291691D01*
X116080236Y-107297071D01*
X116169954Y-107330704D01*
X116208157Y-107345026D01*
X116208159Y-107345026D01*
X116215552Y-107347798D01*
X116223402Y-107348651D01*
X116223403Y-107348651D01*
X116235821Y-107350000D01*
X116277244Y-107354500D01*
X117722756Y-107354500D01*
X117764179Y-107350000D01*
X117776597Y-107348651D01*
X117776598Y-107348651D01*
X117784448Y-107347798D01*
X117791841Y-107345026D01*
X117791843Y-107345026D01*
X117830046Y-107330704D01*
X117919764Y-107297071D01*
X117926943Y-107291691D01*
X117926946Y-107291689D01*
X118028224Y-107215785D01*
X118035404Y-107210404D01*
X118050713Y-107189977D01*
X118116689Y-107101946D01*
X118116691Y-107101943D01*
X118122071Y-107094764D01*
X118172798Y-106959448D01*
X118178651Y-106905576D01*
X118179131Y-106901153D01*
X118179131Y-106901152D01*
X118179500Y-106897756D01*
X118179500Y-105602244D01*
X118172798Y-105540552D01*
X118122071Y-105405236D01*
X118116691Y-105398057D01*
X118116689Y-105398054D01*
X118040785Y-105296776D01*
X118035404Y-105289596D01*
X118014977Y-105274287D01*
X117926946Y-105208311D01*
X117926943Y-105208309D01*
X117919764Y-105202929D01*
X117830046Y-105169296D01*
X117791843Y-105154974D01*
X117791841Y-105154974D01*
X117784448Y-105152202D01*
X117776598Y-105151349D01*
X117776597Y-105151349D01*
X117726153Y-105145869D01*
X117726152Y-105145869D01*
X117722756Y-105145500D01*
X116277244Y-105145500D01*
X116273848Y-105145869D01*
X116273847Y-105145869D01*
X116223403Y-105151349D01*
X116223402Y-105151349D01*
X116215552Y-105152202D01*
X116208159Y-105154974D01*
X116208157Y-105154974D01*
X116169954Y-105169296D01*
X116080236Y-105202929D01*
X116073057Y-105208309D01*
X116073054Y-105208311D01*
X115985023Y-105274287D01*
X115964596Y-105289596D01*
X115959215Y-105296776D01*
X115883311Y-105398054D01*
X115883309Y-105398057D01*
X115877929Y-105405236D01*
X115827202Y-105540552D01*
X115820500Y-105602244D01*
X115820500Y-105744500D01*
X115800498Y-105812621D01*
X115746842Y-105859114D01*
X115694500Y-105870500D01*
X106599682Y-105870500D01*
X106531561Y-105850498D01*
X106505114Y-105824860D01*
X106503878Y-105825949D01*
X106498855Y-105820251D01*
X106494553Y-105813992D01*
X106376275Y-105708611D01*
X106368889Y-105704700D01*
X106242988Y-105638039D01*
X106242989Y-105638039D01*
X106236274Y-105634484D01*
X106082633Y-105595892D01*
X106075034Y-105595852D01*
X106075033Y-105595852D01*
X106009181Y-105595507D01*
X105924221Y-105595062D01*
X105916841Y-105596834D01*
X105916839Y-105596834D01*
X105777563Y-105630271D01*
X105777560Y-105630272D01*
X105770184Y-105632043D01*
X105629414Y-105704700D01*
X105510039Y-105808838D01*
X105418950Y-105938444D01*
X105361406Y-106086037D01*
X105340729Y-106243096D01*
X102950000Y-106243096D01*
X102950000Y-103743096D01*
X105340729Y-103743096D01*
X105358113Y-103900553D01*
X105360723Y-103907684D01*
X105360723Y-103907686D01*
X105401254Y-104018442D01*
X105412553Y-104049319D01*
X105500908Y-104180805D01*
X105506527Y-104185918D01*
X105506528Y-104185919D01*
X105540763Y-104217070D01*
X105618076Y-104287419D01*
X105757293Y-104363008D01*
X105910522Y-104403207D01*
X105994477Y-104404526D01*
X106061319Y-104405576D01*
X106061322Y-104405576D01*
X106068916Y-104405695D01*
X106223332Y-104370329D01*
X106293742Y-104334917D01*
X106358072Y-104302563D01*
X106358075Y-104302561D01*
X106364855Y-104299151D01*
X106370626Y-104294222D01*
X106370629Y-104294220D01*
X106479542Y-104201199D01*
X106479543Y-104201198D01*
X106485314Y-104196269D01*
X106495586Y-104181974D01*
X106551581Y-104138326D01*
X106597909Y-104129500D01*
X115803109Y-104129500D01*
X115871230Y-104149502D01*
X115917810Y-104203349D01*
X115963157Y-104303084D01*
X116085096Y-104474986D01*
X116237340Y-104620728D01*
X116242375Y-104623979D01*
X116409360Y-104731800D01*
X116409363Y-104731801D01*
X116414397Y-104735052D01*
X116609878Y-104813834D01*
X116732688Y-104837817D01*
X116812283Y-104853361D01*
X116812286Y-104853361D01*
X116816729Y-104854229D01*
X116822270Y-104854500D01*
X117127659Y-104854500D01*
X117284806Y-104839507D01*
X117487042Y-104780177D01*
X117570304Y-104737294D01*
X117669079Y-104686422D01*
X117669082Y-104686420D01*
X117674410Y-104683676D01*
X117750408Y-104623979D01*
X117835432Y-104557192D01*
X117835436Y-104557188D01*
X117840149Y-104553486D01*
X117904674Y-104479128D01*
X117974350Y-104398835D01*
X117974354Y-104398830D01*
X117978281Y-104394304D01*
X118083819Y-104211874D01*
X118152957Y-104012778D01*
X118168195Y-103907686D01*
X118182338Y-103810140D01*
X118182338Y-103810137D01*
X118183199Y-103804200D01*
X118173455Y-103593667D01*
X118136047Y-103438444D01*
X118125482Y-103394607D01*
X118125481Y-103394605D01*
X118124076Y-103388774D01*
X118115768Y-103370500D01*
X118044458Y-103213664D01*
X118036843Y-103196916D01*
X117914904Y-103025014D01*
X117762660Y-102879272D01*
X117665171Y-102816324D01*
X117590640Y-102768200D01*
X117590637Y-102768199D01*
X117585603Y-102764948D01*
X117575643Y-102760934D01*
X117560226Y-102754720D01*
X117504521Y-102710704D01*
X117481456Y-102643558D01*
X117498354Y-102574602D01*
X117555576Y-102522973D01*
X117732970Y-102443063D01*
X117742256Y-102437894D01*
X117924575Y-102315150D01*
X117932870Y-102308481D01*
X118091900Y-102156772D01*
X118098941Y-102148814D01*
X118230141Y-101972475D01*
X118235745Y-101963438D01*
X118335357Y-101767516D01*
X118339357Y-101757665D01*
X118404534Y-101547760D01*
X118406817Y-101537376D01*
X118408861Y-101521957D01*
X118406665Y-101507793D01*
X118393478Y-101504000D01*
X115608808Y-101504000D01*
X115595277Y-101507973D01*
X115593752Y-101518580D01*
X115618477Y-101636421D01*
X115621537Y-101646617D01*
X115702263Y-101851029D01*
X115706994Y-101860561D01*
X115821016Y-102048462D01*
X115827280Y-102057052D01*
X115971327Y-102223052D01*
X115978958Y-102230472D01*
X116148911Y-102369826D01*
X116157678Y-102375850D01*
X116348682Y-102484576D01*
X116358345Y-102489041D01*
X116440788Y-102518966D01*
X116497996Y-102561010D01*
X116523392Y-102627309D01*
X116508912Y-102696814D01*
X116455490Y-102749421D01*
X116325590Y-102816324D01*
X116320875Y-102820028D01*
X116164568Y-102942808D01*
X116164564Y-102942812D01*
X116159851Y-102946514D01*
X116155920Y-102951044D01*
X116155919Y-102951045D01*
X116025650Y-103101165D01*
X116025646Y-103101170D01*
X116021719Y-103105696D01*
X115916181Y-103288126D01*
X115914214Y-103293791D01*
X115912766Y-103296953D01*
X115866221Y-103350564D01*
X115798203Y-103370500D01*
X106599682Y-103370500D01*
X106531561Y-103350498D01*
X106505114Y-103324860D01*
X106503878Y-103325949D01*
X106498855Y-103320251D01*
X106494553Y-103313992D01*
X106376275Y-103208611D01*
X106368889Y-103204700D01*
X106242988Y-103138039D01*
X106242989Y-103138039D01*
X106236274Y-103134484D01*
X106082633Y-103095892D01*
X106075034Y-103095852D01*
X106075033Y-103095852D01*
X106009181Y-103095507D01*
X105924221Y-103095062D01*
X105916841Y-103096834D01*
X105916839Y-103096834D01*
X105777563Y-103130271D01*
X105777560Y-103130272D01*
X105770184Y-103132043D01*
X105629414Y-103204700D01*
X105510039Y-103308838D01*
X105418950Y-103438444D01*
X105361406Y-103586037D01*
X105360414Y-103593570D01*
X105360414Y-103593571D01*
X105360402Y-103593667D01*
X105340729Y-103743096D01*
X102950000Y-103743096D01*
X102950000Y-100050000D01*
X97050000Y-100050000D01*
X97050000Y-107350000D01*
X85254000Y-107350000D01*
X85254000Y-98743096D01*
X105340729Y-98743096D01*
X105358113Y-98900553D01*
X105360723Y-98907684D01*
X105360723Y-98907686D01*
X105401254Y-99018442D01*
X105412553Y-99049319D01*
X105500908Y-99180805D01*
X105506527Y-99185918D01*
X105506528Y-99185919D01*
X105540763Y-99217070D01*
X105618076Y-99287419D01*
X105757293Y-99363008D01*
X105910522Y-99403207D01*
X105994477Y-99404526D01*
X106061319Y-99405576D01*
X106061322Y-99405576D01*
X106068916Y-99405695D01*
X106223332Y-99370329D01*
X106293742Y-99334917D01*
X106358072Y-99302563D01*
X106358075Y-99302561D01*
X106364855Y-99299151D01*
X106370626Y-99294222D01*
X106370629Y-99294220D01*
X106479542Y-99201199D01*
X106479543Y-99201198D01*
X106485314Y-99196269D01*
X106495586Y-99181974D01*
X106551581Y-99138326D01*
X106597909Y-99129500D01*
X115803109Y-99129500D01*
X115871230Y-99149502D01*
X115917810Y-99203349D01*
X115963157Y-99303084D01*
X116085096Y-99474986D01*
X116237340Y-99620728D01*
X116242375Y-99623979D01*
X116409360Y-99731800D01*
X116409363Y-99731801D01*
X116414397Y-99735052D01*
X116419963Y-99737295D01*
X116439774Y-99745280D01*
X116495479Y-99789296D01*
X116518544Y-99856442D01*
X116501646Y-99925398D01*
X116444424Y-99977027D01*
X116267030Y-100056937D01*
X116257744Y-100062106D01*
X116075425Y-100184850D01*
X116067130Y-100191519D01*
X115908100Y-100343228D01*
X115901059Y-100351186D01*
X115769859Y-100527525D01*
X115764255Y-100536562D01*
X115664643Y-100732484D01*
X115660643Y-100742335D01*
X115595466Y-100952240D01*
X115593183Y-100962624D01*
X115591139Y-100978043D01*
X115593335Y-100992207D01*
X115606522Y-100996000D01*
X118391192Y-100996000D01*
X118404723Y-100992027D01*
X118406248Y-100981420D01*
X118381523Y-100863579D01*
X118378463Y-100853383D01*
X118297737Y-100648971D01*
X118293006Y-100639439D01*
X118178984Y-100451538D01*
X118172720Y-100442948D01*
X118028673Y-100276948D01*
X118021042Y-100269528D01*
X117851089Y-100130174D01*
X117842322Y-100124150D01*
X117651318Y-100015424D01*
X117641655Y-100010959D01*
X117559212Y-99981034D01*
X117502004Y-99938990D01*
X117476608Y-99872691D01*
X117491088Y-99803186D01*
X117544510Y-99750579D01*
X117545350Y-99750147D01*
X117674410Y-99683676D01*
X117750408Y-99623979D01*
X117835432Y-99557192D01*
X117835436Y-99557188D01*
X117840149Y-99553486D01*
X117904674Y-99479128D01*
X117974350Y-99398835D01*
X117974354Y-99398830D01*
X117978281Y-99394304D01*
X118083819Y-99211874D01*
X118152957Y-99012778D01*
X118168195Y-98907686D01*
X118182338Y-98810140D01*
X118182338Y-98810137D01*
X118183199Y-98804200D01*
X118173455Y-98593667D01*
X118136047Y-98438444D01*
X118125482Y-98394607D01*
X118125481Y-98394605D01*
X118124076Y-98388774D01*
X118115768Y-98370500D01*
X118044458Y-98213664D01*
X118036843Y-98196916D01*
X117914904Y-98025014D01*
X117762660Y-97879272D01*
X117660918Y-97813578D01*
X117590640Y-97768200D01*
X117590637Y-97768199D01*
X117585603Y-97764948D01*
X117390122Y-97686166D01*
X117255739Y-97659923D01*
X117187717Y-97646639D01*
X117187714Y-97646639D01*
X117183271Y-97645771D01*
X117177730Y-97645500D01*
X116872341Y-97645500D01*
X116715194Y-97660493D01*
X116512958Y-97719823D01*
X116507619Y-97722573D01*
X116330921Y-97813578D01*
X116330918Y-97813580D01*
X116325590Y-97816324D01*
X116320875Y-97820028D01*
X116164568Y-97942808D01*
X116164564Y-97942812D01*
X116159851Y-97946514D01*
X116155920Y-97951044D01*
X116155919Y-97951045D01*
X116025650Y-98101165D01*
X116025646Y-98101170D01*
X116021719Y-98105696D01*
X115916181Y-98288126D01*
X115914214Y-98293791D01*
X115912766Y-98296953D01*
X115866221Y-98350564D01*
X115798203Y-98370500D01*
X106599682Y-98370500D01*
X106531561Y-98350498D01*
X106505114Y-98324860D01*
X106503878Y-98325949D01*
X106498855Y-98320251D01*
X106494553Y-98313992D01*
X106376275Y-98208611D01*
X106368889Y-98204700D01*
X106242988Y-98138039D01*
X106242989Y-98138039D01*
X106236274Y-98134484D01*
X106082633Y-98095892D01*
X106075034Y-98095852D01*
X106075033Y-98095852D01*
X106009181Y-98095507D01*
X105924221Y-98095062D01*
X105916841Y-98096834D01*
X105916839Y-98096834D01*
X105777563Y-98130271D01*
X105777560Y-98130272D01*
X105770184Y-98132043D01*
X105629414Y-98204700D01*
X105510039Y-98308838D01*
X105418950Y-98438444D01*
X105361406Y-98586037D01*
X105360414Y-98593570D01*
X105360414Y-98593571D01*
X105360402Y-98593667D01*
X105340729Y-98743096D01*
X85254000Y-98743096D01*
X85254000Y-97181221D01*
X97216218Y-97181221D01*
X97217423Y-97191559D01*
X97217423Y-97191560D01*
X97227844Y-97280953D01*
X97230827Y-97306547D01*
X97246855Y-97340077D01*
X97280752Y-97410990D01*
X97280754Y-97410992D01*
X97285243Y-97420384D01*
X97373599Y-97510458D01*
X97486369Y-97567055D01*
X97611390Y-97584072D01*
X97621610Y-97582058D01*
X97621611Y-97582058D01*
X97724964Y-97561690D01*
X97735184Y-97559676D01*
X97808682Y-97517158D01*
X97837545Y-97500461D01*
X97837547Y-97500459D01*
X97844400Y-97496495D01*
X97848380Y-97492592D01*
X98799335Y-96383145D01*
X98858853Y-96344441D01*
X98929848Y-96344060D01*
X98989780Y-96382122D01*
X99019619Y-96446544D01*
X99021000Y-96465145D01*
X99021000Y-97160256D01*
X99019449Y-97179966D01*
X99016276Y-97200000D01*
X99017194Y-97205797D01*
X99033905Y-97396798D01*
X99061419Y-97499483D01*
X99079807Y-97568107D01*
X99085034Y-97587616D01*
X99087357Y-97592597D01*
X99087357Y-97592598D01*
X99166196Y-97761670D01*
X99166199Y-97761675D01*
X99168522Y-97766657D01*
X99281832Y-97928480D01*
X99421520Y-98068168D01*
X99583344Y-98181478D01*
X99588322Y-98183799D01*
X99588325Y-98183801D01*
X99757402Y-98262643D01*
X99762384Y-98264966D01*
X99767692Y-98266388D01*
X99767694Y-98266389D01*
X99947887Y-98314671D01*
X99947888Y-98314671D01*
X99953202Y-98316095D01*
X100150000Y-98333313D01*
X100346798Y-98316095D01*
X100352112Y-98314671D01*
X100352113Y-98314671D01*
X100532306Y-98266389D01*
X100532308Y-98266388D01*
X100537616Y-98264966D01*
X100542598Y-98262643D01*
X100711670Y-98183804D01*
X100711675Y-98183801D01*
X100716657Y-98181478D01*
X100838886Y-98095892D01*
X100873969Y-98071327D01*
X100873972Y-98071325D01*
X100878480Y-98068168D01*
X101018168Y-97928480D01*
X101131478Y-97766657D01*
X101133801Y-97761675D01*
X101133804Y-97761670D01*
X101212643Y-97592598D01*
X101212643Y-97592597D01*
X101214966Y-97587616D01*
X101220194Y-97568107D01*
X101238581Y-97499483D01*
X101266095Y-97396798D01*
X101282806Y-97205797D01*
X101283724Y-97200000D01*
X101271683Y-97123979D01*
X101266494Y-97091214D01*
X101266494Y-97091213D01*
X101264943Y-97081423D01*
X101210439Y-96974453D01*
X101125547Y-96889561D01*
X101018577Y-96835057D01*
X101008787Y-96833506D01*
X101008786Y-96833506D01*
X100909792Y-96817827D01*
X100900000Y-96816276D01*
X100890208Y-96817827D01*
X100791214Y-96833506D01*
X100791213Y-96833506D01*
X100781423Y-96835057D01*
X100766666Y-96842576D01*
X100696891Y-96855681D01*
X100631106Y-96828983D01*
X100609500Y-96807014D01*
X100598673Y-96792904D01*
X100598669Y-96792900D01*
X100593646Y-96786354D01*
X100469563Y-96691142D01*
X100325065Y-96631289D01*
X100170000Y-96610874D01*
X100014935Y-96631289D01*
X100007303Y-96634450D01*
X100007304Y-96634450D01*
X99953218Y-96656853D01*
X99882628Y-96664442D01*
X99819141Y-96632663D01*
X99782914Y-96571605D01*
X99779000Y-96540444D01*
X99779000Y-95605000D01*
X99799002Y-95536879D01*
X99852658Y-95490386D01*
X99905000Y-95479000D01*
X100640119Y-95479000D01*
X100708240Y-95499002D01*
X100742648Y-95531763D01*
X101245364Y-96235565D01*
X102096973Y-97427818D01*
X102109897Y-97445912D01*
X102176530Y-97512573D01*
X102289826Y-97568107D01*
X102343402Y-97574887D01*
X102404670Y-97582640D01*
X102404673Y-97582640D01*
X102415002Y-97583947D01*
X102425197Y-97581838D01*
X102425199Y-97581838D01*
X102528368Y-97560497D01*
X102528371Y-97560496D01*
X102538561Y-97558388D01*
X102647179Y-97494184D01*
X102729144Y-97398256D01*
X102775617Y-97280953D01*
X102777686Y-97237294D01*
X102781095Y-97165325D01*
X102781588Y-97154920D01*
X102757688Y-97072590D01*
X102748621Y-97041359D01*
X102748620Y-97041358D01*
X102746411Y-97033747D01*
X102743575Y-97028949D01*
X102182252Y-96243096D01*
X105340729Y-96243096D01*
X105358113Y-96400553D01*
X105360723Y-96407684D01*
X105360723Y-96407686D01*
X105401254Y-96518442D01*
X105412553Y-96549319D01*
X105416789Y-96555622D01*
X105416789Y-96555623D01*
X105489913Y-96664442D01*
X105500908Y-96680805D01*
X105506527Y-96685918D01*
X105506528Y-96685919D01*
X105540763Y-96717070D01*
X105618076Y-96787419D01*
X105757293Y-96863008D01*
X105910522Y-96903207D01*
X105994477Y-96904526D01*
X106061319Y-96905576D01*
X106061322Y-96905576D01*
X106068916Y-96905695D01*
X106223332Y-96870329D01*
X106327722Y-96817827D01*
X106358072Y-96802563D01*
X106358075Y-96802561D01*
X106364855Y-96799151D01*
X106370626Y-96794222D01*
X106370629Y-96794220D01*
X106479542Y-96701199D01*
X106479543Y-96701198D01*
X106485314Y-96696269D01*
X106495586Y-96681974D01*
X106551581Y-96638326D01*
X106597909Y-96629500D01*
X115803109Y-96629500D01*
X115871230Y-96649502D01*
X115917810Y-96703349D01*
X115963157Y-96803084D01*
X116085096Y-96974986D01*
X116237340Y-97120728D01*
X116242375Y-97123979D01*
X116409360Y-97231800D01*
X116409363Y-97231801D01*
X116414397Y-97235052D01*
X116609878Y-97313834D01*
X116732688Y-97337817D01*
X116812283Y-97353361D01*
X116812286Y-97353361D01*
X116816729Y-97354229D01*
X116822270Y-97354500D01*
X117127659Y-97354500D01*
X117284806Y-97339507D01*
X117487042Y-97280177D01*
X117570304Y-97237294D01*
X117669079Y-97186422D01*
X117669082Y-97186420D01*
X117674410Y-97183676D01*
X117750408Y-97123979D01*
X117835432Y-97057192D01*
X117835436Y-97057188D01*
X117840149Y-97053486D01*
X117844081Y-97048955D01*
X117974350Y-96898835D01*
X117974354Y-96898830D01*
X117978281Y-96894304D01*
X118083819Y-96711874D01*
X118152957Y-96512778D01*
X118159864Y-96465145D01*
X118182338Y-96310140D01*
X118182338Y-96310137D01*
X118183199Y-96304200D01*
X118173455Y-96093667D01*
X118136047Y-95938444D01*
X118125482Y-95894607D01*
X118125481Y-95894605D01*
X118124076Y-95888774D01*
X118115768Y-95870500D01*
X118044458Y-95713664D01*
X118036843Y-95696916D01*
X117942743Y-95564259D01*
X117918370Y-95529900D01*
X117918369Y-95529899D01*
X117914904Y-95525014D01*
X117762660Y-95379272D01*
X117660918Y-95313578D01*
X117590640Y-95268200D01*
X117590637Y-95268199D01*
X117585603Y-95264948D01*
X117390122Y-95186166D01*
X117247454Y-95158305D01*
X117187717Y-95146639D01*
X117187714Y-95146639D01*
X117183271Y-95145771D01*
X117177730Y-95145500D01*
X116872341Y-95145500D01*
X116715194Y-95160493D01*
X116512958Y-95219823D01*
X116507619Y-95222573D01*
X116330921Y-95313578D01*
X116330918Y-95313580D01*
X116325590Y-95316324D01*
X116320875Y-95320028D01*
X116164568Y-95442808D01*
X116164564Y-95442812D01*
X116159851Y-95446514D01*
X116155920Y-95451044D01*
X116155919Y-95451045D01*
X116025650Y-95601165D01*
X116025646Y-95601170D01*
X116021719Y-95605696D01*
X115916181Y-95788126D01*
X115914214Y-95793791D01*
X115912766Y-95796953D01*
X115866221Y-95850564D01*
X115798203Y-95870500D01*
X106599682Y-95870500D01*
X106531561Y-95850498D01*
X106505114Y-95824860D01*
X106503878Y-95825949D01*
X106498855Y-95820251D01*
X106494553Y-95813992D01*
X106376275Y-95708611D01*
X106368889Y-95704700D01*
X106242988Y-95638039D01*
X106242989Y-95638039D01*
X106236274Y-95634484D01*
X106082633Y-95595892D01*
X106075034Y-95595852D01*
X106075033Y-95595852D01*
X106009181Y-95595507D01*
X105924221Y-95595062D01*
X105916841Y-95596834D01*
X105916839Y-95596834D01*
X105777563Y-95630271D01*
X105777560Y-95630272D01*
X105770184Y-95632043D01*
X105629414Y-95704700D01*
X105510039Y-95808838D01*
X105418950Y-95938444D01*
X105361406Y-96086037D01*
X105360414Y-96093570D01*
X105360414Y-96093571D01*
X105356338Y-96124535D01*
X105340729Y-96243096D01*
X102182252Y-96243096D01*
X101876506Y-95815052D01*
X101215628Y-94889823D01*
X101212306Y-94884935D01*
X101184197Y-94841401D01*
X101178172Y-94836651D01*
X101173630Y-94831026D01*
X101080753Y-94700998D01*
X100396537Y-93743096D01*
X105340729Y-93743096D01*
X105358113Y-93900553D01*
X105360723Y-93907684D01*
X105360723Y-93907686D01*
X105401254Y-94018442D01*
X105412553Y-94049319D01*
X105500908Y-94180805D01*
X105506527Y-94185918D01*
X105506528Y-94185919D01*
X105540763Y-94217070D01*
X105618076Y-94287419D01*
X105757293Y-94363008D01*
X105910522Y-94403207D01*
X105994477Y-94404526D01*
X106061319Y-94405576D01*
X106061322Y-94405576D01*
X106068916Y-94405695D01*
X106223332Y-94370329D01*
X106293742Y-94334917D01*
X106358072Y-94302563D01*
X106358075Y-94302561D01*
X106364855Y-94299151D01*
X106370626Y-94294222D01*
X106370629Y-94294220D01*
X106479542Y-94201199D01*
X106479543Y-94201198D01*
X106485314Y-94196269D01*
X106495586Y-94181974D01*
X106551581Y-94138326D01*
X106597909Y-94129500D01*
X115803109Y-94129500D01*
X115871230Y-94149502D01*
X115917810Y-94203349D01*
X115963157Y-94303084D01*
X116085096Y-94474986D01*
X116237340Y-94620728D01*
X116242375Y-94623979D01*
X116409360Y-94731800D01*
X116409363Y-94731801D01*
X116414397Y-94735052D01*
X116609878Y-94813834D01*
X116732688Y-94837817D01*
X116812283Y-94853361D01*
X116812286Y-94853361D01*
X116816729Y-94854229D01*
X116822270Y-94854500D01*
X117127659Y-94854500D01*
X117284806Y-94839507D01*
X117297763Y-94835706D01*
X117481278Y-94781868D01*
X117487042Y-94780177D01*
X117570304Y-94737294D01*
X117669079Y-94686422D01*
X117669082Y-94686420D01*
X117674410Y-94683676D01*
X117750408Y-94623979D01*
X117835432Y-94557192D01*
X117835436Y-94557188D01*
X117840149Y-94553486D01*
X117904674Y-94479128D01*
X117974350Y-94398835D01*
X117974354Y-94398830D01*
X117978281Y-94394304D01*
X118083819Y-94211874D01*
X118152957Y-94012778D01*
X118168195Y-93907686D01*
X118182338Y-93810140D01*
X118182338Y-93810137D01*
X118183199Y-93804200D01*
X118173455Y-93593667D01*
X118136047Y-93438444D01*
X118125482Y-93394607D01*
X118125481Y-93394605D01*
X118124076Y-93388774D01*
X118115768Y-93370500D01*
X118044458Y-93213664D01*
X118036843Y-93196916D01*
X117914904Y-93025014D01*
X117804209Y-92919047D01*
X117766990Y-92883417D01*
X117762660Y-92879272D01*
X117685066Y-92829170D01*
X117590640Y-92768200D01*
X117590637Y-92768199D01*
X117585603Y-92764948D01*
X117571949Y-92759445D01*
X117395685Y-92688408D01*
X117390122Y-92686166D01*
X117237551Y-92656371D01*
X117187717Y-92646639D01*
X117187714Y-92646639D01*
X117183271Y-92645771D01*
X117177730Y-92645500D01*
X116872341Y-92645500D01*
X116715194Y-92660493D01*
X116709434Y-92662183D01*
X116709433Y-92662183D01*
X116631600Y-92685017D01*
X116512958Y-92719823D01*
X116442320Y-92756204D01*
X116330921Y-92813578D01*
X116330918Y-92813580D01*
X116325590Y-92816324D01*
X116290267Y-92844071D01*
X116164568Y-92942808D01*
X116164564Y-92942812D01*
X116159851Y-92946514D01*
X116155920Y-92951044D01*
X116155919Y-92951045D01*
X116025650Y-93101165D01*
X116025646Y-93101170D01*
X116021719Y-93105696D01*
X115916181Y-93288126D01*
X115914214Y-93293791D01*
X115912766Y-93296953D01*
X115866221Y-93350564D01*
X115798203Y-93370500D01*
X106599682Y-93370500D01*
X106531561Y-93350498D01*
X106505114Y-93324860D01*
X106503878Y-93325949D01*
X106498855Y-93320251D01*
X106494553Y-93313992D01*
X106488459Y-93308562D01*
X106381946Y-93213664D01*
X106376275Y-93208611D01*
X106368889Y-93204700D01*
X106242988Y-93138039D01*
X106242989Y-93138039D01*
X106236274Y-93134484D01*
X106082633Y-93095892D01*
X106075034Y-93095852D01*
X106075033Y-93095852D01*
X106009181Y-93095507D01*
X105924221Y-93095062D01*
X105916841Y-93096834D01*
X105916839Y-93096834D01*
X105777563Y-93130271D01*
X105777560Y-93130272D01*
X105770184Y-93132043D01*
X105629414Y-93204700D01*
X105510039Y-93308838D01*
X105418950Y-93438444D01*
X105361406Y-93586037D01*
X105360414Y-93593570D01*
X105360414Y-93593571D01*
X105360402Y-93593667D01*
X105340729Y-93743096D01*
X100396537Y-93743096D01*
X99726966Y-92805697D01*
X99718609Y-92792294D01*
X99708556Y-92773663D01*
X99703610Y-92764496D01*
X99664606Y-92728441D01*
X99661021Y-92724992D01*
X99630834Y-92694792D01*
X99630830Y-92694789D01*
X99623470Y-92687426D01*
X99616585Y-92684051D01*
X99610957Y-92678849D01*
X99562355Y-92657362D01*
X99557921Y-92655297D01*
X99510174Y-92631893D01*
X99502568Y-92630930D01*
X99495557Y-92627831D01*
X99450519Y-92623930D01*
X99442643Y-92623248D01*
X99437695Y-92622721D01*
X99433904Y-92622241D01*
X99384998Y-92616052D01*
X99377492Y-92617605D01*
X99369853Y-92616943D01*
X99359745Y-92619454D01*
X99359743Y-92619454D01*
X99318298Y-92629749D01*
X99313448Y-92630853D01*
X99261439Y-92641612D01*
X99254840Y-92645513D01*
X99247399Y-92647361D01*
X99205152Y-92674640D01*
X99202772Y-92676177D01*
X99198537Y-92678794D01*
X99161785Y-92700517D01*
X99161783Y-92700519D01*
X99152821Y-92705816D01*
X99147840Y-92711645D01*
X99141401Y-92715803D01*
X99134954Y-92723981D01*
X99134953Y-92723982D01*
X99108521Y-92757512D01*
X99105368Y-92761353D01*
X99070856Y-92801743D01*
X99068032Y-92808871D01*
X99063287Y-92814890D01*
X99059836Y-92824717D01*
X99045693Y-92864991D01*
X99043955Y-92869646D01*
X99024383Y-92919047D01*
X99024020Y-92926708D01*
X99021481Y-92933938D01*
X99021000Y-92939491D01*
X99021000Y-92987467D01*
X99020859Y-92993430D01*
X99018412Y-93045080D01*
X99020570Y-93052512D01*
X99021000Y-93059827D01*
X99021000Y-93783991D01*
X99000998Y-93852112D01*
X98947342Y-93898605D01*
X98877068Y-93908709D01*
X98812488Y-93879215D01*
X98801345Y-93868281D01*
X97864119Y-92826919D01*
X97864118Y-92826918D01*
X97860644Y-92823058D01*
X97855756Y-92819161D01*
X97795090Y-92770796D01*
X97795088Y-92770795D01*
X97786945Y-92764303D01*
X97668128Y-92721847D01*
X97657716Y-92721708D01*
X97657714Y-92721708D01*
X97605046Y-92721008D01*
X97541964Y-92720168D01*
X97422059Y-92759445D01*
X97413746Y-92765717D01*
X97413747Y-92765717D01*
X97329653Y-92829170D01*
X97329652Y-92829171D01*
X97321340Y-92835443D01*
X97291708Y-92879272D01*
X97262821Y-92921998D01*
X97250670Y-92939970D01*
X97247946Y-92950022D01*
X97247945Y-92950024D01*
X97228746Y-93020872D01*
X97217667Y-93061752D01*
X97225891Y-93187658D01*
X97274456Y-93304112D01*
X97277813Y-93308562D01*
X98821564Y-95023841D01*
X98852266Y-95087854D01*
X98843486Y-95158305D01*
X98823574Y-95190129D01*
X97300164Y-96967442D01*
X97291750Y-96977258D01*
X97242992Y-97057920D01*
X97240783Y-97068091D01*
X97240783Y-97068092D01*
X97237888Y-97081423D01*
X97216218Y-97181221D01*
X85254000Y-97181221D01*
X85254000Y-87037425D01*
X85256421Y-87012844D01*
X85256555Y-87012170D01*
X85258976Y-87000000D01*
X85256555Y-86987829D01*
X85256555Y-86975419D01*
X85257198Y-86975419D01*
X85256527Y-86964674D01*
X85271129Y-86760509D01*
X85273687Y-86742715D01*
X85322810Y-86516899D01*
X85327875Y-86499650D01*
X85408633Y-86283127D01*
X85416102Y-86266774D01*
X85526852Y-86063951D01*
X85536571Y-86048827D01*
X85675063Y-85863824D01*
X85686836Y-85850238D01*
X85850238Y-85686836D01*
X85863824Y-85675063D01*
X86048827Y-85536571D01*
X86063951Y-85526852D01*
X86266774Y-85416102D01*
X86283123Y-85408635D01*
X86416852Y-85358757D01*
X86499650Y-85327875D01*
X86516899Y-85322810D01*
X86742715Y-85273687D01*
X86760509Y-85271129D01*
X86964674Y-85256527D01*
X86975419Y-85257198D01*
X86975419Y-85256555D01*
X86987829Y-85256555D01*
X87000000Y-85258976D01*
X87012847Y-85256421D01*
X87037425Y-85254000D01*
X112962575Y-85254000D01*
X112987153Y-85256421D01*
G37*
%TD.AperFunction*%
%TD*%
M02*
