%TF.GenerationSoftware,KiCad,Pcbnew,(6.0.2-0)*%
%TF.CreationDate,2022-03-20T17:02:53+00:00*%
%TF.ProjectId,Display,44697370-6c61-4792-9e6b-696361645f70,5*%
%TF.SameCoordinates,Original*%
%TF.FileFunction,Copper,L2,Bot*%
%TF.FilePolarity,Positive*%
%FSLAX46Y46*%
G04 Gerber Fmt 4.6, Leading zero omitted, Abs format (unit mm)*
G04 Created by KiCad (PCBNEW (6.0.2-0)) date 2022-03-20 17:02:53*
%MOMM*%
%LPD*%
G01*
G04 APERTURE LIST*
G04 Aperture macros list*
%AMRoundRect*
0 Rectangle with rounded corners*
0 $1 Rounding radius*
0 $2 $3 $4 $5 $6 $7 $8 $9 X,Y pos of 4 corners*
0 Add a 4 corners polygon primitive as box body*
4,1,4,$2,$3,$4,$5,$6,$7,$8,$9,$2,$3,0*
0 Add four circle primitives for the rounded corners*
1,1,$1+$1,$2,$3*
1,1,$1+$1,$4,$5*
1,1,$1+$1,$6,$7*
1,1,$1+$1,$8,$9*
0 Add four rect primitives between the rounded corners*
20,1,$1+$1,$2,$3,$4,$5,0*
20,1,$1+$1,$4,$5,$6,$7,0*
20,1,$1+$1,$6,$7,$8,$9,0*
20,1,$1+$1,$8,$9,$2,$3,0*%
G04 Aperture macros list end*
%ADD10C,0.100000*%
%TA.AperFunction,NonConductor*%
%ADD11C,0.100000*%
%TD*%
%TA.AperFunction,ComponentPad*%
%ADD12C,0.670000*%
%TD*%
%TA.AperFunction,ComponentPad*%
%ADD13C,1.250000*%
%TD*%
%TA.AperFunction,ComponentPad*%
%ADD14C,1.500000*%
%TD*%
%TA.AperFunction,ComponentPad*%
%ADD15C,1.700000*%
%TD*%
%TA.AperFunction,ComponentPad*%
%ADD16RoundRect,0.250000X-0.600000X-0.675000X0.600000X-0.675000X0.600000X0.675000X-0.600000X0.675000X0*%
%TD*%
%TA.AperFunction,ComponentPad*%
%ADD17O,1.700000X1.850000*%
%TD*%
%TA.AperFunction,SMDPad,CuDef*%
%ADD18R,1.400000X0.200000*%
%TD*%
%TA.AperFunction,SMDPad,CuDef*%
%ADD19R,0.800000X0.200000*%
%TD*%
%TA.AperFunction,SMDPad,CuDef*%
%ADD20R,0.200000X1.200000*%
%TD*%
%TA.AperFunction,SMDPad,CuDef*%
%ADD21R,0.400000X0.200000*%
%TD*%
%TA.AperFunction,SMDPad,CuDef*%
%ADD22R,0.200000X0.800000*%
%TD*%
%TA.AperFunction,SMDPad,CuDef*%
%ADD23R,0.600000X0.600000*%
%TD*%
%TA.AperFunction,SMDPad,CuDef*%
%ADD24R,0.600000X0.400000*%
%TD*%
%TA.AperFunction,SMDPad,CuDef*%
%ADD25R,0.600000X0.200000*%
%TD*%
%TA.AperFunction,SMDPad,CuDef*%
%ADD26R,1.000000X0.200000*%
%TD*%
%TA.AperFunction,SMDPad,CuDef*%
%ADD27R,0.200000X0.200000*%
%TD*%
%TA.AperFunction,SMDPad,CuDef*%
%ADD28R,0.200000X0.600000*%
%TD*%
%TA.AperFunction,SMDPad,CuDef*%
%ADD29R,0.200000X0.400000*%
%TD*%
%TA.AperFunction,SMDPad,CuDef*%
%ADD30R,0.200000X1.400000*%
%TD*%
%TA.AperFunction,SMDPad,CuDef*%
%ADD31R,2.500000X5.100000*%
%TD*%
%TA.AperFunction,SMDPad,CuDef*%
%ADD32C,17.800000*%
%TD*%
%TA.AperFunction,ViaPad*%
%ADD33C,0.800000*%
%TD*%
%TA.AperFunction,Conductor*%
%ADD34C,0.250000*%
%TD*%
%TA.AperFunction,Conductor*%
%ADD35C,0.500000*%
%TD*%
G04 APERTURE END LIST*
D10*
%TO.C,U5*%
D11*
X90428571Y-145173809D02*
X90404761Y-145150000D01*
X90357142Y-145126190D01*
X90238095Y-145126190D01*
X90190476Y-145150000D01*
X90166666Y-145173809D01*
X90142857Y-145221428D01*
X90142857Y-145269047D01*
X90166666Y-145340476D01*
X90452380Y-145626190D01*
X90142857Y-145626190D01*
X89833333Y-145126190D02*
X89785714Y-145126190D01*
X89738095Y-145150000D01*
X89714285Y-145173809D01*
X89690476Y-145221428D01*
X89666666Y-145316666D01*
X89666666Y-145435714D01*
X89690476Y-145530952D01*
X89714285Y-145578571D01*
X89738095Y-145602380D01*
X89785714Y-145626190D01*
X89833333Y-145626190D01*
X89880952Y-145602380D01*
X89904761Y-145578571D01*
X89928571Y-145530952D01*
X89952380Y-145435714D01*
X89952380Y-145316666D01*
X89928571Y-145221428D01*
X89904761Y-145173809D01*
X89880952Y-145150000D01*
X89833333Y-145126190D01*
X89476190Y-145173809D02*
X89452380Y-145150000D01*
X89404761Y-145126190D01*
X89285714Y-145126190D01*
X89238095Y-145150000D01*
X89214285Y-145173809D01*
X89190476Y-145221428D01*
X89190476Y-145269047D01*
X89214285Y-145340476D01*
X89500000Y-145626190D01*
X89190476Y-145626190D01*
X89000000Y-145173809D02*
X88976190Y-145150000D01*
X88928571Y-145126190D01*
X88809523Y-145126190D01*
X88761904Y-145150000D01*
X88738095Y-145173809D01*
X88714285Y-145221428D01*
X88714285Y-145269047D01*
X88738095Y-145340476D01*
X89023809Y-145626190D01*
X88714285Y-145626190D01*
X88500000Y-145435714D02*
X88119047Y-145435714D01*
X87785714Y-145126190D02*
X87738095Y-145126190D01*
X87690476Y-145150000D01*
X87666666Y-145173809D01*
X87642857Y-145221428D01*
X87619047Y-145316666D01*
X87619047Y-145435714D01*
X87642857Y-145530952D01*
X87666666Y-145578571D01*
X87690476Y-145602380D01*
X87738095Y-145626190D01*
X87785714Y-145626190D01*
X87833333Y-145602380D01*
X87857142Y-145578571D01*
X87880952Y-145530952D01*
X87904761Y-145435714D01*
X87904761Y-145316666D01*
X87880952Y-145221428D01*
X87857142Y-145173809D01*
X87833333Y-145150000D01*
X87785714Y-145126190D01*
X87452380Y-145126190D02*
X87142857Y-145126190D01*
X87309523Y-145316666D01*
X87238095Y-145316666D01*
X87190476Y-145340476D01*
X87166666Y-145364285D01*
X87142857Y-145411904D01*
X87142857Y-145530952D01*
X87166666Y-145578571D01*
X87190476Y-145602380D01*
X87238095Y-145626190D01*
X87380952Y-145626190D01*
X87428571Y-145602380D01*
X87452380Y-145578571D01*
X86928571Y-145435714D02*
X86547619Y-145435714D01*
X86333333Y-145173809D02*
X86309523Y-145150000D01*
X86261904Y-145126190D01*
X86142857Y-145126190D01*
X86095238Y-145150000D01*
X86071428Y-145173809D01*
X86047619Y-145221428D01*
X86047619Y-145269047D01*
X86071428Y-145340476D01*
X86357142Y-145626190D01*
X86047619Y-145626190D01*
X85738095Y-145126190D02*
X85690476Y-145126190D01*
X85642857Y-145150000D01*
X85619047Y-145173809D01*
X85595238Y-145221428D01*
X85571428Y-145316666D01*
X85571428Y-145435714D01*
X85595238Y-145530952D01*
X85619047Y-145578571D01*
X85642857Y-145602380D01*
X85690476Y-145626190D01*
X85738095Y-145626190D01*
X85785714Y-145602380D01*
X85809523Y-145578571D01*
X85833333Y-145530952D01*
X85857142Y-145435714D01*
X85857142Y-145316666D01*
X85833333Y-145221428D01*
X85809523Y-145173809D01*
X85785714Y-145150000D01*
X85738095Y-145126190D01*
%TD*%
D12*
%TO.P,J2,S1,SHIELD*%
%TO.N,GND*%
X90890000Y-146210000D03*
D13*
X92320000Y-149890000D03*
D14*
X83680000Y-145720000D03*
X92320000Y-145720000D03*
D12*
X85110000Y-146210000D03*
D13*
X83680000Y-149890000D03*
%TD*%
D15*
%TO.P,M1,1,Vcc*%
%TO.N,+3V3*%
X120000000Y-141120000D03*
%TO.P,M1,2,GND*%
%TO.N,GND*%
X120000000Y-138580000D03*
%TO.P,M1,3,DIN*%
%TO.N,OLED-MOSI*%
X120000000Y-136040000D03*
%TO.P,M1,4,CLK*%
%TO.N,OLED-SCLK*%
X120000000Y-133500000D03*
%TO.P,M1,5,CS*%
%TO.N,OLED-CS0*%
X120000000Y-130960000D03*
%TO.P,M1,6,DC*%
%TO.N,OLED-DC*%
X120000000Y-128420000D03*
%TO.P,M1,7,RST*%
%TO.N,OLED-RST*%
X120000000Y-125880000D03*
%TD*%
D16*
%TO.P,J1,1,GND*%
%TO.N,GND*%
X95250000Y-145400000D03*
D17*
%TO.P,J1,2,DC*%
%TO.N,DC*%
X97750000Y-145400000D03*
%TD*%
D18*
%TO.P,U5,*%
%TO.N,*%
X86600000Y-147000000D03*
D19*
X87900000Y-147000000D03*
D18*
X89400000Y-147000000D03*
D20*
X86000000Y-147700000D03*
X87200000Y-147700000D03*
D21*
X87900000Y-147200000D03*
D22*
X88400000Y-147500000D03*
D20*
X88800000Y-147700000D03*
X90000000Y-147700000D03*
D23*
X86600000Y-147600000D03*
D21*
X87700000Y-147400000D03*
D23*
X89400000Y-147600000D03*
D24*
X88000000Y-147700000D03*
D25*
X87800000Y-148000000D03*
D26*
X86600000Y-148200000D03*
D27*
X87600000Y-148200000D03*
D22*
X88000000Y-148500000D03*
D27*
X88400000Y-148200000D03*
D26*
X89400000Y-148200000D03*
D27*
X86000000Y-148600000D03*
D28*
X86400000Y-148800000D03*
D21*
X87300000Y-148600000D03*
D29*
X87800000Y-148700000D03*
D21*
X88300000Y-148600000D03*
D27*
X89000000Y-148600000D03*
D29*
X89600000Y-148700000D03*
X90000000Y-148700000D03*
D28*
X87000000Y-149000000D03*
D21*
X88700000Y-148800000D03*
D27*
X89200000Y-148800000D03*
D28*
X86000000Y-149200000D03*
D21*
X86700000Y-149000000D03*
X87300000Y-149000000D03*
D22*
X89400000Y-149300000D03*
D30*
X89800000Y-149600000D03*
D27*
X86200000Y-149200000D03*
X86600000Y-149200000D03*
X87800000Y-149200000D03*
X88400000Y-149200000D03*
X88800000Y-149200000D03*
X86800000Y-149400000D03*
D25*
X87400000Y-149400000D03*
D27*
X88200000Y-149400000D03*
X88600000Y-149400000D03*
X89000000Y-149400000D03*
D29*
X90000000Y-149500000D03*
D24*
X87800000Y-149700000D03*
D27*
X88400000Y-149600000D03*
X88800000Y-149600000D03*
D18*
X86600000Y-149800000D03*
D29*
X88200000Y-149900000D03*
X88600000Y-149900000D03*
D21*
X89100000Y-149800000D03*
D27*
X89600000Y-149800000D03*
D20*
X86000000Y-150500000D03*
X87200000Y-150500000D03*
D27*
X89000000Y-150000000D03*
D22*
X89400000Y-150300000D03*
D23*
X86600000Y-150400000D03*
D21*
X87900000Y-150200000D03*
D27*
X88400000Y-150200000D03*
X88800000Y-150200000D03*
X89200000Y-150200000D03*
X89600000Y-150200000D03*
X88200000Y-150400000D03*
X88600000Y-150400000D03*
X89000000Y-150400000D03*
X87600000Y-150600000D03*
X88000000Y-150600000D03*
D28*
X88400000Y-150800000D03*
X88800000Y-150800000D03*
D21*
X89900000Y-150600000D03*
D27*
X88200000Y-150800000D03*
X88600000Y-150800000D03*
X89000000Y-150800000D03*
D29*
X90000000Y-150900000D03*
D26*
X86600000Y-151000000D03*
D27*
X87600000Y-151000000D03*
X88000000Y-151000000D03*
X89800000Y-151000000D03*
%TD*%
D31*
%TO.P,BT1,*%
%TO.N,*%
X88550000Y-95750000D03*
%TO.P,BT1,1,+*%
%TO.N,Net-(BT1-Pad1)*%
X111450000Y-95750000D03*
D32*
%TO.P,BT1,2,-*%
%TO.N,GND*%
X100000000Y-95750000D03*
%TD*%
D33*
%TO.N,GND*%
X100237701Y-131474500D03*
%TO.N,+3V3*%
X100250000Y-123250000D03*
X113000000Y-129500000D03*
X101500000Y-106000000D03*
X85750000Y-134250000D03*
X90262299Y-138762299D03*
X87500000Y-116000000D03*
%TO.N,VBUS*%
X85500000Y-142750000D03*
X90500983Y-142822438D03*
%TO.N,O*%
X99000000Y-136000000D03*
X84750000Y-135500000D03*
%TO.N,I*%
X100250000Y-135000000D03*
X90000000Y-133250000D03*
%TO.N,EN*%
X117500000Y-138250000D03*
X86750000Y-133000000D03*
%TO.N,BOOT*%
X88750000Y-131000000D03*
X106000000Y-134500000D03*
%TO.N,G*%
X102250000Y-144500000D03*
X87500000Y-119750000D03*
%TO.N,R*%
X87500000Y-118500000D03*
X102250000Y-145500000D03*
%TO.N,B*%
X102250000Y-143500000D03*
X87500000Y-121000000D03*
%TO.N,TICK*%
X113750000Y-132750000D03*
X105750000Y-106000000D03*
%TO.N,Net-(BT1-Pad1)*%
X103250000Y-106000000D03*
%TO.N,GPSTX*%
X96750000Y-106000000D03*
X112250000Y-132750000D03*
%TO.N,GPSRX*%
X111250000Y-131250000D03*
X94250000Y-106000000D03*
%TO.N,OLED-MOSI*%
X105000000Y-139250000D03*
%TO.N,OLED-SCLK*%
X111500000Y-137250000D03*
%TO.N,OLED-CS0*%
X110500000Y-137250000D03*
%TO.N,OLED-DC*%
X109500497Y-137250000D03*
%TO.N,OLED-RST*%
X108500000Y-137250000D03*
%TD*%
D34*
%TO.N,+3V3*%
X95250000Y-108750000D02*
X95250000Y-108250000D01*
X113000000Y-129500000D02*
X112207106Y-129500000D01*
X90262299Y-138762299D02*
X85750000Y-134250000D01*
X88250000Y-121250000D02*
X88250000Y-116750000D01*
X84250000Y-133750000D02*
X84250000Y-125250000D01*
X96500000Y-107000000D02*
X100564972Y-107000000D01*
X111000000Y-129000000D02*
X98431981Y-116431981D01*
X88250000Y-121250000D02*
X98250000Y-121250000D01*
X101500000Y-106064972D02*
X101500000Y-106000000D01*
X85750000Y-134250000D02*
X84750000Y-134250000D01*
X87500000Y-122000000D02*
G75*
G03*
X84250000Y-125250000I0J-3250000D01*
G01*
X88250000Y-121250000D02*
G75*
G02*
X87500000Y-122000000I-750000J0D01*
G01*
X111000000Y-129000000D02*
G75*
G03*
X112207106Y-129500000I1207107J1207108D01*
G01*
X87500000Y-116000000D02*
G75*
G02*
X88250000Y-116750000I0J-750000D01*
G01*
X96500000Y-107000000D02*
G75*
G03*
X95250000Y-108250000I2J-1250002D01*
G01*
X95250000Y-108750000D02*
G75*
G03*
X98431981Y-116431981I10863963J1D01*
G01*
X84250000Y-133750000D02*
G75*
G03*
X84750000Y-134250000I500001J1D01*
G01*
X101500000Y-106064972D02*
G75*
G02*
X100564972Y-107000000I-935027J-1D01*
G01*
X100250000Y-123250000D02*
G75*
G03*
X98250000Y-121250000I-1999999J1D01*
G01*
%TO.N,VBUS*%
X90428545Y-142750000D02*
X90500983Y-142822438D01*
X85500000Y-142750000D02*
X90428545Y-142750000D01*
%TO.N,O*%
X95750000Y-140250000D02*
X85250000Y-140250000D01*
X84250000Y-139250000D02*
X84250000Y-136000000D01*
X99000000Y-136000000D02*
X99000000Y-137000000D01*
X95750000Y-140250000D02*
G75*
G03*
X99000000Y-137000000I0J3250000D01*
G01*
X84250000Y-139250000D02*
G75*
G03*
X85250000Y-140250000I999999J-1D01*
G01*
X84750000Y-135500000D02*
G75*
G03*
X84250000Y-136000000I1J-500001D01*
G01*
%TO.N,I*%
X90000000Y-133250000D02*
X98500000Y-133250000D01*
X100250000Y-135000000D02*
G75*
G03*
X98500000Y-133250000I-1750000J0D01*
G01*
%TO.N,EN*%
X87750000Y-133000000D02*
X86750000Y-133000000D01*
X104956230Y-129706230D02*
X91043770Y-129706230D01*
X105000000Y-136899020D02*
X105000000Y-134750000D01*
X116550490Y-139199510D02*
X107300490Y-139199510D01*
X105353554Y-133896446D02*
X105500000Y-133750000D01*
X105750000Y-133146447D02*
X105750000Y-130500000D01*
X105750000Y-133146447D02*
G75*
G02*
X105500000Y-133750000I-853552J0D01*
G01*
X105000000Y-136899020D02*
G75*
G03*
X107300490Y-139199510I2300490J0D01*
G01*
X104956230Y-129706230D02*
G75*
G02*
X105750000Y-130500000I-1J-793771D01*
G01*
X89750000Y-131000000D02*
G75*
G02*
X91043770Y-129706230I1293768J2D01*
G01*
X87750000Y-133000000D02*
G75*
G03*
X89750000Y-131000000I1J1999999D01*
G01*
X116550490Y-139199510D02*
G75*
G03*
X117500000Y-138250000I0J949510D01*
G01*
X105353554Y-133896446D02*
G75*
G03*
X105000000Y-134750000I853557J-853556D01*
G01*
%TO.N,BOOT*%
X105000000Y-129250000D02*
X90500000Y-129250000D01*
X106250000Y-133896447D02*
X106250000Y-130500000D01*
X106250000Y-133896447D02*
G75*
G02*
X106000000Y-134500000I-853556J2D01*
G01*
X105000000Y-129250000D02*
G75*
G02*
X106250000Y-130500000I-2J-1250002D01*
G01*
X88750000Y-131000000D02*
G75*
G02*
X90500000Y-129250000I1750000J0D01*
G01*
%TO.N,G*%
X94525127Y-141250000D02*
X85000000Y-141250000D01*
X98835787Y-143085786D02*
X98750000Y-143000000D01*
X83250000Y-139500000D02*
X83250000Y-124000000D01*
X94525127Y-141250000D02*
G75*
G02*
X98750000Y-143000000I1J-5974869D01*
G01*
X87500000Y-119750000D02*
G75*
G03*
X83250000Y-124000000I-1J-4249999D01*
G01*
X98835787Y-143085786D02*
G75*
G03*
X102250000Y-144500000I3414212J3414207D01*
G01*
X83250000Y-139500000D02*
G75*
G03*
X85000000Y-141250000I1750000J0D01*
G01*
%TO.N,R*%
X82750000Y-139500000D02*
X82750000Y-123250000D01*
X99262562Y-144262562D02*
X98750000Y-143750000D01*
X93921573Y-141750000D02*
X85000000Y-141750000D01*
X99262562Y-144262562D02*
G75*
G03*
X102250000Y-145500000I2987439J2987439D01*
G01*
X82750000Y-139500000D02*
G75*
G03*
X85000000Y-141750000I2250001J1D01*
G01*
X87500000Y-118500000D02*
G75*
G03*
X82750000Y-123250000I1J-4750001D01*
G01*
X93921573Y-141750001D02*
G75*
G02*
X98749999Y-143750001I1J-6828424D01*
G01*
%TO.N,B*%
X102250000Y-143500000D02*
X102121320Y-143500000D01*
X95482234Y-140750000D02*
X85000000Y-140750000D01*
X83750000Y-139500000D02*
X83750000Y-124750000D01*
X83750000Y-139500000D02*
G75*
G03*
X85000000Y-140750000I1250002J2D01*
G01*
X87500000Y-121000000D02*
G75*
G03*
X83750000Y-124750000I1J-3750001D01*
G01*
X98500000Y-142000000D02*
G75*
G03*
X102121320Y-143500000I3621319J3621317D01*
G01*
X95482234Y-140750000D02*
G75*
G02*
X98500000Y-142000000I1J-4267761D01*
G01*
%TO.N,TICK*%
X113750000Y-132750000D02*
X113750000Y-129250000D01*
X95750000Y-108500000D02*
X95750000Y-108250000D01*
X110750000Y-128000000D02*
X98931981Y-116181981D01*
X113000000Y-128500000D02*
X111957106Y-128500000D01*
X96500000Y-107500000D02*
X104250000Y-107500000D01*
X113000000Y-128500000D02*
G75*
G02*
X113750000Y-129250000I0J-750000D01*
G01*
X105750000Y-106000000D02*
G75*
G02*
X104250000Y-107500000I-1500001J1D01*
G01*
X95750000Y-108500000D02*
G75*
G03*
X98931981Y-116181981I10863963J1D01*
G01*
X110750000Y-128000000D02*
G75*
G03*
X111957106Y-128500000I1207107J1207108D01*
G01*
X96500000Y-107500000D02*
G75*
G03*
X95750000Y-108250000I0J-750000D01*
G01*
D35*
%TO.N,Net-(BT1-Pad1)*%
X110000431Y-99249569D02*
X103250000Y-106000000D01*
X110000431Y-99249569D02*
G75*
G03*
X111450000Y-95750000I-3499573J3499571D01*
G01*
D34*
%TO.N,GPSTX*%
X112250000Y-131810660D02*
X112250000Y-132750000D01*
X94750000Y-108000000D02*
X94750000Y-108550253D01*
X98250000Y-117000000D02*
X111676776Y-130426776D01*
X98250000Y-117000000D02*
G75*
G02*
X94750000Y-108550253I8449754J8449750D01*
G01*
X94750000Y-108000000D02*
G75*
G02*
X96750000Y-106000000I1999999J1D01*
G01*
X112249999Y-131810660D02*
G75*
G03*
X111676775Y-130426777I-1957103J1D01*
G01*
%TO.N,GPSRX*%
X94250000Y-106000000D02*
X94250000Y-108800253D01*
X97750000Y-117250000D02*
X110896447Y-130396447D01*
X97750000Y-117250000D02*
G75*
G02*
X94250000Y-108800253I8449754J8449750D01*
G01*
X111250000Y-131250000D02*
G75*
G03*
X110896447Y-130396447I-1207116J-4D01*
G01*
%TO.N,OLED-MOSI*%
X118500000Y-137540000D02*
X118500000Y-138750000D01*
X117500000Y-139750000D02*
X106207106Y-139750000D01*
X117500000Y-139750000D02*
G75*
G03*
X118500000Y-138750000I1J999999D01*
G01*
X118500000Y-137540000D02*
G75*
G02*
X120000000Y-136040000I1500001J-1D01*
G01*
X105000000Y-139250000D02*
G75*
G03*
X106207106Y-139750000I1207107J1207108D01*
G01*
%TO.N,OLED-SCLK*%
X119750000Y-133500000D02*
X120000000Y-133500000D01*
X116250000Y-137000000D02*
X111750000Y-137000000D01*
X118500000Y-134750000D02*
G75*
G02*
X116250000Y-137000000I-2250001J1D01*
G01*
X111500000Y-137250000D02*
G75*
G02*
X111750000Y-137000000I249999J1D01*
G01*
X119750000Y-133500000D02*
G75*
G03*
X118500000Y-134750000I2J-1250002D01*
G01*
%TO.N,OLED-CS0*%
X118000000Y-132960000D02*
X118000000Y-134750000D01*
X110500000Y-137000000D02*
X110500000Y-137250000D01*
X116250000Y-136500000D02*
X111000000Y-136500000D01*
X118000000Y-132960000D02*
G75*
G02*
X120000000Y-130960000I1999999J1D01*
G01*
X116250000Y-136500000D02*
G75*
G03*
X118000000Y-134750000I0J1750000D01*
G01*
X110500000Y-137000000D02*
G75*
G02*
X111000000Y-136500000I500001J-1D01*
G01*
%TO.N,OLED-DC*%
X117500000Y-130920000D02*
X117500000Y-134750000D01*
X116250000Y-136000000D02*
X110750497Y-136000000D01*
X116250000Y-136000000D02*
G75*
G03*
X117500000Y-134750000I-2J1250002D01*
G01*
X109500497Y-137250000D02*
G75*
G02*
X110750497Y-136000000I1250002J-2D01*
G01*
X117500000Y-130920000D02*
G75*
G02*
X120000000Y-128420000I2500000J0D01*
G01*
%TO.N,OLED-RST*%
X117000000Y-134750000D02*
X117000000Y-128880000D01*
X110250000Y-135500000D02*
X116250000Y-135500000D01*
X110250000Y-135500000D02*
G75*
G03*
X108500000Y-137250000I0J-1750000D01*
G01*
X120000000Y-125880000D02*
G75*
G03*
X117000000Y-128880000I1J-3000001D01*
G01*
X117000000Y-134750000D02*
G75*
G02*
X116250000Y-135500000I-750000J0D01*
G01*
%TD*%
%TA.AperFunction,Conductor*%
%TO.N,GND*%
G36*
X112987356Y-85252383D02*
G01*
X113000000Y-85254898D01*
X113011979Y-85252515D01*
X113024193Y-85252515D01*
X113024193Y-85253149D01*
X113034768Y-85252486D01*
X113240211Y-85267180D01*
X113257713Y-85269696D01*
X113455728Y-85312772D01*
X113484362Y-85319001D01*
X113501338Y-85323985D01*
X113718670Y-85405046D01*
X113734763Y-85412396D01*
X113938340Y-85523557D01*
X113953223Y-85533122D01*
X114138907Y-85672123D01*
X114152278Y-85683709D01*
X114316291Y-85847722D01*
X114327877Y-85861093D01*
X114466878Y-86046777D01*
X114476443Y-86061660D01*
X114587604Y-86265237D01*
X114594954Y-86281330D01*
X114676015Y-86498662D01*
X114680999Y-86515638D01*
X114727261Y-86728297D01*
X114730303Y-86742282D01*
X114732820Y-86759789D01*
X114747351Y-86962946D01*
X114747514Y-86965229D01*
X114746851Y-86975807D01*
X114747485Y-86975807D01*
X114747485Y-86988021D01*
X114745102Y-87000000D01*
X114747485Y-87011980D01*
X114747617Y-87012644D01*
X114750000Y-87036835D01*
X114750000Y-113963165D01*
X114747617Y-113987356D01*
X114745102Y-114000000D01*
X114746811Y-114008593D01*
X114747484Y-114017144D01*
X114747484Y-114017150D01*
X114752446Y-114080198D01*
X114761572Y-114196148D01*
X114762707Y-114200876D01*
X114762708Y-114200882D01*
X114806084Y-114381557D01*
X114807503Y-114387466D01*
X114882798Y-114569243D01*
X114985602Y-114737004D01*
X114988764Y-114740706D01*
X114988766Y-114740709D01*
X115009090Y-114764505D01*
X115113383Y-114886617D01*
X115117084Y-114889778D01*
X115203469Y-114963557D01*
X115262996Y-115014398D01*
X115430757Y-115117202D01*
X115612534Y-115192497D01*
X115617270Y-115193634D01*
X115799118Y-115237292D01*
X115799124Y-115237293D01*
X115803852Y-115238428D01*
X115808702Y-115238810D01*
X115808704Y-115238810D01*
X115982850Y-115252516D01*
X115982856Y-115252516D01*
X115991407Y-115253189D01*
X116000000Y-115254898D01*
X116012644Y-115252383D01*
X116036835Y-115250000D01*
X122126000Y-115250000D01*
X122193039Y-115269685D01*
X122238794Y-115322489D01*
X122250000Y-115374000D01*
X122250000Y-146376000D01*
X122230315Y-146443039D01*
X122177511Y-146488794D01*
X122126000Y-146500000D01*
X117800134Y-146500000D01*
X117733095Y-146480315D01*
X117697032Y-146444891D01*
X117687024Y-146429913D01*
X117680240Y-146419760D01*
X117597545Y-146364505D01*
X117585569Y-146362123D01*
X117585567Y-146362122D01*
X117524624Y-146350000D01*
X117511980Y-146347485D01*
X117500000Y-146345102D01*
X117488020Y-146347485D01*
X117487356Y-146347617D01*
X117463165Y-146350000D01*
X102530300Y-146350000D01*
X102463261Y-146330315D01*
X102417506Y-146277511D01*
X102407562Y-146208353D01*
X102436587Y-146144797D01*
X102474583Y-146115223D01*
X102612625Y-146045795D01*
X102618306Y-146040943D01*
X102618309Y-146040941D01*
X102726666Y-145948395D01*
X102726667Y-145948394D01*
X102732348Y-145943542D01*
X102743393Y-145928172D01*
X102810353Y-145834986D01*
X102824224Y-145815683D01*
X102882950Y-145669598D01*
X102892545Y-145602182D01*
X102904562Y-145517744D01*
X102904562Y-145517740D01*
X102905134Y-145513723D01*
X102905278Y-145500000D01*
X102887813Y-145355675D01*
X102887262Y-145351119D01*
X102887261Y-145351115D01*
X102886363Y-145343694D01*
X102859473Y-145272531D01*
X102833354Y-145203408D01*
X102833352Y-145203405D01*
X102830710Y-145196412D01*
X102779544Y-145121966D01*
X102743154Y-145069018D01*
X102721405Y-145002620D01*
X102739007Y-144935004D01*
X102744648Y-144926425D01*
X102801988Y-144846627D01*
X102824224Y-144815683D01*
X102882950Y-144669598D01*
X102884601Y-144657998D01*
X102904562Y-144517744D01*
X102904562Y-144517740D01*
X102905134Y-144513723D01*
X102905278Y-144500000D01*
X102900155Y-144457667D01*
X102887262Y-144351119D01*
X102887261Y-144351115D01*
X102886363Y-144343694D01*
X102853639Y-144257091D01*
X102833354Y-144203408D01*
X102833352Y-144203405D01*
X102830710Y-144196412D01*
X102785880Y-144131184D01*
X102743154Y-144069018D01*
X102721405Y-144002620D01*
X102739007Y-143935004D01*
X102744648Y-143926425D01*
X102764053Y-143899420D01*
X102824224Y-143815683D01*
X102882950Y-143669598D01*
X102891361Y-143610500D01*
X102904562Y-143517744D01*
X102904562Y-143517740D01*
X102905134Y-143513723D01*
X102905278Y-143500000D01*
X102900558Y-143460998D01*
X102887262Y-143351119D01*
X102887261Y-143351115D01*
X102886363Y-143343694D01*
X102858831Y-143270833D01*
X102833354Y-143203408D01*
X102833352Y-143203405D01*
X102830710Y-143196412D01*
X102798729Y-143149880D01*
X102745768Y-143072821D01*
X102745765Y-143072818D01*
X102741531Y-143066657D01*
X102665559Y-142998968D01*
X102629559Y-142966893D01*
X102629558Y-142966892D01*
X102623976Y-142961919D01*
X102484831Y-142888245D01*
X102332128Y-142849889D01*
X102250329Y-142849461D01*
X102182158Y-142849104D01*
X102182157Y-142849104D01*
X102174684Y-142849065D01*
X102167421Y-142850809D01*
X102167418Y-142850809D01*
X102098136Y-142867443D01*
X102021588Y-142885820D01*
X101881679Y-142958032D01*
X101763034Y-143061533D01*
X101762850Y-143061322D01*
X101706917Y-143095782D01*
X101659684Y-143099303D01*
X101383717Y-143066640D01*
X101374142Y-143065123D01*
X101018199Y-142994322D01*
X101008752Y-142992054D01*
X100659472Y-142893546D01*
X100650226Y-142890543D01*
X100309746Y-142764933D01*
X100300751Y-142761207D01*
X99971179Y-142609273D01*
X99962504Y-142604852D01*
X99833061Y-142532360D01*
X99645889Y-142427539D01*
X99637589Y-142422453D01*
X99335844Y-142220833D01*
X99327971Y-142215113D01*
X99325197Y-142212926D01*
X99042975Y-141990440D01*
X99035596Y-141984138D01*
X98791883Y-141758851D01*
X98775743Y-141740688D01*
X98774565Y-141739067D01*
X98768829Y-141731172D01*
X98766989Y-141729835D01*
X98469711Y-141457429D01*
X98467574Y-141455790D01*
X98467569Y-141455785D01*
X98150189Y-141212252D01*
X98148039Y-141210602D01*
X98000108Y-141116359D01*
X97960411Y-141091069D01*
X118895164Y-141091069D01*
X118895535Y-141096731D01*
X118895535Y-141096735D01*
X118900851Y-141177842D01*
X118908392Y-141292894D01*
X118958178Y-141488928D01*
X119042856Y-141672607D01*
X119159588Y-141837780D01*
X119304466Y-141978913D01*
X119472637Y-142091282D01*
X119658470Y-142171122D01*
X119723213Y-142185772D01*
X119850193Y-142214505D01*
X119850195Y-142214505D01*
X119855740Y-142215760D01*
X119973135Y-142220372D01*
X120052161Y-142223477D01*
X120052163Y-142223477D01*
X120057842Y-142223700D01*
X120063462Y-142222885D01*
X120063465Y-142222885D01*
X120252387Y-142195493D01*
X120252389Y-142195493D01*
X120258007Y-142194678D01*
X120263384Y-142192853D01*
X120263387Y-142192852D01*
X120395082Y-142148147D01*
X120449531Y-142129664D01*
X120626001Y-142030837D01*
X120682170Y-141984122D01*
X120777138Y-141905137D01*
X120781505Y-141901505D01*
X120910837Y-141746001D01*
X120913813Y-141740688D01*
X121006886Y-141574491D01*
X121009664Y-141569531D01*
X121074678Y-141378007D01*
X121103700Y-141177842D01*
X121105215Y-141120000D01*
X121086708Y-140918591D01*
X121031807Y-140723926D01*
X120942351Y-140542527D01*
X120821335Y-140380467D01*
X120672812Y-140243174D01*
X120501757Y-140135246D01*
X120420126Y-140102678D01*
X120365152Y-140059553D01*
X120342222Y-139993553D01*
X120358613Y-139925634D01*
X120409123Y-139877358D01*
X120430441Y-139868736D01*
X120492332Y-139850168D01*
X120501768Y-139846470D01*
X120693165Y-139752705D01*
X120701880Y-139747510D01*
X120749479Y-139713558D01*
X120757747Y-139703026D01*
X120750871Y-139690081D01*
X120012607Y-138951817D01*
X119998887Y-138944325D01*
X119997081Y-138944454D01*
X119990574Y-138948636D01*
X119246532Y-139692678D01*
X119239881Y-139704859D01*
X119245079Y-139711803D01*
X119406820Y-139806317D01*
X119415976Y-139810703D01*
X119575780Y-139871726D01*
X119631387Y-139914030D01*
X119655294Y-139979682D01*
X119639912Y-140047838D01*
X119590124Y-140096858D01*
X119574464Y-140103903D01*
X119529521Y-140120483D01*
X119529517Y-140120485D01*
X119524193Y-140122449D01*
X119519310Y-140125354D01*
X119519308Y-140125355D01*
X119389533Y-140202563D01*
X119350371Y-140225862D01*
X119198305Y-140359220D01*
X119073089Y-140518057D01*
X118978914Y-140697053D01*
X118977229Y-140702479D01*
X118977228Y-140702482D01*
X118970570Y-140723926D01*
X118918937Y-140890213D01*
X118895164Y-141091069D01*
X97960411Y-141091069D01*
X97808363Y-140994204D01*
X97808362Y-140994203D01*
X97806079Y-140992749D01*
X97446433Y-140805528D01*
X97071838Y-140650366D01*
X97018175Y-140633446D01*
X96960158Y-140594513D01*
X96932399Y-140530394D01*
X96943713Y-140461447D01*
X96990506Y-140409560D01*
X97013689Y-140398434D01*
X97136214Y-140354594D01*
X97136218Y-140354592D01*
X97139092Y-140353564D01*
X97461110Y-140201261D01*
X97463718Y-140199698D01*
X97463727Y-140199693D01*
X97764043Y-140019690D01*
X97766649Y-140018128D01*
X97769076Y-140016328D01*
X97769085Y-140016322D01*
X98050323Y-139807741D01*
X98050325Y-139807739D01*
X98052766Y-139805929D01*
X98055018Y-139803888D01*
X98055024Y-139803883D01*
X98314454Y-139568749D01*
X98316707Y-139566707D01*
X98340488Y-139540469D01*
X98553883Y-139305024D01*
X98553888Y-139305018D01*
X98555929Y-139302766D01*
X98564358Y-139291401D01*
X98766322Y-139019085D01*
X98766328Y-139019076D01*
X98768128Y-139016649D01*
X98806987Y-138951817D01*
X98949693Y-138713727D01*
X98949698Y-138713718D01*
X98951261Y-138711110D01*
X99103564Y-138389092D01*
X99113074Y-138362515D01*
X99222545Y-138056564D01*
X99222546Y-138056561D01*
X99223571Y-138053696D01*
X99310125Y-137708153D01*
X99310652Y-137704604D01*
X99355102Y-137404939D01*
X99362393Y-137355790D01*
X99379733Y-137002828D01*
X99380181Y-137000000D01*
X99377027Y-136980085D01*
X99375500Y-136960688D01*
X99375500Y-136591964D01*
X99395185Y-136524925D01*
X99418968Y-136497674D01*
X99476666Y-136448395D01*
X99482348Y-136443542D01*
X99493393Y-136428172D01*
X99535952Y-136368944D01*
X99574224Y-136315683D01*
X99632950Y-136169598D01*
X99635649Y-136150635D01*
X99654562Y-136017744D01*
X99654562Y-136017740D01*
X99655134Y-136013723D01*
X99655278Y-136000000D01*
X99648446Y-135943542D01*
X99637262Y-135851119D01*
X99637261Y-135851115D01*
X99636363Y-135843694D01*
X99617823Y-135794628D01*
X99583354Y-135703408D01*
X99583352Y-135703405D01*
X99580710Y-135696412D01*
X99569098Y-135679517D01*
X99495768Y-135572821D01*
X99495765Y-135572818D01*
X99491531Y-135566657D01*
X99402362Y-135487210D01*
X99379559Y-135466893D01*
X99379558Y-135466892D01*
X99373976Y-135461919D01*
X99234831Y-135388245D01*
X99082128Y-135349889D01*
X99000329Y-135349461D01*
X98932158Y-135349104D01*
X98932157Y-135349104D01*
X98924684Y-135349065D01*
X98917421Y-135350809D01*
X98917418Y-135350809D01*
X98848136Y-135367442D01*
X98771588Y-135385820D01*
X98631679Y-135458032D01*
X98513034Y-135561533D01*
X98422501Y-135690348D01*
X98365309Y-135837039D01*
X98344758Y-135993138D01*
X98345578Y-136000566D01*
X98345578Y-136000568D01*
X98350035Y-136040941D01*
X98362035Y-136149633D01*
X98364601Y-136156645D01*
X98364602Y-136156649D01*
X98383241Y-136207581D01*
X98416143Y-136297490D01*
X98503958Y-136428172D01*
X98583955Y-136500963D01*
X98620290Y-136560640D01*
X98624500Y-136592676D01*
X98624500Y-136960688D01*
X98622973Y-136980085D01*
X98619819Y-137000000D01*
X98621346Y-137009641D01*
X98621346Y-137011622D01*
X98622531Y-137035065D01*
X98606816Y-137314890D01*
X98605259Y-137328708D01*
X98553596Y-137632771D01*
X98550502Y-137646327D01*
X98465121Y-137942695D01*
X98460528Y-137955821D01*
X98342500Y-138240764D01*
X98336467Y-138253292D01*
X98187278Y-138523231D01*
X98179884Y-138534999D01*
X98001402Y-138786546D01*
X97992734Y-138797414D01*
X97787218Y-139027386D01*
X97777387Y-139037217D01*
X97552428Y-139238254D01*
X97547418Y-139242731D01*
X97536550Y-139251399D01*
X97284999Y-139429884D01*
X97273236Y-139437275D01*
X97213219Y-139470445D01*
X97003292Y-139586467D01*
X96990764Y-139592500D01*
X96705821Y-139710528D01*
X96692696Y-139715121D01*
X96646696Y-139728373D01*
X96396327Y-139800502D01*
X96382771Y-139803596D01*
X96078708Y-139855259D01*
X96064890Y-139856816D01*
X95785065Y-139872531D01*
X95761622Y-139871346D01*
X95759641Y-139871346D01*
X95750000Y-139869819D01*
X95740359Y-139871346D01*
X95740358Y-139871346D01*
X95730085Y-139872973D01*
X95710688Y-139874500D01*
X85289312Y-139874500D01*
X85269915Y-139872973D01*
X85259641Y-139871346D01*
X85250000Y-139869819D01*
X85240362Y-139871345D01*
X85230601Y-139871345D01*
X85230601Y-139870350D01*
X85216037Y-139870673D01*
X85124919Y-139860407D01*
X85097847Y-139854228D01*
X84992228Y-139817270D01*
X84967211Y-139805223D01*
X84872458Y-139745686D01*
X84850749Y-139728373D01*
X84771627Y-139649251D01*
X84754314Y-139627542D01*
X84694777Y-139532789D01*
X84682730Y-139507772D01*
X84645772Y-139402153D01*
X84639593Y-139375081D01*
X84629327Y-139283963D01*
X84629650Y-139269399D01*
X84628655Y-139269399D01*
X84628655Y-139259638D01*
X84630181Y-139250000D01*
X84627027Y-139230085D01*
X84625500Y-139210688D01*
X84625500Y-136274620D01*
X84645185Y-136207581D01*
X84697989Y-136161826D01*
X84751447Y-136150635D01*
X84811025Y-136151571D01*
X84811028Y-136151571D01*
X84818495Y-136151688D01*
X84825776Y-136150020D01*
X84825780Y-136150020D01*
X84964681Y-136118207D01*
X84971968Y-136116538D01*
X85112625Y-136045795D01*
X85118306Y-136040943D01*
X85118309Y-136040941D01*
X85226666Y-135948395D01*
X85226667Y-135948394D01*
X85232348Y-135943542D01*
X85324224Y-135815683D01*
X85382950Y-135669598D01*
X85385516Y-135651571D01*
X85404562Y-135517744D01*
X85404562Y-135517740D01*
X85405134Y-135513723D01*
X85405278Y-135500000D01*
X85403730Y-135487210D01*
X85387262Y-135351119D01*
X85387261Y-135351115D01*
X85386363Y-135343694D01*
X85371752Y-135305026D01*
X85333354Y-135203408D01*
X85333352Y-135203405D01*
X85330710Y-135196412D01*
X85326473Y-135190247D01*
X85245768Y-135072821D01*
X85245765Y-135072818D01*
X85241531Y-135066657D01*
X85162191Y-134995967D01*
X85129559Y-134966893D01*
X85129558Y-134966892D01*
X85123976Y-134961919D01*
X84984831Y-134888245D01*
X84911254Y-134869764D01*
X84851030Y-134834341D01*
X84819517Y-134771982D01*
X84826721Y-134702484D01*
X84870354Y-134647914D01*
X84941462Y-134625500D01*
X85152907Y-134625500D01*
X85219946Y-134645185D01*
X85246771Y-134668472D01*
X85249790Y-134671969D01*
X85253958Y-134678172D01*
X85259488Y-134683204D01*
X85259489Y-134683205D01*
X85364878Y-134779102D01*
X85364882Y-134779105D01*
X85370410Y-134784135D01*
X85376980Y-134787702D01*
X85376981Y-134787703D01*
X85502208Y-134855696D01*
X85508776Y-134859262D01*
X85603362Y-134884076D01*
X85653841Y-134897319D01*
X85653843Y-134897319D01*
X85661069Y-134899215D01*
X85818495Y-134901688D01*
X85818453Y-134904357D01*
X85874801Y-134914671D01*
X85906696Y-134937733D01*
X89577469Y-138608506D01*
X89610954Y-138669829D01*
X89612727Y-138712369D01*
X89607057Y-138755437D01*
X89607877Y-138762865D01*
X89607877Y-138762867D01*
X89614459Y-138822483D01*
X89624334Y-138911932D01*
X89626900Y-138918944D01*
X89626901Y-138918948D01*
X89638930Y-138951817D01*
X89678442Y-139059789D01*
X89766257Y-139190471D01*
X89788482Y-139210694D01*
X89877177Y-139291401D01*
X89877181Y-139291404D01*
X89882709Y-139296434D01*
X89889279Y-139300001D01*
X89889280Y-139300002D01*
X90014507Y-139367995D01*
X90021075Y-139371561D01*
X90123330Y-139398387D01*
X90166140Y-139409618D01*
X90166142Y-139409618D01*
X90173368Y-139411514D01*
X90250426Y-139412724D01*
X90323324Y-139413870D01*
X90323327Y-139413870D01*
X90330794Y-139413987D01*
X90338075Y-139412319D01*
X90338079Y-139412319D01*
X90476980Y-139380506D01*
X90484267Y-139378837D01*
X90624924Y-139308094D01*
X90630605Y-139303242D01*
X90630608Y-139303240D01*
X90738965Y-139210694D01*
X90738966Y-139210693D01*
X90744647Y-139205841D01*
X90755692Y-139190471D01*
X90792411Y-139139370D01*
X90836523Y-139077982D01*
X90895249Y-138931897D01*
X90897092Y-138918948D01*
X90916861Y-138780043D01*
X90916861Y-138780039D01*
X90917433Y-138776022D01*
X90917577Y-138762299D01*
X90912512Y-138720445D01*
X90899561Y-138613418D01*
X90899560Y-138613414D01*
X90898662Y-138605993D01*
X90883430Y-138565683D01*
X90845653Y-138465707D01*
X90845651Y-138465704D01*
X90843009Y-138458711D01*
X90830574Y-138440618D01*
X90758067Y-138335120D01*
X90758064Y-138335117D01*
X90753830Y-138328956D01*
X90662068Y-138247199D01*
X90641858Y-138229192D01*
X90641857Y-138229191D01*
X90636275Y-138224218D01*
X90497130Y-138150544D01*
X90344427Y-138112188D01*
X90290522Y-138111906D01*
X90193148Y-138111396D01*
X90126212Y-138091361D01*
X90106116Y-138075079D01*
X86435195Y-134404158D01*
X86401710Y-134342835D01*
X86400113Y-134299007D01*
X86404561Y-134267748D01*
X86405134Y-134263723D01*
X86405278Y-134250000D01*
X86397861Y-134188708D01*
X86387262Y-134101119D01*
X86387261Y-134101115D01*
X86386363Y-134093694D01*
X86364375Y-134035503D01*
X86333354Y-133953408D01*
X86333352Y-133953405D01*
X86330710Y-133946412D01*
X86303970Y-133907505D01*
X86245768Y-133822821D01*
X86245765Y-133822818D01*
X86241531Y-133816657D01*
X86144364Y-133730084D01*
X86129559Y-133716893D01*
X86129558Y-133716892D01*
X86123976Y-133711919D01*
X85984831Y-133638245D01*
X85895326Y-133615763D01*
X85839378Y-133601710D01*
X85832128Y-133599889D01*
X85750329Y-133599461D01*
X85682158Y-133599104D01*
X85682157Y-133599104D01*
X85674684Y-133599065D01*
X85667421Y-133600809D01*
X85667418Y-133600809D01*
X85598136Y-133617443D01*
X85521588Y-133635820D01*
X85381679Y-133708032D01*
X85376048Y-133712945D01*
X85376047Y-133712945D01*
X85297526Y-133781444D01*
X85263034Y-133811533D01*
X85258736Y-133817649D01*
X85255820Y-133821798D01*
X85201168Y-133865329D01*
X85154367Y-133874500D01*
X84789313Y-133874500D01*
X84769916Y-133872973D01*
X84759643Y-133871346D01*
X84759642Y-133871346D01*
X84750001Y-133869819D01*
X84748346Y-133870081D01*
X84685615Y-133851661D01*
X84639860Y-133798857D01*
X84629781Y-133752526D01*
X84630181Y-133749999D01*
X84627027Y-133730084D01*
X84625500Y-133710687D01*
X84625500Y-132993138D01*
X86094758Y-132993138D01*
X86095578Y-133000566D01*
X86095578Y-133000568D01*
X86107343Y-133107135D01*
X86112035Y-133149633D01*
X86114601Y-133156645D01*
X86114602Y-133156649D01*
X86139685Y-133225191D01*
X86166143Y-133297490D01*
X86174623Y-133310109D01*
X86234781Y-133399633D01*
X86253958Y-133428172D01*
X86276183Y-133448395D01*
X86364878Y-133529102D01*
X86364882Y-133529105D01*
X86370410Y-133534135D01*
X86376980Y-133537702D01*
X86376981Y-133537703D01*
X86494867Y-133601710D01*
X86508776Y-133609262D01*
X86603362Y-133634076D01*
X86653841Y-133647319D01*
X86653843Y-133647319D01*
X86661069Y-133649215D01*
X86738127Y-133650425D01*
X86811025Y-133651571D01*
X86811028Y-133651571D01*
X86818495Y-133651688D01*
X86825776Y-133650020D01*
X86825780Y-133650020D01*
X86964681Y-133618207D01*
X86971968Y-133616538D01*
X87112625Y-133545795D01*
X87118306Y-133540943D01*
X87118309Y-133540941D01*
X87226666Y-133448395D01*
X87226667Y-133448394D01*
X87232348Y-133443542D01*
X87244133Y-133427141D01*
X87299237Y-133384187D01*
X87344831Y-133375500D01*
X87710688Y-133375500D01*
X87730085Y-133377027D01*
X87740362Y-133378655D01*
X87740365Y-133378655D01*
X87750000Y-133380181D01*
X87753463Y-133379633D01*
X88036858Y-133362490D01*
X88040538Y-133361816D01*
X88040543Y-133361815D01*
X88217479Y-133329390D01*
X88319533Y-133310688D01*
X88547311Y-133239710D01*
X88590327Y-133226306D01*
X88590332Y-133226304D01*
X88593904Y-133225191D01*
X88653443Y-133198395D01*
X88852553Y-133108783D01*
X88852554Y-133108783D01*
X88855968Y-133107246D01*
X88877129Y-133094454D01*
X89098701Y-132960509D01*
X89098702Y-132960508D01*
X89101905Y-132958572D01*
X89196743Y-132884271D01*
X89261655Y-132858422D01*
X89330238Y-132871771D01*
X89380716Y-132920079D01*
X89397065Y-132988009D01*
X89388746Y-133026924D01*
X89369202Y-133077053D01*
X89365309Y-133087039D01*
X89344758Y-133243138D01*
X89345578Y-133250566D01*
X89345578Y-133250568D01*
X89352215Y-133310688D01*
X89362035Y-133399633D01*
X89364601Y-133406645D01*
X89364602Y-133406649D01*
X89374321Y-133433206D01*
X89416143Y-133547490D01*
X89503958Y-133678172D01*
X89558693Y-133727977D01*
X89614878Y-133779102D01*
X89614882Y-133779105D01*
X89620410Y-133784135D01*
X89626980Y-133787702D01*
X89626981Y-133787703D01*
X89752208Y-133855696D01*
X89758776Y-133859262D01*
X89824610Y-133876533D01*
X89903841Y-133897319D01*
X89903843Y-133897319D01*
X89911069Y-133899215D01*
X89988127Y-133900425D01*
X90061025Y-133901571D01*
X90061028Y-133901571D01*
X90068495Y-133901688D01*
X90075776Y-133900020D01*
X90075780Y-133900020D01*
X90214681Y-133868207D01*
X90221968Y-133866538D01*
X90362625Y-133795795D01*
X90368306Y-133790943D01*
X90368309Y-133790941D01*
X90476666Y-133698395D01*
X90476667Y-133698394D01*
X90482348Y-133693542D01*
X90494133Y-133677141D01*
X90549237Y-133634187D01*
X90594831Y-133625500D01*
X98460688Y-133625500D01*
X98480085Y-133627027D01*
X98490358Y-133628654D01*
X98490359Y-133628654D01*
X98500000Y-133630181D01*
X98509642Y-133628654D01*
X98519397Y-133628654D01*
X98519397Y-133628794D01*
X98534370Y-133628205D01*
X98705294Y-133641657D01*
X98724503Y-133644699D01*
X98859637Y-133677142D01*
X98915255Y-133690495D01*
X98933760Y-133696508D01*
X99114991Y-133771576D01*
X99132328Y-133780410D01*
X99299593Y-133882910D01*
X99315334Y-133894347D01*
X99464497Y-134021744D01*
X99478256Y-134035503D01*
X99605653Y-134184666D01*
X99617090Y-134200407D01*
X99719590Y-134367672D01*
X99728424Y-134385010D01*
X99761175Y-134464079D01*
X99768644Y-134533548D01*
X99748065Y-134582831D01*
X99726980Y-134612832D01*
X99672501Y-134690348D01*
X99669785Y-134697313D01*
X99669785Y-134697314D01*
X99668999Y-134699329D01*
X99615309Y-134837039D01*
X99594758Y-134993138D01*
X99595578Y-135000566D01*
X99595578Y-135000568D01*
X99608010Y-135113179D01*
X99612035Y-135149633D01*
X99614601Y-135156645D01*
X99614602Y-135156649D01*
X99631714Y-135203408D01*
X99666143Y-135297490D01*
X99753958Y-135428172D01*
X99791046Y-135461919D01*
X99864878Y-135529102D01*
X99864882Y-135529105D01*
X99870410Y-135534135D01*
X99876980Y-135537702D01*
X99876981Y-135537703D01*
X99941660Y-135572821D01*
X100008776Y-135609262D01*
X100085683Y-135629438D01*
X100153841Y-135647319D01*
X100153843Y-135647319D01*
X100161069Y-135649215D01*
X100238127Y-135650425D01*
X100311025Y-135651571D01*
X100311028Y-135651571D01*
X100318495Y-135651688D01*
X100325776Y-135650020D01*
X100325780Y-135650020D01*
X100464681Y-135618207D01*
X100471968Y-135616538D01*
X100612625Y-135545795D01*
X100618306Y-135540943D01*
X100618309Y-135540941D01*
X100726666Y-135448395D01*
X100726667Y-135448394D01*
X100732348Y-135443542D01*
X100739497Y-135433594D01*
X100798336Y-135351710D01*
X100824224Y-135315683D01*
X100882950Y-135169598D01*
X100885516Y-135151571D01*
X100904562Y-135017744D01*
X100904562Y-135017740D01*
X100905134Y-135013723D01*
X100905278Y-135000000D01*
X100900670Y-134961919D01*
X100887262Y-134851119D01*
X100887261Y-134851115D01*
X100886363Y-134843694D01*
X100868904Y-134797490D01*
X100833354Y-134703408D01*
X100833352Y-134703405D01*
X100830710Y-134696412D01*
X100822556Y-134684548D01*
X100745768Y-134572821D01*
X100745765Y-134572818D01*
X100741531Y-134566657D01*
X100623976Y-134461919D01*
X100617366Y-134458419D01*
X100617363Y-134458417D01*
X100591936Y-134444954D01*
X100541899Y-134396189D01*
X100532539Y-134375225D01*
X100529976Y-134367672D01*
X100467920Y-134184861D01*
X100344687Y-133934970D01*
X100196335Y-133712945D01*
X100192151Y-133706683D01*
X100192149Y-133706681D01*
X100189891Y-133703301D01*
X100006181Y-133493819D01*
X99796699Y-133310109D01*
X99787937Y-133304254D01*
X99685379Y-133235727D01*
X99565031Y-133155313D01*
X99315139Y-133032080D01*
X99051300Y-132942519D01*
X98778029Y-132888162D01*
X98773988Y-132887897D01*
X98773987Y-132887897D01*
X98512526Y-132870760D01*
X98512525Y-132870760D01*
X98501293Y-132870024D01*
X98500000Y-132869819D01*
X98487675Y-132871771D01*
X98480085Y-132872973D01*
X98460688Y-132874500D01*
X90596525Y-132874500D01*
X90529486Y-132854815D01*
X90501522Y-132827705D01*
X90500707Y-132828424D01*
X90495768Y-132822822D01*
X90491531Y-132816657D01*
X90427559Y-132759660D01*
X90379559Y-132716893D01*
X90379558Y-132716892D01*
X90373976Y-132711919D01*
X90234831Y-132638245D01*
X90103304Y-132605208D01*
X90089378Y-132601710D01*
X90082128Y-132599889D01*
X90000329Y-132599461D01*
X89932158Y-132599104D01*
X89932157Y-132599104D01*
X89924684Y-132599065D01*
X89917421Y-132600809D01*
X89917418Y-132600809D01*
X89771588Y-132635820D01*
X89771252Y-132634421D01*
X89709791Y-132638755D01*
X89648501Y-132605208D01*
X89615077Y-132543852D01*
X89620132Y-132474165D01*
X89638659Y-132441142D01*
X89644075Y-132434229D01*
X89708572Y-132351905D01*
X89783648Y-132227715D01*
X89855308Y-132109174D01*
X89855309Y-132109173D01*
X89857246Y-132105968D01*
X89918591Y-131969664D01*
X89973656Y-131847315D01*
X89973657Y-131847313D01*
X89975191Y-131843904D01*
X89979343Y-131830582D01*
X90027021Y-131677574D01*
X90060688Y-131569533D01*
X90087731Y-131421965D01*
X90111815Y-131290543D01*
X90111816Y-131290538D01*
X90112490Y-131286858D01*
X90124129Y-131094454D01*
X90129054Y-131013041D01*
X90129054Y-131013039D01*
X90129633Y-131003463D01*
X90130181Y-131000000D01*
X90129421Y-130995200D01*
X90128656Y-130990367D01*
X90128655Y-130980616D01*
X90129009Y-130980616D01*
X90128493Y-130965796D01*
X90138504Y-130851355D01*
X90142257Y-130830068D01*
X90178071Y-130696408D01*
X90185460Y-130676106D01*
X90243939Y-130550696D01*
X90254744Y-130531981D01*
X90334114Y-130418630D01*
X90348008Y-130402073D01*
X90445843Y-130304238D01*
X90462400Y-130290344D01*
X90575751Y-130210974D01*
X90594466Y-130200169D01*
X90719876Y-130141690D01*
X90740176Y-130134302D01*
X90873838Y-130098487D01*
X90895122Y-130094734D01*
X90950848Y-130089859D01*
X91009564Y-130084723D01*
X91024371Y-130085240D01*
X91024371Y-130084885D01*
X91034131Y-130084885D01*
X91043769Y-130086411D01*
X91054909Y-130084647D01*
X91063684Y-130083257D01*
X91083081Y-130081730D01*
X104916918Y-130081730D01*
X104936315Y-130083257D01*
X104945090Y-130084647D01*
X104956230Y-130086411D01*
X104965868Y-130084885D01*
X104972071Y-130084885D01*
X104988251Y-130085946D01*
X105048299Y-130093851D01*
X105079564Y-130102228D01*
X105150284Y-130131521D01*
X105178314Y-130147705D01*
X105239039Y-130194301D01*
X105261929Y-130217191D01*
X105308525Y-130277916D01*
X105324709Y-130305946D01*
X105354002Y-130376666D01*
X105362379Y-130407931D01*
X105370284Y-130467979D01*
X105371345Y-130484159D01*
X105371345Y-130490362D01*
X105369819Y-130500000D01*
X105371346Y-130509641D01*
X105372973Y-130519915D01*
X105374500Y-130539312D01*
X105374500Y-133107135D01*
X105372973Y-133126532D01*
X105369819Y-133146447D01*
X105371345Y-133156085D01*
X105371345Y-133165846D01*
X105370714Y-133165846D01*
X105371145Y-133180506D01*
X105366511Y-133227555D01*
X105361769Y-133251396D01*
X105349917Y-133290469D01*
X105341655Y-133317704D01*
X105332355Y-133340157D01*
X105299691Y-133401269D01*
X105286185Y-133421481D01*
X105256193Y-133458026D01*
X105245520Y-133468089D01*
X105245967Y-133468536D01*
X105239069Y-133475433D01*
X105231172Y-133481171D01*
X105225436Y-133489066D01*
X105225432Y-133489070D01*
X105219317Y-133497487D01*
X105206680Y-133512283D01*
X105115837Y-133603126D01*
X105101041Y-133615763D01*
X105092624Y-133621878D01*
X105092620Y-133621882D01*
X105084725Y-133627618D01*
X105078986Y-133635517D01*
X105078569Y-133635934D01*
X105072742Y-133643226D01*
X105017092Y-133706683D01*
X104948847Y-133784502D01*
X104946589Y-133787882D01*
X104946587Y-133787884D01*
X104930785Y-133811533D01*
X104833589Y-133956998D01*
X104741832Y-134143063D01*
X104740528Y-134146903D01*
X104740526Y-134146909D01*
X104705531Y-134250000D01*
X104675146Y-134339512D01*
X104634673Y-134542985D01*
X104634408Y-134547028D01*
X104634406Y-134547043D01*
X104625733Y-134679363D01*
X104625029Y-134684400D01*
X104624977Y-134684548D01*
X104624500Y-134690055D01*
X104624500Y-134694132D01*
X104624234Y-134702243D01*
X104622383Y-134730480D01*
X104621345Y-134739773D01*
X104621345Y-134740362D01*
X104619819Y-134749999D01*
X104621346Y-134759640D01*
X104622973Y-134769914D01*
X104624500Y-134789311D01*
X104624500Y-136859708D01*
X104622973Y-136879105D01*
X104621381Y-136889160D01*
X104619819Y-136899020D01*
X104620539Y-136903569D01*
X104637137Y-137199108D01*
X104637718Y-137202528D01*
X104637719Y-137202536D01*
X104686899Y-137491993D01*
X104687482Y-137495422D01*
X104770688Y-137784236D01*
X104885708Y-138061918D01*
X104887388Y-138064957D01*
X104887390Y-138064962D01*
X105029412Y-138321931D01*
X105031095Y-138324976D01*
X105086903Y-138403630D01*
X105109642Y-138469693D01*
X105093055Y-138537565D01*
X105042406Y-138585695D01*
X104985125Y-138599381D01*
X104932158Y-138599104D01*
X104932157Y-138599104D01*
X104924684Y-138599065D01*
X104917421Y-138600809D01*
X104917418Y-138600809D01*
X104864899Y-138613418D01*
X104771588Y-138635820D01*
X104631679Y-138708032D01*
X104513034Y-138811533D01*
X104422501Y-138940348D01*
X104365309Y-139087039D01*
X104344758Y-139243138D01*
X104345578Y-139250566D01*
X104345578Y-139250568D01*
X104346642Y-139260205D01*
X104362035Y-139399633D01*
X104364601Y-139406645D01*
X104364602Y-139406649D01*
X104391476Y-139480085D01*
X104416143Y-139547490D01*
X104503958Y-139678172D01*
X104552050Y-139721932D01*
X104614878Y-139779102D01*
X104614882Y-139779105D01*
X104620410Y-139784135D01*
X104626980Y-139787702D01*
X104626981Y-139787703D01*
X104751403Y-139855259D01*
X104758776Y-139859262D01*
X104839571Y-139880458D01*
X104903841Y-139897319D01*
X104903843Y-139897319D01*
X104911069Y-139899215D01*
X104988127Y-139900425D01*
X105061025Y-139901571D01*
X105061028Y-139901571D01*
X105068495Y-139901688D01*
X105161191Y-139880458D01*
X105230933Y-139884679D01*
X105248855Y-139892800D01*
X105299030Y-139920531D01*
X105299035Y-139920533D01*
X105302074Y-139922213D01*
X105518181Y-140011728D01*
X105742952Y-140076483D01*
X105973561Y-140115665D01*
X105977025Y-140115860D01*
X105977029Y-140115860D01*
X106142480Y-140125152D01*
X106143554Y-140125228D01*
X106144491Y-140125269D01*
X106147161Y-140125500D01*
X106147434Y-140125500D01*
X106148660Y-140125918D01*
X106148684Y-140125500D01*
X106156125Y-140125918D01*
X106187154Y-140127661D01*
X106196444Y-140128655D01*
X106197470Y-140128655D01*
X106207106Y-140130181D01*
X106223017Y-140127661D01*
X106227021Y-140127027D01*
X106246418Y-140125500D01*
X117460688Y-140125500D01*
X117480085Y-140127027D01*
X117490356Y-140128654D01*
X117490359Y-140128654D01*
X117500000Y-140130181D01*
X117505371Y-140129330D01*
X117539720Y-140126627D01*
X117710989Y-140113148D01*
X117710991Y-140113148D01*
X117715841Y-140112766D01*
X117720570Y-140111631D01*
X117720574Y-140111630D01*
X117921631Y-140063360D01*
X117926367Y-140062223D01*
X118126395Y-139979369D01*
X118310999Y-139866244D01*
X118319665Y-139858843D01*
X118471932Y-139728794D01*
X118475633Y-139725633D01*
X118616244Y-139560999D01*
X118719626Y-139392294D01*
X118771438Y-139345419D01*
X118845627Y-139334753D01*
X118875290Y-139339669D01*
X118885538Y-139335252D01*
X119628183Y-138592607D01*
X119634459Y-138581113D01*
X120364325Y-138581113D01*
X120364454Y-138582919D01*
X120368636Y-138589426D01*
X121110679Y-139331469D01*
X121122497Y-139337922D01*
X121134050Y-139329097D01*
X121165055Y-139285949D01*
X121170277Y-139277257D01*
X121264707Y-139086193D01*
X121268444Y-139076753D01*
X121330401Y-138872831D01*
X121332544Y-138862917D01*
X121360596Y-138649840D01*
X121361108Y-138643265D01*
X121362573Y-138583308D01*
X121362383Y-138576701D01*
X121344774Y-138362515D01*
X121343117Y-138352508D01*
X121291193Y-138145790D01*
X121287930Y-138136207D01*
X121202941Y-137940743D01*
X121198146Y-137931801D01*
X121132907Y-137830956D01*
X121122392Y-137821900D01*
X121112976Y-137826234D01*
X120371817Y-138567393D01*
X120364325Y-138581113D01*
X119634459Y-138581113D01*
X119635675Y-138578887D01*
X119635546Y-138577081D01*
X119631364Y-138570574D01*
X118911819Y-137851029D01*
X118878334Y-137789706D01*
X118875500Y-137763348D01*
X118875500Y-137579312D01*
X118877027Y-137559915D01*
X118878654Y-137549641D01*
X118880181Y-137540000D01*
X118878655Y-137530362D01*
X118878655Y-137520601D01*
X118879010Y-137520601D01*
X118878493Y-137505794D01*
X118887167Y-137406649D01*
X118891638Y-137355540D01*
X118895391Y-137334256D01*
X118898718Y-137321842D01*
X118935432Y-137184823D01*
X118940509Y-137165876D01*
X118947902Y-137145565D01*
X119021571Y-136987581D01*
X119032378Y-136968862D01*
X119045000Y-136950837D01*
X119088187Y-136889159D01*
X119142763Y-136845536D01*
X119212262Y-136838343D01*
X119276287Y-136871463D01*
X119300387Y-136894941D01*
X119300397Y-136894949D01*
X119304466Y-136898913D01*
X119472637Y-137011282D01*
X119583580Y-137058947D01*
X119637404Y-137103495D01*
X119658599Y-137170072D01*
X119640436Y-137237540D01*
X119588680Y-137284477D01*
X119573155Y-137290740D01*
X119476785Y-137322239D01*
X119467436Y-137326169D01*
X119278393Y-137424579D01*
X119269801Y-137429990D01*
X119249447Y-137445272D01*
X119241126Y-137456420D01*
X119247763Y-137468553D01*
X119987393Y-138208183D01*
X120001113Y-138215675D01*
X120002919Y-138215546D01*
X120009426Y-138211364D01*
X120753594Y-137467196D01*
X120760501Y-137454546D01*
X120753776Y-137445315D01*
X120749627Y-137442558D01*
X120563037Y-137339555D01*
X120553782Y-137335396D01*
X120427862Y-137290805D01*
X120371238Y-137249872D01*
X120345734Y-137184823D01*
X120359447Y-137116312D01*
X120408023Y-137066091D01*
X120429391Y-137056501D01*
X120449531Y-137049664D01*
X120550897Y-136992897D01*
X120621048Y-136953611D01*
X120621050Y-136953610D01*
X120626001Y-136950837D01*
X120669580Y-136914593D01*
X120777138Y-136825137D01*
X120781505Y-136821505D01*
X120910837Y-136666001D01*
X121009664Y-136489531D01*
X121071031Y-136308750D01*
X121072852Y-136303387D01*
X121072853Y-136303384D01*
X121074678Y-136298007D01*
X121090540Y-136188610D01*
X121103176Y-136101458D01*
X121103176Y-136101453D01*
X121103700Y-136097842D01*
X121105215Y-136040000D01*
X121086708Y-135838591D01*
X121031807Y-135643926D01*
X120942351Y-135462527D01*
X120821335Y-135300467D01*
X120708769Y-135196412D01*
X120676988Y-135167034D01*
X120676986Y-135167033D01*
X120672812Y-135163174D01*
X120654608Y-135151688D01*
X120506566Y-135058280D01*
X120506564Y-135058279D01*
X120501757Y-135055246D01*
X120313898Y-134980298D01*
X120308317Y-134979188D01*
X120308314Y-134979187D01*
X120221501Y-134961919D01*
X120115526Y-134940839D01*
X120109839Y-134940765D01*
X120109834Y-134940764D01*
X119918975Y-134938266D01*
X119918970Y-134938266D01*
X119913286Y-134938192D01*
X119907682Y-134939155D01*
X119907681Y-134939155D01*
X119719546Y-134971482D01*
X119719543Y-134971483D01*
X119713949Y-134972444D01*
X119692660Y-134980298D01*
X119529521Y-135040483D01*
X119529517Y-135040485D01*
X119524193Y-135042449D01*
X119519310Y-135045354D01*
X119519308Y-135045355D01*
X119361982Y-135138954D01*
X119350371Y-135145862D01*
X119198305Y-135279220D01*
X119073089Y-135438057D01*
X119070442Y-135443088D01*
X118998790Y-135579275D01*
X118950155Y-135629438D01*
X118882120Y-135645344D01*
X118816286Y-135621943D01*
X118773554Y-135566663D01*
X118767493Y-135497057D01*
X118769898Y-135487210D01*
X118778322Y-135457969D01*
X118813706Y-135335149D01*
X118863102Y-135044426D01*
X118863324Y-135040483D01*
X118871664Y-134891969D01*
X118879338Y-134755322D01*
X118880181Y-134750000D01*
X118878654Y-134740359D01*
X118878654Y-134730603D01*
X118879285Y-134730603D01*
X118878855Y-134715946D01*
X118891107Y-134591549D01*
X118895849Y-134567708D01*
X118938524Y-134427028D01*
X118947827Y-134404570D01*
X119008244Y-134291537D01*
X119057206Y-134241693D01*
X119125344Y-134226232D01*
X119191023Y-134250063D01*
X119204128Y-134261169D01*
X119300387Y-134354941D01*
X119300396Y-134354949D01*
X119304466Y-134358913D01*
X119472637Y-134471282D01*
X119658470Y-134551122D01*
X119731769Y-134567708D01*
X119850193Y-134594505D01*
X119850195Y-134594505D01*
X119855740Y-134595760D01*
X119973135Y-134600372D01*
X120052161Y-134603477D01*
X120052163Y-134603477D01*
X120057842Y-134603700D01*
X120063462Y-134602885D01*
X120063465Y-134602885D01*
X120252387Y-134575493D01*
X120252389Y-134575493D01*
X120258007Y-134574678D01*
X120263384Y-134572853D01*
X120263387Y-134572852D01*
X120379171Y-134533548D01*
X120449531Y-134509664D01*
X120626001Y-134410837D01*
X120657055Y-134385010D01*
X120777138Y-134285137D01*
X120781505Y-134281505D01*
X120812238Y-134244553D01*
X120907206Y-134130367D01*
X120907207Y-134130366D01*
X120910837Y-134126001D01*
X120924772Y-134101119D01*
X121000941Y-133965107D01*
X121009664Y-133949531D01*
X121047512Y-133838035D01*
X121072852Y-133763387D01*
X121072853Y-133763384D01*
X121074678Y-133758007D01*
X121081539Y-133710687D01*
X121103176Y-133561458D01*
X121103176Y-133561453D01*
X121103700Y-133557842D01*
X121104228Y-133537703D01*
X121105119Y-133503661D01*
X121105215Y-133500000D01*
X121086708Y-133298591D01*
X121053405Y-133180506D01*
X121033352Y-133109403D01*
X121033351Y-133109400D01*
X121031807Y-133103926D01*
X120942351Y-132922527D01*
X120821335Y-132760467D01*
X120692901Y-132641744D01*
X120676988Y-132627034D01*
X120676986Y-132627033D01*
X120672812Y-132623174D01*
X120635846Y-132599850D01*
X120506566Y-132518280D01*
X120506564Y-132518279D01*
X120501757Y-132515246D01*
X120313898Y-132440298D01*
X120308317Y-132439188D01*
X120308314Y-132439187D01*
X120240373Y-132425673D01*
X120115526Y-132400839D01*
X120109839Y-132400765D01*
X120109834Y-132400764D01*
X119918975Y-132398266D01*
X119918970Y-132398266D01*
X119913286Y-132398192D01*
X119907682Y-132399155D01*
X119907681Y-132399155D01*
X119719546Y-132431482D01*
X119719543Y-132431483D01*
X119713949Y-132432444D01*
X119690372Y-132441142D01*
X119529521Y-132500483D01*
X119529517Y-132500485D01*
X119524193Y-132502449D01*
X119519310Y-132505354D01*
X119519308Y-132505355D01*
X119358864Y-132600809D01*
X119350371Y-132605862D01*
X119198305Y-132739220D01*
X119073089Y-132898057D01*
X119070442Y-132903088D01*
X119050838Y-132940348D01*
X118978914Y-133077053D01*
X118977229Y-133082479D01*
X118977228Y-133082482D01*
X118951343Y-133165846D01*
X118918937Y-133270213D01*
X118918269Y-133275853D01*
X118918269Y-133275855D01*
X118915914Y-133295752D01*
X118888485Y-133360013D01*
X118867087Y-133380440D01*
X118682805Y-133518392D01*
X118587181Y-133614016D01*
X118525858Y-133647501D01*
X118456166Y-133642517D01*
X118400233Y-133600645D01*
X118375816Y-133535181D01*
X118375500Y-133526335D01*
X118375500Y-132999312D01*
X118377027Y-132979915D01*
X118378654Y-132969642D01*
X118378654Y-132969641D01*
X118380181Y-132960000D01*
X118378654Y-132950359D01*
X118378654Y-132941378D01*
X118377971Y-132925448D01*
X118389538Y-132763723D01*
X118391403Y-132737649D01*
X118393920Y-132720142D01*
X118396555Y-132708032D01*
X118439417Y-132510995D01*
X118444401Y-132494019D01*
X118519205Y-132293464D01*
X118526555Y-132277371D01*
X118629132Y-132089515D01*
X118638697Y-132074632D01*
X118766973Y-131903275D01*
X118778559Y-131889904D01*
X118929907Y-131738556D01*
X118943271Y-131726975D01*
X119009264Y-131677573D01*
X119074727Y-131653157D01*
X119143000Y-131668009D01*
X119170098Y-131688018D01*
X119304466Y-131818913D01*
X119472637Y-131931282D01*
X119658470Y-132011122D01*
X119754502Y-132032852D01*
X119850193Y-132054505D01*
X119850195Y-132054505D01*
X119855740Y-132055760D01*
X119973135Y-132060372D01*
X120052161Y-132063477D01*
X120052163Y-132063477D01*
X120057842Y-132063700D01*
X120063462Y-132062885D01*
X120063465Y-132062885D01*
X120252387Y-132035493D01*
X120252389Y-132035493D01*
X120258007Y-132034678D01*
X120263384Y-132032853D01*
X120263387Y-132032852D01*
X120348090Y-132004099D01*
X120449531Y-131969664D01*
X120580751Y-131896178D01*
X120621048Y-131873611D01*
X120621050Y-131873610D01*
X120626001Y-131870837D01*
X120639919Y-131859262D01*
X120777138Y-131745137D01*
X120781505Y-131741505D01*
X120842631Y-131668009D01*
X120907206Y-131590367D01*
X120907207Y-131590366D01*
X120910837Y-131586001D01*
X120915512Y-131577654D01*
X120996405Y-131433206D01*
X121009664Y-131409531D01*
X121074678Y-131218007D01*
X121080718Y-131176350D01*
X121103176Y-131021458D01*
X121103176Y-131021453D01*
X121103700Y-131017842D01*
X121103882Y-131010913D01*
X121105119Y-130963661D01*
X121105215Y-130960000D01*
X121086708Y-130758591D01*
X121058164Y-130657380D01*
X121033352Y-130569403D01*
X121033351Y-130569400D01*
X121031807Y-130563926D01*
X120942351Y-130382527D01*
X120821335Y-130220467D01*
X120745126Y-130150020D01*
X120676988Y-130087034D01*
X120676986Y-130087033D01*
X120672812Y-130083174D01*
X120613570Y-130045795D01*
X120506566Y-129978280D01*
X120506564Y-129978279D01*
X120501757Y-129975246D01*
X120313898Y-129900298D01*
X120308317Y-129899188D01*
X120308314Y-129899187D01*
X120240373Y-129885673D01*
X120115526Y-129860839D01*
X120109839Y-129860765D01*
X120109834Y-129860764D01*
X119918975Y-129858266D01*
X119918970Y-129858266D01*
X119913286Y-129858192D01*
X119907682Y-129859155D01*
X119907681Y-129859155D01*
X119719546Y-129891482D01*
X119719543Y-129891483D01*
X119713949Y-129892444D01*
X119692660Y-129900298D01*
X119529521Y-129960483D01*
X119529517Y-129960485D01*
X119524193Y-129962449D01*
X119519310Y-129965354D01*
X119519308Y-129965355D01*
X119355262Y-130062952D01*
X119350371Y-130065862D01*
X119198305Y-130199220D01*
X119073089Y-130358057D01*
X118978914Y-130537053D01*
X118977229Y-130542479D01*
X118977228Y-130542482D01*
X118969403Y-130567683D01*
X118918937Y-130730213D01*
X118918269Y-130735855D01*
X118918269Y-130735856D01*
X118912358Y-130785795D01*
X118884930Y-130850056D01*
X118853368Y-130877336D01*
X118661808Y-130993138D01*
X118648095Y-131001428D01*
X118421873Y-131178662D01*
X118218662Y-131381873D01*
X118216350Y-131384824D01*
X118097111Y-131537021D01*
X118040271Y-131577654D01*
X117970486Y-131581106D01*
X117909914Y-131546282D01*
X117877784Y-131484238D01*
X117875500Y-131460548D01*
X117875500Y-130959312D01*
X117877027Y-130939915D01*
X117878654Y-130929642D01*
X117878654Y-130929641D01*
X117880181Y-130920000D01*
X117878654Y-130910359D01*
X117878654Y-130904426D01*
X117877776Y-130885274D01*
X117893144Y-130650802D01*
X117895262Y-130634721D01*
X117946306Y-130378108D01*
X117950504Y-130362440D01*
X117954247Y-130351416D01*
X118033977Y-130116538D01*
X118034605Y-130114687D01*
X118040812Y-130099703D01*
X118156534Y-129865040D01*
X118164641Y-129850998D01*
X118285312Y-129670401D01*
X118310006Y-129633444D01*
X118319880Y-129620576D01*
X118411801Y-129515760D01*
X118492398Y-129423857D01*
X118503857Y-129412398D01*
X118623072Y-129307849D01*
X118700576Y-129239880D01*
X118713444Y-129230006D01*
X118827916Y-129153518D01*
X118931001Y-129084639D01*
X118945032Y-129076538D01*
X118977060Y-129060744D01*
X119045890Y-129048749D01*
X119110281Y-129075871D01*
X119133163Y-129100391D01*
X119156303Y-129133133D01*
X119156308Y-129133139D01*
X119159588Y-129137780D01*
X119304466Y-129278913D01*
X119472637Y-129391282D01*
X119658470Y-129471122D01*
X119746963Y-129491146D01*
X119850193Y-129514505D01*
X119850195Y-129514505D01*
X119855740Y-129515760D01*
X119973135Y-129520372D01*
X120052161Y-129523477D01*
X120052163Y-129523477D01*
X120057842Y-129523700D01*
X120063462Y-129522885D01*
X120063465Y-129522885D01*
X120252387Y-129495493D01*
X120252389Y-129495493D01*
X120258007Y-129494678D01*
X120263384Y-129492853D01*
X120263387Y-129492852D01*
X120348090Y-129464099D01*
X120449531Y-129429664D01*
X120550897Y-129372897D01*
X120621048Y-129333611D01*
X120621050Y-129333610D01*
X120626001Y-129330837D01*
X120688433Y-129278913D01*
X120777138Y-129205137D01*
X120781505Y-129201505D01*
X120846820Y-129122973D01*
X120907206Y-129050367D01*
X120907207Y-129050366D01*
X120910837Y-129046001D01*
X120918268Y-129032733D01*
X120957392Y-128962871D01*
X121009664Y-128869531D01*
X121074678Y-128678007D01*
X121088992Y-128579283D01*
X121103176Y-128481458D01*
X121103176Y-128481453D01*
X121103700Y-128477842D01*
X121105215Y-128420000D01*
X121086708Y-128218591D01*
X121031807Y-128023926D01*
X120942351Y-127842527D01*
X120821335Y-127680467D01*
X120672812Y-127543174D01*
X120640762Y-127522952D01*
X120506566Y-127438280D01*
X120506564Y-127438279D01*
X120501757Y-127435246D01*
X120313898Y-127360298D01*
X120308317Y-127359188D01*
X120308314Y-127359187D01*
X120240373Y-127345673D01*
X120115526Y-127320839D01*
X120109839Y-127320765D01*
X120109834Y-127320764D01*
X119918975Y-127318266D01*
X119918970Y-127318266D01*
X119913286Y-127318192D01*
X119907682Y-127319155D01*
X119907681Y-127319155D01*
X119719546Y-127351482D01*
X119719543Y-127351483D01*
X119713949Y-127352444D01*
X119692660Y-127360298D01*
X119529521Y-127420483D01*
X119529517Y-127420485D01*
X119524193Y-127422449D01*
X119519310Y-127425354D01*
X119519308Y-127425355D01*
X119355262Y-127522952D01*
X119350371Y-127525862D01*
X119198305Y-127659220D01*
X119073089Y-127818057D01*
X118978914Y-127997053D01*
X118977229Y-128002479D01*
X118977228Y-128002482D01*
X118921969Y-128180449D01*
X118918937Y-128190213D01*
X118918269Y-128195857D01*
X118917898Y-128197603D01*
X118884708Y-128259086D01*
X118844060Y-128286387D01*
X118750401Y-128325182D01*
X118747362Y-128326862D01*
X118747357Y-128326864D01*
X118572216Y-128423661D01*
X118467731Y-128481408D01*
X118464905Y-128483413D01*
X118464902Y-128483415D01*
X118336030Y-128574855D01*
X118204330Y-128668301D01*
X118201744Y-128670612D01*
X118201739Y-128670616D01*
X118180044Y-128690004D01*
X117963511Y-128883511D01*
X117959591Y-128887897D01*
X117758330Y-129113108D01*
X117748301Y-129124330D01*
X117600630Y-129332453D01*
X117545782Y-129375737D01*
X117476240Y-129382497D01*
X117414083Y-129350586D01*
X117379045Y-129290137D01*
X117375500Y-129260698D01*
X117375500Y-128919312D01*
X117377027Y-128899915D01*
X117378654Y-128889642D01*
X117378654Y-128889641D01*
X117380181Y-128880000D01*
X117378654Y-128870359D01*
X117378654Y-128868378D01*
X117377469Y-128844935D01*
X117391612Y-128593101D01*
X117393169Y-128579283D01*
X117426260Y-128384524D01*
X117440137Y-128302853D01*
X117443227Y-128289314D01*
X117520852Y-128019868D01*
X117525443Y-128006749D01*
X117632742Y-127747707D01*
X117638775Y-127735179D01*
X117742759Y-127547034D01*
X117774407Y-127489772D01*
X117781803Y-127478002D01*
X117944059Y-127249325D01*
X117952728Y-127238454D01*
X117993503Y-127192827D01*
X118139569Y-127029380D01*
X118149380Y-127019569D01*
X118358458Y-126832725D01*
X118369325Y-126824059D01*
X118598002Y-126661803D01*
X118609772Y-126654407D01*
X118720626Y-126593140D01*
X118855179Y-126518775D01*
X118867707Y-126512742D01*
X118920182Y-126491006D01*
X118955468Y-126476390D01*
X119024936Y-126468921D01*
X119087415Y-126500196D01*
X119104184Y-126519385D01*
X119159588Y-126597780D01*
X119304466Y-126738913D01*
X119472637Y-126851282D01*
X119658470Y-126931122D01*
X119754502Y-126952852D01*
X119850193Y-126974505D01*
X119850195Y-126974505D01*
X119855740Y-126975760D01*
X119973135Y-126980372D01*
X120052161Y-126983477D01*
X120052163Y-126983477D01*
X120057842Y-126983700D01*
X120063462Y-126982885D01*
X120063465Y-126982885D01*
X120252387Y-126955493D01*
X120252389Y-126955493D01*
X120258007Y-126954678D01*
X120263384Y-126952853D01*
X120263387Y-126952852D01*
X120431054Y-126895936D01*
X120449531Y-126889664D01*
X120626001Y-126790837D01*
X120688433Y-126738913D01*
X120777138Y-126665137D01*
X120781505Y-126661505D01*
X120910837Y-126506001D01*
X121009664Y-126329531D01*
X121072163Y-126145416D01*
X121072852Y-126143387D01*
X121072853Y-126143384D01*
X121074678Y-126138007D01*
X121103700Y-125937842D01*
X121105215Y-125880000D01*
X121086708Y-125678591D01*
X121031807Y-125483926D01*
X120942351Y-125302527D01*
X120821335Y-125140467D01*
X120672812Y-125003174D01*
X120640762Y-124982952D01*
X120506566Y-124898280D01*
X120506564Y-124898279D01*
X120501757Y-124895246D01*
X120313898Y-124820298D01*
X120308317Y-124819188D01*
X120308314Y-124819187D01*
X120240373Y-124805673D01*
X120115526Y-124780839D01*
X120109839Y-124780765D01*
X120109834Y-124780764D01*
X119918975Y-124778266D01*
X119918970Y-124778266D01*
X119913286Y-124778192D01*
X119907682Y-124779155D01*
X119907681Y-124779155D01*
X119719546Y-124811482D01*
X119719543Y-124811483D01*
X119713949Y-124812444D01*
X119692660Y-124820298D01*
X119529521Y-124880483D01*
X119529517Y-124880485D01*
X119524193Y-124882449D01*
X119519310Y-124885354D01*
X119519308Y-124885355D01*
X119355262Y-124982952D01*
X119350371Y-124985862D01*
X119198305Y-125119220D01*
X119073089Y-125278057D01*
X118978914Y-125457053D01*
X118977229Y-125462479D01*
X118977228Y-125462482D01*
X118926507Y-125625833D01*
X118887828Y-125684020D01*
X118852522Y-125704826D01*
X118628208Y-125790932D01*
X118628200Y-125790936D01*
X118625177Y-125792096D01*
X118309934Y-125952720D01*
X118307207Y-125954491D01*
X118015936Y-126143644D01*
X118015931Y-126143648D01*
X118013208Y-126145416D01*
X117738251Y-126368073D01*
X117488073Y-126618251D01*
X117486034Y-126620768D01*
X117486033Y-126620770D01*
X117453046Y-126661505D01*
X117265416Y-126893208D01*
X117263648Y-126895931D01*
X117263644Y-126895936D01*
X117176978Y-127029391D01*
X117072720Y-127189934D01*
X116912096Y-127505177D01*
X116910936Y-127508200D01*
X116910932Y-127508208D01*
X116851252Y-127663682D01*
X116785304Y-127835482D01*
X116693732Y-128177231D01*
X116693223Y-128180443D01*
X116693222Y-128180449D01*
X116679154Y-128269273D01*
X116638385Y-128526680D01*
X116619892Y-128879538D01*
X116619819Y-128880000D01*
X116621344Y-128889629D01*
X116621344Y-128889631D01*
X116622973Y-128899915D01*
X116624500Y-128919312D01*
X116624500Y-134710688D01*
X116622973Y-134730085D01*
X116622891Y-134730603D01*
X116619819Y-134750000D01*
X116621345Y-134759637D01*
X116621345Y-134765840D01*
X116620284Y-134782020D01*
X116616923Y-134807550D01*
X116615853Y-134815683D01*
X116613870Y-134830743D01*
X116605493Y-134862008D01*
X116580573Y-134922170D01*
X116564392Y-134950198D01*
X116533673Y-134990230D01*
X116524747Y-135001862D01*
X116501862Y-135024747D01*
X116490230Y-135033673D01*
X116450198Y-135064392D01*
X116422170Y-135080573D01*
X116362008Y-135105493D01*
X116330745Y-135113870D01*
X116310476Y-135116538D01*
X116282020Y-135120284D01*
X116265840Y-135121345D01*
X116259637Y-135121345D01*
X116250000Y-135119819D01*
X116240346Y-135121348D01*
X116230085Y-135122973D01*
X116210688Y-135124500D01*
X110289312Y-135124500D01*
X110269915Y-135122973D01*
X110262740Y-135121837D01*
X110250000Y-135119819D01*
X110248707Y-135120024D01*
X110238454Y-135120696D01*
X109976013Y-135137897D01*
X109976012Y-135137897D01*
X109971971Y-135138162D01*
X109698700Y-135192519D01*
X109498222Y-135260572D01*
X109454322Y-135275474D01*
X109434861Y-135282080D01*
X109184970Y-135405313D01*
X109028803Y-135509660D01*
X108958523Y-135556620D01*
X108953301Y-135560109D01*
X108743819Y-135743819D01*
X108560109Y-135953301D01*
X108557851Y-135956681D01*
X108557849Y-135956683D01*
X108528906Y-136000000D01*
X108405313Y-136184970D01*
X108282080Y-136434861D01*
X108251039Y-136526306D01*
X108217686Y-136624560D01*
X108177497Y-136681714D01*
X108157142Y-136694888D01*
X108138321Y-136704603D01*
X108138316Y-136704606D01*
X108131679Y-136708032D01*
X108126054Y-136712939D01*
X108126051Y-136712941D01*
X108067345Y-136764154D01*
X108013034Y-136811533D01*
X107922501Y-136940348D01*
X107919785Y-136947313D01*
X107919785Y-136947314D01*
X107908376Y-136976577D01*
X107865309Y-137087039D01*
X107844758Y-137243138D01*
X107845578Y-137250566D01*
X107845578Y-137250568D01*
X107854205Y-137328708D01*
X107862035Y-137399633D01*
X107864601Y-137406645D01*
X107864602Y-137406649D01*
X107887256Y-137468553D01*
X107916143Y-137547490D01*
X108003958Y-137678172D01*
X108048835Y-137719007D01*
X108114878Y-137779102D01*
X108114882Y-137779105D01*
X108120410Y-137784135D01*
X108126980Y-137787702D01*
X108126981Y-137787703D01*
X108249499Y-137854225D01*
X108258776Y-137859262D01*
X108361031Y-137886088D01*
X108403841Y-137897319D01*
X108403843Y-137897319D01*
X108411069Y-137899215D01*
X108488127Y-137900425D01*
X108561025Y-137901571D01*
X108561028Y-137901571D01*
X108568495Y-137901688D01*
X108575776Y-137900020D01*
X108575780Y-137900020D01*
X108714681Y-137868207D01*
X108721968Y-137866538D01*
X108862625Y-137795795D01*
X108868306Y-137790943D01*
X108868309Y-137790941D01*
X108916321Y-137749934D01*
X108919337Y-137747359D01*
X108983097Y-137718788D01*
X109052183Y-137729225D01*
X109083319Y-137749933D01*
X109120907Y-137784135D01*
X109127477Y-137787702D01*
X109127478Y-137787703D01*
X109249996Y-137854225D01*
X109259273Y-137859262D01*
X109361528Y-137886088D01*
X109404338Y-137897319D01*
X109404340Y-137897319D01*
X109411566Y-137899215D01*
X109488624Y-137900425D01*
X109561522Y-137901571D01*
X109561525Y-137901571D01*
X109568992Y-137901688D01*
X109576273Y-137900020D01*
X109576277Y-137900020D01*
X109715178Y-137868207D01*
X109722465Y-137866538D01*
X109863122Y-137795795D01*
X109915391Y-137751153D01*
X109919322Y-137747796D01*
X109983083Y-137719226D01*
X110052169Y-137729664D01*
X110083306Y-137750373D01*
X110114878Y-137779102D01*
X110114882Y-137779105D01*
X110120410Y-137784135D01*
X110126980Y-137787702D01*
X110126981Y-137787703D01*
X110249499Y-137854225D01*
X110258776Y-137859262D01*
X110361031Y-137886088D01*
X110403841Y-137897319D01*
X110403843Y-137897319D01*
X110411069Y-137899215D01*
X110488127Y-137900425D01*
X110561025Y-137901571D01*
X110561028Y-137901571D01*
X110568495Y-137901688D01*
X110575776Y-137900020D01*
X110575780Y-137900020D01*
X110714681Y-137868207D01*
X110721968Y-137866538D01*
X110862625Y-137795795D01*
X110868308Y-137790941D01*
X110868313Y-137790938D01*
X110919081Y-137747578D01*
X110982842Y-137719007D01*
X111051928Y-137729444D01*
X111083062Y-137750151D01*
X111120410Y-137784135D01*
X111126980Y-137787702D01*
X111126981Y-137787703D01*
X111249499Y-137854225D01*
X111258776Y-137859262D01*
X111361031Y-137886088D01*
X111403841Y-137897319D01*
X111403843Y-137897319D01*
X111411069Y-137899215D01*
X111488127Y-137900425D01*
X111561025Y-137901571D01*
X111561028Y-137901571D01*
X111568495Y-137901688D01*
X111575776Y-137900020D01*
X111575780Y-137900020D01*
X111714681Y-137868207D01*
X111721968Y-137866538D01*
X111862625Y-137795795D01*
X111868306Y-137790943D01*
X111868309Y-137790941D01*
X111976666Y-137698395D01*
X111976667Y-137698394D01*
X111982348Y-137693542D01*
X111993393Y-137678172D01*
X112049644Y-137599889D01*
X112074224Y-137565683D01*
X112077010Y-137558752D01*
X112077013Y-137558747D01*
X112119422Y-137453250D01*
X112162691Y-137398390D01*
X112234474Y-137375500D01*
X116210688Y-137375500D01*
X116230085Y-137377027D01*
X116240358Y-137378654D01*
X116240359Y-137378654D01*
X116250000Y-137380181D01*
X116255322Y-137379338D01*
X116263090Y-137378902D01*
X116263091Y-137378902D01*
X116540959Y-137363297D01*
X116540964Y-137363296D01*
X116544426Y-137363102D01*
X116835149Y-137313706D01*
X117118514Y-137232070D01*
X117390957Y-137119221D01*
X117393996Y-137117541D01*
X117394001Y-137117539D01*
X117582193Y-137013528D01*
X117649051Y-136976577D01*
X117657694Y-136970445D01*
X117728896Y-136919924D01*
X117889552Y-136805933D01*
X118002940Y-136704603D01*
X118094835Y-136622481D01*
X118157939Y-136592487D01*
X118227242Y-136601372D01*
X118280740Y-136646313D01*
X118301447Y-136713044D01*
X118288674Y-136769785D01*
X118265343Y-136817094D01*
X118265340Y-136817101D01*
X118263547Y-136820737D01*
X118262243Y-136824577D01*
X118262241Y-136824583D01*
X118232674Y-136911685D01*
X118184519Y-137053543D01*
X118136556Y-137294673D01*
X118136291Y-137298721D01*
X118136290Y-137298726D01*
X118121724Y-137520962D01*
X118120940Y-137532923D01*
X118119819Y-137540000D01*
X118121346Y-137549641D01*
X118121346Y-137549642D01*
X118122973Y-137559915D01*
X118124500Y-137579312D01*
X118124500Y-137658570D01*
X118104815Y-137725609D01*
X118052011Y-137771364D01*
X117982853Y-137781308D01*
X117918011Y-137751153D01*
X117879559Y-137716893D01*
X117879558Y-137716892D01*
X117873976Y-137711919D01*
X117734831Y-137638245D01*
X117582128Y-137599889D01*
X117500329Y-137599461D01*
X117432158Y-137599104D01*
X117432157Y-137599104D01*
X117424684Y-137599065D01*
X117417421Y-137600809D01*
X117417418Y-137600809D01*
X117348136Y-137617442D01*
X117271588Y-137635820D01*
X117131679Y-137708032D01*
X117013034Y-137811533D01*
X116922501Y-137940348D01*
X116865309Y-138087039D01*
X116844758Y-138243138D01*
X116862035Y-138399633D01*
X116864601Y-138406645D01*
X116864602Y-138406649D01*
X116887673Y-138469693D01*
X116916143Y-138547490D01*
X116920309Y-138553690D01*
X116921959Y-138556928D01*
X116934855Y-138625597D01*
X116908578Y-138690338D01*
X116877447Y-138718215D01*
X116811372Y-138759733D01*
X116786359Y-138771779D01*
X116691399Y-138805006D01*
X116664337Y-138811182D01*
X116612712Y-138816999D01*
X116584452Y-138820183D01*
X116569890Y-138819857D01*
X116569890Y-138820855D01*
X116560127Y-138820855D01*
X116550490Y-138819329D01*
X116540849Y-138820856D01*
X116530575Y-138822483D01*
X116511178Y-138824010D01*
X107339802Y-138824010D01*
X107320405Y-138822483D01*
X107310132Y-138820856D01*
X107310131Y-138820856D01*
X107300490Y-138819329D01*
X107290849Y-138820856D01*
X107284917Y-138820856D01*
X107265762Y-138821734D01*
X107057334Y-138808072D01*
X107041263Y-138805957D01*
X106810238Y-138760004D01*
X106794571Y-138755806D01*
X106571524Y-138680091D01*
X106556539Y-138673884D01*
X106345285Y-138569705D01*
X106331238Y-138561595D01*
X106135388Y-138430732D01*
X106122520Y-138420858D01*
X106009715Y-138321931D01*
X105945422Y-138265547D01*
X105933963Y-138254088D01*
X105816366Y-138119995D01*
X105778652Y-138076990D01*
X105768778Y-138064122D01*
X105637915Y-137868272D01*
X105629805Y-137854225D01*
X105525626Y-137642971D01*
X105519419Y-137627986D01*
X105448680Y-137419598D01*
X105443704Y-137404938D01*
X105439506Y-137389271D01*
X105428563Y-137334256D01*
X105393553Y-137158247D01*
X105391437Y-137142171D01*
X105389823Y-137117539D01*
X105377776Y-136933748D01*
X105378654Y-136914593D01*
X105378654Y-136908661D01*
X105380181Y-136899020D01*
X105377027Y-136879105D01*
X105375500Y-136859708D01*
X105375500Y-135091766D01*
X105395185Y-135024727D01*
X105447989Y-134978972D01*
X105517147Y-134969028D01*
X105582951Y-135000050D01*
X105620410Y-135034135D01*
X105626980Y-135037702D01*
X105626981Y-135037703D01*
X105752208Y-135105696D01*
X105758776Y-135109262D01*
X105861031Y-135136088D01*
X105903841Y-135147319D01*
X105903843Y-135147319D01*
X105911069Y-135149215D01*
X105988127Y-135150425D01*
X106061025Y-135151571D01*
X106061028Y-135151571D01*
X106068495Y-135151688D01*
X106075776Y-135150020D01*
X106075780Y-135150020D01*
X106214681Y-135118207D01*
X106221968Y-135116538D01*
X106362625Y-135045795D01*
X106368306Y-135040943D01*
X106368309Y-135040941D01*
X106476666Y-134948395D01*
X106476667Y-134948394D01*
X106482348Y-134943542D01*
X106486870Y-134937250D01*
X106542909Y-134859262D01*
X106574224Y-134815683D01*
X106632950Y-134669598D01*
X106636036Y-134647914D01*
X106654562Y-134517744D01*
X106654562Y-134517740D01*
X106655134Y-134513723D01*
X106655278Y-134500000D01*
X106648617Y-134444954D01*
X106637262Y-134351119D01*
X106637261Y-134351115D01*
X106636363Y-134343694D01*
X106598901Y-134244553D01*
X106594322Y-134171776D01*
X106614121Y-134089308D01*
X106619439Y-134021744D01*
X106623571Y-133969237D01*
X106624375Y-133963744D01*
X106625023Y-133961899D01*
X106625500Y-133956392D01*
X106625500Y-133949608D01*
X106625882Y-133939878D01*
X106628048Y-133912359D01*
X106628655Y-133907234D01*
X106628655Y-133906085D01*
X106630181Y-133896448D01*
X106627027Y-133876533D01*
X106625500Y-133857136D01*
X106625500Y-130539311D01*
X106627027Y-130519914D01*
X106628654Y-130509643D01*
X106628654Y-130509640D01*
X106630181Y-130499999D01*
X106629216Y-130493909D01*
X106613064Y-130268076D01*
X106583358Y-130131520D01*
X106564580Y-130045199D01*
X106564579Y-130045197D01*
X106563639Y-130040874D01*
X106562096Y-130036738D01*
X106562094Y-130036730D01*
X106511207Y-129900298D01*
X106482383Y-129823018D01*
X106454349Y-129771677D01*
X106373077Y-129622839D01*
X106373076Y-129622837D01*
X106370950Y-129618944D01*
X106293875Y-129515983D01*
X106234267Y-129436357D01*
X106231608Y-129432805D01*
X106067195Y-129268392D01*
X106035429Y-129244612D01*
X105884610Y-129131710D01*
X105884605Y-129131707D01*
X105881056Y-129129050D01*
X105872724Y-129124500D01*
X105680872Y-129019741D01*
X105680871Y-129019740D01*
X105676982Y-129017617D01*
X105580626Y-128981678D01*
X105463270Y-128937906D01*
X105463262Y-128937904D01*
X105459126Y-128936361D01*
X105454803Y-128935421D01*
X105454801Y-128935420D01*
X105291587Y-128899915D01*
X105231924Y-128886936D01*
X105107152Y-128878012D01*
X105067572Y-128875181D01*
X105065460Y-128874881D01*
X105065452Y-128874977D01*
X105059945Y-128874500D01*
X105058184Y-128874500D01*
X105057506Y-128874461D01*
X105036697Y-128872973D01*
X105006091Y-128870784D01*
X105000001Y-128869819D01*
X104990360Y-128871346D01*
X104990357Y-128871346D01*
X104980086Y-128872973D01*
X104960689Y-128874500D01*
X90539312Y-128874500D01*
X90519915Y-128872973D01*
X90512740Y-128871837D01*
X90500000Y-128869819D01*
X90498707Y-128870024D01*
X90488454Y-128870696D01*
X90226013Y-128887897D01*
X90226012Y-128887897D01*
X90221971Y-128888162D01*
X89948700Y-128942519D01*
X89748222Y-129010572D01*
X89721211Y-129019741D01*
X89684861Y-129032080D01*
X89434970Y-129155313D01*
X89203301Y-129310109D01*
X88993819Y-129493819D01*
X88810109Y-129703301D01*
X88655313Y-129934970D01*
X88532080Y-130184861D01*
X88496097Y-130290865D01*
X88467686Y-130374560D01*
X88427497Y-130431714D01*
X88407142Y-130444888D01*
X88388321Y-130454603D01*
X88388316Y-130454606D01*
X88381679Y-130458032D01*
X88376054Y-130462939D01*
X88376051Y-130462941D01*
X88310741Y-130519915D01*
X88263034Y-130561533D01*
X88172501Y-130690348D01*
X88115309Y-130837039D01*
X88094758Y-130993138D01*
X88095578Y-131000566D01*
X88095578Y-131000568D01*
X88099470Y-131035818D01*
X88112035Y-131149633D01*
X88166143Y-131297490D01*
X88170314Y-131303697D01*
X88234781Y-131399633D01*
X88253958Y-131428172D01*
X88289539Y-131460548D01*
X88364878Y-131529102D01*
X88364882Y-131529105D01*
X88370410Y-131534135D01*
X88376980Y-131537702D01*
X88376981Y-131537703D01*
X88473976Y-131590367D01*
X88508776Y-131609262D01*
X88611031Y-131636088D01*
X88653841Y-131647319D01*
X88653843Y-131647319D01*
X88661069Y-131649215D01*
X88738127Y-131650425D01*
X88811025Y-131651571D01*
X88811028Y-131651571D01*
X88818495Y-131651688D01*
X88825776Y-131650020D01*
X88825780Y-131650020D01*
X88964681Y-131618207D01*
X88971968Y-131616538D01*
X89013435Y-131595682D01*
X89082172Y-131583146D01*
X89146774Y-131609761D01*
X89186731Y-131667077D01*
X89189357Y-131736898D01*
X89177983Y-131765887D01*
X89120868Y-131870485D01*
X89111303Y-131885368D01*
X88983027Y-132056725D01*
X88971441Y-132070096D01*
X88820096Y-132221441D01*
X88806725Y-132233027D01*
X88635368Y-132361303D01*
X88620485Y-132370868D01*
X88432629Y-132473445D01*
X88416536Y-132480795D01*
X88215981Y-132555599D01*
X88199005Y-132560583D01*
X87989853Y-132606081D01*
X87972351Y-132608597D01*
X87784552Y-132622029D01*
X87768622Y-132621346D01*
X87759641Y-132621346D01*
X87750000Y-132619819D01*
X87740359Y-132621346D01*
X87740358Y-132621346D01*
X87730085Y-132622973D01*
X87710688Y-132624500D01*
X87346525Y-132624500D01*
X87279486Y-132604815D01*
X87251522Y-132577705D01*
X87250707Y-132578424D01*
X87245768Y-132572822D01*
X87241531Y-132566657D01*
X87137721Y-132474165D01*
X87129559Y-132466893D01*
X87129558Y-132466892D01*
X87123976Y-132461919D01*
X86984831Y-132388245D01*
X86898726Y-132366617D01*
X86839378Y-132351710D01*
X86832128Y-132349889D01*
X86750329Y-132349461D01*
X86682158Y-132349104D01*
X86682157Y-132349104D01*
X86674684Y-132349065D01*
X86667421Y-132350809D01*
X86667418Y-132350809D01*
X86601574Y-132366617D01*
X86521588Y-132385820D01*
X86381679Y-132458032D01*
X86263034Y-132561533D01*
X86172501Y-132690348D01*
X86115309Y-132837039D01*
X86094758Y-132993138D01*
X84625500Y-132993138D01*
X84625500Y-125289312D01*
X84627027Y-125269915D01*
X84628654Y-125259642D01*
X84628654Y-125259641D01*
X84630181Y-125250000D01*
X84628654Y-125240359D01*
X84628654Y-125238378D01*
X84627469Y-125214935D01*
X84643184Y-124935110D01*
X84644741Y-124921292D01*
X84696404Y-124617229D01*
X84699498Y-124603673D01*
X84784879Y-124307305D01*
X84789472Y-124294179D01*
X84907500Y-124009236D01*
X84913533Y-123996708D01*
X84996542Y-123846513D01*
X85062725Y-123726764D01*
X85070120Y-123714995D01*
X85081899Y-123698395D01*
X85248601Y-123463450D01*
X85257269Y-123452582D01*
X85286746Y-123419598D01*
X85462783Y-123222613D01*
X85472614Y-123212782D01*
X85492020Y-123195440D01*
X85702586Y-123007266D01*
X85713450Y-122998601D01*
X85965001Y-122820116D01*
X85976764Y-122812725D01*
X86096513Y-122746542D01*
X86246708Y-122663533D01*
X86259236Y-122657500D01*
X86544179Y-122539472D01*
X86557305Y-122534879D01*
X86853673Y-122449498D01*
X86867229Y-122446404D01*
X87171292Y-122394741D01*
X87185110Y-122393184D01*
X87464935Y-122377469D01*
X87488402Y-122378654D01*
X87490360Y-122378654D01*
X87500000Y-122380181D01*
X87505388Y-122379328D01*
X87696188Y-122362635D01*
X87886414Y-122311664D01*
X87891314Y-122309379D01*
X87891317Y-122309378D01*
X88059986Y-122230727D01*
X88059991Y-122230724D01*
X88064900Y-122228435D01*
X88226221Y-122115476D01*
X88365476Y-121976221D01*
X88478435Y-121814900D01*
X88533368Y-121697095D01*
X88579540Y-121644656D01*
X88645750Y-121625500D01*
X98210688Y-121625500D01*
X98230085Y-121627027D01*
X98240358Y-121628654D01*
X98240359Y-121628654D01*
X98250000Y-121630181D01*
X98259641Y-121628654D01*
X98268622Y-121628654D01*
X98284552Y-121627971D01*
X98294102Y-121628654D01*
X98472351Y-121641403D01*
X98489853Y-121643919D01*
X98678912Y-121685046D01*
X98699005Y-121689417D01*
X98715981Y-121694401D01*
X98916536Y-121769205D01*
X98932629Y-121776555D01*
X99120485Y-121879132D01*
X99135368Y-121888697D01*
X99306725Y-122016973D01*
X99320096Y-122028559D01*
X99471441Y-122179904D01*
X99483027Y-122193275D01*
X99611303Y-122364632D01*
X99620868Y-122379515D01*
X99723445Y-122567371D01*
X99730795Y-122583464D01*
X99774720Y-122701231D01*
X99779704Y-122770923D01*
X99759989Y-122815865D01*
X99750797Y-122828944D01*
X99672501Y-122940348D01*
X99615309Y-123087039D01*
X99594758Y-123243138D01*
X99595578Y-123250566D01*
X99595578Y-123250568D01*
X99608814Y-123370459D01*
X99612035Y-123399633D01*
X99614601Y-123406645D01*
X99614602Y-123406649D01*
X99633313Y-123457779D01*
X99666143Y-123547490D01*
X99753958Y-123678172D01*
X99808693Y-123727977D01*
X99864878Y-123779102D01*
X99864882Y-123779105D01*
X99870410Y-123784135D01*
X100008776Y-123859262D01*
X100111031Y-123886088D01*
X100153841Y-123897319D01*
X100153843Y-123897319D01*
X100161069Y-123899215D01*
X100238127Y-123900425D01*
X100311025Y-123901571D01*
X100311028Y-123901571D01*
X100318495Y-123901688D01*
X100325776Y-123900020D01*
X100325780Y-123900020D01*
X100464681Y-123868207D01*
X100471968Y-123866538D01*
X100612625Y-123795795D01*
X100618306Y-123790943D01*
X100618309Y-123790941D01*
X100726666Y-123698395D01*
X100726667Y-123698394D01*
X100732348Y-123693542D01*
X100743393Y-123678172D01*
X100763798Y-123649775D01*
X100824224Y-123565683D01*
X100882950Y-123419598D01*
X100884793Y-123406649D01*
X100904562Y-123267744D01*
X100904562Y-123267740D01*
X100905134Y-123263723D01*
X100905278Y-123250000D01*
X100886363Y-123093694D01*
X100851951Y-123002625D01*
X100833354Y-122953408D01*
X100833352Y-122953405D01*
X100830710Y-122946412D01*
X100826473Y-122940247D01*
X100745768Y-122822821D01*
X100745765Y-122822818D01*
X100741531Y-122816657D01*
X100696754Y-122776762D01*
X100629558Y-122716892D01*
X100629556Y-122716891D01*
X100623976Y-122711919D01*
X100605078Y-122701913D01*
X100555043Y-122653147D01*
X100544718Y-122629217D01*
X100476306Y-122409673D01*
X100476304Y-122409668D01*
X100475191Y-122406096D01*
X100462841Y-122378654D01*
X100358783Y-122147447D01*
X100358783Y-122147446D01*
X100357246Y-122144032D01*
X100302131Y-122052861D01*
X100210509Y-121901299D01*
X100210508Y-121901298D01*
X100208572Y-121898095D01*
X100031338Y-121671873D01*
X99828127Y-121468662D01*
X99601905Y-121291428D01*
X99437003Y-121191741D01*
X99359174Y-121144692D01*
X99359173Y-121144691D01*
X99355968Y-121142754D01*
X99352553Y-121141217D01*
X99097315Y-121026344D01*
X99097313Y-121026343D01*
X99093904Y-121024809D01*
X99090332Y-121023696D01*
X99090327Y-121023694D01*
X98956719Y-120982061D01*
X98819533Y-120939312D01*
X98705599Y-120918433D01*
X98540543Y-120888185D01*
X98540538Y-120888184D01*
X98536858Y-120887510D01*
X98253463Y-120870367D01*
X98250000Y-120869819D01*
X98240365Y-120871345D01*
X98240362Y-120871345D01*
X98230085Y-120872973D01*
X98210688Y-120874500D01*
X88749500Y-120874500D01*
X88682461Y-120854815D01*
X88636706Y-120802011D01*
X88625500Y-120750500D01*
X88625500Y-116789312D01*
X88627027Y-116769915D01*
X88628655Y-116759639D01*
X88628655Y-116759635D01*
X88630181Y-116750000D01*
X88629328Y-116744612D01*
X88612635Y-116553812D01*
X88580319Y-116433206D01*
X88563065Y-116368813D01*
X88563063Y-116368809D01*
X88561664Y-116363586D01*
X88478435Y-116185101D01*
X88365476Y-116023779D01*
X88226221Y-115884524D01*
X88156358Y-115835605D01*
X88111487Y-115777861D01*
X88083354Y-115703408D01*
X88083352Y-115703405D01*
X88080710Y-115696412D01*
X88041368Y-115639169D01*
X87995768Y-115572821D01*
X87995765Y-115572818D01*
X87991531Y-115566657D01*
X87873976Y-115461919D01*
X87734831Y-115388245D01*
X87582128Y-115349889D01*
X87500329Y-115349461D01*
X87432158Y-115349104D01*
X87432157Y-115349104D01*
X87424684Y-115349065D01*
X87417421Y-115350809D01*
X87417418Y-115350809D01*
X87348136Y-115367442D01*
X87271588Y-115385820D01*
X87131679Y-115458032D01*
X87013034Y-115561533D01*
X86922501Y-115690348D01*
X86865309Y-115837039D01*
X86844758Y-115993138D01*
X86862035Y-116149633D01*
X86864601Y-116156645D01*
X86864602Y-116156649D01*
X86881836Y-116203741D01*
X86916143Y-116297490D01*
X87003958Y-116428172D01*
X87055092Y-116474700D01*
X87114878Y-116529102D01*
X87114882Y-116529105D01*
X87120410Y-116534135D01*
X87126980Y-116537702D01*
X87126981Y-116537703D01*
X87169312Y-116560687D01*
X87258776Y-116609262D01*
X87361031Y-116636088D01*
X87403841Y-116647319D01*
X87403843Y-116647319D01*
X87411069Y-116649215D01*
X87488127Y-116650425D01*
X87561025Y-116651571D01*
X87561028Y-116651571D01*
X87568495Y-116651688D01*
X87575776Y-116650020D01*
X87575780Y-116650020D01*
X87686778Y-116624598D01*
X87719662Y-116617066D01*
X87789404Y-116621287D01*
X87845793Y-116662543D01*
X87870925Y-116727736D01*
X87871345Y-116737932D01*
X87871345Y-116740364D01*
X87869819Y-116750000D01*
X87871346Y-116759639D01*
X87871346Y-116759640D01*
X87872973Y-116769915D01*
X87874500Y-116789312D01*
X87874500Y-117764329D01*
X87854815Y-117831368D01*
X87802011Y-117877123D01*
X87732853Y-117887067D01*
X87720292Y-117884593D01*
X87589378Y-117851710D01*
X87582128Y-117849889D01*
X87500329Y-117849461D01*
X87432158Y-117849104D01*
X87432157Y-117849104D01*
X87424684Y-117849065D01*
X87417421Y-117850809D01*
X87417418Y-117850809D01*
X87348136Y-117867442D01*
X87271588Y-117885820D01*
X87131679Y-117958032D01*
X87013034Y-118061533D01*
X87006580Y-118070717D01*
X86979921Y-118108649D01*
X86925269Y-118152179D01*
X86893809Y-118160397D01*
X86837476Y-118167418D01*
X86658196Y-118189765D01*
X86658184Y-118189767D01*
X86655649Y-118190083D01*
X86653138Y-118190609D01*
X86653135Y-118190610D01*
X86553638Y-118211472D01*
X86240688Y-118277091D01*
X85834330Y-118398069D01*
X85831946Y-118398999D01*
X85831935Y-118399003D01*
X85441741Y-118551258D01*
X85439350Y-118552191D01*
X85058446Y-118738404D01*
X84972369Y-118789695D01*
X84704935Y-118949051D01*
X84694221Y-118955435D01*
X84349162Y-119201803D01*
X84337758Y-119211462D01*
X84027576Y-119474171D01*
X84027570Y-119474176D01*
X84025626Y-119475823D01*
X83725823Y-119775626D01*
X83451803Y-120099162D01*
X83205435Y-120444221D01*
X83204134Y-120446405D01*
X83204131Y-120446409D01*
X83194889Y-120461919D01*
X82988404Y-120808446D01*
X82987279Y-120810747D01*
X82987278Y-120810749D01*
X82958133Y-120870367D01*
X82802191Y-121189350D01*
X82801258Y-121191740D01*
X82801258Y-121191741D01*
X82649003Y-121581935D01*
X82648999Y-121581946D01*
X82648069Y-121584330D01*
X82527091Y-121990688D01*
X82440083Y-122405649D01*
X82439767Y-122408188D01*
X82439765Y-122408197D01*
X82403153Y-122701914D01*
X82387639Y-122826378D01*
X82370224Y-123247445D01*
X82369819Y-123250000D01*
X82371346Y-123259641D01*
X82371346Y-123259645D01*
X82372973Y-123269915D01*
X82374500Y-123289312D01*
X82374500Y-139460688D01*
X82372973Y-139480085D01*
X82369819Y-139500000D01*
X82370662Y-139505322D01*
X82371098Y-139513090D01*
X82371098Y-139513091D01*
X82384263Y-139747510D01*
X82386898Y-139794426D01*
X82436294Y-140085149D01*
X82517930Y-140368514D01*
X82630779Y-140640957D01*
X82632459Y-140643996D01*
X82632461Y-140644001D01*
X82691494Y-140750812D01*
X82773423Y-140899051D01*
X82944067Y-141139552D01*
X82946384Y-141142144D01*
X82946385Y-141142146D01*
X83006257Y-141209143D01*
X83140566Y-141359434D01*
X83143152Y-141361745D01*
X83285470Y-141488928D01*
X83360448Y-141555933D01*
X83600949Y-141726577D01*
X83749188Y-141808506D01*
X83855999Y-141867539D01*
X83856004Y-141867541D01*
X83859043Y-141869221D01*
X84131486Y-141982070D01*
X84414851Y-142063706D01*
X84705574Y-142113102D01*
X84709036Y-142113296D01*
X84709041Y-142113297D01*
X84868218Y-142122236D01*
X84912699Y-142124734D01*
X84978529Y-142148147D01*
X85021251Y-142203433D01*
X85027301Y-142273040D01*
X85007196Y-142319839D01*
X84922501Y-142440348D01*
X84865309Y-142587039D01*
X84844758Y-142743138D01*
X84862035Y-142899633D01*
X84864601Y-142906645D01*
X84864602Y-142906649D01*
X84883406Y-142958032D01*
X84916143Y-143047490D01*
X85003958Y-143178172D01*
X85024004Y-143196412D01*
X85114878Y-143279102D01*
X85114882Y-143279105D01*
X85120410Y-143284135D01*
X85126980Y-143287702D01*
X85126981Y-143287703D01*
X85244554Y-143351540D01*
X85258776Y-143359262D01*
X85361031Y-143386088D01*
X85403841Y-143397319D01*
X85403843Y-143397319D01*
X85411069Y-143399215D01*
X85488127Y-143400425D01*
X85561025Y-143401571D01*
X85561028Y-143401571D01*
X85568495Y-143401688D01*
X85575776Y-143400020D01*
X85575780Y-143400020D01*
X85714681Y-143368207D01*
X85721968Y-143366538D01*
X85862625Y-143295795D01*
X85868306Y-143290943D01*
X85868309Y-143290941D01*
X85976666Y-143198395D01*
X85976667Y-143198394D01*
X85982348Y-143193542D01*
X85994133Y-143177141D01*
X86049237Y-143134187D01*
X86094831Y-143125500D01*
X89854800Y-143125500D01*
X89921839Y-143145185D01*
X89957720Y-143180338D01*
X90004941Y-143250610D01*
X90041785Y-143284135D01*
X90115861Y-143351540D01*
X90115865Y-143351543D01*
X90121393Y-143356573D01*
X90127963Y-143360140D01*
X90127964Y-143360141D01*
X90224568Y-143412593D01*
X90259759Y-143431700D01*
X90362014Y-143458526D01*
X90404824Y-143469757D01*
X90404826Y-143469757D01*
X90412052Y-143471653D01*
X90489110Y-143472863D01*
X90562008Y-143474009D01*
X90562011Y-143474009D01*
X90569478Y-143474126D01*
X90576759Y-143472458D01*
X90576763Y-143472458D01*
X90715664Y-143440645D01*
X90722951Y-143438976D01*
X90863608Y-143368233D01*
X90869289Y-143363381D01*
X90869292Y-143363379D01*
X90977649Y-143270833D01*
X90977650Y-143270832D01*
X90983331Y-143265980D01*
X90994376Y-143250610D01*
X91014781Y-143222213D01*
X91075207Y-143138121D01*
X91133933Y-142992036D01*
X91134986Y-142984639D01*
X91155545Y-142840182D01*
X91155545Y-142840178D01*
X91156117Y-142836161D01*
X91156261Y-142822438D01*
X91137346Y-142666132D01*
X91110261Y-142594454D01*
X91084337Y-142525846D01*
X91084335Y-142525843D01*
X91081693Y-142518850D01*
X91077456Y-142512685D01*
X90996751Y-142395259D01*
X90996748Y-142395256D01*
X90992514Y-142389095D01*
X90939749Y-142342083D01*
X90902790Y-142282789D01*
X90903754Y-142212926D01*
X90942337Y-142154675D01*
X91006287Y-142126530D01*
X91022238Y-142125500D01*
X93882261Y-142125500D01*
X93901658Y-142127027D01*
X93911931Y-142128654D01*
X93911932Y-142128654D01*
X93921573Y-142130181D01*
X93931214Y-142128654D01*
X93931215Y-142128654D01*
X93933842Y-142128238D01*
X93957665Y-142126790D01*
X94377488Y-142141784D01*
X94386317Y-142142415D01*
X94835519Y-142190709D01*
X94844281Y-142191969D01*
X95288890Y-142272185D01*
X95297539Y-142274067D01*
X95735284Y-142385796D01*
X95743763Y-142388285D01*
X96172468Y-142530971D01*
X96180714Y-142534048D01*
X96435165Y-142639445D01*
X96598127Y-142706946D01*
X96606178Y-142710623D01*
X96711306Y-142763246D01*
X97010168Y-142912845D01*
X97017927Y-142917081D01*
X97144256Y-142992036D01*
X97406487Y-143147625D01*
X97413933Y-143152411D01*
X97449553Y-143177142D01*
X97785046Y-143410078D01*
X97792110Y-143415367D01*
X97919152Y-143517744D01*
X98143885Y-143698846D01*
X98150575Y-143704642D01*
X98432724Y-143967331D01*
X98458046Y-143990907D01*
X98473867Y-144008775D01*
X98481171Y-144018829D01*
X98489066Y-144024565D01*
X98497488Y-144030684D01*
X98512284Y-144043321D01*
X98969241Y-144500278D01*
X98981878Y-144515074D01*
X98993733Y-144531391D01*
X98995863Y-144532939D01*
X99001750Y-144538334D01*
X99001751Y-144538335D01*
X99288124Y-144800747D01*
X99290118Y-144802574D01*
X99292255Y-144804213D01*
X99292260Y-144804218D01*
X99315114Y-144821754D01*
X99608819Y-145047121D01*
X99611107Y-145048579D01*
X99611109Y-145048580D01*
X99854140Y-145203408D01*
X99947621Y-145262962D01*
X100303945Y-145448453D01*
X100306450Y-145449491D01*
X100306453Y-145449492D01*
X100438202Y-145504064D01*
X100675080Y-145602182D01*
X101058201Y-145722979D01*
X101450392Y-145809926D01*
X101453060Y-145810277D01*
X101453070Y-145810279D01*
X101640741Y-145834986D01*
X101704638Y-145863252D01*
X101727476Y-145888762D01*
X101753958Y-145928172D01*
X101776183Y-145948395D01*
X101864878Y-146029102D01*
X101864882Y-146029105D01*
X101870410Y-146034135D01*
X101876980Y-146037702D01*
X101876981Y-146037703D01*
X101970790Y-146088637D01*
X102008776Y-146109262D01*
X102015162Y-146110937D01*
X102069953Y-146153689D01*
X102093056Y-146219629D01*
X102076842Y-146287591D01*
X102026459Y-146335999D01*
X101969220Y-146350000D01*
X100536835Y-146350000D01*
X100512644Y-146347617D01*
X100511980Y-146347485D01*
X100500000Y-146345102D01*
X100488020Y-146347485D01*
X100475376Y-146350000D01*
X100414433Y-146362122D01*
X100414431Y-146362123D01*
X100402455Y-146364505D01*
X100319760Y-146419760D01*
X100312976Y-146429913D01*
X100302968Y-146444891D01*
X100249356Y-146489696D01*
X100199866Y-146500000D01*
X98582620Y-146500000D01*
X98515581Y-146480315D01*
X98469826Y-146427511D01*
X98459882Y-146358353D01*
X98493047Y-146290253D01*
X98613491Y-146164436D01*
X98613495Y-146164432D01*
X98617575Y-146160169D01*
X98731485Y-145983754D01*
X98745735Y-145948395D01*
X98807773Y-145794461D01*
X98807774Y-145794456D01*
X98809981Y-145788981D01*
X98850230Y-145582878D01*
X98850500Y-145577357D01*
X98850500Y-145272531D01*
X98835561Y-145115954D01*
X98828977Y-145093509D01*
X98784981Y-144943542D01*
X98776447Y-144914451D01*
X98725431Y-144815397D01*
X98682996Y-144733004D01*
X98682993Y-144732999D01*
X98680295Y-144727761D01*
X98550576Y-144562621D01*
X98519844Y-144535953D01*
X98396424Y-144428854D01*
X98396423Y-144428853D01*
X98391971Y-144424990D01*
X98364862Y-144409307D01*
X98215311Y-144322790D01*
X98215309Y-144322789D01*
X98210201Y-144319834D01*
X98011826Y-144250947D01*
X97804004Y-144220814D01*
X97594233Y-144230523D01*
X97588495Y-144231906D01*
X97588494Y-144231906D01*
X97395815Y-144278342D01*
X97395812Y-144278343D01*
X97390082Y-144279724D01*
X97384714Y-144282164D01*
X97384710Y-144282166D01*
X97249386Y-144343694D01*
X97198919Y-144366640D01*
X97027640Y-144488137D01*
X97023556Y-144492404D01*
X97023554Y-144492405D01*
X96886509Y-144635564D01*
X96886505Y-144635568D01*
X96882425Y-144639831D01*
X96834024Y-144714791D01*
X96781122Y-144760432D01*
X96711942Y-144770228D01*
X96648449Y-144741067D01*
X96610800Y-144682208D01*
X96606514Y-144660325D01*
X96597732Y-144575682D01*
X96594886Y-144562506D01*
X96543373Y-144408100D01*
X96537302Y-144395141D01*
X96451874Y-144257091D01*
X96442984Y-144245875D01*
X96328094Y-144131184D01*
X96316855Y-144122308D01*
X96178652Y-144037119D01*
X96165693Y-144031076D01*
X96011186Y-143979828D01*
X95998020Y-143977006D01*
X95903510Y-143967322D01*
X95897202Y-143967000D01*
X95521830Y-143967000D01*
X95506831Y-143971404D01*
X95505644Y-143972774D01*
X95504000Y-143980332D01*
X95504000Y-146815169D01*
X95508404Y-146830168D01*
X95509774Y-146831355D01*
X95517332Y-146832999D01*
X95897165Y-146832999D01*
X95903541Y-146832669D01*
X95999318Y-146822732D01*
X96012494Y-146819886D01*
X96166900Y-146768373D01*
X96179859Y-146762302D01*
X96317909Y-146676874D01*
X96329125Y-146667984D01*
X96443816Y-146553094D01*
X96452692Y-146541855D01*
X96537881Y-146403652D01*
X96543924Y-146390693D01*
X96595172Y-146236186D01*
X96597994Y-146223021D01*
X96605961Y-146145266D01*
X96632376Y-146080582D01*
X96689568Y-146040448D01*
X96759380Y-146037605D01*
X96819647Y-146072957D01*
X96826828Y-146081307D01*
X96924179Y-146205240D01*
X96949424Y-146237379D01*
X96953878Y-146241244D01*
X96953879Y-146241245D01*
X97088834Y-146358353D01*
X97108029Y-146375010D01*
X97113134Y-146377963D01*
X97113135Y-146377964D01*
X97228824Y-146444891D01*
X97289799Y-146480166D01*
X97488174Y-146549053D01*
X97695996Y-146579186D01*
X97870267Y-146571120D01*
X97938145Y-146587684D01*
X97986292Y-146638316D01*
X98000000Y-146694987D01*
X98000000Y-151626000D01*
X97980315Y-151693039D01*
X97927511Y-151738794D01*
X97876000Y-151750000D01*
X91074000Y-151750000D01*
X91006961Y-151730315D01*
X90961206Y-151677511D01*
X90950000Y-151626000D01*
X90950000Y-150849343D01*
X91724936Y-150849343D01*
X91734661Y-150861634D01*
X91772333Y-150886805D01*
X91782291Y-150892212D01*
X91963159Y-150969918D01*
X91973931Y-150973418D01*
X92165933Y-151016865D01*
X92177163Y-151018343D01*
X92373871Y-151026072D01*
X92385174Y-151025480D01*
X92580006Y-150997230D01*
X92591007Y-150994589D01*
X92777421Y-150931309D01*
X92787767Y-150926703D01*
X92906651Y-150860125D01*
X92916358Y-150850208D01*
X92913450Y-150842660D01*
X92332607Y-150261817D01*
X92318887Y-150254325D01*
X92317081Y-150254454D01*
X92310574Y-150258636D01*
X91731032Y-150838178D01*
X91724936Y-150849343D01*
X90950000Y-150849343D01*
X90950000Y-150086085D01*
X90969685Y-150019046D01*
X91022489Y-149973291D01*
X91091647Y-149963347D01*
X91155203Y-149992372D01*
X91192977Y-150051150D01*
X91196473Y-150066687D01*
X91197552Y-150073503D01*
X91246015Y-150264322D01*
X91249788Y-150274978D01*
X91332213Y-150453771D01*
X91337867Y-150463564D01*
X91348016Y-150477924D01*
X91358437Y-150486180D01*
X91371527Y-150479263D01*
X91948183Y-149902607D01*
X91954459Y-149891113D01*
X92684325Y-149891113D01*
X92684454Y-149892919D01*
X92688636Y-149899426D01*
X93268808Y-150479598D01*
X93280989Y-150486249D01*
X93287465Y-150481401D01*
X93356703Y-150357767D01*
X93361309Y-150347421D01*
X93424589Y-150161007D01*
X93427230Y-150150006D01*
X93455772Y-149953156D01*
X93456390Y-149945911D01*
X93457758Y-149893653D01*
X93457519Y-149886358D01*
X93439321Y-149688303D01*
X93437257Y-149677170D01*
X93383821Y-149487702D01*
X93379764Y-149477131D01*
X93292692Y-149300567D01*
X93291481Y-149298591D01*
X93282739Y-149292030D01*
X93270515Y-149298695D01*
X92691817Y-149877393D01*
X92684325Y-149891113D01*
X91954459Y-149891113D01*
X91955675Y-149888887D01*
X91955546Y-149887081D01*
X91951364Y-149880574D01*
X91369826Y-149299036D01*
X91357645Y-149292385D01*
X91351773Y-149296781D01*
X91271407Y-149449531D01*
X91267076Y-149459986D01*
X91208695Y-149648004D01*
X91206343Y-149659071D01*
X91197140Y-149736826D01*
X91169713Y-149801087D01*
X91111897Y-149840318D01*
X91042049Y-149842064D01*
X90982345Y-149805770D01*
X90951741Y-149742959D01*
X90950000Y-149722251D01*
X90950000Y-148930419D01*
X91724452Y-148930419D01*
X91727882Y-148938672D01*
X92307393Y-149518183D01*
X92321113Y-149525675D01*
X92322919Y-149525546D01*
X92329426Y-149521364D01*
X92908612Y-148942178D01*
X92915263Y-148929997D01*
X92909328Y-148922068D01*
X92841384Y-148879199D01*
X92831293Y-148874058D01*
X92648456Y-148801113D01*
X92637584Y-148797892D01*
X92444522Y-148759490D01*
X92433246Y-148758305D01*
X92236414Y-148755728D01*
X92225120Y-148756617D01*
X92031099Y-148789955D01*
X92020176Y-148792882D01*
X91835469Y-148861024D01*
X91825256Y-148865896D01*
X91733898Y-148920249D01*
X91724452Y-148930419D01*
X90950000Y-148930419D01*
X90950000Y-146770178D01*
X91634293Y-146770178D01*
X91643440Y-146782002D01*
X91684158Y-146810513D01*
X91693508Y-146815911D01*
X91883185Y-146904359D01*
X91893328Y-146908051D01*
X92095491Y-146962220D01*
X92106106Y-146964092D01*
X92314605Y-146982333D01*
X92325395Y-146982333D01*
X92533894Y-146964092D01*
X92544509Y-146962220D01*
X92746672Y-146908051D01*
X92756815Y-146904359D01*
X92946492Y-146815911D01*
X92955842Y-146810513D01*
X92997383Y-146781425D01*
X93005626Y-146771114D01*
X92998670Y-146757881D01*
X92332607Y-146091817D01*
X92318887Y-146084325D01*
X92317082Y-146084454D01*
X92310573Y-146088637D01*
X91640619Y-146758592D01*
X91634293Y-146770178D01*
X90950000Y-146770178D01*
X90950000Y-146318034D01*
X90969685Y-146250995D01*
X91022489Y-146205240D01*
X91091647Y-146195296D01*
X91155203Y-146224321D01*
X91186382Y-146265629D01*
X91224089Y-146346491D01*
X91229488Y-146355842D01*
X91258575Y-146397384D01*
X91268886Y-146405626D01*
X91282119Y-146398670D01*
X91948183Y-145732607D01*
X91954459Y-145721113D01*
X92684325Y-145721113D01*
X92684454Y-145722918D01*
X92688637Y-145729427D01*
X93358592Y-146399381D01*
X93370178Y-146405707D01*
X93382002Y-146396560D01*
X93410512Y-146355842D01*
X93415911Y-146346491D01*
X93504360Y-146156815D01*
X93508051Y-146146672D01*
X93514618Y-146122165D01*
X93892001Y-146122165D01*
X93892331Y-146128541D01*
X93902268Y-146224318D01*
X93905114Y-146237494D01*
X93956627Y-146391900D01*
X93962698Y-146404859D01*
X94048126Y-146542909D01*
X94057016Y-146554125D01*
X94171906Y-146668816D01*
X94183145Y-146677692D01*
X94321348Y-146762881D01*
X94334307Y-146768924D01*
X94488814Y-146820172D01*
X94501980Y-146822994D01*
X94596490Y-146832678D01*
X94602798Y-146833000D01*
X94978170Y-146833000D01*
X94993169Y-146828596D01*
X94994356Y-146827226D01*
X94996000Y-146819668D01*
X94996000Y-145671830D01*
X94991596Y-145656831D01*
X94990226Y-145655644D01*
X94982668Y-145654000D01*
X93909831Y-145654000D01*
X93894832Y-145658404D01*
X93893645Y-145659774D01*
X93892001Y-145667332D01*
X93892001Y-146122165D01*
X93514618Y-146122165D01*
X93562220Y-145944509D01*
X93564092Y-145933894D01*
X93582333Y-145725395D01*
X93582333Y-145714605D01*
X93564092Y-145506106D01*
X93562220Y-145495491D01*
X93508051Y-145293328D01*
X93504360Y-145283185D01*
X93432074Y-145128170D01*
X93892000Y-145128170D01*
X93896404Y-145143169D01*
X93897774Y-145144356D01*
X93905332Y-145146000D01*
X94978170Y-145146000D01*
X94993169Y-145141596D01*
X94994356Y-145140226D01*
X94996000Y-145132668D01*
X94996000Y-143984831D01*
X94991596Y-143969832D01*
X94990226Y-143968645D01*
X94982668Y-143967001D01*
X94602835Y-143967001D01*
X94596459Y-143967331D01*
X94500682Y-143977268D01*
X94487506Y-143980114D01*
X94333100Y-144031627D01*
X94320141Y-144037698D01*
X94182091Y-144123126D01*
X94170875Y-144132016D01*
X94056184Y-144246906D01*
X94047308Y-144258145D01*
X93962119Y-144396348D01*
X93956076Y-144409307D01*
X93904828Y-144563814D01*
X93902006Y-144576980D01*
X93892322Y-144671490D01*
X93892000Y-144677798D01*
X93892000Y-145128170D01*
X93432074Y-145128170D01*
X93415911Y-145093509D01*
X93410512Y-145084158D01*
X93381425Y-145042616D01*
X93371114Y-145034374D01*
X93357881Y-145041330D01*
X92691817Y-145707393D01*
X92684325Y-145721113D01*
X91954459Y-145721113D01*
X91955675Y-145718887D01*
X91955546Y-145717082D01*
X91951363Y-145710573D01*
X91281408Y-145040619D01*
X91269822Y-145034293D01*
X91257998Y-145043440D01*
X91229488Y-145084158D01*
X91224089Y-145093509D01*
X91186382Y-145174371D01*
X91140209Y-145226810D01*
X91073016Y-145245962D01*
X91006135Y-145225746D01*
X90960800Y-145172581D01*
X90950000Y-145121966D01*
X90950000Y-144668886D01*
X91634374Y-144668886D01*
X91641330Y-144682119D01*
X92307393Y-145348183D01*
X92321113Y-145355675D01*
X92322918Y-145355546D01*
X92329427Y-145351363D01*
X92999381Y-144681408D01*
X93005707Y-144669822D01*
X92996560Y-144657998D01*
X92955842Y-144629487D01*
X92946492Y-144624089D01*
X92756815Y-144535641D01*
X92746672Y-144531949D01*
X92544509Y-144477780D01*
X92533894Y-144475908D01*
X92325395Y-144457667D01*
X92314605Y-144457667D01*
X92106106Y-144475908D01*
X92095491Y-144477780D01*
X91893328Y-144531949D01*
X91883185Y-144535640D01*
X91693509Y-144624089D01*
X91684158Y-144629488D01*
X91642616Y-144658575D01*
X91634374Y-144668886D01*
X90950000Y-144668886D01*
X90950000Y-144650000D01*
X85050000Y-144650000D01*
X85050000Y-145121966D01*
X85030315Y-145189005D01*
X84977511Y-145234760D01*
X84908353Y-145244704D01*
X84844797Y-145215679D01*
X84813618Y-145174371D01*
X84775911Y-145093509D01*
X84770512Y-145084158D01*
X84741425Y-145042616D01*
X84731114Y-145034374D01*
X84717881Y-145041330D01*
X84051817Y-145707393D01*
X84044325Y-145721113D01*
X84044454Y-145722918D01*
X84048637Y-145729427D01*
X84718592Y-146399381D01*
X84730178Y-146405707D01*
X84742002Y-146396560D01*
X84770512Y-146355842D01*
X84775911Y-146346491D01*
X84813618Y-146265629D01*
X84859791Y-146213190D01*
X84926984Y-146194038D01*
X84993865Y-146214254D01*
X85039200Y-146267419D01*
X85050000Y-146318034D01*
X85050000Y-149711772D01*
X85030315Y-149778811D01*
X84977511Y-149824566D01*
X84908353Y-149834510D01*
X84844797Y-149805485D01*
X84807023Y-149746707D01*
X84802520Y-149723118D01*
X84799321Y-149688303D01*
X84797257Y-149677170D01*
X84743821Y-149487702D01*
X84739764Y-149477131D01*
X84652692Y-149300567D01*
X84651481Y-149298591D01*
X84642739Y-149292030D01*
X84630515Y-149298695D01*
X84051817Y-149877393D01*
X84044325Y-149891113D01*
X84044454Y-149892919D01*
X84048636Y-149899426D01*
X84628808Y-150479598D01*
X84640989Y-150486249D01*
X84647465Y-150481401D01*
X84716703Y-150357767D01*
X84721309Y-150347421D01*
X84784589Y-150161007D01*
X84787230Y-150150006D01*
X84803283Y-150039292D01*
X84832384Y-149975771D01*
X84891207Y-149938066D01*
X84961077Y-149938150D01*
X85019810Y-149975994D01*
X85048759Y-150039584D01*
X85050000Y-150057085D01*
X85050000Y-151626000D01*
X85030315Y-151693039D01*
X84977511Y-151738794D01*
X84926000Y-151750000D01*
X78374000Y-151750000D01*
X78306961Y-151730315D01*
X78261206Y-151677511D01*
X78250000Y-151626000D01*
X78250000Y-149469285D01*
X78544759Y-149469285D01*
X78559938Y-149745087D01*
X78613825Y-150015999D01*
X78705347Y-150276616D01*
X78832678Y-150521737D01*
X78993275Y-150746471D01*
X79183936Y-150946335D01*
X79187380Y-150949050D01*
X79187381Y-150949051D01*
X79238777Y-150989568D01*
X79400856Y-151117341D01*
X79639707Y-151256077D01*
X79643777Y-151257725D01*
X79643780Y-151257727D01*
X79704283Y-151282233D01*
X79895723Y-151359774D01*
X79899977Y-151360831D01*
X79899978Y-151360831D01*
X80159543Y-151425308D01*
X80159549Y-151425309D01*
X80163796Y-151426364D01*
X80168159Y-151426811D01*
X80396223Y-151450178D01*
X80396231Y-151450178D01*
X80399370Y-151450500D01*
X80570362Y-151450500D01*
X80572530Y-151450346D01*
X80572544Y-151450346D01*
X80701400Y-151441222D01*
X80775530Y-151435973D01*
X81045562Y-151377837D01*
X81098989Y-151358127D01*
X81300595Y-151283751D01*
X81300598Y-151283750D01*
X81304709Y-151282233D01*
X81353185Y-151256077D01*
X81407352Y-151226850D01*
X81547800Y-151151068D01*
X81769984Y-150986960D01*
X81783741Y-150973418D01*
X81909780Y-150849343D01*
X83084936Y-150849343D01*
X83094661Y-150861634D01*
X83132333Y-150886805D01*
X83142291Y-150892212D01*
X83323159Y-150969918D01*
X83333931Y-150973418D01*
X83525933Y-151016865D01*
X83537163Y-151018343D01*
X83733871Y-151026072D01*
X83745174Y-151025480D01*
X83940006Y-150997230D01*
X83951007Y-150994589D01*
X84137421Y-150931309D01*
X84147767Y-150926703D01*
X84266651Y-150860125D01*
X84276358Y-150850208D01*
X84273450Y-150842660D01*
X83692607Y-150261817D01*
X83678887Y-150254325D01*
X83677081Y-150254454D01*
X83670574Y-150258636D01*
X83091032Y-150838178D01*
X83084936Y-150849343D01*
X81909780Y-150849343D01*
X81966829Y-150793183D01*
X82134406Y-150573604D01*
X82269373Y-150332604D01*
X82295790Y-150264322D01*
X82335759Y-150161007D01*
X82342880Y-150142600D01*
X82385427Y-150087179D01*
X82451183Y-150063559D01*
X82519270Y-150079238D01*
X82568072Y-150129239D01*
X82578712Y-150156818D01*
X82606015Y-150264322D01*
X82609788Y-150274978D01*
X82692213Y-150453771D01*
X82697867Y-150463564D01*
X82708016Y-150477924D01*
X82718437Y-150486180D01*
X82731527Y-150479263D01*
X83308183Y-149902607D01*
X83315675Y-149888887D01*
X83315546Y-149887081D01*
X83311364Y-149880574D01*
X82729826Y-149299036D01*
X82717645Y-149292385D01*
X82711775Y-149296779D01*
X82676777Y-149363299D01*
X82628142Y-149413463D01*
X82560107Y-149429369D01*
X82494272Y-149405968D01*
X82451541Y-149350689D01*
X82443225Y-149312378D01*
X82440303Y-149259295D01*
X82440062Y-149254913D01*
X82427116Y-149189825D01*
X82387031Y-148988306D01*
X82386175Y-148984001D01*
X82367358Y-148930419D01*
X83084452Y-148930419D01*
X83087882Y-148938672D01*
X83667393Y-149518183D01*
X83681113Y-149525675D01*
X83682919Y-149525546D01*
X83689426Y-149521364D01*
X84268612Y-148942178D01*
X84275263Y-148929997D01*
X84269328Y-148922068D01*
X84201384Y-148879199D01*
X84191293Y-148874058D01*
X84008456Y-148801113D01*
X83997584Y-148797892D01*
X83804522Y-148759490D01*
X83793246Y-148758305D01*
X83596414Y-148755728D01*
X83585120Y-148756617D01*
X83391099Y-148789955D01*
X83380176Y-148792882D01*
X83195469Y-148861024D01*
X83185256Y-148865896D01*
X83093898Y-148920249D01*
X83084452Y-148930419D01*
X82367358Y-148930419D01*
X82294653Y-148723384D01*
X82167322Y-148478263D01*
X82006725Y-148253529D01*
X81816064Y-148053665D01*
X81764532Y-148013040D01*
X81602589Y-147885375D01*
X81599144Y-147882659D01*
X81360293Y-147743923D01*
X81356223Y-147742275D01*
X81356220Y-147742273D01*
X81108343Y-147641873D01*
X81108344Y-147641873D01*
X81104277Y-147640226D01*
X81100022Y-147639169D01*
X80840457Y-147574692D01*
X80840451Y-147574691D01*
X80836204Y-147573636D01*
X80823605Y-147572345D01*
X80603777Y-147549822D01*
X80603769Y-147549822D01*
X80600630Y-147549500D01*
X80429638Y-147549500D01*
X80427470Y-147549654D01*
X80427456Y-147549654D01*
X80298600Y-147558778D01*
X80224470Y-147564027D01*
X79954438Y-147622163D01*
X79950317Y-147623683D01*
X79950318Y-147623683D01*
X79699405Y-147716249D01*
X79699402Y-147716250D01*
X79695291Y-147717767D01*
X79691434Y-147719848D01*
X79691432Y-147719849D01*
X79642725Y-147746130D01*
X79452200Y-147848932D01*
X79230016Y-148013040D01*
X79226888Y-148016120D01*
X79226886Y-148016121D01*
X79146141Y-148095608D01*
X79033171Y-148206817D01*
X78865594Y-148426396D01*
X78730627Y-148667396D01*
X78729046Y-148671483D01*
X78729044Y-148671487D01*
X78683212Y-148789955D01*
X78630964Y-148925009D01*
X78568593Y-149194095D01*
X78568216Y-149198450D01*
X78568215Y-149198455D01*
X78553938Y-149363299D01*
X78544759Y-149469285D01*
X78250000Y-149469285D01*
X78250000Y-146770178D01*
X82994293Y-146770178D01*
X83003440Y-146782002D01*
X83044158Y-146810513D01*
X83053508Y-146815911D01*
X83243185Y-146904359D01*
X83253328Y-146908051D01*
X83455491Y-146962220D01*
X83466106Y-146964092D01*
X83674605Y-146982333D01*
X83685395Y-146982333D01*
X83893894Y-146964092D01*
X83904509Y-146962220D01*
X84106672Y-146908051D01*
X84116815Y-146904359D01*
X84306492Y-146815911D01*
X84315842Y-146810513D01*
X84357383Y-146781425D01*
X84365626Y-146771114D01*
X84358670Y-146757881D01*
X83692607Y-146091817D01*
X83678887Y-146084325D01*
X83677082Y-146084454D01*
X83670573Y-146088637D01*
X83000619Y-146758592D01*
X82994293Y-146770178D01*
X78250000Y-146770178D01*
X78250000Y-145725395D01*
X82417667Y-145725395D01*
X82435908Y-145933894D01*
X82437780Y-145944509D01*
X82491949Y-146146672D01*
X82495640Y-146156815D01*
X82584089Y-146346491D01*
X82589488Y-146355842D01*
X82618575Y-146397384D01*
X82628886Y-146405626D01*
X82642119Y-146398670D01*
X83308183Y-145732607D01*
X83315675Y-145718887D01*
X83315546Y-145717082D01*
X83311363Y-145710573D01*
X82641408Y-145040619D01*
X82629822Y-145034293D01*
X82617998Y-145043440D01*
X82589488Y-145084158D01*
X82584089Y-145093509D01*
X82495640Y-145283185D01*
X82491949Y-145293328D01*
X82437780Y-145495491D01*
X82435908Y-145506106D01*
X82417667Y-145714605D01*
X82417667Y-145725395D01*
X78250000Y-145725395D01*
X78250000Y-144668886D01*
X82994374Y-144668886D01*
X83001330Y-144682119D01*
X83667393Y-145348183D01*
X83681113Y-145355675D01*
X83682918Y-145355546D01*
X83689427Y-145351363D01*
X84359381Y-144681408D01*
X84365707Y-144669822D01*
X84356560Y-144657998D01*
X84315842Y-144629487D01*
X84306492Y-144624089D01*
X84116815Y-144535641D01*
X84106672Y-144531949D01*
X83904509Y-144477780D01*
X83893894Y-144475908D01*
X83685395Y-144457667D01*
X83674605Y-144457667D01*
X83466106Y-144475908D01*
X83455491Y-144477780D01*
X83253328Y-144531949D01*
X83243185Y-144535640D01*
X83053509Y-144624089D01*
X83044158Y-144629488D01*
X83002616Y-144658575D01*
X82994374Y-144668886D01*
X78250000Y-144668886D01*
X78250000Y-117469285D01*
X78544759Y-117469285D01*
X78559938Y-117745087D01*
X78560794Y-117749393D01*
X78560795Y-117749397D01*
X78577100Y-117831368D01*
X78613825Y-118015999D01*
X78705347Y-118276616D01*
X78832678Y-118521737D01*
X78993275Y-118746471D01*
X79183936Y-118946335D01*
X79187380Y-118949050D01*
X79187381Y-118949051D01*
X79238777Y-118989568D01*
X79400856Y-119117341D01*
X79404651Y-119119545D01*
X79404652Y-119119546D01*
X79576579Y-119219409D01*
X79639707Y-119256077D01*
X79643777Y-119257725D01*
X79643780Y-119257727D01*
X79791724Y-119317650D01*
X79895723Y-119359774D01*
X79899977Y-119360831D01*
X79899978Y-119360831D01*
X80159543Y-119425308D01*
X80159549Y-119425309D01*
X80163796Y-119426364D01*
X80168159Y-119426811D01*
X80396223Y-119450178D01*
X80396231Y-119450178D01*
X80399370Y-119450500D01*
X80570362Y-119450500D01*
X80572530Y-119450346D01*
X80572544Y-119450346D01*
X80704292Y-119441017D01*
X80775530Y-119435973D01*
X81045562Y-119377837D01*
X81238616Y-119306616D01*
X81300595Y-119283751D01*
X81300598Y-119283750D01*
X81304709Y-119282233D01*
X81353185Y-119256077D01*
X81514418Y-119169080D01*
X81547800Y-119151068D01*
X81769984Y-118986960D01*
X81807546Y-118949984D01*
X81963704Y-118796259D01*
X81966829Y-118793183D01*
X82134406Y-118573604D01*
X82269373Y-118332604D01*
X82290850Y-118277091D01*
X82367454Y-118079080D01*
X82369036Y-118074991D01*
X82372156Y-118061533D01*
X82412089Y-117889247D01*
X82431407Y-117805905D01*
X82436675Y-117745087D01*
X82454863Y-117535081D01*
X82454863Y-117535079D01*
X82455241Y-117530715D01*
X82440062Y-117254913D01*
X82427116Y-117189825D01*
X82399595Y-117051471D01*
X82386175Y-116984001D01*
X82294653Y-116723384D01*
X82233519Y-116605696D01*
X82169343Y-116482153D01*
X82169341Y-116482150D01*
X82167322Y-116478263D01*
X82006725Y-116253529D01*
X81816064Y-116053665D01*
X81809665Y-116048620D01*
X81637824Y-115913152D01*
X81599144Y-115882659D01*
X81537493Y-115846849D01*
X81364093Y-115746130D01*
X81364091Y-115746129D01*
X81360293Y-115743923D01*
X81356223Y-115742275D01*
X81356220Y-115742273D01*
X81108343Y-115641873D01*
X81108344Y-115641873D01*
X81104277Y-115640226D01*
X81100022Y-115639169D01*
X80840457Y-115574692D01*
X80840451Y-115574691D01*
X80836204Y-115573636D01*
X80823605Y-115572345D01*
X80603777Y-115549822D01*
X80603769Y-115549822D01*
X80600630Y-115549500D01*
X80429638Y-115549500D01*
X80427470Y-115549654D01*
X80427456Y-115549654D01*
X80298600Y-115558778D01*
X80224470Y-115564027D01*
X79954438Y-115622163D01*
X79950317Y-115623683D01*
X79950318Y-115623683D01*
X79699405Y-115716249D01*
X79699402Y-115716250D01*
X79695291Y-115717767D01*
X79691434Y-115719848D01*
X79691432Y-115719849D01*
X79642725Y-115746130D01*
X79452200Y-115848932D01*
X79230016Y-116013040D01*
X79226888Y-116016120D01*
X79226886Y-116016121D01*
X79146141Y-116095608D01*
X79033171Y-116206817D01*
X78865594Y-116426396D01*
X78730627Y-116667396D01*
X78729046Y-116671483D01*
X78729044Y-116671487D01*
X78700754Y-116744612D01*
X78630964Y-116925009D01*
X78568593Y-117194095D01*
X78568216Y-117198450D01*
X78568215Y-117198455D01*
X78562946Y-117259295D01*
X78544759Y-117469285D01*
X78250000Y-117469285D01*
X78250000Y-115374000D01*
X78269685Y-115306961D01*
X78322489Y-115261206D01*
X78374000Y-115250000D01*
X83963165Y-115250000D01*
X83987356Y-115252383D01*
X84000000Y-115254898D01*
X84008593Y-115253189D01*
X84017144Y-115252516D01*
X84017150Y-115252516D01*
X84191296Y-115238810D01*
X84191298Y-115238810D01*
X84196148Y-115238428D01*
X84200876Y-115237293D01*
X84200882Y-115237292D01*
X84382730Y-115193634D01*
X84387466Y-115192497D01*
X84569243Y-115117202D01*
X84737004Y-115014398D01*
X84796532Y-114963557D01*
X84882916Y-114889778D01*
X84886617Y-114886617D01*
X84990910Y-114764505D01*
X85011234Y-114740709D01*
X85011236Y-114740706D01*
X85014398Y-114737004D01*
X85117202Y-114569243D01*
X85192497Y-114387466D01*
X85193916Y-114381557D01*
X85237292Y-114200882D01*
X85237293Y-114200876D01*
X85238428Y-114196148D01*
X85247554Y-114080198D01*
X85252516Y-114017150D01*
X85252516Y-114017144D01*
X85253189Y-114008593D01*
X85254898Y-114000000D01*
X85252383Y-113987356D01*
X85250000Y-113963165D01*
X85250000Y-105993138D01*
X93594758Y-105993138D01*
X93595578Y-106000566D01*
X93595578Y-106000568D01*
X93599545Y-106036503D01*
X93612035Y-106149633D01*
X93614601Y-106156645D01*
X93614602Y-106156649D01*
X93624707Y-106184262D01*
X93666143Y-106297490D01*
X93753958Y-106428172D01*
X93833955Y-106500963D01*
X93870290Y-106560640D01*
X93874500Y-106592676D01*
X93874500Y-108760941D01*
X93872973Y-108780338D01*
X93869819Y-108800253D01*
X93870365Y-108803702D01*
X93887172Y-109445528D01*
X93937817Y-110089034D01*
X94022072Y-110729007D01*
X94139704Y-111363694D01*
X94140075Y-111365241D01*
X94140079Y-111365258D01*
X94239842Y-111780800D01*
X94290392Y-111991355D01*
X94473723Y-112610269D01*
X94474252Y-112611764D01*
X94474255Y-112611772D01*
X94629714Y-113050773D01*
X94689194Y-113218740D01*
X94936214Y-113815101D01*
X94936896Y-113816532D01*
X94936901Y-113816542D01*
X95028505Y-114008593D01*
X95214108Y-114397716D01*
X95214885Y-114399146D01*
X95214888Y-114399153D01*
X95304794Y-114564738D01*
X95522112Y-114964989D01*
X95522957Y-114966369D01*
X95522964Y-114966380D01*
X95741188Y-115322489D01*
X95859382Y-115515364D01*
X95860286Y-115516680D01*
X95860291Y-115516687D01*
X95979576Y-115690247D01*
X96224995Y-116047335D01*
X96617948Y-116559441D01*
X96619009Y-116560683D01*
X96619012Y-116560687D01*
X96977025Y-116979866D01*
X97037164Y-117050280D01*
X97479118Y-117516002D01*
X97481171Y-117518828D01*
X97489063Y-117524562D01*
X97489065Y-117524564D01*
X97497487Y-117530683D01*
X97512283Y-117543320D01*
X110603128Y-130634166D01*
X110615765Y-130648962D01*
X110627617Y-130665275D01*
X110635512Y-130671011D01*
X110642414Y-130677913D01*
X110642316Y-130678011D01*
X110653320Y-130688184D01*
X110698599Y-130741198D01*
X110727169Y-130804958D01*
X110716732Y-130874043D01*
X110705763Y-130893022D01*
X110672501Y-130940348D01*
X110615309Y-131087039D01*
X110594758Y-131243138D01*
X110595578Y-131250566D01*
X110595578Y-131250568D01*
X110600758Y-131297490D01*
X110612035Y-131399633D01*
X110614601Y-131406645D01*
X110614602Y-131406649D01*
X110624321Y-131433206D01*
X110666143Y-131547490D01*
X110753958Y-131678172D01*
X110799162Y-131719304D01*
X110864878Y-131779102D01*
X110864882Y-131779105D01*
X110870410Y-131784135D01*
X110876980Y-131787702D01*
X110876981Y-131787703D01*
X111002208Y-131855696D01*
X111008776Y-131859262D01*
X111063472Y-131873611D01*
X111153841Y-131897319D01*
X111153843Y-131897319D01*
X111161069Y-131899215D01*
X111238127Y-131900425D01*
X111311025Y-131901571D01*
X111311028Y-131901571D01*
X111318495Y-131901688D01*
X111325776Y-131900020D01*
X111325780Y-131900020D01*
X111464681Y-131868207D01*
X111471968Y-131866538D01*
X111612625Y-131795795D01*
X111618306Y-131790943D01*
X111618309Y-131790941D01*
X111668732Y-131747875D01*
X111732494Y-131719304D01*
X111801579Y-131729741D01*
X111854055Y-131775872D01*
X111871737Y-131822770D01*
X111872976Y-131830591D01*
X111874500Y-131849972D01*
X111874500Y-132157915D01*
X111854815Y-132224954D01*
X111832015Y-132251357D01*
X111763034Y-132311533D01*
X111672501Y-132440348D01*
X111615309Y-132587039D01*
X111594758Y-132743138D01*
X111595578Y-132750566D01*
X111595578Y-132750568D01*
X111605125Y-132837039D01*
X111612035Y-132899633D01*
X111614601Y-132906645D01*
X111614602Y-132906649D01*
X111634126Y-132960000D01*
X111666143Y-133047490D01*
X111670314Y-133053697D01*
X111734781Y-133149633D01*
X111753958Y-133178172D01*
X111776183Y-133198395D01*
X111864878Y-133279102D01*
X111864882Y-133279105D01*
X111870410Y-133284135D01*
X111876980Y-133287702D01*
X111876981Y-133287703D01*
X111932236Y-133317704D01*
X112008776Y-133359262D01*
X112089510Y-133380442D01*
X112153841Y-133397319D01*
X112153843Y-133397319D01*
X112161069Y-133399215D01*
X112238127Y-133400425D01*
X112311025Y-133401571D01*
X112311028Y-133401571D01*
X112318495Y-133401688D01*
X112325776Y-133400020D01*
X112325780Y-133400020D01*
X112464681Y-133368207D01*
X112471968Y-133366538D01*
X112612625Y-133295795D01*
X112618306Y-133290943D01*
X112618309Y-133290941D01*
X112726666Y-133198395D01*
X112726667Y-133198394D01*
X112732348Y-133193542D01*
X112741716Y-133180506D01*
X112773117Y-133136806D01*
X112824224Y-133065683D01*
X112882950Y-132919598D01*
X112883395Y-132919777D01*
X112917220Y-132864281D01*
X112980067Y-132833750D01*
X113049443Y-132842044D01*
X113103321Y-132886528D01*
X113117080Y-132913419D01*
X113166143Y-133047490D01*
X113170314Y-133053697D01*
X113234781Y-133149633D01*
X113253958Y-133178172D01*
X113276183Y-133198395D01*
X113364878Y-133279102D01*
X113364882Y-133279105D01*
X113370410Y-133284135D01*
X113376980Y-133287702D01*
X113376981Y-133287703D01*
X113432236Y-133317704D01*
X113508776Y-133359262D01*
X113589510Y-133380442D01*
X113653841Y-133397319D01*
X113653843Y-133397319D01*
X113661069Y-133399215D01*
X113738127Y-133400425D01*
X113811025Y-133401571D01*
X113811028Y-133401571D01*
X113818495Y-133401688D01*
X113825776Y-133400020D01*
X113825780Y-133400020D01*
X113964681Y-133368207D01*
X113971968Y-133366538D01*
X114112625Y-133295795D01*
X114118306Y-133290943D01*
X114118309Y-133290941D01*
X114226666Y-133198395D01*
X114226667Y-133198394D01*
X114232348Y-133193542D01*
X114241716Y-133180506D01*
X114273117Y-133136806D01*
X114324224Y-133065683D01*
X114382950Y-132919598D01*
X114385300Y-132903088D01*
X114404562Y-132767744D01*
X114404562Y-132767740D01*
X114405134Y-132763723D01*
X114405278Y-132750000D01*
X114404448Y-132743138D01*
X114387262Y-132601119D01*
X114387261Y-132601115D01*
X114386363Y-132593694D01*
X114348699Y-132494019D01*
X114333354Y-132453408D01*
X114333352Y-132453405D01*
X114330710Y-132446412D01*
X114325744Y-132439187D01*
X114245768Y-132322821D01*
X114245765Y-132322818D01*
X114241531Y-132316657D01*
X114167011Y-132250262D01*
X114130052Y-132190968D01*
X114125500Y-132157679D01*
X114125500Y-129289312D01*
X114127027Y-129269915D01*
X114128655Y-129259639D01*
X114128655Y-129259635D01*
X114130181Y-129250000D01*
X114129328Y-129244612D01*
X114112635Y-129053812D01*
X114101942Y-129013904D01*
X114063065Y-128868813D01*
X114063063Y-128868809D01*
X114061664Y-128863586D01*
X113978435Y-128685101D01*
X113865476Y-128523779D01*
X113726221Y-128384524D01*
X113564900Y-128271565D01*
X113559991Y-128269276D01*
X113559986Y-128269273D01*
X113391317Y-128190622D01*
X113391314Y-128190621D01*
X113386414Y-128188336D01*
X113373173Y-128184788D01*
X113201411Y-128138764D01*
X113201406Y-128138763D01*
X113196188Y-128137365D01*
X113124308Y-128131076D01*
X113072774Y-128126567D01*
X113067880Y-128125829D01*
X113065452Y-128124977D01*
X113059945Y-128124500D01*
X113054554Y-128124500D01*
X113043747Y-128124028D01*
X113013069Y-128121344D01*
X113005388Y-128120672D01*
X113000000Y-128119819D01*
X112990365Y-128121345D01*
X112990361Y-128121345D01*
X112980085Y-128122973D01*
X112960688Y-128124500D01*
X111996418Y-128124500D01*
X111977021Y-128122973D01*
X111966748Y-128121346D01*
X111966747Y-128121346D01*
X111957106Y-128119819D01*
X111947465Y-128121346D01*
X111941526Y-128121346D01*
X111922380Y-128122223D01*
X111791402Y-128113638D01*
X111775321Y-128111521D01*
X111674907Y-128091547D01*
X111620429Y-128080711D01*
X111604771Y-128076516D01*
X111529992Y-128051131D01*
X111455219Y-128025749D01*
X111440235Y-128019543D01*
X111414291Y-128006749D01*
X111298581Y-127949687D01*
X111284551Y-127941586D01*
X111153232Y-127853842D01*
X111140365Y-127843969D01*
X111134250Y-127838606D01*
X111041683Y-127757427D01*
X111028752Y-127743253D01*
X111024562Y-127739063D01*
X111018828Y-127731171D01*
X111010936Y-127725437D01*
X111010934Y-127725435D01*
X111002512Y-127719316D01*
X110987716Y-127706679D01*
X100750322Y-117469285D01*
X118044759Y-117469285D01*
X118059938Y-117745087D01*
X118060794Y-117749393D01*
X118060795Y-117749397D01*
X118077100Y-117831368D01*
X118113825Y-118015999D01*
X118205347Y-118276616D01*
X118332678Y-118521737D01*
X118493275Y-118746471D01*
X118683936Y-118946335D01*
X118687380Y-118949050D01*
X118687381Y-118949051D01*
X118738777Y-118989568D01*
X118900856Y-119117341D01*
X118904651Y-119119545D01*
X118904652Y-119119546D01*
X119076579Y-119219409D01*
X119139707Y-119256077D01*
X119143777Y-119257725D01*
X119143780Y-119257727D01*
X119291724Y-119317650D01*
X119395723Y-119359774D01*
X119399977Y-119360831D01*
X119399978Y-119360831D01*
X119659543Y-119425308D01*
X119659549Y-119425309D01*
X119663796Y-119426364D01*
X119668159Y-119426811D01*
X119896223Y-119450178D01*
X119896231Y-119450178D01*
X119899370Y-119450500D01*
X120070362Y-119450500D01*
X120072530Y-119450346D01*
X120072544Y-119450346D01*
X120204292Y-119441017D01*
X120275530Y-119435973D01*
X120545562Y-119377837D01*
X120738616Y-119306616D01*
X120800595Y-119283751D01*
X120800598Y-119283750D01*
X120804709Y-119282233D01*
X120853185Y-119256077D01*
X121014418Y-119169080D01*
X121047800Y-119151068D01*
X121269984Y-118986960D01*
X121307546Y-118949984D01*
X121463704Y-118796259D01*
X121466829Y-118793183D01*
X121634406Y-118573604D01*
X121769373Y-118332604D01*
X121790850Y-118277091D01*
X121867454Y-118079080D01*
X121869036Y-118074991D01*
X121872156Y-118061533D01*
X121912089Y-117889247D01*
X121931407Y-117805905D01*
X121936675Y-117745087D01*
X121954863Y-117535081D01*
X121954863Y-117535079D01*
X121955241Y-117530715D01*
X121940062Y-117254913D01*
X121927116Y-117189825D01*
X121899595Y-117051471D01*
X121886175Y-116984001D01*
X121794653Y-116723384D01*
X121733519Y-116605696D01*
X121669343Y-116482153D01*
X121669341Y-116482150D01*
X121667322Y-116478263D01*
X121506725Y-116253529D01*
X121316064Y-116053665D01*
X121309665Y-116048620D01*
X121137824Y-115913152D01*
X121099144Y-115882659D01*
X121037493Y-115846849D01*
X120864093Y-115746130D01*
X120864091Y-115746129D01*
X120860293Y-115743923D01*
X120856223Y-115742275D01*
X120856220Y-115742273D01*
X120608343Y-115641873D01*
X120608344Y-115641873D01*
X120604277Y-115640226D01*
X120600022Y-115639169D01*
X120340457Y-115574692D01*
X120340451Y-115574691D01*
X120336204Y-115573636D01*
X120323605Y-115572345D01*
X120103777Y-115549822D01*
X120103769Y-115549822D01*
X120100630Y-115549500D01*
X119929638Y-115549500D01*
X119927470Y-115549654D01*
X119927456Y-115549654D01*
X119798600Y-115558778D01*
X119724470Y-115564027D01*
X119454438Y-115622163D01*
X119450317Y-115623683D01*
X119450318Y-115623683D01*
X119199405Y-115716249D01*
X119199402Y-115716250D01*
X119195291Y-115717767D01*
X119191434Y-115719848D01*
X119191432Y-115719849D01*
X119142725Y-115746130D01*
X118952200Y-115848932D01*
X118730016Y-116013040D01*
X118726888Y-116016120D01*
X118726886Y-116016121D01*
X118646141Y-116095608D01*
X118533171Y-116206817D01*
X118365594Y-116426396D01*
X118230627Y-116667396D01*
X118229046Y-116671483D01*
X118229044Y-116671487D01*
X118200754Y-116744612D01*
X118130964Y-116925009D01*
X118068593Y-117194095D01*
X118068216Y-117198450D01*
X118068215Y-117198455D01*
X118062946Y-117259295D01*
X118044759Y-117469285D01*
X100750322Y-117469285D01*
X99225302Y-115944265D01*
X99212665Y-115929469D01*
X99206548Y-115921050D01*
X99200810Y-115913152D01*
X99189560Y-115904978D01*
X99172339Y-115889848D01*
X99170928Y-115888355D01*
X98795707Y-115491471D01*
X98791075Y-115486288D01*
X98415981Y-115042088D01*
X98411665Y-115036675D01*
X98062079Y-114572157D01*
X98058054Y-114566485D01*
X97735062Y-114083092D01*
X97731361Y-114077202D01*
X97435981Y-113576461D01*
X97432617Y-113570374D01*
X97165782Y-113053864D01*
X97162764Y-113047597D01*
X96925310Y-112516940D01*
X96922648Y-112510514D01*
X96725060Y-111992890D01*
X96715312Y-111967352D01*
X96713020Y-111960801D01*
X96536476Y-111406900D01*
X96534550Y-111400216D01*
X96389334Y-110837259D01*
X96387787Y-110830478D01*
X96274370Y-110260294D01*
X96273205Y-110253437D01*
X96191936Y-109677784D01*
X96191157Y-109670872D01*
X96142292Y-109091560D01*
X96141902Y-109084616D01*
X96126527Y-108536616D01*
X96128005Y-108513739D01*
X96128654Y-108509642D01*
X96128654Y-108509640D01*
X96130181Y-108500000D01*
X96127027Y-108480085D01*
X96125500Y-108460688D01*
X96125500Y-108289312D01*
X96127027Y-108269915D01*
X96128654Y-108259641D01*
X96130181Y-108250000D01*
X96128655Y-108240363D01*
X96128655Y-108234160D01*
X96129716Y-108217980D01*
X96136130Y-108169257D01*
X96144508Y-108137989D01*
X96169427Y-108077830D01*
X96185608Y-108049802D01*
X96225253Y-107998138D01*
X96248138Y-107975253D01*
X96259770Y-107966327D01*
X96299802Y-107935608D01*
X96327830Y-107919427D01*
X96387992Y-107894507D01*
X96419255Y-107886130D01*
X96442450Y-107883077D01*
X96467980Y-107879716D01*
X96484160Y-107878655D01*
X96490363Y-107878655D01*
X96500000Y-107880181D01*
X96511140Y-107878417D01*
X96519915Y-107877027D01*
X96539312Y-107875500D01*
X104210688Y-107875500D01*
X104230085Y-107877027D01*
X104240358Y-107878654D01*
X104240359Y-107878654D01*
X104250000Y-107880181D01*
X104257077Y-107879060D01*
X104263271Y-107878654D01*
X104263275Y-107878654D01*
X104491274Y-107863710D01*
X104491279Y-107863709D01*
X104495327Y-107863444D01*
X104499306Y-107862653D01*
X104499310Y-107862652D01*
X104615892Y-107839462D01*
X104736457Y-107815481D01*
X104788704Y-107797745D01*
X104965417Y-107737759D01*
X104965423Y-107737757D01*
X104969263Y-107736453D01*
X105189762Y-107627715D01*
X105394181Y-107491126D01*
X105579024Y-107329024D01*
X105741126Y-107144181D01*
X105754277Y-107124500D01*
X105859099Y-106967622D01*
X105877715Y-106939762D01*
X105986453Y-106719263D01*
X106015158Y-106634701D01*
X106055347Y-106577547D01*
X106076858Y-106563784D01*
X106112625Y-106545795D01*
X106118306Y-106540943D01*
X106118309Y-106540941D01*
X106226666Y-106448395D01*
X106226667Y-106448394D01*
X106232348Y-106443542D01*
X106243393Y-106428172D01*
X106264692Y-106398531D01*
X106324224Y-106315683D01*
X106382950Y-106169598D01*
X106384793Y-106156649D01*
X106404562Y-106017744D01*
X106404562Y-106017740D01*
X106405134Y-106013723D01*
X106405278Y-106000000D01*
X106403551Y-105985727D01*
X106387262Y-105851119D01*
X106387261Y-105851115D01*
X106386363Y-105843694D01*
X106330710Y-105696412D01*
X106304084Y-105657671D01*
X106245768Y-105572821D01*
X106245765Y-105572818D01*
X106241531Y-105566657D01*
X106123976Y-105461919D01*
X105984831Y-105388245D01*
X105832128Y-105349889D01*
X105750329Y-105349461D01*
X105682158Y-105349104D01*
X105682157Y-105349104D01*
X105674684Y-105349065D01*
X105667421Y-105350809D01*
X105667418Y-105350809D01*
X105598136Y-105367443D01*
X105521588Y-105385820D01*
X105381679Y-105458032D01*
X105263034Y-105561533D01*
X105172501Y-105690348D01*
X105115309Y-105837039D01*
X105094758Y-105993138D01*
X105095578Y-106000566D01*
X105095578Y-106000568D01*
X105099545Y-106036503D01*
X105112035Y-106149633D01*
X105114601Y-106156645D01*
X105114602Y-106156649D01*
X105124707Y-106184262D01*
X105166143Y-106297490D01*
X105173709Y-106308750D01*
X105234040Y-106398531D01*
X105255093Y-106465154D01*
X105243501Y-106520097D01*
X105228429Y-106552419D01*
X105217622Y-106571137D01*
X105117639Y-106713928D01*
X105103745Y-106730486D01*
X104980486Y-106853745D01*
X104963928Y-106867639D01*
X104821137Y-106967622D01*
X104802419Y-106978429D01*
X104644435Y-107052098D01*
X104624124Y-107059491D01*
X104539934Y-107082050D01*
X104455741Y-107104610D01*
X104434460Y-107108362D01*
X104284206Y-107121507D01*
X104269399Y-107120990D01*
X104269399Y-107121345D01*
X104259638Y-107121345D01*
X104250000Y-107119819D01*
X104240359Y-107121346D01*
X104230085Y-107122973D01*
X104210688Y-107124500D01*
X101652484Y-107124500D01*
X101585445Y-107104815D01*
X101539690Y-107052011D01*
X101529746Y-106982853D01*
X101558193Y-106919971D01*
X101628490Y-106837663D01*
X101736272Y-106661779D01*
X101746059Y-106638149D01*
X101789900Y-106583747D01*
X101804905Y-106574825D01*
X101833109Y-106560640D01*
X101862625Y-106545795D01*
X101868306Y-106540943D01*
X101868309Y-106540941D01*
X101976666Y-106448395D01*
X101976667Y-106448394D01*
X101982348Y-106443542D01*
X101993393Y-106428172D01*
X102014692Y-106398531D01*
X102074224Y-106315683D01*
X102132950Y-106169598D01*
X102134793Y-106156649D01*
X102154562Y-106017744D01*
X102154562Y-106017740D01*
X102155134Y-106013723D01*
X102155278Y-106000000D01*
X102153551Y-105985727D01*
X102137262Y-105851119D01*
X102137261Y-105851115D01*
X102136363Y-105843694D01*
X102080710Y-105696412D01*
X102054084Y-105657671D01*
X101995768Y-105572821D01*
X101995765Y-105572818D01*
X101991531Y-105566657D01*
X101873976Y-105461919D01*
X101734831Y-105388245D01*
X101582128Y-105349889D01*
X101500329Y-105349461D01*
X101432158Y-105349104D01*
X101432157Y-105349104D01*
X101424684Y-105349065D01*
X101417421Y-105350809D01*
X101417418Y-105350809D01*
X101348136Y-105367443D01*
X101271588Y-105385820D01*
X101131679Y-105458032D01*
X101013034Y-105561533D01*
X100922501Y-105690348D01*
X100865309Y-105837039D01*
X100844758Y-105993138D01*
X100845578Y-106000566D01*
X100845578Y-106000568D01*
X100849545Y-106036503D01*
X100862035Y-106149633D01*
X100864601Y-106156645D01*
X100864602Y-106156649D01*
X100874707Y-106184262D01*
X100916143Y-106297490D01*
X100920314Y-106303697D01*
X100920315Y-106303699D01*
X100940670Y-106333992D01*
X100961722Y-106400615D01*
X100943413Y-106468043D01*
X100925429Y-106490832D01*
X100923713Y-106492548D01*
X100902004Y-106509861D01*
X100819573Y-106561656D01*
X100794556Y-106573703D01*
X100702663Y-106605858D01*
X100675600Y-106612036D01*
X100598929Y-106620674D01*
X100584371Y-106620350D01*
X100584371Y-106621345D01*
X100574610Y-106621345D01*
X100564972Y-106619819D01*
X100555331Y-106621346D01*
X100545057Y-106622973D01*
X100525660Y-106624500D01*
X97344113Y-106624500D01*
X97277074Y-106604815D01*
X97231319Y-106552011D01*
X97221375Y-106482853D01*
X97243415Y-106428141D01*
X97268137Y-106393736D01*
X97324224Y-106315683D01*
X97382950Y-106169598D01*
X97384793Y-106156649D01*
X97404562Y-106017744D01*
X97404562Y-106017740D01*
X97405134Y-106013723D01*
X97405278Y-106000000D01*
X97403551Y-105985727D01*
X97387262Y-105851119D01*
X97387261Y-105851115D01*
X97386363Y-105843694D01*
X97330710Y-105696412D01*
X97304084Y-105657671D01*
X97245768Y-105572821D01*
X97245765Y-105572818D01*
X97241531Y-105566657D01*
X97123976Y-105461919D01*
X96984831Y-105388245D01*
X96832128Y-105349889D01*
X96750329Y-105349461D01*
X96682158Y-105349104D01*
X96682157Y-105349104D01*
X96674684Y-105349065D01*
X96667421Y-105350809D01*
X96667418Y-105350809D01*
X96598136Y-105367443D01*
X96521588Y-105385820D01*
X96381679Y-105458032D01*
X96263034Y-105561533D01*
X96195465Y-105657673D01*
X96140815Y-105701200D01*
X96130907Y-105704755D01*
X95906096Y-105774809D01*
X95902687Y-105776343D01*
X95902685Y-105776344D01*
X95647447Y-105891217D01*
X95644032Y-105892754D01*
X95640827Y-105894691D01*
X95640826Y-105894692D01*
X95417180Y-106029891D01*
X95398095Y-106041428D01*
X95171873Y-106218662D01*
X95084794Y-106305741D01*
X95023471Y-106339226D01*
X94953779Y-106334242D01*
X94897846Y-106292370D01*
X94873429Y-106226906D01*
X94880112Y-106184262D01*
X94878227Y-106183757D01*
X94880164Y-106176529D01*
X94882950Y-106169598D01*
X94884793Y-106156649D01*
X94904562Y-106017744D01*
X94904562Y-106017740D01*
X94905134Y-106013723D01*
X94905278Y-106000000D01*
X94903551Y-105985727D01*
X94887262Y-105851119D01*
X94887261Y-105851115D01*
X94886363Y-105843694D01*
X94830710Y-105696412D01*
X94804084Y-105657671D01*
X94745768Y-105572821D01*
X94745765Y-105572818D01*
X94741531Y-105566657D01*
X94623976Y-105461919D01*
X94484831Y-105388245D01*
X94332128Y-105349889D01*
X94250329Y-105349461D01*
X94182158Y-105349104D01*
X94182157Y-105349104D01*
X94174684Y-105349065D01*
X94167421Y-105350809D01*
X94167418Y-105350809D01*
X94098136Y-105367443D01*
X94021588Y-105385820D01*
X93881679Y-105458032D01*
X93763034Y-105561533D01*
X93672501Y-105690348D01*
X93615309Y-105837039D01*
X93594758Y-105993138D01*
X85250000Y-105993138D01*
X85250000Y-102581868D01*
X93533570Y-102581868D01*
X93533594Y-102582203D01*
X93539325Y-102590698D01*
X93872746Y-102895688D01*
X93875797Y-102898304D01*
X94346664Y-103276215D01*
X94349858Y-103278613D01*
X94844125Y-103625346D01*
X94847472Y-103627536D01*
X95363099Y-103941658D01*
X95366562Y-103943618D01*
X95901391Y-104223814D01*
X95904968Y-104225544D01*
X96456770Y-104470644D01*
X96460447Y-104472137D01*
X97026928Y-104681124D01*
X97030681Y-104682372D01*
X97609465Y-104854365D01*
X97613308Y-104855373D01*
X98201952Y-104989650D01*
X98205884Y-104990415D01*
X98801964Y-105086424D01*
X98805929Y-105086932D01*
X99406945Y-105144275D01*
X99410958Y-105144527D01*
X100014417Y-105162965D01*
X100018441Y-105162957D01*
X100621838Y-105142413D01*
X100625822Y-105142149D01*
X101226679Y-105082705D01*
X101230600Y-105082189D01*
X101826382Y-104984092D01*
X101830266Y-104983323D01*
X102418472Y-104846984D01*
X102422302Y-104845965D01*
X103000447Y-104671963D01*
X103004271Y-104670676D01*
X103569965Y-104459734D01*
X103573655Y-104458220D01*
X103883771Y-104319174D01*
X103952997Y-104309708D01*
X104016351Y-104339171D01*
X104053718Y-104398208D01*
X104053236Y-104468076D01*
X104022184Y-104520002D01*
X103223675Y-105318511D01*
X103164941Y-105351404D01*
X103142351Y-105356827D01*
X103021588Y-105385820D01*
X102881679Y-105458032D01*
X102763034Y-105561533D01*
X102672501Y-105690348D01*
X102615309Y-105837039D01*
X102594758Y-105993138D01*
X102595578Y-106000566D01*
X102595578Y-106000568D01*
X102599545Y-106036503D01*
X102612035Y-106149633D01*
X102614601Y-106156645D01*
X102614602Y-106156649D01*
X102624707Y-106184262D01*
X102666143Y-106297490D01*
X102753958Y-106428172D01*
X102794601Y-106465154D01*
X102864878Y-106529102D01*
X102864882Y-106529105D01*
X102870410Y-106534135D01*
X102876980Y-106537702D01*
X102876981Y-106537703D01*
X103002208Y-106605696D01*
X103008776Y-106609262D01*
X103111031Y-106636088D01*
X103153841Y-106647319D01*
X103153843Y-106647319D01*
X103161069Y-106649215D01*
X103238127Y-106650425D01*
X103311025Y-106651571D01*
X103311028Y-106651571D01*
X103318495Y-106651688D01*
X103325776Y-106650020D01*
X103325780Y-106650020D01*
X103464681Y-106618207D01*
X103471968Y-106616538D01*
X103612625Y-106545795D01*
X103618306Y-106540943D01*
X103618309Y-106540941D01*
X103726666Y-106448395D01*
X103726667Y-106448394D01*
X103732348Y-106443542D01*
X103743393Y-106428172D01*
X103764692Y-106398531D01*
X103824224Y-106315683D01*
X103882950Y-106169598D01*
X103885792Y-106149633D01*
X103892841Y-106100100D01*
X103921775Y-106036503D01*
X103927923Y-106029891D01*
X110317281Y-99640533D01*
X110333041Y-99627202D01*
X110349135Y-99615744D01*
X110357978Y-99607115D01*
X110360853Y-99603279D01*
X110363523Y-99600237D01*
X110367810Y-99595091D01*
X110647997Y-99291987D01*
X110913113Y-98955688D01*
X110963380Y-98880458D01*
X111147029Y-98605609D01*
X111200641Y-98560804D01*
X111250131Y-98550500D01*
X112724674Y-98550500D01*
X112730650Y-98549311D01*
X112730653Y-98549311D01*
X112763687Y-98542740D01*
X112797740Y-98535966D01*
X112880601Y-98480601D01*
X112935966Y-98397740D01*
X112950500Y-98324674D01*
X112950500Y-93175326D01*
X112935966Y-93102260D01*
X112880601Y-93019399D01*
X112797740Y-92964034D01*
X112763687Y-92957260D01*
X112730653Y-92950689D01*
X112730650Y-92950689D01*
X112724674Y-92949500D01*
X110175326Y-92949500D01*
X110169350Y-92950689D01*
X110169347Y-92950689D01*
X110136313Y-92957260D01*
X110102260Y-92964034D01*
X110019399Y-93019399D01*
X109964034Y-93102260D01*
X109949500Y-93175326D01*
X109949500Y-98324674D01*
X109964034Y-98397740D01*
X109970820Y-98407896D01*
X109975493Y-98419178D01*
X109971542Y-98420815D01*
X109985441Y-98465230D01*
X109966944Y-98532607D01*
X109959836Y-98542908D01*
X109912012Y-98605234D01*
X109905058Y-98613521D01*
X109675439Y-98864106D01*
X109657168Y-98880458D01*
X109647279Y-98887682D01*
X109641898Y-98894682D01*
X109641896Y-98894684D01*
X109628185Y-98912521D01*
X109617556Y-98924630D01*
X108771647Y-99770539D01*
X108710324Y-99804024D01*
X108640632Y-99799040D01*
X108584699Y-99757168D01*
X108560282Y-99691704D01*
X108571722Y-99630159D01*
X108644510Y-99475126D01*
X108646112Y-99471405D01*
X108866887Y-98909495D01*
X108868237Y-98905705D01*
X109052293Y-98330713D01*
X109053401Y-98326823D01*
X109199965Y-97741165D01*
X109200817Y-97737228D01*
X109309283Y-97143325D01*
X109309879Y-97139337D01*
X109379796Y-96539641D01*
X109380129Y-96535675D01*
X109411238Y-95932013D01*
X109411318Y-95929382D01*
X109413027Y-95751313D01*
X109412998Y-95748685D01*
X109393485Y-95144555D01*
X109393228Y-95140574D01*
X109334831Y-94539610D01*
X109334322Y-94535692D01*
X109237268Y-93939754D01*
X109236498Y-93935829D01*
X109101195Y-93347427D01*
X109100174Y-93343564D01*
X108927178Y-92765106D01*
X108925917Y-92761336D01*
X108715952Y-92195245D01*
X108714443Y-92191546D01*
X108468386Y-91640190D01*
X108466644Y-91636602D01*
X108185515Y-91102261D01*
X108183556Y-91098812D01*
X107868528Y-90583727D01*
X107866334Y-90580387D01*
X107518741Y-90086728D01*
X107516334Y-90083534D01*
X107137610Y-89613338D01*
X107134989Y-89610291D01*
X106842619Y-89291783D01*
X106829231Y-89283711D01*
X106828838Y-89283722D01*
X106820185Y-89289025D01*
X93541062Y-102568148D01*
X93533570Y-102581868D01*
X85250000Y-102581868D01*
X85250000Y-98324674D01*
X87049500Y-98324674D01*
X87064034Y-98397740D01*
X87119399Y-98480601D01*
X87202260Y-98535966D01*
X87236313Y-98542740D01*
X87269347Y-98549311D01*
X87269350Y-98549311D01*
X87275326Y-98550500D01*
X89824674Y-98550500D01*
X89830650Y-98549311D01*
X89830653Y-98549311D01*
X89863687Y-98542740D01*
X89897740Y-98535966D01*
X89980601Y-98480601D01*
X90035966Y-98397740D01*
X90050500Y-98324674D01*
X90050500Y-95961561D01*
X90589402Y-95961561D01*
X90589492Y-95965540D01*
X90622669Y-96568408D01*
X90623017Y-96572384D01*
X90695031Y-97171851D01*
X90695632Y-97175777D01*
X90806179Y-97769347D01*
X90807037Y-97773247D01*
X90955657Y-98358443D01*
X90956765Y-98362281D01*
X91142834Y-98936648D01*
X91144191Y-98940416D01*
X91366930Y-99501560D01*
X91368541Y-99505265D01*
X91627025Y-100050860D01*
X91628868Y-100054446D01*
X91922030Y-100582236D01*
X91924078Y-100585659D01*
X92250706Y-101093460D01*
X92252967Y-101096738D01*
X92611696Y-101582417D01*
X92614142Y-101585514D01*
X93003470Y-102047039D01*
X93006125Y-102049987D01*
X93157754Y-102207828D01*
X93171319Y-102215593D01*
X93172465Y-102215534D01*
X93179979Y-102210811D01*
X99628183Y-95762607D01*
X99635675Y-95748887D01*
X99635546Y-95747081D01*
X99631364Y-95740574D01*
X93180601Y-89289811D01*
X93166881Y-89282319D01*
X93165104Y-89282446D01*
X93158555Y-89286659D01*
X93128368Y-89316900D01*
X93125635Y-89319820D01*
X92727542Y-89773758D01*
X92725013Y-89776836D01*
X92357042Y-90255520D01*
X92354716Y-90258756D01*
X92018398Y-90760196D01*
X92016283Y-90763580D01*
X91713042Y-91285649D01*
X91711138Y-91289184D01*
X91442220Y-91829732D01*
X91440546Y-91833387D01*
X91207068Y-92390170D01*
X91205645Y-92393897D01*
X91008575Y-92964611D01*
X91007400Y-92968409D01*
X90847572Y-93550642D01*
X90846643Y-93554511D01*
X90724719Y-94145854D01*
X90724038Y-94149802D01*
X90640537Y-94747729D01*
X90640107Y-94751746D01*
X90595365Y-95353835D01*
X90595198Y-95357820D01*
X90589402Y-95961561D01*
X90050500Y-95961561D01*
X90050500Y-93175326D01*
X90035966Y-93102260D01*
X89980601Y-93019399D01*
X89897740Y-92964034D01*
X89863687Y-92957260D01*
X89830653Y-92950689D01*
X89830650Y-92950689D01*
X89824674Y-92949500D01*
X87275326Y-92949500D01*
X87269350Y-92950689D01*
X87269347Y-92950689D01*
X87236313Y-92957260D01*
X87202260Y-92964034D01*
X87119399Y-93019399D01*
X87064034Y-93102260D01*
X87049500Y-93175326D01*
X87049500Y-98324674D01*
X85250000Y-98324674D01*
X85250000Y-88918788D01*
X93532007Y-88918788D01*
X93532140Y-88920624D01*
X93536299Y-88927089D01*
X99987393Y-95378183D01*
X100001113Y-95385675D01*
X100002919Y-95385546D01*
X100009426Y-95381364D01*
X106458008Y-88932782D01*
X106465500Y-88919062D01*
X106465422Y-88917976D01*
X106460489Y-88910482D01*
X106287789Y-88745158D01*
X106284797Y-88742473D01*
X105822643Y-88353992D01*
X105819487Y-88351509D01*
X105333210Y-87993648D01*
X105329930Y-87991394D01*
X104821564Y-87665655D01*
X104818124Y-87663605D01*
X104289825Y-87371366D01*
X104286239Y-87369531D01*
X103740173Y-87111990D01*
X103736517Y-87110407D01*
X103174946Y-86888632D01*
X103171193Y-86887289D01*
X102596500Y-86702222D01*
X102592637Y-86701114D01*
X102007198Y-86553519D01*
X102003295Y-86552668D01*
X101409555Y-86443161D01*
X101405587Y-86442561D01*
X100806046Y-86371600D01*
X100802011Y-86371254D01*
X100199149Y-86339131D01*
X100195117Y-86339047D01*
X99591407Y-86345896D01*
X99587420Y-86346070D01*
X98985382Y-86391866D01*
X98981423Y-86392296D01*
X98383593Y-86476849D01*
X98379684Y-86477531D01*
X97788558Y-86600484D01*
X97784663Y-86601427D01*
X97202745Y-86762260D01*
X97198887Y-86763462D01*
X96628562Y-86961512D01*
X96624826Y-86962946D01*
X96068438Y-87197402D01*
X96064821Y-87199066D01*
X95524709Y-87468944D01*
X95521214Y-87470834D01*
X94999662Y-87774993D01*
X94996248Y-87777136D01*
X94495417Y-88114315D01*
X94492204Y-88116632D01*
X94014157Y-88485442D01*
X94011063Y-88487994D01*
X93557816Y-88886882D01*
X93554936Y-88889586D01*
X93539485Y-88905065D01*
X93532007Y-88918788D01*
X85250000Y-88918788D01*
X85250000Y-87036835D01*
X85252383Y-87012644D01*
X85252515Y-87011980D01*
X85254898Y-87000000D01*
X85252515Y-86988021D01*
X85252515Y-86975807D01*
X85253149Y-86975807D01*
X85252486Y-86965229D01*
X85252650Y-86962946D01*
X85267180Y-86759789D01*
X85269697Y-86742282D01*
X85272740Y-86728297D01*
X85319001Y-86515638D01*
X85323985Y-86498662D01*
X85405046Y-86281330D01*
X85412396Y-86265237D01*
X85523557Y-86061660D01*
X85533122Y-86046777D01*
X85672123Y-85861093D01*
X85683709Y-85847722D01*
X85847722Y-85683709D01*
X85861093Y-85672123D01*
X86046777Y-85533122D01*
X86061660Y-85523557D01*
X86265237Y-85412396D01*
X86281330Y-85405046D01*
X86498662Y-85323985D01*
X86515638Y-85319001D01*
X86544272Y-85312772D01*
X86742287Y-85269696D01*
X86759789Y-85267180D01*
X86965232Y-85252486D01*
X86975807Y-85253149D01*
X86975807Y-85252515D01*
X86988021Y-85252515D01*
X87000000Y-85254898D01*
X87011980Y-85252515D01*
X87012644Y-85252383D01*
X87036835Y-85250000D01*
X112963165Y-85250000D01*
X112987356Y-85252383D01*
G37*
%TD.AperFunction*%
%TD*%
M02*
