%TF.GenerationSoftware,KiCad,Pcbnew,(6.0.2-0)*%
%TF.CreationDate,2022-03-20T17:02:53+00:00*%
%TF.ProjectId,Display,44697370-6c61-4792-9e6b-696361645f70,5*%
%TF.SameCoordinates,Original*%
%TF.FileFunction,Paste,Top*%
%TF.FilePolarity,Positive*%
%FSLAX46Y46*%
G04 Gerber Fmt 4.6, Leading zero omitted, Abs format (unit mm)*
G04 Created by KiCad (PCBNEW (6.0.2-0)) date 2022-03-20 17:02:53*
%MOMM*%
%LPD*%
G01*
G04 APERTURE LIST*
G04 Aperture macros list*
%AMRoundRect*
0 Rectangle with rounded corners*
0 $1 Rounding radius*
0 $2 $3 $4 $5 $6 $7 $8 $9 X,Y pos of 4 corners*
0 Add a 4 corners polygon primitive as box body*
4,1,4,$2,$3,$4,$5,$6,$7,$8,$9,$2,$3,0*
0 Add four circle primitives for the rounded corners*
1,1,$1+$1,$2,$3*
1,1,$1+$1,$4,$5*
1,1,$1+$1,$6,$7*
1,1,$1+$1,$8,$9*
0 Add four rect primitives between the rounded corners*
20,1,$1+$1,$2,$3,$4,$5,0*
20,1,$1+$1,$4,$5,$6,$7,0*
20,1,$1+$1,$6,$7,$8,$9,0*
20,1,$1+$1,$8,$9,$2,$3,0*%
%AMFreePoly0*
4,1,6,0.696000,-0.696000,-0.696000,-0.696000,-0.696000,0.118488,-0.118488,0.696000,0.696000,0.696000,0.696000,-0.696000,0.696000,-0.696000,$1*%
G04 Aperture macros list end*
%ADD10RoundRect,0.186000X-0.189000X-0.189000X0.189000X-0.189000X0.189000X0.189000X-0.189000X0.189000X0*%
%ADD11RoundRect,0.048500X-0.287500X-0.071500X0.287500X-0.071500X0.287500X0.071500X-0.287500X0.071500X0*%
%ADD12RoundRect,0.057500X-0.062500X-0.278500X0.062500X-0.278500X0.062500X0.278500X-0.062500X0.278500X0*%
%ADD13RoundRect,0.184000X0.272000X-0.200000X0.272000X0.200000X-0.272000X0.200000X-0.272000X-0.200000X0*%
%ADD14R,0.816000X0.480000*%
%ADD15RoundRect,0.184000X0.200000X0.272000X-0.200000X0.272000X-0.200000X-0.272000X0.200000X-0.272000X0*%
%ADD16RoundRect,0.232500X-0.232500X-0.232500X0.232500X-0.232500X0.232500X0.232500X-0.232500X0.232500X0*%
%ADD17R,0.420000X0.798000*%
%ADD18RoundRect,0.069000X-0.075000X-0.478200X0.075000X-0.478200X0.075000X0.478200X-0.075000X0.478200X0*%
%ADD19RoundRect,0.184000X-0.200000X-0.272000X0.200000X-0.272000X0.200000X0.272000X-0.200000X0.272000X0*%
%ADD20R,0.768000X0.384000*%
%ADD21R,0.384000X0.768000*%
%ADD22FreePoly0,180.000000*%
%ADD23R,1.392000X1.392000*%
%ADD24R,0.672000X0.672000*%
%ADD25RoundRect,0.225000X0.615000X-0.375000X0.615000X0.375000X-0.615000X0.375000X-0.615000X-0.375000X0*%
%ADD26RoundRect,0.207000X0.249000X-0.225000X0.249000X0.225000X-0.249000X0.225000X-0.249000X-0.225000X0*%
%ADD27RoundRect,0.250000X-0.350000X-0.250000X0.350000X-0.250000X0.350000X0.250000X-0.350000X0.250000X0*%
%ADD28RoundRect,0.220875X-0.463125X-0.619125X0.463125X-0.619125X0.463125X0.619125X-0.463125X0.619125X0*%
%ADD29R,0.576000X1.056000*%
%ADD30RoundRect,0.230000X-0.466000X0.250000X-0.466000X-0.250000X0.466000X-0.250000X0.466000X0.250000X0*%
G04 APERTURE END LIST*
D10*
%TO.C,U3*%
X88250000Y-136850000D03*
X87250000Y-136850000D03*
X87250000Y-135850000D03*
X88250000Y-135850000D03*
D11*
X85850000Y-135350000D03*
X85850000Y-135850000D03*
X85850000Y-136350000D03*
X85850000Y-136850000D03*
X85850000Y-137350000D03*
D12*
X86750000Y-138250000D03*
X87250000Y-138250000D03*
X87750000Y-138250000D03*
X88250000Y-138250000D03*
X88750000Y-138250000D03*
D11*
X89650000Y-137350000D03*
X89650000Y-136850000D03*
X89650000Y-136350000D03*
X89650000Y-135850000D03*
X89650000Y-135350000D03*
D12*
X88750000Y-134450000D03*
X88250000Y-134450000D03*
X87750000Y-134450000D03*
X87250000Y-134450000D03*
X86750000Y-134450000D03*
%TD*%
D13*
%TO.C,R1*%
X117500000Y-141075000D03*
X117500000Y-139425000D03*
%TD*%
%TO.C,R5*%
X87250000Y-142075000D03*
X87250000Y-140425000D03*
%TD*%
D14*
%TO.C,D2*%
X84625000Y-116000000D03*
X86375000Y-116000000D03*
X86375000Y-117000000D03*
X84625000Y-117000000D03*
%TD*%
D15*
%TO.C,R3*%
X91325000Y-143750000D03*
X89675000Y-143750000D03*
%TD*%
D13*
%TO.C,R4*%
X88500000Y-142075000D03*
X88500000Y-140425000D03*
%TD*%
D16*
%TO.C,J2*%
X88565000Y-149865000D03*
X86265000Y-147565000D03*
X87415000Y-147565000D03*
X88565000Y-148715000D03*
X87415000Y-149865000D03*
X86265000Y-148715000D03*
X86265000Y-149865000D03*
X87415000Y-148715000D03*
X89715000Y-148715000D03*
X89715000Y-147565000D03*
X88565000Y-147565000D03*
X89715000Y-149865000D03*
D17*
X84800000Y-145140000D03*
X85600000Y-145140000D03*
D18*
X86750000Y-145140000D03*
X87750000Y-145140000D03*
X88250000Y-145140000D03*
X89250000Y-145140000D03*
D17*
X91200000Y-145140000D03*
X90400000Y-145140000D03*
D18*
X89750000Y-145140000D03*
X88750000Y-145140000D03*
X87250000Y-145140000D03*
X86250000Y-145140000D03*
%TD*%
D19*
%TO.C,R10*%
X84675000Y-119750000D03*
X86325000Y-119750000D03*
%TD*%
D20*
%TO.C,U2*%
X115650000Y-145006750D03*
X115650000Y-144206750D03*
X115650000Y-143406750D03*
X115650000Y-142606750D03*
X115650000Y-141806750D03*
X115650000Y-141006750D03*
X115650000Y-140206750D03*
X115650000Y-139406750D03*
X115650000Y-138606750D03*
X115650000Y-137806750D03*
X115650000Y-137006750D03*
D21*
X114550000Y-136106750D03*
X113750000Y-136106750D03*
X112950000Y-136106750D03*
X112150000Y-136106750D03*
X111350000Y-136106750D03*
X110550000Y-136106750D03*
X109750000Y-136106750D03*
X108950000Y-136106750D03*
X108150000Y-136106750D03*
X107350000Y-136106750D03*
X106550000Y-136106750D03*
X105750000Y-136106750D03*
X104950000Y-136106750D03*
D20*
X103850000Y-137006750D03*
X103850000Y-137806750D03*
X103850000Y-138606750D03*
X103850000Y-139406750D03*
X103850000Y-140206750D03*
X103850000Y-141006750D03*
X103850000Y-141806750D03*
X103850000Y-142606750D03*
X103850000Y-143406750D03*
X103850000Y-144206750D03*
X103850000Y-145006750D03*
D21*
X104950000Y-145906750D03*
X105750000Y-145906750D03*
X106550000Y-145906750D03*
X107350000Y-145906750D03*
X108150000Y-145906750D03*
X108950000Y-145906750D03*
X109750000Y-145906750D03*
X110550000Y-145906750D03*
X111350000Y-145906750D03*
X112150000Y-145906750D03*
X112950000Y-145906750D03*
X113750000Y-145906750D03*
X114550000Y-145906750D03*
D22*
X111725000Y-142981750D03*
D23*
X111725000Y-139031750D03*
X107775000Y-139031750D03*
X111725000Y-141006750D03*
X109750000Y-142981750D03*
X109750000Y-139031750D03*
X107775000Y-142981750D03*
X107775000Y-141006750D03*
X109750000Y-141006750D03*
D24*
X103800000Y-145956750D03*
X103800000Y-136056750D03*
X115700000Y-136056750D03*
X115700000Y-145956750D03*
%TD*%
D25*
%TO.C,D1*%
X99250000Y-142900000D03*
X99250000Y-140100000D03*
%TD*%
D19*
%TO.C,R7*%
X94425000Y-141000000D03*
X96075000Y-141000000D03*
%TD*%
%TO.C,R9*%
X84675000Y-118500000D03*
X86325000Y-118500000D03*
%TD*%
D26*
%TO.C,U4*%
X95950000Y-128925000D03*
D27*
X100450000Y-126800000D03*
D28*
X98847500Y-131070000D03*
D27*
X100450000Y-127950000D03*
X100450000Y-129100000D03*
D29*
X99000000Y-129250000D03*
D27*
X103450000Y-129100000D03*
D26*
X95950000Y-127375000D03*
D27*
X103450000Y-126800000D03*
X103450000Y-127950000D03*
D29*
X99000000Y-126550000D03*
X97100000Y-129250000D03*
D30*
X97200000Y-130500000D03*
D29*
X98050000Y-129250000D03*
D30*
X103450000Y-132400000D03*
X97200000Y-132400000D03*
D28*
X101812500Y-131070000D03*
D29*
X98050000Y-126550000D03*
D30*
X103450000Y-130500000D03*
D29*
X97100000Y-126550000D03*
%TD*%
D19*
%TO.C,R12*%
X95925000Y-124400000D03*
X97575000Y-124400000D03*
%TD*%
%TO.C,R6*%
X91675000Y-141000000D03*
X93325000Y-141000000D03*
%TD*%
%TO.C,R11*%
X84675000Y-121000000D03*
X86325000Y-121000000D03*
%TD*%
D13*
%TO.C,C1*%
X91500000Y-137275000D03*
X91500000Y-135725000D03*
%TD*%
D15*
%TO.C,R2*%
X86325000Y-143750000D03*
X84675000Y-143750000D03*
%TD*%
%TO.C,R8*%
X100325000Y-124400000D03*
X98675000Y-124400000D03*
%TD*%
M02*
