%TF.GenerationSoftware,KiCad,Pcbnew,(6.0.2-0)*%
%TF.CreationDate,2022-03-09T14:12:55+00:00*%
%TF.ProjectId,Display,44697370-6c61-4792-9e6b-696361645f70,5*%
%TF.SameCoordinates,Original*%
%TF.FileFunction,Copper,L2,Bot*%
%TF.FilePolarity,Positive*%
%FSLAX46Y46*%
G04 Gerber Fmt 4.6, Leading zero omitted, Abs format (unit mm)*
G04 Created by KiCad (PCBNEW (6.0.2-0)) date 2022-03-09 14:12:55*
%MOMM*%
%LPD*%
G01*
G04 APERTURE LIST*
G04 Aperture macros list*
%AMRoundRect*
0 Rectangle with rounded corners*
0 $1 Rounding radius*
0 $2 $3 $4 $5 $6 $7 $8 $9 X,Y pos of 4 corners*
0 Add a 4 corners polygon primitive as box body*
4,1,4,$2,$3,$4,$5,$6,$7,$8,$9,$2,$3,0*
0 Add four circle primitives for the rounded corners*
1,1,$1+$1,$2,$3*
1,1,$1+$1,$4,$5*
1,1,$1+$1,$6,$7*
1,1,$1+$1,$8,$9*
0 Add four rect primitives between the rounded corners*
20,1,$1+$1,$2,$3,$4,$5,0*
20,1,$1+$1,$4,$5,$6,$7,0*
20,1,$1+$1,$6,$7,$8,$9,0*
20,1,$1+$1,$8,$9,$2,$3,0*%
G04 Aperture macros list end*
%ADD10C,0.100000*%
%TA.AperFunction,NonConductor*%
%ADD11C,0.100000*%
%TD*%
%TA.AperFunction,ComponentPad*%
%ADD12C,1.500000*%
%TD*%
%TA.AperFunction,ComponentPad*%
%ADD13C,1.250000*%
%TD*%
%TA.AperFunction,ComponentPad*%
%ADD14C,0.670000*%
%TD*%
%TA.AperFunction,ComponentPad*%
%ADD15C,1.700000*%
%TD*%
%TA.AperFunction,ComponentPad*%
%ADD16RoundRect,0.250000X-0.600000X-0.675000X0.600000X-0.675000X0.600000X0.675000X-0.600000X0.675000X0*%
%TD*%
%TA.AperFunction,ComponentPad*%
%ADD17O,1.700000X1.850000*%
%TD*%
%TA.AperFunction,SMDPad,CuDef*%
%ADD18R,0.400000X0.200000*%
%TD*%
%TA.AperFunction,SMDPad,CuDef*%
%ADD19R,0.200000X0.200000*%
%TD*%
%TA.AperFunction,SMDPad,CuDef*%
%ADD20R,0.600000X0.200000*%
%TD*%
%TA.AperFunction,SMDPad,CuDef*%
%ADD21R,0.600000X0.600000*%
%TD*%
%TA.AperFunction,SMDPad,CuDef*%
%ADD22R,0.200000X1.200000*%
%TD*%
%TA.AperFunction,SMDPad,CuDef*%
%ADD23R,0.200000X0.800000*%
%TD*%
%TA.AperFunction,SMDPad,CuDef*%
%ADD24R,0.200000X0.400000*%
%TD*%
%TA.AperFunction,SMDPad,CuDef*%
%ADD25R,1.400000X0.200000*%
%TD*%
%TA.AperFunction,SMDPad,CuDef*%
%ADD26R,0.200000X0.600000*%
%TD*%
%TA.AperFunction,SMDPad,CuDef*%
%ADD27R,1.000000X0.200000*%
%TD*%
%TA.AperFunction,SMDPad,CuDef*%
%ADD28R,0.200000X1.400000*%
%TD*%
%TA.AperFunction,SMDPad,CuDef*%
%ADD29R,0.600000X0.400000*%
%TD*%
%TA.AperFunction,SMDPad,CuDef*%
%ADD30R,0.800000X0.200000*%
%TD*%
%TA.AperFunction,SMDPad,CuDef*%
%ADD31R,2.500000X5.100000*%
%TD*%
%TA.AperFunction,SMDPad,CuDef*%
%ADD32C,17.800000*%
%TD*%
%TA.AperFunction,ViaPad*%
%ADD33C,0.800000*%
%TD*%
%TA.AperFunction,Conductor*%
%ADD34C,0.250000*%
%TD*%
%TA.AperFunction,Conductor*%
%ADD35C,0.500000*%
%TD*%
G04 APERTURE END LIST*
D10*
%TO.C,U5*%
D11*
X90428571Y-145173809D02*
X90404761Y-145150000D01*
X90357142Y-145126190D01*
X90238095Y-145126190D01*
X90190476Y-145150000D01*
X90166666Y-145173809D01*
X90142857Y-145221428D01*
X90142857Y-145269047D01*
X90166666Y-145340476D01*
X90452380Y-145626190D01*
X90142857Y-145626190D01*
X89833333Y-145126190D02*
X89785714Y-145126190D01*
X89738095Y-145150000D01*
X89714285Y-145173809D01*
X89690476Y-145221428D01*
X89666666Y-145316666D01*
X89666666Y-145435714D01*
X89690476Y-145530952D01*
X89714285Y-145578571D01*
X89738095Y-145602380D01*
X89785714Y-145626190D01*
X89833333Y-145626190D01*
X89880952Y-145602380D01*
X89904761Y-145578571D01*
X89928571Y-145530952D01*
X89952380Y-145435714D01*
X89952380Y-145316666D01*
X89928571Y-145221428D01*
X89904761Y-145173809D01*
X89880952Y-145150000D01*
X89833333Y-145126190D01*
X89476190Y-145173809D02*
X89452380Y-145150000D01*
X89404761Y-145126190D01*
X89285714Y-145126190D01*
X89238095Y-145150000D01*
X89214285Y-145173809D01*
X89190476Y-145221428D01*
X89190476Y-145269047D01*
X89214285Y-145340476D01*
X89500000Y-145626190D01*
X89190476Y-145626190D01*
X89000000Y-145173809D02*
X88976190Y-145150000D01*
X88928571Y-145126190D01*
X88809523Y-145126190D01*
X88761904Y-145150000D01*
X88738095Y-145173809D01*
X88714285Y-145221428D01*
X88714285Y-145269047D01*
X88738095Y-145340476D01*
X89023809Y-145626190D01*
X88714285Y-145626190D01*
X88500000Y-145435714D02*
X88119047Y-145435714D01*
X87785714Y-145126190D02*
X87738095Y-145126190D01*
X87690476Y-145150000D01*
X87666666Y-145173809D01*
X87642857Y-145221428D01*
X87619047Y-145316666D01*
X87619047Y-145435714D01*
X87642857Y-145530952D01*
X87666666Y-145578571D01*
X87690476Y-145602380D01*
X87738095Y-145626190D01*
X87785714Y-145626190D01*
X87833333Y-145602380D01*
X87857142Y-145578571D01*
X87880952Y-145530952D01*
X87904761Y-145435714D01*
X87904761Y-145316666D01*
X87880952Y-145221428D01*
X87857142Y-145173809D01*
X87833333Y-145150000D01*
X87785714Y-145126190D01*
X87452380Y-145126190D02*
X87142857Y-145126190D01*
X87309523Y-145316666D01*
X87238095Y-145316666D01*
X87190476Y-145340476D01*
X87166666Y-145364285D01*
X87142857Y-145411904D01*
X87142857Y-145530952D01*
X87166666Y-145578571D01*
X87190476Y-145602380D01*
X87238095Y-145626190D01*
X87380952Y-145626190D01*
X87428571Y-145602380D01*
X87452380Y-145578571D01*
X86928571Y-145435714D02*
X86547619Y-145435714D01*
X86214285Y-145126190D02*
X86166666Y-145126190D01*
X86119047Y-145150000D01*
X86095238Y-145173809D01*
X86071428Y-145221428D01*
X86047619Y-145316666D01*
X86047619Y-145435714D01*
X86071428Y-145530952D01*
X86095238Y-145578571D01*
X86119047Y-145602380D01*
X86166666Y-145626190D01*
X86214285Y-145626190D01*
X86261904Y-145602380D01*
X86285714Y-145578571D01*
X86309523Y-145530952D01*
X86333333Y-145435714D01*
X86333333Y-145316666D01*
X86309523Y-145221428D01*
X86285714Y-145173809D01*
X86261904Y-145150000D01*
X86214285Y-145126190D01*
X85809523Y-145626190D02*
X85714285Y-145626190D01*
X85666666Y-145602380D01*
X85642857Y-145578571D01*
X85595238Y-145507142D01*
X85571428Y-145411904D01*
X85571428Y-145221428D01*
X85595238Y-145173809D01*
X85619047Y-145150000D01*
X85666666Y-145126190D01*
X85761904Y-145126190D01*
X85809523Y-145150000D01*
X85833333Y-145173809D01*
X85857142Y-145221428D01*
X85857142Y-145340476D01*
X85833333Y-145388095D01*
X85809523Y-145411904D01*
X85761904Y-145435714D01*
X85666666Y-145435714D01*
X85619047Y-145411904D01*
X85595238Y-145388095D01*
X85571428Y-145340476D01*
%TD*%
D12*
%TO.P,J2,S1,SHIELD*%
%TO.N,GND*%
X83680000Y-145720000D03*
D13*
X83680000Y-149890000D03*
D14*
X90890000Y-146210000D03*
X85110000Y-146210000D03*
D13*
X92320000Y-149890000D03*
D12*
X92320000Y-145720000D03*
%TD*%
D15*
%TO.P,M1,1,Vcc*%
%TO.N,+3V3*%
X120000000Y-141120000D03*
%TO.P,M1,2,GND*%
%TO.N,GND*%
X120000000Y-138580000D03*
%TO.P,M1,3,DIN*%
%TO.N,OLED-MOSI*%
X120000000Y-136040000D03*
%TO.P,M1,4,CLK*%
%TO.N,OLED-SCLK*%
X120000000Y-133500000D03*
%TO.P,M1,5,CS*%
%TO.N,OLED-CS0*%
X120000000Y-130960000D03*
%TO.P,M1,6,DC*%
%TO.N,OLED-DC*%
X120000000Y-128420000D03*
%TO.P,M1,7,RST*%
%TO.N,OLED-RST*%
X120000000Y-125880000D03*
%TD*%
D16*
%TO.P,J1,1,GND*%
%TO.N,GND*%
X95250000Y-145400000D03*
D17*
%TO.P,J1,2,DC*%
%TO.N,DC*%
X97750000Y-145400000D03*
%TD*%
D18*
%TO.P,U5,*%
%TO.N,*%
X88300000Y-148600000D03*
X87700000Y-147400000D03*
D19*
X87600000Y-150600000D03*
X89000000Y-149400000D03*
X89200000Y-148800000D03*
D20*
X87400000Y-149400000D03*
D21*
X89400000Y-147600000D03*
D19*
X88600000Y-150800000D03*
X86800000Y-149400000D03*
X89000000Y-148600000D03*
X88600000Y-150400000D03*
D18*
X87900000Y-150200000D03*
D19*
X89000000Y-150000000D03*
D22*
X86000000Y-150500000D03*
D19*
X88400000Y-148200000D03*
D23*
X88000000Y-148500000D03*
D24*
X90000000Y-148700000D03*
D25*
X86600000Y-149800000D03*
D19*
X89200000Y-150200000D03*
X88400000Y-150200000D03*
D26*
X86400000Y-148800000D03*
D19*
X88200000Y-149400000D03*
X86200000Y-149200000D03*
D22*
X87200000Y-150500000D03*
D26*
X87000000Y-149000000D03*
D21*
X86600000Y-150400000D03*
D18*
X89900000Y-150600000D03*
D27*
X86600000Y-151000000D03*
D19*
X87600000Y-151000000D03*
D28*
X89800000Y-149600000D03*
D26*
X86000000Y-149200000D03*
D24*
X90000000Y-150900000D03*
D18*
X87300000Y-148600000D03*
D22*
X88800000Y-147700000D03*
D21*
X86600000Y-147600000D03*
D18*
X87300000Y-149000000D03*
D23*
X88400000Y-147500000D03*
X89400000Y-149300000D03*
D26*
X88800000Y-150800000D03*
D19*
X89800000Y-151000000D03*
X88200000Y-150400000D03*
D24*
X89600000Y-148700000D03*
D22*
X90000000Y-147700000D03*
D19*
X86600000Y-149200000D03*
D24*
X88200000Y-149900000D03*
D19*
X88200000Y-150800000D03*
D29*
X88000000Y-147700000D03*
D19*
X88000000Y-151000000D03*
D30*
X87900000Y-147000000D03*
D18*
X89100000Y-149800000D03*
D19*
X89600000Y-149800000D03*
D18*
X87900000Y-147200000D03*
D25*
X89400000Y-147000000D03*
D26*
X88400000Y-150800000D03*
D18*
X86700000Y-149000000D03*
D19*
X88400000Y-149200000D03*
X89000000Y-150400000D03*
X87800000Y-149200000D03*
X87600000Y-148200000D03*
D22*
X86000000Y-147700000D03*
D19*
X88000000Y-150600000D03*
X88800000Y-149600000D03*
D24*
X87800000Y-148700000D03*
X90000000Y-149500000D03*
D25*
X86600000Y-147000000D03*
D27*
X89400000Y-148200000D03*
D29*
X87800000Y-149700000D03*
D18*
X88700000Y-148800000D03*
D20*
X87800000Y-148000000D03*
D19*
X86000000Y-148600000D03*
X88600000Y-149400000D03*
D24*
X88600000Y-149900000D03*
D19*
X89600000Y-150200000D03*
X88400000Y-149600000D03*
X88800000Y-149200000D03*
X89000000Y-150800000D03*
D22*
X87200000Y-147700000D03*
D27*
X86600000Y-148200000D03*
D19*
X88800000Y-150200000D03*
D23*
X89400000Y-150300000D03*
%TD*%
D31*
%TO.P,BT1,*%
%TO.N,*%
X88550000Y-95750000D03*
%TO.P,BT1,1,+*%
%TO.N,Net-(BT1-Pad1)*%
X111450000Y-95750000D03*
D32*
%TO.P,BT1,2,-*%
%TO.N,GND*%
X100000000Y-95750000D03*
%TD*%
D33*
%TO.N,GND*%
X100237701Y-131474500D03*
%TO.N,+3V3*%
X100250000Y-123250000D03*
X113000000Y-129500000D03*
X101500000Y-106000000D03*
X85750000Y-134250000D03*
X90262299Y-138762299D03*
X87500000Y-116000000D03*
%TO.N,VBUS*%
X85500000Y-142750000D03*
X90500983Y-142822438D03*
%TO.N,O*%
X99000000Y-136000000D03*
X84750000Y-135500000D03*
%TO.N,I*%
X100250000Y-135000000D03*
X90000000Y-133250000D03*
%TO.N,EN*%
X117500000Y-138250000D03*
X86750000Y-133000000D03*
%TO.N,BOOT*%
X88750000Y-131000000D03*
X106000000Y-134500000D03*
%TO.N,G*%
X102250000Y-144500000D03*
X87500000Y-119750000D03*
%TO.N,R*%
X87500000Y-118500000D03*
X102250000Y-145500000D03*
%TO.N,B*%
X102250000Y-143500000D03*
X87500000Y-121000000D03*
%TO.N,TICK*%
X113750000Y-132750000D03*
X105750000Y-106000000D03*
%TO.N,Net-(BT1-Pad1)*%
X103250000Y-106000000D03*
%TO.N,GPSTX*%
X96750000Y-106000000D03*
X112250000Y-132750000D03*
%TO.N,GPSRX*%
X111250000Y-131250000D03*
X94250000Y-106000000D03*
%TO.N,OLED-MOSI*%
X105000000Y-139250000D03*
%TO.N,OLED-SCLK*%
X111500000Y-137250000D03*
%TO.N,OLED-CS0*%
X110500000Y-137250000D03*
%TO.N,OLED-DC*%
X109500497Y-137250000D03*
%TO.N,OLED-RST*%
X108500000Y-137250000D03*
%TD*%
D34*
%TO.N,TICK*%
X110750000Y-128000000D02*
X98931981Y-116181981D01*
X96500000Y-107500000D02*
G75*
G03*
X95750000Y-108250000I0J-750000D01*
G01*
X95750000Y-108500000D02*
X95750000Y-108250000D01*
X95750000Y-108500000D02*
G75*
G03*
X98931981Y-116181981I10863963J1D01*
G01*
X105750000Y-106000000D02*
G75*
G02*
X104250000Y-107500000I-1500001J1D01*
G01*
X96500000Y-107500000D02*
X104250000Y-107500000D01*
%TO.N,+3V3*%
X95250000Y-108750000D02*
X95250000Y-108250000D01*
X111000000Y-129000000D02*
X98431981Y-116431981D01*
X95250000Y-108750000D02*
G75*
G03*
X98431981Y-116431981I10863963J1D01*
G01*
X101500000Y-106064972D02*
G75*
G02*
X100564972Y-107000000I-935027J-1D01*
G01*
X96500000Y-107000000D02*
G75*
G03*
X95250000Y-108250000I2J-1250002D01*
G01*
X96500000Y-107000000D02*
X100564972Y-107000000D01*
%TO.N,TICK*%
X113000000Y-128500000D02*
G75*
G02*
X113750000Y-129250000I0J-750000D01*
G01*
X110750000Y-128000000D02*
G75*
G03*
X111957106Y-128500000I1207107J1207108D01*
G01*
X113750000Y-132750000D02*
X113750000Y-129250000D01*
X113000000Y-128500000D02*
X111957106Y-128500000D01*
%TO.N,+3V3*%
X113000000Y-129500000D02*
X112207106Y-129500000D01*
X111000000Y-129000000D02*
G75*
G03*
X112207106Y-129500000I1207107J1207108D01*
G01*
X101500000Y-106064972D02*
X101500000Y-106000000D01*
X90262299Y-138762299D02*
X85750000Y-134250000D01*
X88250000Y-121250000D02*
X88250000Y-116750000D01*
X84250000Y-133750000D02*
X84250000Y-125250000D01*
X88250000Y-121250000D02*
X98250000Y-121250000D01*
X85750000Y-134250000D02*
X84750000Y-134250000D01*
X87500000Y-122000000D02*
G75*
G03*
X84250000Y-125250000I0J-3250000D01*
G01*
X88250000Y-121250000D02*
G75*
G02*
X87500000Y-122000000I-750000J0D01*
G01*
X87500000Y-116000000D02*
G75*
G02*
X88250000Y-116750000I0J-750000D01*
G01*
X84250000Y-133750000D02*
G75*
G03*
X84750000Y-134250000I500001J1D01*
G01*
X100250000Y-123250000D02*
G75*
G03*
X98250000Y-121250000I-1999999J1D01*
G01*
%TO.N,VBUS*%
X90428545Y-142750000D02*
X90500983Y-142822438D01*
X85500000Y-142750000D02*
X90428545Y-142750000D01*
%TO.N,O*%
X95750000Y-140250000D02*
X85250000Y-140250000D01*
X84250000Y-139250000D02*
X84250000Y-136000000D01*
X99000000Y-136000000D02*
X99000000Y-137000000D01*
X95750000Y-140250000D02*
G75*
G03*
X99000000Y-137000000I0J3250000D01*
G01*
X84250000Y-139250000D02*
G75*
G03*
X85250000Y-140250000I999999J-1D01*
G01*
X84750000Y-135500000D02*
G75*
G03*
X84250000Y-136000000I1J-500001D01*
G01*
%TO.N,I*%
X90000000Y-133250000D02*
X98500000Y-133250000D01*
X100250000Y-135000000D02*
G75*
G03*
X98500000Y-133250000I-1750000J0D01*
G01*
%TO.N,EN*%
X87750000Y-133000000D02*
X86750000Y-133000000D01*
X104956230Y-129706230D02*
X91043770Y-129706230D01*
X105000000Y-136899020D02*
X105000000Y-134750000D01*
X116550490Y-139199510D02*
X107300490Y-139199510D01*
X105353554Y-133896446D02*
X105500000Y-133750000D01*
X105750000Y-133146447D02*
X105750000Y-130500000D01*
X105750000Y-133146447D02*
G75*
G02*
X105500000Y-133750000I-853552J0D01*
G01*
X105000000Y-136899020D02*
G75*
G03*
X107300490Y-139199510I2300490J0D01*
G01*
X104956230Y-129706230D02*
G75*
G02*
X105750000Y-130500000I-1J-793771D01*
G01*
X89750000Y-131000000D02*
G75*
G02*
X91043770Y-129706230I1293768J2D01*
G01*
X87750000Y-133000000D02*
G75*
G03*
X89750000Y-131000000I1J1999999D01*
G01*
X116550490Y-139199510D02*
G75*
G03*
X117500000Y-138250000I0J949510D01*
G01*
X105353554Y-133896446D02*
G75*
G03*
X105000000Y-134750000I853557J-853556D01*
G01*
%TO.N,BOOT*%
X105000000Y-129250000D02*
X90500000Y-129250000D01*
X106250000Y-133896447D02*
X106250000Y-130500000D01*
X106250000Y-133896447D02*
G75*
G02*
X106000000Y-134500000I-853556J2D01*
G01*
X105000000Y-129250000D02*
G75*
G02*
X106250000Y-130500000I-2J-1250002D01*
G01*
X88750000Y-131000000D02*
G75*
G02*
X90500000Y-129250000I1750000J0D01*
G01*
%TO.N,G*%
X94525127Y-141250000D02*
X85000000Y-141250000D01*
X98835787Y-143085786D02*
X98750000Y-143000000D01*
X83250000Y-139500000D02*
X83250000Y-124000000D01*
X94525127Y-141250000D02*
G75*
G02*
X98750000Y-143000000I1J-5974869D01*
G01*
X87500000Y-119750000D02*
G75*
G03*
X83250000Y-124000000I-1J-4249999D01*
G01*
X98835787Y-143085786D02*
G75*
G03*
X102250000Y-144500000I3414212J3414207D01*
G01*
X83250000Y-139500000D02*
G75*
G03*
X85000000Y-141250000I1750000J0D01*
G01*
%TO.N,R*%
X82750000Y-139500000D02*
X82750000Y-123250000D01*
X99262562Y-144262562D02*
X98750000Y-143750000D01*
X93921573Y-141750000D02*
X85000000Y-141750000D01*
X99262562Y-144262562D02*
G75*
G03*
X102250000Y-145500000I2987439J2987439D01*
G01*
X82750000Y-139500000D02*
G75*
G03*
X85000000Y-141750000I2250001J1D01*
G01*
X87500000Y-118500000D02*
G75*
G03*
X82750000Y-123250000I1J-4750001D01*
G01*
X93921573Y-141750001D02*
G75*
G02*
X98749999Y-143750001I1J-6828424D01*
G01*
%TO.N,B*%
X102250000Y-143500000D02*
X102121320Y-143500000D01*
X95482234Y-140750000D02*
X85000000Y-140750000D01*
X83750000Y-139500000D02*
X83750000Y-124750000D01*
X83750000Y-139500000D02*
G75*
G03*
X85000000Y-140750000I1250002J2D01*
G01*
X87500000Y-121000000D02*
G75*
G03*
X83750000Y-124750000I1J-3750001D01*
G01*
X98500000Y-142000000D02*
G75*
G03*
X102121320Y-143500000I3621319J3621317D01*
G01*
X95482234Y-140750000D02*
G75*
G02*
X98500000Y-142000000I1J-4267761D01*
G01*
D35*
%TO.N,Net-(BT1-Pad1)*%
X110000431Y-99249569D02*
X103250000Y-106000000D01*
X110000431Y-99249569D02*
G75*
G03*
X111450000Y-95750000I-3499573J3499571D01*
G01*
D34*
%TO.N,GPSTX*%
X112250000Y-131810660D02*
X112250000Y-132750000D01*
X94750000Y-108000000D02*
X94750000Y-108550253D01*
X98250000Y-117000000D02*
X111676776Y-130426776D01*
X98250000Y-117000000D02*
G75*
G02*
X94750000Y-108550253I8449754J8449750D01*
G01*
X94750000Y-108000000D02*
G75*
G02*
X96750000Y-106000000I1999999J1D01*
G01*
X112249999Y-131810660D02*
G75*
G03*
X111676775Y-130426777I-1957103J1D01*
G01*
%TO.N,GPSRX*%
X94250000Y-106000000D02*
X94250000Y-108800253D01*
X97750000Y-117250000D02*
X110896447Y-130396447D01*
X97750000Y-117250000D02*
G75*
G02*
X94250000Y-108800253I8449754J8449750D01*
G01*
X111250000Y-131250000D02*
G75*
G03*
X110896447Y-130396447I-1207116J-4D01*
G01*
%TO.N,OLED-MOSI*%
X118500000Y-137540000D02*
X118500000Y-138750000D01*
X117500000Y-139750000D02*
X106207106Y-139750000D01*
X117500000Y-139750000D02*
G75*
G03*
X118500000Y-138750000I1J999999D01*
G01*
X118500000Y-137540000D02*
G75*
G02*
X120000000Y-136040000I1500001J-1D01*
G01*
X105000000Y-139250000D02*
G75*
G03*
X106207106Y-139750000I1207107J1207108D01*
G01*
%TO.N,OLED-SCLK*%
X119750000Y-133500000D02*
X120000000Y-133500000D01*
X116250000Y-137000000D02*
X111750000Y-137000000D01*
X118500000Y-134750000D02*
G75*
G02*
X116250000Y-137000000I-2250001J1D01*
G01*
X111500000Y-137250000D02*
G75*
G02*
X111750000Y-137000000I249999J1D01*
G01*
X119750000Y-133500000D02*
G75*
G03*
X118500000Y-134750000I2J-1250002D01*
G01*
%TO.N,OLED-CS0*%
X118000000Y-132960000D02*
X118000000Y-134750000D01*
X110500000Y-137000000D02*
X110500000Y-137250000D01*
X116250000Y-136500000D02*
X111000000Y-136500000D01*
X118000000Y-132960000D02*
G75*
G02*
X120000000Y-130960000I1999999J1D01*
G01*
X116250000Y-136500000D02*
G75*
G03*
X118000000Y-134750000I0J1750000D01*
G01*
X110500000Y-137000000D02*
G75*
G02*
X111000000Y-136500000I500001J-1D01*
G01*
%TO.N,OLED-DC*%
X117500000Y-130920000D02*
X117500000Y-134750000D01*
X116250000Y-136000000D02*
X110750497Y-136000000D01*
X116250000Y-136000000D02*
G75*
G03*
X117500000Y-134750000I-2J1250002D01*
G01*
X109500497Y-137250000D02*
G75*
G02*
X110750497Y-136000000I1250002J-2D01*
G01*
X117500000Y-130920000D02*
G75*
G02*
X120000000Y-128420000I2500000J0D01*
G01*
%TO.N,OLED-RST*%
X117000000Y-134750000D02*
X117000000Y-128880000D01*
X110250000Y-135500000D02*
X116250000Y-135500000D01*
X110250000Y-135500000D02*
G75*
G03*
X108500000Y-137250000I0J-1750000D01*
G01*
X120000000Y-125880000D02*
G75*
G03*
X117000000Y-128880000I1J-3000001D01*
G01*
X117000000Y-134750000D02*
G75*
G02*
X116250000Y-135500000I-750000J0D01*
G01*
%TD*%
%TA.AperFunction,Conductor*%
%TO.N,GND*%
G36*
X112987153Y-85256421D02*
G01*
X113000000Y-85258976D01*
X113012171Y-85256555D01*
X113024581Y-85256555D01*
X113024581Y-85257198D01*
X113035326Y-85256527D01*
X113239491Y-85271129D01*
X113257285Y-85273687D01*
X113483101Y-85322810D01*
X113500350Y-85327875D01*
X113583148Y-85358757D01*
X113716877Y-85408635D01*
X113733226Y-85416102D01*
X113936049Y-85526852D01*
X113951173Y-85536571D01*
X114136176Y-85675063D01*
X114149762Y-85686836D01*
X114313164Y-85850238D01*
X114324937Y-85863824D01*
X114463429Y-86048827D01*
X114473148Y-86063951D01*
X114583898Y-86266774D01*
X114591367Y-86283127D01*
X114672125Y-86499650D01*
X114677190Y-86516899D01*
X114726313Y-86742715D01*
X114728871Y-86760509D01*
X114743473Y-86964674D01*
X114742802Y-86975419D01*
X114743445Y-86975419D01*
X114743445Y-86987829D01*
X114741024Y-87000000D01*
X114743445Y-87012170D01*
X114743579Y-87012844D01*
X114746000Y-87037425D01*
X114746000Y-113962575D01*
X114743579Y-113987153D01*
X114741024Y-114000000D01*
X114742841Y-114009134D01*
X114757608Y-114196775D01*
X114803687Y-114388706D01*
X114805580Y-114393277D01*
X114805581Y-114393279D01*
X114861178Y-114527502D01*
X114879222Y-114571065D01*
X114982355Y-114739362D01*
X115110546Y-114889454D01*
X115260638Y-115017645D01*
X115428935Y-115120778D01*
X115433505Y-115122671D01*
X115433509Y-115122673D01*
X115606721Y-115194419D01*
X115611294Y-115196313D01*
X115803225Y-115242392D01*
X115933253Y-115252625D01*
X115983190Y-115256555D01*
X115983191Y-115256555D01*
X115990866Y-115257159D01*
X116000000Y-115258976D01*
X116012847Y-115256421D01*
X116037425Y-115254000D01*
X118363707Y-115254000D01*
X118431828Y-115274002D01*
X118478321Y-115327658D01*
X118488425Y-115397932D01*
X118458931Y-115462512D01*
X118444022Y-115477085D01*
X118253661Y-115634565D01*
X118250610Y-115637089D01*
X118030920Y-115871036D01*
X118028593Y-115874238D01*
X118028592Y-115874240D01*
X117900183Y-116050981D01*
X117842284Y-116130672D01*
X117840377Y-116134141D01*
X117840375Y-116134144D01*
X117689579Y-116408441D01*
X117687676Y-116411903D01*
X117607290Y-116614934D01*
X117591199Y-116655576D01*
X117569534Y-116710294D01*
X117489723Y-117021139D01*
X117449500Y-117339536D01*
X117449500Y-117660464D01*
X117489723Y-117978861D01*
X117569534Y-118289706D01*
X117687676Y-118588097D01*
X117689578Y-118591556D01*
X117689579Y-118591559D01*
X117768372Y-118734882D01*
X117842284Y-118869328D01*
X117844612Y-118872532D01*
X117844615Y-118872537D01*
X118005035Y-119093336D01*
X118030920Y-119128964D01*
X118250610Y-119362911D01*
X118497890Y-119567478D01*
X118768858Y-119739439D01*
X118772437Y-119741123D01*
X118772444Y-119741127D01*
X119055652Y-119874395D01*
X119055656Y-119874397D01*
X119059242Y-119876084D01*
X119364462Y-119975256D01*
X119679706Y-120035392D01*
X119775025Y-120041389D01*
X119917848Y-120050375D01*
X119917864Y-120050376D01*
X119919843Y-120050500D01*
X120080157Y-120050500D01*
X120082136Y-120050376D01*
X120082152Y-120050375D01*
X120224975Y-120041389D01*
X120320294Y-120035392D01*
X120635538Y-119975256D01*
X120940758Y-119876084D01*
X120944344Y-119874397D01*
X120944348Y-119874395D01*
X121227556Y-119741127D01*
X121227563Y-119741123D01*
X121231142Y-119739439D01*
X121502110Y-119567478D01*
X121749390Y-119362911D01*
X121969080Y-119128964D01*
X122018064Y-119061543D01*
X122074286Y-119018189D01*
X122145022Y-119012114D01*
X122207814Y-119045245D01*
X122242725Y-119107065D01*
X122246000Y-119135604D01*
X122246000Y-146374000D01*
X122225998Y-146442121D01*
X122172342Y-146488614D01*
X122120000Y-146500000D01*
X117861884Y-146500000D01*
X117793763Y-146479998D01*
X117745475Y-146422218D01*
X117741684Y-146413066D01*
X117739263Y-146400894D01*
X117683124Y-146316876D01*
X117599106Y-146260737D01*
X117525017Y-146246000D01*
X117515369Y-146244081D01*
X117512172Y-146243445D01*
X117500000Y-146241024D01*
X117487153Y-146243579D01*
X117462575Y-146246000D01*
X102725913Y-146246000D01*
X102657792Y-146225998D01*
X102611299Y-146172342D01*
X102601195Y-146102068D01*
X102630689Y-146037488D01*
X102644082Y-146024189D01*
X102729536Y-145951204D01*
X102729536Y-145951203D01*
X102735314Y-145946269D01*
X102827755Y-145817624D01*
X102886842Y-145670641D01*
X102909162Y-145513807D01*
X102909307Y-145500000D01*
X102908751Y-145495401D01*
X102891816Y-145355461D01*
X102890276Y-145342733D01*
X102834280Y-145194546D01*
X102797840Y-145141525D01*
X102748839Y-145070228D01*
X102726739Y-145002759D01*
X102744625Y-144934052D01*
X102750349Y-144925345D01*
X102827755Y-144817624D01*
X102886842Y-144670641D01*
X102902060Y-144563710D01*
X102908581Y-144517891D01*
X102908581Y-144517888D01*
X102909162Y-144513807D01*
X102909307Y-144500000D01*
X102907708Y-144486782D01*
X102899834Y-144421719D01*
X102890276Y-144342733D01*
X102834280Y-144194546D01*
X102824642Y-144180522D01*
X102748839Y-144070228D01*
X102726739Y-144002759D01*
X102744625Y-143934052D01*
X102750349Y-143925345D01*
X102827755Y-143817624D01*
X102886842Y-143670641D01*
X102894859Y-143614307D01*
X102908581Y-143517891D01*
X102908581Y-143517888D01*
X102909162Y-143513807D01*
X102909307Y-143500000D01*
X102906647Y-143478014D01*
X102897895Y-143405695D01*
X102890276Y-143342733D01*
X102834280Y-143194546D01*
X102744553Y-143063992D01*
X102733167Y-143053847D01*
X102708260Y-143031656D01*
X102626275Y-142958611D01*
X102618889Y-142954700D01*
X102516623Y-142900553D01*
X102486274Y-142884484D01*
X102332633Y-142845892D01*
X102325034Y-142845852D01*
X102325033Y-142845852D01*
X102259181Y-142845507D01*
X102174221Y-142845062D01*
X102166841Y-142846834D01*
X102166839Y-142846834D01*
X102027563Y-142880271D01*
X102027560Y-142880272D01*
X102020184Y-142882043D01*
X101879414Y-142954700D01*
X101873695Y-142959689D01*
X101779129Y-143042185D01*
X101760039Y-143058838D01*
X101759283Y-143057971D01*
X101705047Y-143091388D01*
X101657042Y-143094966D01*
X101585582Y-143086508D01*
X101384447Y-143062701D01*
X101374676Y-143061153D01*
X101193533Y-143025122D01*
X101019207Y-142990446D01*
X101009606Y-142988141D01*
X100762109Y-142918340D01*
X100660787Y-142889764D01*
X100651379Y-142886707D01*
X100311348Y-142761264D01*
X100302207Y-142757478D01*
X100287388Y-142750646D01*
X99973067Y-142605742D01*
X99964254Y-142601251D01*
X99950541Y-142593571D01*
X99686185Y-142445524D01*
X99648051Y-142424168D01*
X99639615Y-142418999D01*
X99445545Y-142289326D01*
X99338258Y-142217639D01*
X99330270Y-142211836D01*
X99045626Y-141987440D01*
X99038123Y-141981032D01*
X98795050Y-141756336D01*
X98778644Y-141737874D01*
X98777524Y-141736332D01*
X98777520Y-141736328D01*
X98771693Y-141728308D01*
X98769517Y-141726727D01*
X98472284Y-141454363D01*
X98470122Y-141452704D01*
X98470116Y-141452699D01*
X98269971Y-141299123D01*
X98150335Y-141207323D01*
X97967688Y-141090964D01*
X118891148Y-141090964D01*
X118904424Y-141293522D01*
X118905845Y-141299118D01*
X118905846Y-141299123D01*
X118926119Y-141378945D01*
X118954392Y-141490269D01*
X118956809Y-141495512D01*
X118994010Y-141576208D01*
X119039377Y-141674616D01*
X119042710Y-141679332D01*
X119077323Y-141728308D01*
X119156533Y-141840389D01*
X119160675Y-141844424D01*
X119189835Y-141872830D01*
X119301938Y-141982035D01*
X119470720Y-142094812D01*
X119476023Y-142097090D01*
X119476026Y-142097092D01*
X119639906Y-142167500D01*
X119657228Y-142174942D01*
X119730244Y-142191464D01*
X119849579Y-142218467D01*
X119849584Y-142218468D01*
X119855216Y-142219742D01*
X119860987Y-142219969D01*
X119860989Y-142219969D01*
X119920756Y-142222317D01*
X120058053Y-142227712D01*
X120167589Y-142211830D01*
X120253231Y-142199413D01*
X120253236Y-142199412D01*
X120258945Y-142198584D01*
X120264409Y-142196729D01*
X120264414Y-142196728D01*
X120445693Y-142135192D01*
X120445698Y-142135190D01*
X120451165Y-142133334D01*
X120481241Y-142116491D01*
X120570273Y-142066630D01*
X120628276Y-142034147D01*
X120686346Y-141985851D01*
X120779913Y-141908031D01*
X120784345Y-141904345D01*
X120914147Y-141748276D01*
X121013334Y-141571165D01*
X121015190Y-141565698D01*
X121015192Y-141565693D01*
X121076728Y-141384414D01*
X121076729Y-141384409D01*
X121078584Y-141378945D01*
X121079412Y-141373236D01*
X121079413Y-141373231D01*
X121107179Y-141181727D01*
X121107712Y-141178053D01*
X121109232Y-141120000D01*
X121090658Y-140917859D01*
X121089090Y-140912299D01*
X121037125Y-140728046D01*
X121037124Y-140728044D01*
X121035557Y-140722487D01*
X121024978Y-140701033D01*
X120948331Y-140545609D01*
X120945776Y-140540428D01*
X120824320Y-140377779D01*
X120675258Y-140239987D01*
X120670375Y-140236906D01*
X120670371Y-140236903D01*
X120508464Y-140134748D01*
X120503581Y-140131667D01*
X120431614Y-140102955D01*
X120375755Y-140059134D01*
X120352455Y-139992069D01*
X120369111Y-139923054D01*
X120420436Y-139874000D01*
X120442098Y-139865239D01*
X120492252Y-139850192D01*
X120501842Y-139846433D01*
X120693098Y-139752738D01*
X120701944Y-139747465D01*
X120749247Y-139713723D01*
X120757648Y-139703023D01*
X120750660Y-139689870D01*
X120012812Y-138952022D01*
X119998868Y-138944408D01*
X119997035Y-138944539D01*
X119990420Y-138948790D01*
X119246737Y-139692473D01*
X119239977Y-139704853D01*
X119245258Y-139711907D01*
X119406756Y-139806279D01*
X119416042Y-139810729D01*
X119565124Y-139867657D01*
X119621627Y-139910644D01*
X119645920Y-139977355D01*
X119630290Y-140046610D01*
X119579699Y-140096421D01*
X119563785Y-140103579D01*
X119522463Y-140118824D01*
X119348010Y-140222612D01*
X119343670Y-140226418D01*
X119343666Y-140226421D01*
X119323723Y-140243911D01*
X119195392Y-140356455D01*
X119069720Y-140515869D01*
X119067031Y-140520980D01*
X119067029Y-140520983D01*
X119019128Y-140612027D01*
X118975203Y-140695515D01*
X118915007Y-140889378D01*
X118891148Y-141090964D01*
X97967688Y-141090964D01*
X97808080Y-140989282D01*
X97448124Y-140801900D01*
X97073207Y-140646604D01*
X97036388Y-140634995D01*
X96977435Y-140595434D01*
X96949229Y-140530281D01*
X96960725Y-140460221D01*
X97008274Y-140407498D01*
X97031830Y-140396192D01*
X97070352Y-140382409D01*
X97140625Y-140357265D01*
X97143408Y-140355949D01*
X97143417Y-140355945D01*
X97460216Y-140206109D01*
X97460219Y-140206107D01*
X97462998Y-140204793D01*
X97580724Y-140134231D01*
X97766224Y-140023047D01*
X97766233Y-140023041D01*
X97768874Y-140021458D01*
X97828340Y-139977355D01*
X98052817Y-139810872D01*
X98052821Y-139810869D01*
X98055307Y-139809025D01*
X98319539Y-139569539D01*
X98559025Y-139305307D01*
X98579886Y-139277180D01*
X98769615Y-139021359D01*
X98771458Y-139018874D01*
X98773041Y-139016233D01*
X98773047Y-139016224D01*
X98953210Y-138715639D01*
X98954793Y-138712998D01*
X98972085Y-138676437D01*
X99105945Y-138393417D01*
X99105949Y-138393408D01*
X99107265Y-138390625D01*
X99172617Y-138207978D01*
X99226364Y-138057764D01*
X99226366Y-138057756D01*
X99227403Y-138054859D01*
X99294041Y-137788828D01*
X99313301Y-137711937D01*
X99313302Y-137711933D01*
X99314053Y-137708934D01*
X99314629Y-137705055D01*
X99358739Y-137407686D01*
X99366379Y-137356182D01*
X99366531Y-137353093D01*
X99383267Y-137012430D01*
X99383267Y-137012428D01*
X99383718Y-137003240D01*
X99384231Y-137000000D01*
X99381051Y-136979922D01*
X99379500Y-136960212D01*
X99379500Y-136594730D01*
X99399502Y-136526609D01*
X99423669Y-136498919D01*
X99479536Y-136451204D01*
X99485314Y-136446269D01*
X99577755Y-136317624D01*
X99636842Y-136170641D01*
X99649673Y-136080484D01*
X99658581Y-136017891D01*
X99658581Y-136017888D01*
X99659162Y-136013807D01*
X99659307Y-136000000D01*
X99640276Y-135842733D01*
X99584280Y-135694546D01*
X99529964Y-135615515D01*
X99498855Y-135570251D01*
X99498854Y-135570249D01*
X99494553Y-135563992D01*
X99376275Y-135458611D01*
X99368889Y-135454700D01*
X99242988Y-135388039D01*
X99242989Y-135388039D01*
X99236274Y-135384484D01*
X99082633Y-135345892D01*
X99075034Y-135345852D01*
X99075033Y-135345852D01*
X99009181Y-135345507D01*
X98924221Y-135345062D01*
X98916841Y-135346834D01*
X98916839Y-135346834D01*
X98777563Y-135380271D01*
X98777560Y-135380272D01*
X98770184Y-135382043D01*
X98629414Y-135454700D01*
X98510039Y-135558838D01*
X98418950Y-135688444D01*
X98406675Y-135719928D01*
X98366178Y-135823798D01*
X98361406Y-135836037D01*
X98360414Y-135843570D01*
X98360414Y-135843571D01*
X98346894Y-135946269D01*
X98340729Y-135993096D01*
X98349421Y-136071824D01*
X98355475Y-136126657D01*
X98358113Y-136150553D01*
X98360723Y-136157684D01*
X98360723Y-136157686D01*
X98405745Y-136280714D01*
X98412553Y-136299319D01*
X98500908Y-136430805D01*
X98506527Y-136435918D01*
X98506528Y-136435919D01*
X98579299Y-136502135D01*
X98616222Y-136562775D01*
X98620500Y-136595329D01*
X98620500Y-136960212D01*
X98618949Y-136979923D01*
X98617395Y-136989737D01*
X98615769Y-137000000D01*
X98617321Y-137009797D01*
X98617321Y-137012055D01*
X98618506Y-137035510D01*
X98615245Y-137093571D01*
X98603975Y-137294268D01*
X98602848Y-137314329D01*
X98601267Y-137328365D01*
X98585588Y-137420641D01*
X98549716Y-137631770D01*
X98546572Y-137645545D01*
X98520682Y-137735410D01*
X98461373Y-137941276D01*
X98456712Y-137954597D01*
X98399147Y-138093571D01*
X98338937Y-138238930D01*
X98332806Y-138251660D01*
X98183949Y-138520997D01*
X98176432Y-138532962D01*
X97998340Y-138783958D01*
X97989530Y-138795004D01*
X97784465Y-139024473D01*
X97774473Y-139034465D01*
X97545004Y-139239530D01*
X97533958Y-139248340D01*
X97282962Y-139426432D01*
X97270997Y-139433949D01*
X97001660Y-139582806D01*
X96988929Y-139588937D01*
X96704597Y-139706712D01*
X96691276Y-139711373D01*
X96486782Y-139770287D01*
X96395545Y-139796572D01*
X96381770Y-139799716D01*
X96230070Y-139825491D01*
X96078365Y-139851267D01*
X96064333Y-139852848D01*
X95893729Y-139862429D01*
X95785510Y-139868506D01*
X95762055Y-139867321D01*
X95759797Y-139867321D01*
X95750000Y-139865769D01*
X95740207Y-139867320D01*
X95740206Y-139867320D01*
X95729923Y-139868949D01*
X95710212Y-139870500D01*
X85289788Y-139870500D01*
X85270077Y-139868949D01*
X85267451Y-139868533D01*
X85250000Y-139865769D01*
X85240206Y-139867320D01*
X85230292Y-139867320D01*
X85230292Y-139866297D01*
X85215589Y-139866622D01*
X85126032Y-139856532D01*
X85098524Y-139850253D01*
X84994176Y-139813740D01*
X84968756Y-139801499D01*
X84875143Y-139742679D01*
X84853083Y-139725086D01*
X84774914Y-139646917D01*
X84757321Y-139624857D01*
X84698501Y-139531244D01*
X84686260Y-139505824D01*
X84649747Y-139401476D01*
X84643468Y-139373968D01*
X84633378Y-139284411D01*
X84633703Y-139269708D01*
X84632680Y-139269708D01*
X84632680Y-139259794D01*
X84634231Y-139250000D01*
X84631051Y-139229922D01*
X84629500Y-139210212D01*
X84629500Y-136280714D01*
X84649502Y-136212593D01*
X84703158Y-136166100D01*
X84757479Y-136154730D01*
X84811318Y-136155576D01*
X84811321Y-136155576D01*
X84818916Y-136155695D01*
X84973332Y-136120329D01*
X85052556Y-136080484D01*
X85108072Y-136052563D01*
X85108075Y-136052561D01*
X85114855Y-136049151D01*
X85120626Y-136044222D01*
X85120629Y-136044220D01*
X85229536Y-135951204D01*
X85229536Y-135951203D01*
X85235314Y-135946269D01*
X85327755Y-135817624D01*
X85386842Y-135670641D01*
X85397944Y-135592629D01*
X85408581Y-135517891D01*
X85408581Y-135517888D01*
X85409162Y-135513807D01*
X85409307Y-135500000D01*
X85390276Y-135342733D01*
X85334280Y-135194546D01*
X85280138Y-135115769D01*
X85248855Y-135070251D01*
X85248854Y-135070249D01*
X85244553Y-135063992D01*
X85219136Y-135041346D01*
X85188226Y-135013807D01*
X85126275Y-134958611D01*
X85118889Y-134954700D01*
X85017994Y-134901279D01*
X84986274Y-134884484D01*
X84959282Y-134877704D01*
X84898087Y-134841709D01*
X84866066Y-134778343D01*
X84873387Y-134707725D01*
X84917724Y-134652275D01*
X84989978Y-134629500D01*
X85150141Y-134629500D01*
X85218262Y-134649502D01*
X85245522Y-134673169D01*
X85246672Y-134674501D01*
X85250908Y-134680805D01*
X85256525Y-134685916D01*
X85359779Y-134779869D01*
X85368076Y-134787419D01*
X85507293Y-134863008D01*
X85660522Y-134903207D01*
X85757138Y-134904725D01*
X85818772Y-134905693D01*
X85886570Y-134926762D01*
X85905888Y-134942582D01*
X89572548Y-138609243D01*
X89606574Y-138671555D01*
X89608375Y-138714782D01*
X89603028Y-138755395D01*
X89609698Y-138815809D01*
X89618637Y-138896773D01*
X89620412Y-138912852D01*
X89623022Y-138919983D01*
X89623022Y-138919985D01*
X89664916Y-139034465D01*
X89674852Y-139061618D01*
X89679088Y-139067921D01*
X89679088Y-139067922D01*
X89748897Y-139171808D01*
X89763207Y-139193104D01*
X89768826Y-139198217D01*
X89768827Y-139198218D01*
X89825735Y-139250000D01*
X89880375Y-139299718D01*
X90019592Y-139375307D01*
X90172821Y-139415506D01*
X90256776Y-139416825D01*
X90323618Y-139417875D01*
X90323621Y-139417875D01*
X90331215Y-139417994D01*
X90485631Y-139382628D01*
X90565843Y-139342286D01*
X90620371Y-139314862D01*
X90620374Y-139314860D01*
X90627154Y-139311450D01*
X90632925Y-139306521D01*
X90632928Y-139306519D01*
X90741835Y-139213503D01*
X90741835Y-139213502D01*
X90747613Y-139208568D01*
X90840054Y-139079923D01*
X90899141Y-138932940D01*
X90915410Y-138818625D01*
X90920880Y-138780190D01*
X90920880Y-138780187D01*
X90921461Y-138776106D01*
X90921606Y-138762299D01*
X90920348Y-138751899D01*
X90911216Y-138676437D01*
X90902575Y-138605032D01*
X90846579Y-138456845D01*
X90823348Y-138423044D01*
X90761154Y-138332550D01*
X90761153Y-138332548D01*
X90756852Y-138326291D01*
X90638574Y-138220910D01*
X90498573Y-138146783D01*
X90344932Y-138108191D01*
X90337333Y-138108151D01*
X90337332Y-138108151D01*
X90276925Y-138107835D01*
X90195634Y-138107409D01*
X90127620Y-138087051D01*
X90107200Y-138070506D01*
X86440143Y-134403449D01*
X86406117Y-134341137D01*
X86404495Y-134296601D01*
X86408581Y-134267892D01*
X86408581Y-134267886D01*
X86409162Y-134263807D01*
X86409307Y-134250000D01*
X86390276Y-134092733D01*
X86334280Y-133944546D01*
X86282324Y-133868949D01*
X86248855Y-133820251D01*
X86248854Y-133820249D01*
X86244553Y-133813992D01*
X86126275Y-133708611D01*
X86118889Y-133704700D01*
X86073759Y-133680805D01*
X85986274Y-133634484D01*
X85832633Y-133595892D01*
X85825034Y-133595852D01*
X85825033Y-133595852D01*
X85759181Y-133595507D01*
X85674221Y-133595062D01*
X85666841Y-133596834D01*
X85666839Y-133596834D01*
X85527563Y-133630271D01*
X85527560Y-133630272D01*
X85520184Y-133632043D01*
X85379414Y-133704700D01*
X85260039Y-133808838D01*
X85255672Y-133815051D01*
X85255667Y-133815057D01*
X85254336Y-133816951D01*
X85253013Y-133818005D01*
X85250589Y-133820697D01*
X85250140Y-133820293D01*
X85198802Y-133861183D01*
X85151250Y-133870500D01*
X84789789Y-133870500D01*
X84770078Y-133868949D01*
X84757377Y-133866937D01*
X84757376Y-133866937D01*
X84750001Y-133865769D01*
X84750152Y-133864816D01*
X84690559Y-133847318D01*
X84644066Y-133793662D01*
X84634557Y-133749947D01*
X84634231Y-133749999D01*
X84633329Y-133744302D01*
X84633328Y-133744296D01*
X84631051Y-133729921D01*
X84629500Y-133710211D01*
X84629500Y-132993096D01*
X86090729Y-132993096D01*
X86091563Y-133000646D01*
X86106579Y-133136655D01*
X86108113Y-133150553D01*
X86110723Y-133157684D01*
X86110723Y-133157686D01*
X86153696Y-133275115D01*
X86162553Y-133299319D01*
X86166789Y-133305622D01*
X86166789Y-133305623D01*
X86235373Y-133407686D01*
X86250908Y-133430805D01*
X86256527Y-133435918D01*
X86256528Y-133435919D01*
X86322892Y-133496305D01*
X86368076Y-133537419D01*
X86507293Y-133613008D01*
X86660522Y-133653207D01*
X86744477Y-133654526D01*
X86811319Y-133655576D01*
X86811322Y-133655576D01*
X86818916Y-133655695D01*
X86973332Y-133620329D01*
X87043742Y-133584917D01*
X87108072Y-133552563D01*
X87108075Y-133552561D01*
X87114855Y-133549151D01*
X87120626Y-133544222D01*
X87120629Y-133544220D01*
X87229542Y-133451199D01*
X87229543Y-133451198D01*
X87235314Y-133446269D01*
X87245586Y-133431974D01*
X87301581Y-133388326D01*
X87347909Y-133379500D01*
X87710212Y-133379500D01*
X87729922Y-133381051D01*
X87750000Y-133384231D01*
X87753902Y-133383613D01*
X87853394Y-133377595D01*
X88033544Y-133366698D01*
X88033549Y-133366697D01*
X88037341Y-133366468D01*
X88320492Y-133314579D01*
X88355684Y-133303613D01*
X88591689Y-133230071D01*
X88595325Y-133228938D01*
X88598795Y-133227376D01*
X88598801Y-133227374D01*
X88778612Y-133146447D01*
X88857830Y-133110794D01*
X88965193Y-133045891D01*
X89100926Y-132963838D01*
X89100929Y-132963836D01*
X89104181Y-132961870D01*
X89107176Y-132959523D01*
X89107184Y-132959518D01*
X89181960Y-132900935D01*
X89247919Y-132874669D01*
X89317608Y-132888233D01*
X89368900Y-132937320D01*
X89385512Y-133006346D01*
X89377060Y-133045887D01*
X89361406Y-133086037D01*
X89360414Y-133093570D01*
X89360414Y-133093571D01*
X89342444Y-133230071D01*
X89340729Y-133243096D01*
X89348077Y-133309653D01*
X89356243Y-133383613D01*
X89358113Y-133400553D01*
X89360723Y-133407684D01*
X89360723Y-133407686D01*
X89401292Y-133518546D01*
X89412553Y-133549319D01*
X89416789Y-133555622D01*
X89416789Y-133555623D01*
X89477771Y-133646373D01*
X89500908Y-133680805D01*
X89506527Y-133685918D01*
X89506528Y-133685919D01*
X89586783Y-133758945D01*
X89618076Y-133787419D01*
X89757293Y-133863008D01*
X89910522Y-133903207D01*
X89994477Y-133904526D01*
X90061319Y-133905576D01*
X90061322Y-133905576D01*
X90068916Y-133905695D01*
X90223332Y-133870329D01*
X90293742Y-133834917D01*
X90358072Y-133802563D01*
X90358075Y-133802561D01*
X90364855Y-133799151D01*
X90370626Y-133794222D01*
X90370629Y-133794220D01*
X90479542Y-133701199D01*
X90479543Y-133701198D01*
X90485314Y-133696269D01*
X90495586Y-133681974D01*
X90551581Y-133638326D01*
X90597909Y-133629500D01*
X98460212Y-133629500D01*
X98479922Y-133631051D01*
X98482465Y-133631454D01*
X98490206Y-133632680D01*
X98490207Y-133632680D01*
X98500000Y-133634231D01*
X98509795Y-133632679D01*
X98519710Y-133632679D01*
X98519710Y-133632834D01*
X98534820Y-133632240D01*
X98704508Y-133645595D01*
X98724035Y-133648688D01*
X98913872Y-133694264D01*
X98932662Y-133700369D01*
X99113035Y-133775082D01*
X99130650Y-133784058D01*
X99297102Y-133886059D01*
X99313098Y-133897681D01*
X99461549Y-134024470D01*
X99475530Y-134038451D01*
X99602319Y-134186902D01*
X99613941Y-134202898D01*
X99697022Y-134338474D01*
X99715941Y-134369348D01*
X99724917Y-134386964D01*
X99756226Y-134462550D01*
X99763815Y-134533139D01*
X99742904Y-134583218D01*
X99668950Y-134688444D01*
X99648769Y-134740206D01*
X99616178Y-134823798D01*
X99611406Y-134836037D01*
X99610414Y-134843570D01*
X99610414Y-134843571D01*
X99593959Y-134968564D01*
X99590729Y-134993096D01*
X99597536Y-135054748D01*
X99606395Y-135134991D01*
X99608113Y-135150553D01*
X99610723Y-135157684D01*
X99610723Y-135157686D01*
X99659007Y-135289628D01*
X99662553Y-135299319D01*
X99666789Y-135305622D01*
X99666789Y-135305623D01*
X99731446Y-135401842D01*
X99750908Y-135430805D01*
X99756527Y-135435918D01*
X99756528Y-135435919D01*
X99862460Y-135532309D01*
X99868076Y-135537419D01*
X100007293Y-135613008D01*
X100160522Y-135653207D01*
X100244477Y-135654526D01*
X100311319Y-135655576D01*
X100311322Y-135655576D01*
X100318916Y-135655695D01*
X100473332Y-135620329D01*
X100575688Y-135568850D01*
X100608072Y-135552563D01*
X100608075Y-135552561D01*
X100614855Y-135549151D01*
X100620626Y-135544222D01*
X100620629Y-135544220D01*
X100729536Y-135451204D01*
X100729536Y-135451203D01*
X100735314Y-135446269D01*
X100827755Y-135317624D01*
X100886842Y-135170641D01*
X100895560Y-135109385D01*
X100908581Y-135017891D01*
X100908581Y-135017888D01*
X100909162Y-135013807D01*
X100909307Y-135000000D01*
X100890276Y-134842733D01*
X100834280Y-134694546D01*
X100789244Y-134629018D01*
X100748855Y-134570251D01*
X100748854Y-134570249D01*
X100744553Y-134563992D01*
X100737478Y-134557688D01*
X100692796Y-134517879D01*
X100626275Y-134458611D01*
X100595915Y-134442536D01*
X100545072Y-134392985D01*
X100535561Y-134371683D01*
X100472952Y-134187242D01*
X100472952Y-134187241D01*
X100471623Y-134183327D01*
X100469800Y-134179631D01*
X100469797Y-134179623D01*
X100353869Y-133944546D01*
X100348158Y-133932966D01*
X100193071Y-133700861D01*
X100009015Y-133490985D01*
X99799139Y-133306929D01*
X99567035Y-133151842D01*
X99563336Y-133150018D01*
X99563331Y-133150015D01*
X99412259Y-133075515D01*
X99316673Y-133028377D01*
X99312767Y-133027051D01*
X99056251Y-132939976D01*
X99056247Y-132939975D01*
X99052338Y-132938648D01*
X99048294Y-132937844D01*
X99048288Y-132937842D01*
X98782591Y-132884991D01*
X98782585Y-132884990D01*
X98778552Y-132884188D01*
X98774447Y-132883919D01*
X98774440Y-132883918D01*
X98512887Y-132866775D01*
X98512886Y-132866775D01*
X98501745Y-132866045D01*
X98500000Y-132865769D01*
X98490214Y-132867319D01*
X98479923Y-132868949D01*
X98460212Y-132870500D01*
X90599682Y-132870500D01*
X90531561Y-132850498D01*
X90505114Y-132824860D01*
X90503878Y-132825949D01*
X90498855Y-132820251D01*
X90494553Y-132813992D01*
X90376275Y-132708611D01*
X90368889Y-132704700D01*
X90242988Y-132638039D01*
X90242989Y-132638039D01*
X90236274Y-132634484D01*
X90082633Y-132595892D01*
X90075034Y-132595852D01*
X90075033Y-132595852D01*
X90009181Y-132595507D01*
X89924221Y-132595062D01*
X89916841Y-132596834D01*
X89916839Y-132596834D01*
X89781837Y-132629245D01*
X89710929Y-132625698D01*
X89653195Y-132584378D01*
X89626965Y-132518404D01*
X89640568Y-132448723D01*
X89653238Y-132429019D01*
X89711870Y-132354181D01*
X89716312Y-132346834D01*
X89858822Y-132111092D01*
X89860794Y-132107830D01*
X89952834Y-131903326D01*
X89977374Y-131848801D01*
X89977376Y-131848795D01*
X89978938Y-131845325D01*
X90009256Y-131748031D01*
X90063447Y-131574125D01*
X90063447Y-131574124D01*
X90064579Y-131570492D01*
X90116468Y-131287341D01*
X90118688Y-131250646D01*
X90133039Y-131013398D01*
X90133039Y-131013396D01*
X90133613Y-131003902D01*
X90134231Y-131000000D01*
X90132680Y-130990208D01*
X90132680Y-130980288D01*
X90133054Y-130980288D01*
X90132532Y-130965340D01*
X90142429Y-130852224D01*
X90146242Y-130830595D01*
X90181785Y-130697946D01*
X90189297Y-130677308D01*
X90218312Y-130615083D01*
X90247329Y-130552855D01*
X90258310Y-130533835D01*
X90261087Y-130529870D01*
X90322301Y-130442447D01*
X90337078Y-130421344D01*
X90351196Y-130404520D01*
X90448290Y-130307426D01*
X90465114Y-130293308D01*
X90566367Y-130222409D01*
X90577607Y-130214539D01*
X90596625Y-130203559D01*
X90658853Y-130174542D01*
X90721078Y-130145527D01*
X90741716Y-130138015D01*
X90874365Y-130102472D01*
X90895994Y-130098659D01*
X91009113Y-130088762D01*
X91024058Y-130089283D01*
X91024058Y-130088909D01*
X91033974Y-130088909D01*
X91043769Y-130090461D01*
X91053562Y-130088910D01*
X91053563Y-130088910D01*
X91063846Y-130087281D01*
X91083557Y-130085730D01*
X104916442Y-130085730D01*
X104936153Y-130087281D01*
X104946436Y-130088910D01*
X104946437Y-130088910D01*
X104956230Y-130090461D01*
X104966025Y-130088909D01*
X104972117Y-130088909D01*
X104988566Y-130089987D01*
X105026805Y-130095021D01*
X105047006Y-130097681D01*
X105078777Y-130106194D01*
X105148040Y-130134884D01*
X105176525Y-130151330D01*
X105236003Y-130196970D01*
X105259260Y-130220227D01*
X105304900Y-130279705D01*
X105321347Y-130308192D01*
X105350036Y-130377454D01*
X105358549Y-130409224D01*
X105364537Y-130454700D01*
X105366243Y-130467661D01*
X105367321Y-130484113D01*
X105367321Y-130490205D01*
X105365769Y-130500000D01*
X105367320Y-130509793D01*
X105367320Y-130509794D01*
X105368949Y-130520077D01*
X105370500Y-130539788D01*
X105370500Y-133106659D01*
X105368949Y-133126369D01*
X105365769Y-133146447D01*
X105367320Y-133156240D01*
X105367320Y-133166158D01*
X105366665Y-133166158D01*
X105367101Y-133180957D01*
X105362608Y-133226577D01*
X105357789Y-133250803D01*
X105338016Y-133315985D01*
X105328564Y-133338805D01*
X105296458Y-133398871D01*
X105282736Y-133419407D01*
X105253652Y-133454847D01*
X105242879Y-133465001D01*
X105243344Y-133465466D01*
X105236332Y-133472477D01*
X105228308Y-133478307D01*
X105222479Y-133486330D01*
X105222478Y-133486331D01*
X105216357Y-133494756D01*
X105203516Y-133509790D01*
X105113344Y-133599962D01*
X105098310Y-133612803D01*
X105081861Y-133624754D01*
X105076029Y-133632781D01*
X105075675Y-133633135D01*
X105069560Y-133640789D01*
X105008679Y-133710211D01*
X104948385Y-133778962D01*
X104948381Y-133778968D01*
X104945667Y-133782062D01*
X104830118Y-133954994D01*
X104828294Y-133958693D01*
X104828291Y-133958698D01*
X104781644Y-134053290D01*
X104738129Y-134141529D01*
X104736803Y-134145434D01*
X104736803Y-134145435D01*
X104694659Y-134269588D01*
X104671275Y-134338474D01*
X104670471Y-134342518D01*
X104670469Y-134342524D01*
X104635589Y-134517879D01*
X104630699Y-134542461D01*
X104630430Y-134546566D01*
X104630429Y-134546573D01*
X104621789Y-134678399D01*
X104621058Y-134683634D01*
X104620982Y-134683851D01*
X104620500Y-134689416D01*
X104620500Y-134693945D01*
X104620230Y-134702184D01*
X104618411Y-134729941D01*
X104617321Y-134739702D01*
X104617321Y-134740201D01*
X104615769Y-134749999D01*
X104617320Y-134759792D01*
X104617320Y-134759793D01*
X104618949Y-134770076D01*
X104620500Y-134789787D01*
X104620500Y-136859232D01*
X104618949Y-136878942D01*
X104615769Y-136899020D01*
X104616556Y-136903989D01*
X104617010Y-136912076D01*
X104617010Y-136912077D01*
X104622625Y-137012055D01*
X104633155Y-137199557D01*
X104683576Y-137496314D01*
X104766906Y-137785559D01*
X104768260Y-137788827D01*
X104768260Y-137788828D01*
X104877214Y-138051864D01*
X104882098Y-138063656D01*
X104883808Y-138066751D01*
X104883809Y-138066752D01*
X104895028Y-138087051D01*
X105027702Y-138327107D01*
X105029746Y-138329987D01*
X105029748Y-138329991D01*
X105076874Y-138396410D01*
X105099980Y-138463541D01*
X105083125Y-138532508D01*
X105031659Y-138581413D01*
X104973453Y-138595320D01*
X104924221Y-138595062D01*
X104916841Y-138596834D01*
X104916839Y-138596834D01*
X104777563Y-138630271D01*
X104777560Y-138630272D01*
X104770184Y-138632043D01*
X104629414Y-138704700D01*
X104510039Y-138808838D01*
X104418950Y-138938444D01*
X104395878Y-138997622D01*
X104366540Y-139072870D01*
X104361406Y-139086037D01*
X104360414Y-139093570D01*
X104360414Y-139093571D01*
X104343753Y-139220130D01*
X104340729Y-139243096D01*
X104347380Y-139303341D01*
X104355326Y-139375307D01*
X104358113Y-139400553D01*
X104360723Y-139407684D01*
X104360723Y-139407686D01*
X104405939Y-139531244D01*
X104412553Y-139549319D01*
X104500908Y-139680805D01*
X104506527Y-139685918D01*
X104506528Y-139685919D01*
X104560607Y-139735127D01*
X104618076Y-139787419D01*
X104757293Y-139863008D01*
X104910522Y-139903207D01*
X104994477Y-139904526D01*
X105061319Y-139905576D01*
X105061322Y-139905576D01*
X105068916Y-139905695D01*
X105076320Y-139903999D01*
X105076322Y-139903999D01*
X105159849Y-139884869D01*
X105230716Y-139889158D01*
X105248926Y-139897411D01*
X105297231Y-139924108D01*
X105297238Y-139924112D01*
X105300335Y-139925823D01*
X105303598Y-139927175D01*
X105303603Y-139927177D01*
X105513589Y-140014156D01*
X105516858Y-140015510D01*
X105742061Y-140080390D01*
X105973112Y-140119647D01*
X106113122Y-140127510D01*
X106140853Y-140129067D01*
X106143362Y-140129246D01*
X106143818Y-140129266D01*
X106146522Y-140129500D01*
X106147231Y-140129500D01*
X106148537Y-140129946D01*
X106148562Y-140129500D01*
X106161117Y-140130205D01*
X106186638Y-140131638D01*
X106196366Y-140132679D01*
X106197309Y-140132679D01*
X106207106Y-140134231D01*
X106216899Y-140132680D01*
X106216900Y-140132680D01*
X106227183Y-140131051D01*
X106246894Y-140129500D01*
X117460212Y-140129500D01*
X117479922Y-140131051D01*
X117500000Y-140134231D01*
X117505835Y-140133307D01*
X117716468Y-140116730D01*
X117721275Y-140115576D01*
X117721281Y-140115575D01*
X117871904Y-140079413D01*
X117927607Y-140066040D01*
X117944280Y-140059134D01*
X118123643Y-139984840D01*
X118123647Y-139984838D01*
X118128217Y-139982945D01*
X118313357Y-139869491D01*
X118478471Y-139728471D01*
X118619491Y-139563357D01*
X118698792Y-139433949D01*
X118723228Y-139394074D01*
X118775876Y-139346443D01*
X118851260Y-139335604D01*
X118875282Y-139339585D01*
X118885693Y-139335097D01*
X119627978Y-138592812D01*
X119634356Y-138581132D01*
X120364408Y-138581132D01*
X120364539Y-138582965D01*
X120368790Y-138589580D01*
X121110474Y-139331264D01*
X121122484Y-139337823D01*
X121134223Y-139328855D01*
X121165004Y-139286019D01*
X121170315Y-139277180D01*
X121264670Y-139086267D01*
X121268469Y-139076672D01*
X121330376Y-138872915D01*
X121332555Y-138862834D01*
X121360590Y-138649887D01*
X121361109Y-138643212D01*
X121362572Y-138583364D01*
X121362378Y-138576646D01*
X121344781Y-138362604D01*
X121343096Y-138352424D01*
X121291214Y-138145875D01*
X121287894Y-138136124D01*
X121202972Y-137940814D01*
X121198105Y-137931739D01*
X121133063Y-137831197D01*
X121122377Y-137821995D01*
X121112812Y-137826398D01*
X120372022Y-138567188D01*
X120364408Y-138581132D01*
X119634356Y-138581132D01*
X119635592Y-138578868D01*
X119635461Y-138577035D01*
X119631210Y-138570420D01*
X118916405Y-137855615D01*
X118882379Y-137793303D01*
X118879500Y-137766520D01*
X118879500Y-137579788D01*
X118881051Y-137560077D01*
X118882680Y-137549794D01*
X118882680Y-137549793D01*
X118884231Y-137540000D01*
X118882679Y-137530205D01*
X118882679Y-137520289D01*
X118883054Y-137520289D01*
X118882532Y-137505348D01*
X118895563Y-137356409D01*
X118899376Y-137334780D01*
X118944222Y-137167414D01*
X118951734Y-137146775D01*
X118962269Y-137124184D01*
X119024962Y-136989737D01*
X119035941Y-136970721D01*
X119087404Y-136897224D01*
X119142861Y-136852896D01*
X119213481Y-136845587D01*
X119278538Y-136879240D01*
X119301938Y-136902035D01*
X119470720Y-137014812D01*
X119476023Y-137017090D01*
X119476026Y-137017092D01*
X119572954Y-137058735D01*
X119627647Y-137104003D01*
X119649184Y-137171654D01*
X119630727Y-137240210D01*
X119578136Y-137287904D01*
X119562361Y-137294268D01*
X119476868Y-137322212D01*
X119467359Y-137326209D01*
X119278466Y-137424540D01*
X119269734Y-137430039D01*
X119249677Y-137445099D01*
X119241223Y-137456427D01*
X119247968Y-137468758D01*
X119987188Y-138207978D01*
X120001132Y-138215592D01*
X120002965Y-138215461D01*
X120009580Y-138211210D01*
X120753389Y-137467401D01*
X120760410Y-137454544D01*
X120753611Y-137445213D01*
X120749554Y-137442518D01*
X120563117Y-137339599D01*
X120553705Y-137335369D01*
X120439391Y-137294888D01*
X120381855Y-137253294D01*
X120355939Y-137187196D01*
X120369873Y-137117580D01*
X120419232Y-137066549D01*
X120440943Y-137056804D01*
X120451165Y-137053334D01*
X120459626Y-137048596D01*
X120540614Y-137003240D01*
X120628276Y-136954147D01*
X120669157Y-136920147D01*
X120779913Y-136828031D01*
X120784345Y-136824345D01*
X120879704Y-136709689D01*
X120910453Y-136672718D01*
X120910455Y-136672715D01*
X120914147Y-136668276D01*
X120986694Y-136538735D01*
X121010510Y-136496208D01*
X121010511Y-136496206D01*
X121013334Y-136491165D01*
X121015190Y-136485698D01*
X121015192Y-136485693D01*
X121076728Y-136304414D01*
X121076729Y-136304409D01*
X121078584Y-136298945D01*
X121079412Y-136293236D01*
X121079413Y-136293231D01*
X121099354Y-136155695D01*
X121107712Y-136098053D01*
X121109232Y-136040000D01*
X121090658Y-135837859D01*
X121082962Y-135810571D01*
X121037125Y-135648046D01*
X121037124Y-135648044D01*
X121035557Y-135642487D01*
X121024388Y-135619837D01*
X120948331Y-135465609D01*
X120945776Y-135460428D01*
X120824320Y-135297779D01*
X120706263Y-135188648D01*
X120679503Y-135163911D01*
X120675258Y-135159987D01*
X120670375Y-135156906D01*
X120670371Y-135156903D01*
X120508464Y-135054748D01*
X120503581Y-135051667D01*
X120315039Y-134976446D01*
X120309379Y-134975320D01*
X120309375Y-134975319D01*
X120121613Y-134937971D01*
X120121610Y-134937971D01*
X120115946Y-134936844D01*
X120110171Y-134936768D01*
X120110167Y-134936768D01*
X120008793Y-134935441D01*
X119912971Y-134934187D01*
X119907274Y-134935166D01*
X119907273Y-134935166D01*
X119741426Y-134963664D01*
X119712910Y-134968564D01*
X119522463Y-135038824D01*
X119348010Y-135142612D01*
X119343670Y-135146418D01*
X119343666Y-135146421D01*
X119199733Y-135272648D01*
X119195392Y-135276455D01*
X119069720Y-135435869D01*
X119067031Y-135440980D01*
X119067029Y-135440983D01*
X119022565Y-135525494D01*
X118973145Y-135576467D01*
X118904012Y-135592629D01*
X118837117Y-135568850D01*
X118793696Y-135512678D01*
X118787537Y-135441949D01*
X118789979Y-135431957D01*
X118814774Y-135345892D01*
X118816630Y-135339450D01*
X118816630Y-135339448D01*
X118817612Y-135336041D01*
X118867083Y-135044875D01*
X118883320Y-134755752D01*
X118884231Y-134750000D01*
X118882680Y-134740206D01*
X118882680Y-134730289D01*
X118883335Y-134730289D01*
X118882899Y-134715490D01*
X118889125Y-134652275D01*
X118895010Y-134592526D01*
X118899828Y-134568302D01*
X118942162Y-134428745D01*
X118951614Y-134405928D01*
X118969919Y-134371683D01*
X119007995Y-134300447D01*
X119057747Y-134249799D01*
X119126984Y-134234089D01*
X119193723Y-134258305D01*
X119207035Y-134269586D01*
X119301938Y-134362035D01*
X119470720Y-134474812D01*
X119476023Y-134477090D01*
X119476026Y-134477092D01*
X119651921Y-134552662D01*
X119657228Y-134554942D01*
X119716178Y-134568281D01*
X119849579Y-134598467D01*
X119849584Y-134598468D01*
X119855216Y-134599742D01*
X119860987Y-134599969D01*
X119860989Y-134599969D01*
X119920756Y-134602317D01*
X120058053Y-134607712D01*
X120162775Y-134592528D01*
X120253231Y-134579413D01*
X120253236Y-134579412D01*
X120258945Y-134578584D01*
X120264409Y-134576729D01*
X120264414Y-134576728D01*
X120445693Y-134515192D01*
X120445698Y-134515190D01*
X120451165Y-134513334D01*
X120473027Y-134501091D01*
X120619426Y-134419103D01*
X120628276Y-134414147D01*
X120638159Y-134405928D01*
X120779913Y-134288031D01*
X120784345Y-134284345D01*
X120865388Y-134186902D01*
X120910453Y-134132718D01*
X120910455Y-134132715D01*
X120914147Y-134128276D01*
X121005060Y-133965940D01*
X121010510Y-133956208D01*
X121010511Y-133956206D01*
X121013334Y-133951165D01*
X121015190Y-133945698D01*
X121015192Y-133945693D01*
X121076728Y-133764414D01*
X121076729Y-133764409D01*
X121078584Y-133758945D01*
X121079412Y-133753236D01*
X121079413Y-133753231D01*
X121102089Y-133596834D01*
X121107712Y-133558053D01*
X121109232Y-133500000D01*
X121095896Y-133354866D01*
X121091187Y-133303613D01*
X121091186Y-133303610D01*
X121090658Y-133297859D01*
X121087714Y-133287419D01*
X121037125Y-133108046D01*
X121037124Y-133108044D01*
X121035557Y-133102487D01*
X121031161Y-133093571D01*
X120948331Y-132925609D01*
X120945776Y-132920428D01*
X120824320Y-132757779D01*
X120709418Y-132651564D01*
X120679503Y-132623911D01*
X120675258Y-132619987D01*
X120670375Y-132616906D01*
X120670371Y-132616903D01*
X120524728Y-132525010D01*
X120503581Y-132511667D01*
X120315039Y-132436446D01*
X120309379Y-132435320D01*
X120309375Y-132435319D01*
X120121613Y-132397971D01*
X120121610Y-132397971D01*
X120115946Y-132396844D01*
X120110171Y-132396768D01*
X120110167Y-132396768D01*
X120008793Y-132395441D01*
X119912971Y-132394187D01*
X119907274Y-132395166D01*
X119907273Y-132395166D01*
X119718607Y-132427585D01*
X119712910Y-132428564D01*
X119522463Y-132498824D01*
X119348010Y-132602612D01*
X119343670Y-132606418D01*
X119343666Y-132606421D01*
X119231601Y-132704700D01*
X119195392Y-132736455D01*
X119069720Y-132895869D01*
X119067031Y-132900980D01*
X119067029Y-132900983D01*
X119030827Y-132969792D01*
X118975203Y-133075515D01*
X118915007Y-133269378D01*
X118914328Y-133275115D01*
X118912244Y-133292724D01*
X118884374Y-133358022D01*
X118862628Y-133378782D01*
X118680179Y-133515361D01*
X118594595Y-133600945D01*
X118532283Y-133634971D01*
X118461468Y-133629906D01*
X118404632Y-133587359D01*
X118379821Y-133520839D01*
X118379500Y-133511850D01*
X118379500Y-132999788D01*
X118381051Y-132980077D01*
X118382680Y-132969792D01*
X118384231Y-132960000D01*
X118382680Y-132950207D01*
X118382680Y-132940787D01*
X118382003Y-132925002D01*
X118383242Y-132907686D01*
X118395351Y-132738370D01*
X118397909Y-132720576D01*
X118423570Y-132602612D01*
X118443226Y-132512257D01*
X118448290Y-132495009D01*
X118522793Y-132295261D01*
X118530261Y-132278909D01*
X118632430Y-132091799D01*
X118642150Y-132076675D01*
X118769909Y-131906010D01*
X118781682Y-131892424D01*
X118932424Y-131741682D01*
X118946010Y-131729909D01*
X118946846Y-131729283D01*
X119007546Y-131683844D01*
X119074065Y-131659033D01*
X119143439Y-131674124D01*
X119170972Y-131694455D01*
X119301938Y-131822035D01*
X119470720Y-131934812D01*
X119476023Y-131937090D01*
X119476026Y-131937092D01*
X119564707Y-131975192D01*
X119657228Y-132014942D01*
X119730244Y-132031464D01*
X119849579Y-132058467D01*
X119849584Y-132058468D01*
X119855216Y-132059742D01*
X119860987Y-132059969D01*
X119860989Y-132059969D01*
X119920756Y-132062317D01*
X120058053Y-132067712D01*
X120158499Y-132053148D01*
X120253231Y-132039413D01*
X120253236Y-132039412D01*
X120258945Y-132038584D01*
X120264409Y-132036729D01*
X120264414Y-132036728D01*
X120445693Y-131975192D01*
X120445698Y-131975190D01*
X120451165Y-131973334D01*
X120628276Y-131874147D01*
X120635426Y-131868201D01*
X120779913Y-131748031D01*
X120784345Y-131744345D01*
X120832938Y-131685919D01*
X120910453Y-131592718D01*
X120910455Y-131592715D01*
X120914147Y-131588276D01*
X121013334Y-131411165D01*
X121015190Y-131405698D01*
X121015192Y-131405693D01*
X121076728Y-131224414D01*
X121076729Y-131224409D01*
X121078584Y-131218945D01*
X121079412Y-131213236D01*
X121079413Y-131213231D01*
X121104369Y-131041109D01*
X121107712Y-131018053D01*
X121109232Y-130960000D01*
X121094394Y-130798515D01*
X121091187Y-130763613D01*
X121091186Y-130763610D01*
X121090658Y-130757859D01*
X121084243Y-130735113D01*
X121037125Y-130568046D01*
X121037124Y-130568044D01*
X121035557Y-130562487D01*
X121030809Y-130552857D01*
X120948331Y-130385609D01*
X120945776Y-130380428D01*
X120824320Y-130217779D01*
X120706125Y-130108520D01*
X120679503Y-130083911D01*
X120675258Y-130079987D01*
X120670375Y-130076906D01*
X120670371Y-130076903D01*
X120508464Y-129974748D01*
X120503581Y-129971667D01*
X120315039Y-129896446D01*
X120309379Y-129895320D01*
X120309375Y-129895319D01*
X120121613Y-129857971D01*
X120121610Y-129857971D01*
X120115946Y-129856844D01*
X120110171Y-129856768D01*
X120110167Y-129856768D01*
X120008793Y-129855441D01*
X119912971Y-129854187D01*
X119907274Y-129855166D01*
X119907273Y-129855166D01*
X119738126Y-129884231D01*
X119712910Y-129888564D01*
X119522463Y-129958824D01*
X119348010Y-130062612D01*
X119343670Y-130066418D01*
X119343666Y-130066421D01*
X119205897Y-130187242D01*
X119195392Y-130196455D01*
X119069720Y-130355869D01*
X119067031Y-130360980D01*
X119067029Y-130360983D01*
X119035272Y-130421344D01*
X118975203Y-130535515D01*
X118915007Y-130729378D01*
X118914329Y-130735110D01*
X118914328Y-130735113D01*
X118908730Y-130782413D01*
X118880859Y-130847710D01*
X118848787Y-130875432D01*
X118817201Y-130894526D01*
X118674558Y-130980757D01*
X118645819Y-130998130D01*
X118542651Y-131078957D01*
X118451266Y-131150553D01*
X118419215Y-131175663D01*
X118215663Y-131379215D01*
X118104685Y-131520868D01*
X118046929Y-131562155D01*
X117976019Y-131565663D01*
X117914469Y-131530278D01*
X117881821Y-131467233D01*
X117879500Y-131443161D01*
X117879500Y-130959788D01*
X117881051Y-130940077D01*
X117882680Y-130929792D01*
X117884231Y-130920000D01*
X117882680Y-130910207D01*
X117882680Y-130903906D01*
X117881806Y-130884824D01*
X117897101Y-130651461D01*
X117899252Y-130635121D01*
X117940240Y-130429058D01*
X117950144Y-130379269D01*
X117954407Y-130363359D01*
X118038259Y-130116339D01*
X118044565Y-130101115D01*
X118159940Y-129867158D01*
X118168181Y-129852884D01*
X118313104Y-129635991D01*
X118323137Y-129622915D01*
X118495135Y-129426789D01*
X118506789Y-129415135D01*
X118702915Y-129243137D01*
X118715991Y-129233104D01*
X118932881Y-129088183D01*
X118947153Y-129079943D01*
X118974223Y-129066593D01*
X119044165Y-129054402D01*
X119109595Y-129081960D01*
X119132850Y-129106878D01*
X119156533Y-129140389D01*
X119301938Y-129282035D01*
X119470720Y-129394812D01*
X119476023Y-129397090D01*
X119476026Y-129397092D01*
X119561425Y-129433782D01*
X119657228Y-129474942D01*
X119716125Y-129488269D01*
X119849579Y-129518467D01*
X119849584Y-129518468D01*
X119855216Y-129519742D01*
X119860987Y-129519969D01*
X119860989Y-129519969D01*
X119920756Y-129522317D01*
X120058053Y-129527712D01*
X120158499Y-129513148D01*
X120253231Y-129499413D01*
X120253236Y-129499412D01*
X120258945Y-129498584D01*
X120264409Y-129496729D01*
X120264414Y-129496728D01*
X120445693Y-129435192D01*
X120445698Y-129435190D01*
X120451165Y-129433334D01*
X120628276Y-129334147D01*
X120690934Y-129282035D01*
X120779913Y-129208031D01*
X120784345Y-129204345D01*
X120854079Y-129120500D01*
X120910453Y-129052718D01*
X120910455Y-129052715D01*
X120914147Y-129048276D01*
X120991658Y-128909870D01*
X121010510Y-128876208D01*
X121010511Y-128876206D01*
X121013334Y-128871165D01*
X121015190Y-128865698D01*
X121015192Y-128865693D01*
X121076728Y-128684414D01*
X121076729Y-128684409D01*
X121078584Y-128678945D01*
X121079412Y-128673236D01*
X121079413Y-128673231D01*
X121107179Y-128481727D01*
X121107712Y-128478053D01*
X121109232Y-128420000D01*
X121094178Y-128256162D01*
X121091187Y-128223613D01*
X121091186Y-128223610D01*
X121090658Y-128217859D01*
X121083841Y-128193687D01*
X121037125Y-128028046D01*
X121037124Y-128028044D01*
X121035557Y-128022487D01*
X121031621Y-128014504D01*
X120948331Y-127845609D01*
X120945776Y-127840428D01*
X120824320Y-127677779D01*
X120675258Y-127539987D01*
X120670375Y-127536906D01*
X120670371Y-127536903D01*
X120508464Y-127434748D01*
X120503581Y-127431667D01*
X120315039Y-127356446D01*
X120309379Y-127355320D01*
X120309375Y-127355319D01*
X120121613Y-127317971D01*
X120121610Y-127317971D01*
X120115946Y-127316844D01*
X120110171Y-127316768D01*
X120110167Y-127316768D01*
X120008793Y-127315441D01*
X119912971Y-127314187D01*
X119907274Y-127315166D01*
X119907273Y-127315166D01*
X119718607Y-127347585D01*
X119712910Y-127348564D01*
X119522463Y-127418824D01*
X119348010Y-127522612D01*
X119343670Y-127526418D01*
X119343666Y-127526421D01*
X119323723Y-127543911D01*
X119195392Y-127656455D01*
X119069720Y-127815869D01*
X119067031Y-127820980D01*
X119067029Y-127820983D01*
X119056651Y-127840708D01*
X118975203Y-127995515D01*
X118915007Y-128189378D01*
X118914459Y-128194007D01*
X118880906Y-128256162D01*
X118839602Y-128283904D01*
X118751931Y-128320218D01*
X118751926Y-128320221D01*
X118748663Y-128321572D01*
X118465600Y-128478016D01*
X118462714Y-128480064D01*
X118462712Y-128480065D01*
X118398383Y-128525709D01*
X118201832Y-128665169D01*
X118199198Y-128667523D01*
X117975400Y-128867522D01*
X117960678Y-128880678D01*
X117958333Y-128883302D01*
X117914355Y-128932513D01*
X117745169Y-129121832D01*
X117608260Y-129314788D01*
X117552528Y-129358769D01*
X117481865Y-129365637D01*
X117418705Y-129333212D01*
X117383102Y-129271788D01*
X117379500Y-129241874D01*
X117379500Y-128919788D01*
X117381051Y-128900077D01*
X117382680Y-128889794D01*
X117382680Y-128889790D01*
X117384231Y-128880000D01*
X117382679Y-128870203D01*
X117382679Y-128867945D01*
X117381494Y-128844490D01*
X117395580Y-128593662D01*
X117397162Y-128579621D01*
X117405670Y-128529551D01*
X117440717Y-128323283D01*
X117444017Y-128303860D01*
X117447161Y-128290085D01*
X117524596Y-128021302D01*
X117529263Y-128007965D01*
X117636303Y-127749545D01*
X117642434Y-127736814D01*
X117777738Y-127492002D01*
X117785255Y-127480039D01*
X117947114Y-127251919D01*
X117955924Y-127240871D01*
X118142312Y-127032303D01*
X118152303Y-127022312D01*
X118223615Y-126958584D01*
X118360872Y-126835923D01*
X118371919Y-126827114D01*
X118600039Y-126665255D01*
X118612002Y-126657738D01*
X118724306Y-126595669D01*
X118856818Y-126522432D01*
X118869540Y-126516305D01*
X118952566Y-126481915D01*
X119023156Y-126474326D01*
X119086643Y-126506106D01*
X119103678Y-126525601D01*
X119156533Y-126600389D01*
X119301938Y-126742035D01*
X119470720Y-126854812D01*
X119476023Y-126857090D01*
X119476026Y-126857092D01*
X119561020Y-126893608D01*
X119657228Y-126934942D01*
X119730244Y-126951464D01*
X119849579Y-126978467D01*
X119849584Y-126978468D01*
X119855216Y-126979742D01*
X119860987Y-126979969D01*
X119860989Y-126979969D01*
X119920756Y-126982317D01*
X120058053Y-126987712D01*
X120158499Y-126973148D01*
X120253231Y-126959413D01*
X120253236Y-126959412D01*
X120258945Y-126958584D01*
X120264409Y-126956729D01*
X120264414Y-126956728D01*
X120445693Y-126895192D01*
X120445698Y-126895190D01*
X120451165Y-126893334D01*
X120460167Y-126888293D01*
X120553678Y-126835924D01*
X120628276Y-126794147D01*
X120690934Y-126742035D01*
X120779913Y-126668031D01*
X120784345Y-126664345D01*
X120824911Y-126615570D01*
X120910453Y-126512718D01*
X120910455Y-126512715D01*
X120914147Y-126508276D01*
X121013334Y-126331165D01*
X121015190Y-126325698D01*
X121015192Y-126325693D01*
X121076728Y-126144414D01*
X121076729Y-126144409D01*
X121078584Y-126138945D01*
X121079412Y-126133236D01*
X121079413Y-126133231D01*
X121106088Y-125949251D01*
X121107712Y-125938053D01*
X121109232Y-125880000D01*
X121090658Y-125677859D01*
X121089090Y-125672299D01*
X121037125Y-125488046D01*
X121037124Y-125488044D01*
X121035557Y-125482487D01*
X121024978Y-125461033D01*
X120948331Y-125305609D01*
X120945776Y-125300428D01*
X120824320Y-125137779D01*
X120675258Y-124999987D01*
X120670375Y-124996906D01*
X120670371Y-124996903D01*
X120508464Y-124894748D01*
X120503581Y-124891667D01*
X120315039Y-124816446D01*
X120309379Y-124815320D01*
X120309375Y-124815319D01*
X120121613Y-124777971D01*
X120121610Y-124777971D01*
X120115946Y-124776844D01*
X120110171Y-124776768D01*
X120110167Y-124776768D01*
X120008793Y-124775441D01*
X119912971Y-124774187D01*
X119907274Y-124775166D01*
X119907273Y-124775166D01*
X119718607Y-124807585D01*
X119712910Y-124808564D01*
X119522463Y-124878824D01*
X119348010Y-124982612D01*
X119343670Y-124986418D01*
X119343666Y-124986421D01*
X119323723Y-125003911D01*
X119195392Y-125116455D01*
X119069720Y-125275869D01*
X119067031Y-125280980D01*
X119067029Y-125280983D01*
X119054073Y-125305609D01*
X118975203Y-125455515D01*
X118966828Y-125482487D01*
X118923549Y-125621868D01*
X118884246Y-125680993D01*
X118848371Y-125702135D01*
X118623547Y-125788436D01*
X118620607Y-125789934D01*
X118322698Y-125941727D01*
X118307931Y-125949251D01*
X118305187Y-125951033D01*
X118305180Y-125951037D01*
X118151751Y-126050675D01*
X118010854Y-126142175D01*
X117735570Y-126365096D01*
X117485096Y-126615570D01*
X117262175Y-126890854D01*
X117204303Y-126979969D01*
X117071037Y-127185180D01*
X117071033Y-127185187D01*
X117069251Y-127187931D01*
X117067762Y-127190853D01*
X117067761Y-127190855D01*
X116983962Y-127355319D01*
X116908436Y-127503547D01*
X116781494Y-127834244D01*
X116689814Y-128176398D01*
X116675292Y-128268087D01*
X116635203Y-128521198D01*
X116634401Y-128526261D01*
X116625920Y-128688080D01*
X116616527Y-128867319D01*
X116615908Y-128879122D01*
X116615769Y-128880000D01*
X116618949Y-128900077D01*
X116620500Y-128919788D01*
X116620500Y-134710212D01*
X116618949Y-134729922D01*
X116615769Y-134750000D01*
X116617321Y-134759796D01*
X116617321Y-134765890D01*
X116616243Y-134782337D01*
X116615097Y-134791042D01*
X116610041Y-134829447D01*
X116601529Y-134861214D01*
X116577209Y-134919927D01*
X116560765Y-134948407D01*
X116522080Y-134998822D01*
X116498822Y-135022080D01*
X116448407Y-135060765D01*
X116419927Y-135077209D01*
X116361214Y-135101529D01*
X116329447Y-135110041D01*
X116282337Y-135116243D01*
X116265890Y-135117321D01*
X116259796Y-135117321D01*
X116250000Y-135115769D01*
X116240207Y-135117320D01*
X116240206Y-135117320D01*
X116229923Y-135118949D01*
X116210212Y-135120500D01*
X110289788Y-135120500D01*
X110270077Y-135118949D01*
X110266315Y-135118353D01*
X110250000Y-135115769D01*
X110248255Y-135116045D01*
X110173216Y-135120963D01*
X109975560Y-135133918D01*
X109975553Y-135133919D01*
X109971448Y-135134188D01*
X109967415Y-135134990D01*
X109967409Y-135134991D01*
X109701712Y-135187842D01*
X109701706Y-135187844D01*
X109697662Y-135188648D01*
X109693753Y-135189975D01*
X109693749Y-135189976D01*
X109450204Y-135272648D01*
X109433327Y-135278377D01*
X109429631Y-135280200D01*
X109429623Y-135280203D01*
X109292667Y-135347743D01*
X109182966Y-135401842D01*
X108950861Y-135556929D01*
X108740985Y-135740985D01*
X108556929Y-135950861D01*
X108445975Y-136116916D01*
X108423500Y-136150553D01*
X108401842Y-136182966D01*
X108400016Y-136186669D01*
X108280203Y-136429623D01*
X108280200Y-136429631D01*
X108278377Y-136433327D01*
X108277048Y-136437241D01*
X108277048Y-136437242D01*
X108214677Y-136620982D01*
X108173840Y-136679058D01*
X108153153Y-136692447D01*
X108136162Y-136701217D01*
X108129414Y-136704700D01*
X108010039Y-136808838D01*
X107918950Y-136938444D01*
X107902778Y-136979923D01*
X107872051Y-137058735D01*
X107861406Y-137086037D01*
X107860414Y-137093570D01*
X107860414Y-137093571D01*
X107846926Y-137196028D01*
X107840729Y-137243096D01*
X107848848Y-137316630D01*
X107856140Y-137382680D01*
X107858113Y-137400553D01*
X107860723Y-137407684D01*
X107860723Y-137407686D01*
X107909143Y-137540000D01*
X107912553Y-137549319D01*
X107916789Y-137555622D01*
X107916789Y-137555623D01*
X107972646Y-137638746D01*
X108000908Y-137680805D01*
X108006527Y-137685918D01*
X108006528Y-137685919D01*
X108081409Y-137754055D01*
X108118076Y-137787419D01*
X108257293Y-137863008D01*
X108410522Y-137903207D01*
X108494477Y-137904526D01*
X108561319Y-137905576D01*
X108561322Y-137905576D01*
X108568916Y-137905695D01*
X108723332Y-137870329D01*
X108810680Y-137826398D01*
X108858072Y-137802563D01*
X108858075Y-137802561D01*
X108864855Y-137799151D01*
X108870628Y-137794220D01*
X108870633Y-137794217D01*
X108917913Y-137753836D01*
X108982702Y-137724805D01*
X109052902Y-137735410D01*
X109084542Y-137756453D01*
X109118573Y-137787419D01*
X109257790Y-137863008D01*
X109411019Y-137903207D01*
X109494974Y-137904526D01*
X109561816Y-137905576D01*
X109561819Y-137905576D01*
X109569413Y-137905695D01*
X109723829Y-137870329D01*
X109811177Y-137826398D01*
X109858569Y-137802563D01*
X109858572Y-137802561D01*
X109865352Y-137799151D01*
X109871123Y-137794222D01*
X109871126Y-137794220D01*
X109917896Y-137754274D01*
X109982686Y-137725243D01*
X110052886Y-137735848D01*
X110084526Y-137756891D01*
X110118076Y-137787419D01*
X110257293Y-137863008D01*
X110410522Y-137903207D01*
X110494477Y-137904526D01*
X110561319Y-137905576D01*
X110561322Y-137905576D01*
X110568916Y-137905695D01*
X110723332Y-137870329D01*
X110810680Y-137826398D01*
X110858072Y-137802563D01*
X110858075Y-137802561D01*
X110864855Y-137799151D01*
X110917656Y-137754055D01*
X110982445Y-137725024D01*
X111052645Y-137735629D01*
X111084285Y-137756672D01*
X111118076Y-137787419D01*
X111257293Y-137863008D01*
X111410522Y-137903207D01*
X111494477Y-137904526D01*
X111561319Y-137905576D01*
X111561322Y-137905576D01*
X111568916Y-137905695D01*
X111723332Y-137870329D01*
X111810680Y-137826398D01*
X111858072Y-137802563D01*
X111858075Y-137802561D01*
X111864855Y-137799151D01*
X111870626Y-137794222D01*
X111870629Y-137794220D01*
X111979536Y-137701204D01*
X111979536Y-137701203D01*
X111985314Y-137696269D01*
X112077755Y-137567624D01*
X112121622Y-137458503D01*
X112165589Y-137402759D01*
X112238529Y-137379500D01*
X116210212Y-137379500D01*
X116229922Y-137381051D01*
X116250000Y-137384231D01*
X116255752Y-137383320D01*
X116544875Y-137367083D01*
X116836041Y-137317612D01*
X116839444Y-137316632D01*
X116839451Y-137316630D01*
X117116432Y-137236832D01*
X117119837Y-137235851D01*
X117123100Y-137234500D01*
X117123107Y-137234497D01*
X117389427Y-137124184D01*
X117389432Y-137124181D01*
X117392695Y-137122830D01*
X117443155Y-137094942D01*
X117512162Y-137056803D01*
X117651182Y-136979969D01*
X117892049Y-136809065D01*
X118074447Y-136646065D01*
X118138569Y-136615587D01*
X118208989Y-136624615D01*
X118263350Y-136670282D01*
X118284391Y-136738089D01*
X118271411Y-136795745D01*
X118259843Y-136819203D01*
X118258520Y-136823101D01*
X118258519Y-136823103D01*
X118197371Y-137003240D01*
X118180647Y-137052506D01*
X118179843Y-137056550D01*
X118179841Y-137056556D01*
X118133823Y-137287904D01*
X118132581Y-137294149D01*
X118132312Y-137298260D01*
X118132311Y-137298264D01*
X118117338Y-137526714D01*
X118117321Y-137526867D01*
X118117321Y-137526974D01*
X118116960Y-137532482D01*
X118115769Y-137540000D01*
X118117320Y-137549793D01*
X118117320Y-137549794D01*
X118118949Y-137560077D01*
X118120500Y-137579788D01*
X118120500Y-137645188D01*
X118100498Y-137713309D01*
X118046842Y-137759802D01*
X117976568Y-137769906D01*
X117910682Y-137739265D01*
X117881951Y-137713667D01*
X117881945Y-137713663D01*
X117876275Y-137708611D01*
X117868889Y-137704700D01*
X117817672Y-137677582D01*
X117736274Y-137634484D01*
X117582633Y-137595892D01*
X117575034Y-137595852D01*
X117575033Y-137595852D01*
X117509181Y-137595507D01*
X117424221Y-137595062D01*
X117416841Y-137596834D01*
X117416839Y-137596834D01*
X117277563Y-137630271D01*
X117277560Y-137630272D01*
X117270184Y-137632043D01*
X117129414Y-137704700D01*
X117010039Y-137808838D01*
X116918950Y-137938444D01*
X116861406Y-138086037D01*
X116860414Y-138093570D01*
X116860414Y-138093571D01*
X116842985Y-138225963D01*
X116840729Y-138243096D01*
X116842906Y-138262810D01*
X116857017Y-138390625D01*
X116858113Y-138400553D01*
X116860723Y-138407684D01*
X116860723Y-138407686D01*
X116866343Y-138423044D01*
X116912553Y-138549319D01*
X116916013Y-138554468D01*
X116929009Y-138623660D01*
X116902311Y-138689445D01*
X116870674Y-138717776D01*
X116809830Y-138756007D01*
X116784410Y-138768249D01*
X116690731Y-138801029D01*
X116663222Y-138807308D01*
X116584902Y-138816132D01*
X116570198Y-138815809D01*
X116570198Y-138816830D01*
X116560284Y-138816830D01*
X116550490Y-138815279D01*
X116533039Y-138818043D01*
X116530413Y-138818459D01*
X116510702Y-138820010D01*
X107340278Y-138820010D01*
X107320567Y-138818459D01*
X107317941Y-138818043D01*
X107300490Y-138815279D01*
X107290697Y-138816830D01*
X107284396Y-138816830D01*
X107265315Y-138817704D01*
X107057993Y-138804116D01*
X107041651Y-138801965D01*
X106811401Y-138756165D01*
X106795481Y-138751899D01*
X106573178Y-138676437D01*
X106557952Y-138670130D01*
X106441235Y-138612572D01*
X106347399Y-138566297D01*
X106333132Y-138558060D01*
X106236134Y-138493249D01*
X106137935Y-138427634D01*
X106124859Y-138417601D01*
X105948354Y-138262810D01*
X105936700Y-138251156D01*
X105781909Y-138074651D01*
X105771876Y-138061575D01*
X105666058Y-137903207D01*
X105641450Y-137866378D01*
X105633211Y-137852108D01*
X105620533Y-137826398D01*
X105556360Y-137696269D01*
X105529380Y-137641558D01*
X105523073Y-137626332D01*
X105447611Y-137404029D01*
X105443345Y-137388109D01*
X105397545Y-137157859D01*
X105395394Y-137141517D01*
X105381806Y-136934195D01*
X105382680Y-136915114D01*
X105382680Y-136908813D01*
X105384231Y-136899020D01*
X105381051Y-136878942D01*
X105379500Y-136859232D01*
X105379500Y-135105338D01*
X105399502Y-135037217D01*
X105453158Y-134990724D01*
X105523432Y-134980620D01*
X105590299Y-135012144D01*
X105601219Y-135022080D01*
X105618076Y-135037419D01*
X105757293Y-135113008D01*
X105910522Y-135153207D01*
X105994477Y-135154526D01*
X106061319Y-135155576D01*
X106061322Y-135155576D01*
X106068916Y-135155695D01*
X106223332Y-135120329D01*
X106293742Y-135084917D01*
X106358072Y-135052563D01*
X106358075Y-135052561D01*
X106364855Y-135049151D01*
X106370626Y-135044222D01*
X106370629Y-135044220D01*
X106479536Y-134951204D01*
X106479536Y-134951203D01*
X106485314Y-134946269D01*
X106577755Y-134817624D01*
X106636842Y-134670641D01*
X106659162Y-134513807D01*
X106659307Y-134500000D01*
X106640276Y-134342733D01*
X106603296Y-134244869D01*
X106598643Y-134170918D01*
X106616930Y-134094749D01*
X106616931Y-134094743D01*
X106618085Y-134089936D01*
X106627507Y-133970220D01*
X106628341Y-133964526D01*
X106629018Y-133962596D01*
X106629500Y-133957031D01*
X106629500Y-133949849D01*
X106629888Y-133939963D01*
X106632018Y-133912899D01*
X106632679Y-133907316D01*
X106632679Y-133906244D01*
X106634231Y-133896448D01*
X106631051Y-133876370D01*
X106629500Y-133856660D01*
X106629500Y-130539787D01*
X106631051Y-130520076D01*
X106632679Y-130509795D01*
X106634231Y-130499999D01*
X106633193Y-130493448D01*
X106630779Y-130459689D01*
X106617354Y-130271993D01*
X106617033Y-130267505D01*
X106594751Y-130165075D01*
X106568444Y-130044141D01*
X106568442Y-130044134D01*
X106567487Y-130039744D01*
X106541298Y-129969527D01*
X106508650Y-129881995D01*
X106486031Y-129821352D01*
X106374323Y-129616776D01*
X106234639Y-129430179D01*
X106069821Y-129265361D01*
X105883224Y-129125677D01*
X105678648Y-129013969D01*
X105519742Y-128954700D01*
X105464474Y-128934086D01*
X105464471Y-128934085D01*
X105460256Y-128932513D01*
X105455866Y-128931558D01*
X105455859Y-128931556D01*
X105241799Y-128884991D01*
X105232495Y-128882967D01*
X105068541Y-128871241D01*
X105066156Y-128870900D01*
X105066149Y-128870982D01*
X105060584Y-128870500D01*
X105058494Y-128870500D01*
X105056933Y-128870410D01*
X105006552Y-128866807D01*
X105000001Y-128865769D01*
X104979924Y-128868949D01*
X104960213Y-128870500D01*
X90539788Y-128870500D01*
X90520077Y-128868949D01*
X90515248Y-128868184D01*
X90500000Y-128865769D01*
X90498255Y-128866045D01*
X90423216Y-128870963D01*
X90225560Y-128883918D01*
X90225553Y-128883919D01*
X90221448Y-128884188D01*
X90217415Y-128884990D01*
X90217409Y-128884991D01*
X89951712Y-128937842D01*
X89951706Y-128937844D01*
X89947662Y-128938648D01*
X89943753Y-128939975D01*
X89943749Y-128939976D01*
X89709649Y-129019442D01*
X89683327Y-129028377D01*
X89679631Y-129030200D01*
X89679623Y-129030203D01*
X89506114Y-129115769D01*
X89432966Y-129151842D01*
X89200861Y-129306929D01*
X88990985Y-129490985D01*
X88806929Y-129700861D01*
X88703826Y-129855166D01*
X88672906Y-129901442D01*
X88651842Y-129932966D01*
X88639090Y-129958824D01*
X88530203Y-130179623D01*
X88530200Y-130179631D01*
X88528377Y-130183327D01*
X88527048Y-130187241D01*
X88527048Y-130187242D01*
X88464677Y-130370982D01*
X88423840Y-130429058D01*
X88403153Y-130442447D01*
X88386162Y-130451217D01*
X88379414Y-130454700D01*
X88260039Y-130558838D01*
X88168950Y-130688444D01*
X88155141Y-130723863D01*
X88116130Y-130823921D01*
X88111406Y-130836037D01*
X88110414Y-130843570D01*
X88110414Y-130843571D01*
X88095573Y-130956305D01*
X88090729Y-130993096D01*
X88108113Y-131150553D01*
X88110723Y-131157684D01*
X88110723Y-131157686D01*
X88158170Y-131287341D01*
X88162553Y-131299319D01*
X88166789Y-131305622D01*
X88166789Y-131305623D01*
X88235373Y-131407686D01*
X88250908Y-131430805D01*
X88256527Y-131435918D01*
X88256528Y-131435919D01*
X88360228Y-131530278D01*
X88368076Y-131537419D01*
X88507293Y-131613008D01*
X88660522Y-131653207D01*
X88744477Y-131654526D01*
X88811319Y-131655576D01*
X88811322Y-131655576D01*
X88818916Y-131655695D01*
X88973332Y-131620329D01*
X88998075Y-131607885D01*
X89067919Y-131595148D01*
X89133563Y-131622193D01*
X89174164Y-131680434D01*
X89176832Y-131751381D01*
X89165274Y-131780836D01*
X89117569Y-131868201D01*
X89107850Y-131883325D01*
X88980091Y-132053990D01*
X88968318Y-132067576D01*
X88817576Y-132218318D01*
X88803991Y-132230090D01*
X88777213Y-132250136D01*
X88633325Y-132357850D01*
X88618201Y-132367570D01*
X88431091Y-132469739D01*
X88414739Y-132477207D01*
X88214991Y-132551710D01*
X88197743Y-132556774D01*
X88087367Y-132580785D01*
X87989424Y-132602091D01*
X87971630Y-132604649D01*
X87784995Y-132617997D01*
X87769213Y-132617320D01*
X87759793Y-132617320D01*
X87750000Y-132615769D01*
X87729923Y-132618949D01*
X87710212Y-132620500D01*
X87349682Y-132620500D01*
X87281561Y-132600498D01*
X87255114Y-132574860D01*
X87253878Y-132575949D01*
X87248855Y-132570251D01*
X87244553Y-132563992D01*
X87126275Y-132458611D01*
X87118889Y-132454700D01*
X86992988Y-132388039D01*
X86992989Y-132388039D01*
X86986274Y-132384484D01*
X86832633Y-132345892D01*
X86825034Y-132345852D01*
X86825033Y-132345852D01*
X86759181Y-132345507D01*
X86674221Y-132345062D01*
X86666841Y-132346834D01*
X86666839Y-132346834D01*
X86527563Y-132380271D01*
X86527560Y-132380272D01*
X86520184Y-132382043D01*
X86379414Y-132454700D01*
X86260039Y-132558838D01*
X86168950Y-132688444D01*
X86143447Y-132753855D01*
X86115764Y-132824860D01*
X86111406Y-132836037D01*
X86110414Y-132843570D01*
X86110414Y-132843571D01*
X86094581Y-132963838D01*
X86090729Y-132993096D01*
X84629500Y-132993096D01*
X84629500Y-125289788D01*
X84631051Y-125270077D01*
X84632680Y-125259794D01*
X84632680Y-125259793D01*
X84634231Y-125250000D01*
X84632679Y-125240203D01*
X84632679Y-125237945D01*
X84631494Y-125214490D01*
X84647152Y-124935671D01*
X84648734Y-124921630D01*
X84653302Y-124894748D01*
X84700284Y-124618230D01*
X84703428Y-124604455D01*
X84729713Y-124513218D01*
X84788627Y-124308724D01*
X84793288Y-124295403D01*
X84911063Y-124011070D01*
X84917194Y-123998340D01*
X85066051Y-123729003D01*
X85073568Y-123717038D01*
X85251660Y-123466042D01*
X85260470Y-123454996D01*
X85465535Y-123225527D01*
X85475527Y-123215535D01*
X85704996Y-123010470D01*
X85716042Y-123001660D01*
X85967038Y-122823568D01*
X85979003Y-122816051D01*
X86248340Y-122667194D01*
X86261070Y-122661063D01*
X86444069Y-122585262D01*
X86545403Y-122543288D01*
X86558724Y-122538627D01*
X86763218Y-122479713D01*
X86854455Y-122453428D01*
X86868230Y-122450284D01*
X87019930Y-122424509D01*
X87171635Y-122398733D01*
X87185667Y-122397152D01*
X87464485Y-122381494D01*
X87487960Y-122382680D01*
X87490208Y-122382680D01*
X87500000Y-122384231D01*
X87505867Y-122383302D01*
X87512965Y-122382681D01*
X87512969Y-122382681D01*
X87591705Y-122375792D01*
X87696885Y-122366590D01*
X87702198Y-122365166D01*
X87702200Y-122365166D01*
X87882478Y-122316861D01*
X87882480Y-122316860D01*
X87887788Y-122315438D01*
X87892770Y-122313115D01*
X88061921Y-122234239D01*
X88061926Y-122234236D01*
X88066908Y-122231913D01*
X88195074Y-122142170D01*
X88224291Y-122121712D01*
X88224293Y-122121710D01*
X88228802Y-122118553D01*
X88368553Y-121978802D01*
X88481913Y-121816908D01*
X88484236Y-121811926D01*
X88484239Y-121811921D01*
X88535379Y-121702250D01*
X88582296Y-121648965D01*
X88649574Y-121629500D01*
X98210212Y-121629500D01*
X98229922Y-121631051D01*
X98250000Y-121634231D01*
X98259793Y-121632680D01*
X98269213Y-121632680D01*
X98284995Y-121632003D01*
X98457500Y-121644340D01*
X98471630Y-121645351D01*
X98489424Y-121647909D01*
X98529473Y-121656621D01*
X98697743Y-121693226D01*
X98714991Y-121698290D01*
X98914739Y-121772793D01*
X98931091Y-121780261D01*
X99118201Y-121882430D01*
X99133325Y-121892150D01*
X99134227Y-121892825D01*
X99254284Y-121982699D01*
X99303990Y-122019909D01*
X99317576Y-122031682D01*
X99468318Y-122182424D01*
X99480091Y-122196010D01*
X99607850Y-122366675D01*
X99617570Y-122381799D01*
X99719744Y-122568917D01*
X99727208Y-122585262D01*
X99769875Y-122699658D01*
X99774939Y-122770474D01*
X99754906Y-122816141D01*
X99749687Y-122823568D01*
X99668950Y-122938444D01*
X99611406Y-123086037D01*
X99610414Y-123093570D01*
X99610414Y-123093571D01*
X99593737Y-123220250D01*
X99590729Y-123243096D01*
X99608113Y-123400553D01*
X99662553Y-123549319D01*
X99750908Y-123680805D01*
X99756527Y-123685918D01*
X99756528Y-123685919D01*
X99767903Y-123696269D01*
X99868076Y-123787419D01*
X100007293Y-123863008D01*
X100160522Y-123903207D01*
X100244477Y-123904526D01*
X100311319Y-123905576D01*
X100311322Y-123905576D01*
X100318916Y-123905695D01*
X100473332Y-123870329D01*
X100543742Y-123834917D01*
X100608072Y-123802563D01*
X100608075Y-123802561D01*
X100614855Y-123799151D01*
X100620626Y-123794222D01*
X100620629Y-123794220D01*
X100729536Y-123701204D01*
X100729536Y-123701203D01*
X100735314Y-123696269D01*
X100827755Y-123567624D01*
X100886842Y-123420641D01*
X100892965Y-123377615D01*
X100908581Y-123267891D01*
X100908581Y-123267888D01*
X100909162Y-123263807D01*
X100909307Y-123250000D01*
X100890276Y-123092733D01*
X100834280Y-122944546D01*
X100752838Y-122826047D01*
X100748855Y-122820251D01*
X100748854Y-122820249D01*
X100744553Y-122813992D01*
X100626275Y-122708611D01*
X100609136Y-122699536D01*
X100558295Y-122649985D01*
X100547802Y-122625668D01*
X100480071Y-122408311D01*
X100478938Y-122404675D01*
X100476265Y-122398734D01*
X100385025Y-122196010D01*
X100360794Y-122142170D01*
X100259308Y-121974291D01*
X100213838Y-121899074D01*
X100213836Y-121899071D01*
X100211870Y-121895819D01*
X100057116Y-121698290D01*
X100036690Y-121672218D01*
X100036687Y-121672215D01*
X100034337Y-121669215D01*
X99830785Y-121465663D01*
X99814819Y-121453154D01*
X99607175Y-121290476D01*
X99604181Y-121288130D01*
X99570436Y-121267730D01*
X99361092Y-121141178D01*
X99361093Y-121141178D01*
X99357830Y-121139206D01*
X99266216Y-121097974D01*
X99098801Y-121022626D01*
X99098795Y-121022624D01*
X99095325Y-121021062D01*
X99041777Y-121004376D01*
X98824125Y-120936553D01*
X98824124Y-120936553D01*
X98820492Y-120935421D01*
X98537341Y-120883532D01*
X98533549Y-120883303D01*
X98533544Y-120883302D01*
X98263398Y-120866961D01*
X98263396Y-120866961D01*
X98253902Y-120866387D01*
X98250000Y-120865769D01*
X98229923Y-120868949D01*
X98210212Y-120870500D01*
X88755500Y-120870500D01*
X88687379Y-120850498D01*
X88640886Y-120796842D01*
X88629500Y-120744500D01*
X88629500Y-116789788D01*
X88631051Y-116770077D01*
X88634231Y-116750000D01*
X88633302Y-116744133D01*
X88632513Y-116735108D01*
X88621513Y-116609385D01*
X88616590Y-116553115D01*
X88585188Y-116435919D01*
X88566861Y-116367522D01*
X88566860Y-116367520D01*
X88565438Y-116362212D01*
X88539050Y-116305623D01*
X88484239Y-116188080D01*
X88484236Y-116188075D01*
X88481913Y-116183093D01*
X88464123Y-116157686D01*
X88371712Y-116025709D01*
X88371710Y-116025706D01*
X88368553Y-116021198D01*
X88228802Y-115881447D01*
X88224291Y-115878288D01*
X88160169Y-115833389D01*
X88114574Y-115774715D01*
X88086965Y-115701650D01*
X88086963Y-115701646D01*
X88084280Y-115694546D01*
X88044791Y-115637089D01*
X87998855Y-115570251D01*
X87998854Y-115570249D01*
X87994553Y-115563992D01*
X87876275Y-115458611D01*
X87868889Y-115454700D01*
X87827002Y-115432522D01*
X87736274Y-115384484D01*
X87582633Y-115345892D01*
X87575034Y-115345852D01*
X87575033Y-115345852D01*
X87509181Y-115345507D01*
X87424221Y-115345062D01*
X87416841Y-115346834D01*
X87416839Y-115346834D01*
X87277563Y-115380271D01*
X87277560Y-115380272D01*
X87270184Y-115382043D01*
X87129414Y-115454700D01*
X87010039Y-115558838D01*
X86918950Y-115688444D01*
X86890178Y-115762240D01*
X86871134Y-115811087D01*
X86861406Y-115836037D01*
X86860414Y-115843570D01*
X86860414Y-115843571D01*
X86842215Y-115981811D01*
X86840729Y-115993096D01*
X86843832Y-116021198D01*
X86855564Y-116127463D01*
X86858113Y-116150553D01*
X86860723Y-116157684D01*
X86860723Y-116157686D01*
X86871846Y-116188080D01*
X86912553Y-116299319D01*
X86916789Y-116305622D01*
X86916789Y-116305623D01*
X86990675Y-116415576D01*
X87000908Y-116430805D01*
X87118076Y-116537419D01*
X87257293Y-116613008D01*
X87410522Y-116653207D01*
X87494477Y-116654526D01*
X87561319Y-116655576D01*
X87561322Y-116655576D01*
X87568916Y-116655695D01*
X87576320Y-116653999D01*
X87576322Y-116653999D01*
X87713192Y-116622652D01*
X87784059Y-116626941D01*
X87841357Y-116668864D01*
X87866894Y-116735108D01*
X87867149Y-116741291D01*
X87865769Y-116750000D01*
X87867320Y-116759791D01*
X87867320Y-116759795D01*
X87868949Y-116770077D01*
X87870500Y-116789788D01*
X87870500Y-117756636D01*
X87850498Y-117824757D01*
X87796842Y-117871250D01*
X87726568Y-117881354D01*
X87713804Y-117878840D01*
X87590002Y-117847743D01*
X87582633Y-117845892D01*
X87575034Y-117845852D01*
X87575033Y-117845852D01*
X87509181Y-117845507D01*
X87424221Y-117845062D01*
X87416841Y-117846834D01*
X87416839Y-117846834D01*
X87277563Y-117880271D01*
X87277560Y-117880272D01*
X87270184Y-117882043D01*
X87129414Y-117954700D01*
X87010039Y-118058838D01*
X86978175Y-118104176D01*
X86922643Y-118148406D01*
X86890678Y-118156755D01*
X86654990Y-118186134D01*
X86239706Y-118273210D01*
X85833030Y-118394282D01*
X85830611Y-118395226D01*
X85830602Y-118395229D01*
X85440176Y-118547574D01*
X85440171Y-118547576D01*
X85437742Y-118548524D01*
X85435398Y-118549670D01*
X85058888Y-118733734D01*
X85058876Y-118733740D01*
X85056541Y-118734882D01*
X85054305Y-118736214D01*
X85054302Y-118736216D01*
X84694272Y-118950747D01*
X84694261Y-118950754D01*
X84692031Y-118952083D01*
X84346702Y-119198643D01*
X84022914Y-119472878D01*
X83722878Y-119772914D01*
X83448643Y-120096702D01*
X83202083Y-120442031D01*
X83200754Y-120444261D01*
X83200747Y-120444272D01*
X83056027Y-120687144D01*
X82984882Y-120806541D01*
X82983740Y-120808876D01*
X82983734Y-120808888D01*
X82823017Y-121137640D01*
X82798524Y-121187742D01*
X82797576Y-121190171D01*
X82797574Y-121190176D01*
X82649166Y-121570514D01*
X82644282Y-121583030D01*
X82523210Y-121989706D01*
X82436134Y-122404990D01*
X82383649Y-122826047D01*
X82378454Y-122951649D01*
X82367345Y-123220250D01*
X82366236Y-123247052D01*
X82365769Y-123250000D01*
X82367320Y-123259793D01*
X82367320Y-123259795D01*
X82368949Y-123270077D01*
X82370500Y-123289788D01*
X82370500Y-139460212D01*
X82368949Y-139479922D01*
X82365769Y-139500000D01*
X82366680Y-139505752D01*
X82382917Y-139794875D01*
X82432388Y-140086041D01*
X82433368Y-140089444D01*
X82433370Y-140089451D01*
X82477870Y-140243911D01*
X82514149Y-140369837D01*
X82515500Y-140373100D01*
X82515503Y-140373107D01*
X82625816Y-140639427D01*
X82627170Y-140642695D01*
X82770031Y-140901182D01*
X82772071Y-140904057D01*
X82927919Y-141123704D01*
X82940935Y-141142049D01*
X83137733Y-141362267D01*
X83357951Y-141559065D01*
X83598818Y-141729969D01*
X83777403Y-141828670D01*
X83798608Y-141840389D01*
X83857305Y-141872830D01*
X83860568Y-141874181D01*
X83860573Y-141874184D01*
X84126893Y-141984497D01*
X84126900Y-141984500D01*
X84130163Y-141985851D01*
X84133568Y-141986832D01*
X84410549Y-142066630D01*
X84410556Y-142066632D01*
X84413959Y-142067612D01*
X84705125Y-142117083D01*
X84901692Y-142128122D01*
X84968584Y-142151912D01*
X85011995Y-142208091D01*
X85018143Y-142278820D01*
X84997714Y-142326374D01*
X84918950Y-142438444D01*
X84861406Y-142586037D01*
X84860414Y-142593570D01*
X84860414Y-142593571D01*
X84844521Y-142714294D01*
X84840729Y-142743096D01*
X84841563Y-142750646D01*
X84856922Y-142889764D01*
X84858113Y-142900553D01*
X84860723Y-142907684D01*
X84860723Y-142907686D01*
X84894554Y-143000133D01*
X84912553Y-143049319D01*
X84916789Y-143055622D01*
X84916789Y-143055623D01*
X84980846Y-143150949D01*
X85000908Y-143180805D01*
X85006527Y-143185918D01*
X85006528Y-143185919D01*
X85102935Y-143273642D01*
X85118076Y-143287419D01*
X85257293Y-143363008D01*
X85410522Y-143403207D01*
X85494477Y-143404526D01*
X85561319Y-143405576D01*
X85561322Y-143405576D01*
X85568916Y-143405695D01*
X85723332Y-143370329D01*
X85810624Y-143326426D01*
X85858072Y-143302563D01*
X85858075Y-143302561D01*
X85864855Y-143299151D01*
X85870626Y-143294222D01*
X85870629Y-143294220D01*
X85979542Y-143201199D01*
X85979543Y-143201198D01*
X85985314Y-143196269D01*
X85995586Y-143181974D01*
X86051581Y-143138326D01*
X86097909Y-143129500D01*
X89851603Y-143129500D01*
X89919724Y-143149502D01*
X89956184Y-143185224D01*
X90001891Y-143253243D01*
X90007509Y-143258355D01*
X90082319Y-143326426D01*
X90119059Y-143359857D01*
X90258276Y-143435446D01*
X90411505Y-143475645D01*
X90495460Y-143476964D01*
X90562302Y-143478014D01*
X90562305Y-143478014D01*
X90569899Y-143478133D01*
X90724315Y-143442767D01*
X90801397Y-143403999D01*
X90859055Y-143375001D01*
X90859058Y-143374999D01*
X90865838Y-143371589D01*
X90871609Y-143366660D01*
X90871612Y-143366658D01*
X90980519Y-143273642D01*
X90980519Y-143273641D01*
X90986297Y-143268707D01*
X91078738Y-143140062D01*
X91137825Y-142993079D01*
X91150993Y-142900553D01*
X91159564Y-142840329D01*
X91159564Y-142840326D01*
X91160145Y-142836245D01*
X91160290Y-142822438D01*
X91141259Y-142665171D01*
X91085263Y-142516984D01*
X90995536Y-142386430D01*
X90989867Y-142381379D01*
X90954173Y-142349577D01*
X90916617Y-142289326D01*
X90917597Y-142218336D01*
X90956802Y-142159146D01*
X91021783Y-142130547D01*
X91037992Y-142129500D01*
X93881785Y-142129500D01*
X93901496Y-142131051D01*
X93911779Y-142132680D01*
X93911780Y-142132680D01*
X93921573Y-142134231D01*
X93933910Y-142132277D01*
X93958114Y-142130806D01*
X94377141Y-142145772D01*
X94386113Y-142146414D01*
X94834876Y-142194661D01*
X94843779Y-142195941D01*
X94948824Y-142214893D01*
X95287966Y-142276081D01*
X95296750Y-142277992D01*
X95734091Y-142389616D01*
X95742711Y-142392148D01*
X95744338Y-142392689D01*
X96170971Y-142534686D01*
X96179398Y-142537829D01*
X96596401Y-142710557D01*
X96604583Y-142714294D01*
X96976681Y-142900553D01*
X97008185Y-142916323D01*
X97016079Y-142920633D01*
X97404255Y-143150949D01*
X97411822Y-143155812D01*
X97782575Y-143413231D01*
X97789775Y-143418621D01*
X98141213Y-143701827D01*
X98148011Y-143707717D01*
X98454895Y-143993437D01*
X98470970Y-144011593D01*
X98472479Y-144013670D01*
X98472481Y-144013672D01*
X98478308Y-144021692D01*
X98486328Y-144027519D01*
X98494753Y-144033640D01*
X98509787Y-144046481D01*
X98966081Y-144502775D01*
X98978921Y-144517808D01*
X98990870Y-144534254D01*
X98993324Y-144536037D01*
X98999183Y-144541406D01*
X99285509Y-144803776D01*
X99285517Y-144803783D01*
X99287545Y-144805641D01*
X99289737Y-144807323D01*
X99604342Y-145048729D01*
X99604354Y-145048737D01*
X99606522Y-145050401D01*
X99608834Y-145051874D01*
X99608837Y-145051876D01*
X99704695Y-145112944D01*
X99945619Y-145266430D01*
X100302253Y-145452081D01*
X100673710Y-145605944D01*
X100676330Y-145606770D01*
X100676338Y-145606773D01*
X101054534Y-145726018D01*
X101054539Y-145726019D01*
X101057164Y-145726847D01*
X101449697Y-145813869D01*
X101452417Y-145814227D01*
X101452422Y-145814228D01*
X101574719Y-145830329D01*
X101637533Y-145838598D01*
X101702460Y-145867320D01*
X101725669Y-145893245D01*
X101746668Y-145924496D01*
X101746671Y-145924499D01*
X101750908Y-145930805D01*
X101756528Y-145935919D01*
X101756530Y-145935921D01*
X101856412Y-146026806D01*
X101893335Y-146087447D01*
X101891612Y-146158422D01*
X101851790Y-146217199D01*
X101786512Y-146245116D01*
X101771613Y-146246000D01*
X100537425Y-146246000D01*
X100512847Y-146243579D01*
X100500000Y-146241024D01*
X100487828Y-146243445D01*
X100484631Y-146244081D01*
X100474983Y-146246000D01*
X100400894Y-146260737D01*
X100390577Y-146267631D01*
X100390576Y-146267631D01*
X100327192Y-146309983D01*
X100316876Y-146316876D01*
X100260737Y-146400894D01*
X100258316Y-146413066D01*
X100254525Y-146422218D01*
X100209976Y-146477499D01*
X100138116Y-146500000D01*
X98592842Y-146500000D01*
X98524721Y-146479998D01*
X98478228Y-146426342D01*
X98468124Y-146356068D01*
X98501824Y-146286869D01*
X98616583Y-146166990D01*
X98620728Y-146162660D01*
X98677710Y-146074410D01*
X98731800Y-145990640D01*
X98731801Y-145990637D01*
X98735052Y-145985603D01*
X98813834Y-145790122D01*
X98840417Y-145654000D01*
X98853361Y-145587717D01*
X98853361Y-145587714D01*
X98854229Y-145583271D01*
X98854500Y-145577730D01*
X98854500Y-145272341D01*
X98839507Y-145115194D01*
X98780177Y-144912958D01*
X98724905Y-144805641D01*
X98686422Y-144730921D01*
X98686420Y-144730918D01*
X98683676Y-144725590D01*
X98614355Y-144637340D01*
X98557192Y-144564568D01*
X98557188Y-144564564D01*
X98553486Y-144559851D01*
X98525625Y-144535674D01*
X98398835Y-144425650D01*
X98398830Y-144425646D01*
X98394304Y-144421719D01*
X98211874Y-144316181D01*
X98012778Y-144247043D01*
X98006845Y-144246183D01*
X98006842Y-144246182D01*
X97810140Y-144217662D01*
X97810137Y-144217662D01*
X97804200Y-144216801D01*
X97593667Y-144226545D01*
X97587843Y-144227949D01*
X97587840Y-144227949D01*
X97394607Y-144274518D01*
X97394605Y-144274519D01*
X97388774Y-144275924D01*
X97383316Y-144278406D01*
X97383312Y-144278407D01*
X97304562Y-144314213D01*
X97196916Y-144363157D01*
X97133395Y-144408216D01*
X97037977Y-144475901D01*
X97025014Y-144485096D01*
X96949757Y-144563710D01*
X96891992Y-144624053D01*
X96879272Y-144637340D01*
X96876021Y-144642375D01*
X96836447Y-144703664D01*
X96782692Y-144750042D01*
X96712396Y-144759995D01*
X96647879Y-144730363D01*
X96609623Y-144670555D01*
X96605268Y-144648319D01*
X96597743Y-144575794D01*
X96594851Y-144562400D01*
X96543412Y-144408216D01*
X96537239Y-144395038D01*
X96451937Y-144257193D01*
X96442901Y-144245792D01*
X96328171Y-144131261D01*
X96316760Y-144122249D01*
X96178757Y-144037184D01*
X96165576Y-144031037D01*
X96011290Y-143979862D01*
X95997914Y-143976995D01*
X95903562Y-143967328D01*
X95897145Y-143967000D01*
X95522115Y-143967000D01*
X95506876Y-143971475D01*
X95505671Y-143972865D01*
X95504000Y-143980548D01*
X95504000Y-146814884D01*
X95508475Y-146830123D01*
X95509865Y-146831328D01*
X95517548Y-146832999D01*
X95897095Y-146832999D01*
X95903614Y-146832662D01*
X95999206Y-146822743D01*
X96012600Y-146819851D01*
X96166784Y-146768412D01*
X96179962Y-146762239D01*
X96317807Y-146676937D01*
X96329208Y-146667901D01*
X96443739Y-146553171D01*
X96452751Y-146541760D01*
X96537816Y-146403757D01*
X96543963Y-146390576D01*
X96595138Y-146236290D01*
X96598005Y-146222914D01*
X96604869Y-146155919D01*
X96631710Y-146090192D01*
X96689824Y-146049410D01*
X96760762Y-146046520D01*
X96822001Y-146082442D01*
X96829299Y-146090928D01*
X96946514Y-146240149D01*
X96951044Y-146244080D01*
X96951045Y-146244081D01*
X97101165Y-146374350D01*
X97101170Y-146374354D01*
X97105696Y-146378281D01*
X97288126Y-146483819D01*
X97487222Y-146552957D01*
X97493155Y-146553817D01*
X97493158Y-146553818D01*
X97689860Y-146582338D01*
X97689863Y-146582338D01*
X97695800Y-146583199D01*
X97868175Y-146575221D01*
X97937147Y-146592052D01*
X97986071Y-146643501D01*
X98000000Y-146701086D01*
X98000000Y-151620000D01*
X97979998Y-151688121D01*
X97926342Y-151734614D01*
X97874000Y-151746000D01*
X91076000Y-151746000D01*
X91007879Y-151725998D01*
X90961386Y-151672342D01*
X90950000Y-151620000D01*
X90950000Y-150849319D01*
X91725041Y-150849319D01*
X91734923Y-150861809D01*
X91772259Y-150886756D01*
X91782371Y-150892247D01*
X91963081Y-150969885D01*
X91974014Y-150973437D01*
X92165844Y-151016845D01*
X92177253Y-151018347D01*
X92373783Y-151026068D01*
X92385265Y-151025466D01*
X92579905Y-150997245D01*
X92591101Y-150994557D01*
X92777343Y-150931336D01*
X92787840Y-150926662D01*
X92906401Y-150860266D01*
X92916264Y-150850189D01*
X92913309Y-150842519D01*
X92332812Y-150262022D01*
X92318868Y-150254408D01*
X92317035Y-150254539D01*
X92310420Y-150258790D01*
X91731237Y-150837973D01*
X91725041Y-150849319D01*
X90950000Y-150849319D01*
X90950000Y-150106765D01*
X90970002Y-150038644D01*
X91023658Y-149992151D01*
X91093932Y-149982047D01*
X91158512Y-150011541D01*
X91198123Y-150075749D01*
X91245991Y-150264228D01*
X91249829Y-150275066D01*
X91332173Y-150453685D01*
X91337922Y-150463642D01*
X91347850Y-150477690D01*
X91358439Y-150486078D01*
X91371740Y-150479050D01*
X91947978Y-149902812D01*
X91954356Y-149891132D01*
X92684408Y-149891132D01*
X92684539Y-149892965D01*
X92688790Y-149899580D01*
X93268603Y-150479393D01*
X93280983Y-150486153D01*
X93287563Y-150481227D01*
X93356662Y-150357840D01*
X93361336Y-150347343D01*
X93424557Y-150161101D01*
X93427245Y-150149905D01*
X93455762Y-149953224D01*
X93456392Y-149945843D01*
X93457757Y-149893704D01*
X93457514Y-149886305D01*
X93439330Y-149688397D01*
X93437233Y-149677083D01*
X93383846Y-149487789D01*
X93379724Y-149477050D01*
X93292736Y-149300656D01*
X93291577Y-149298765D01*
X93282732Y-149292126D01*
X93270312Y-149298898D01*
X92692022Y-149877188D01*
X92684408Y-149891132D01*
X91954356Y-149891132D01*
X91955592Y-149888868D01*
X91955461Y-149887035D01*
X91951210Y-149880420D01*
X91370031Y-149299241D01*
X91357651Y-149292481D01*
X91351685Y-149296947D01*
X91271452Y-149449445D01*
X91267047Y-149460079D01*
X91208724Y-149647910D01*
X91206332Y-149659164D01*
X91201127Y-149703140D01*
X91173256Y-149768437D01*
X91114508Y-149808301D01*
X91043533Y-149810075D01*
X90982867Y-149773196D01*
X90951769Y-149709372D01*
X90950000Y-149688330D01*
X90950000Y-148930436D01*
X91724547Y-148930436D01*
X91728033Y-148938823D01*
X92307188Y-149517978D01*
X92321132Y-149525592D01*
X92322965Y-149525461D01*
X92329580Y-149521210D01*
X92908407Y-148942383D01*
X92915167Y-148930003D01*
X92909137Y-148921948D01*
X92841459Y-148879246D01*
X92831211Y-148874025D01*
X92648531Y-148801143D01*
X92637504Y-148797876D01*
X92444605Y-148759506D01*
X92433159Y-148758303D01*
X92236507Y-148755730D01*
X92225027Y-148756633D01*
X92031199Y-148789938D01*
X92020079Y-148792918D01*
X91835557Y-148860992D01*
X91825179Y-148865942D01*
X91734146Y-148920101D01*
X91724547Y-148930436D01*
X90950000Y-148930436D01*
X90950000Y-146770161D01*
X91634393Y-146770161D01*
X91643687Y-146782175D01*
X91684088Y-146810464D01*
X91693584Y-146815947D01*
X91883113Y-146904326D01*
X91893405Y-146908072D01*
X92095401Y-146962196D01*
X92106196Y-146964099D01*
X92314525Y-146982326D01*
X92325475Y-146982326D01*
X92533804Y-146964099D01*
X92544599Y-146962196D01*
X92746595Y-146908072D01*
X92756887Y-146904326D01*
X92946416Y-146815947D01*
X92955912Y-146810464D01*
X92997148Y-146781590D01*
X93005523Y-146771112D01*
X92998457Y-146757668D01*
X92332811Y-146092021D01*
X92318868Y-146084408D01*
X92317034Y-146084539D01*
X92310420Y-146088790D01*
X91640820Y-146758391D01*
X91634393Y-146770161D01*
X90950000Y-146770161D01*
X90950000Y-146327056D01*
X90970002Y-146258935D01*
X91023658Y-146212442D01*
X91093932Y-146202338D01*
X91158512Y-146231832D01*
X91190195Y-146273806D01*
X91224054Y-146346417D01*
X91229534Y-146355907D01*
X91258411Y-146397149D01*
X91268887Y-146405523D01*
X91282334Y-146398455D01*
X91947979Y-145732811D01*
X91954356Y-145721132D01*
X92684408Y-145721132D01*
X92684539Y-145722966D01*
X92688790Y-145729580D01*
X93358391Y-146399180D01*
X93370161Y-146405607D01*
X93382176Y-146396311D01*
X93410466Y-146355907D01*
X93415946Y-146346417D01*
X93504326Y-146156887D01*
X93508072Y-146146595D01*
X93514637Y-146122095D01*
X93892001Y-146122095D01*
X93892338Y-146128614D01*
X93902257Y-146224206D01*
X93905149Y-146237600D01*
X93956588Y-146391784D01*
X93962761Y-146404962D01*
X94048063Y-146542807D01*
X94057099Y-146554208D01*
X94171829Y-146668739D01*
X94183240Y-146677751D01*
X94321243Y-146762816D01*
X94334424Y-146768963D01*
X94488710Y-146820138D01*
X94502086Y-146823005D01*
X94596438Y-146832672D01*
X94602854Y-146833000D01*
X94977885Y-146833000D01*
X94993124Y-146828525D01*
X94994329Y-146827135D01*
X94996000Y-146819452D01*
X94996000Y-145672115D01*
X94991525Y-145656876D01*
X94990135Y-145655671D01*
X94982452Y-145654000D01*
X93910116Y-145654000D01*
X93894877Y-145658475D01*
X93893672Y-145659865D01*
X93892001Y-145667548D01*
X93892001Y-146122095D01*
X93514637Y-146122095D01*
X93562196Y-145944599D01*
X93564099Y-145933804D01*
X93582326Y-145725475D01*
X93582326Y-145714525D01*
X93564099Y-145506196D01*
X93562196Y-145495401D01*
X93508072Y-145293405D01*
X93504326Y-145283113D01*
X93431941Y-145127885D01*
X93892000Y-145127885D01*
X93896475Y-145143124D01*
X93897865Y-145144329D01*
X93905548Y-145146000D01*
X94977885Y-145146000D01*
X94993124Y-145141525D01*
X94994329Y-145140135D01*
X94996000Y-145132452D01*
X94996000Y-143985116D01*
X94991525Y-143969877D01*
X94990135Y-143968672D01*
X94982452Y-143967001D01*
X94602905Y-143967001D01*
X94596386Y-143967338D01*
X94500794Y-143977257D01*
X94487400Y-143980149D01*
X94333216Y-144031588D01*
X94320038Y-144037761D01*
X94182193Y-144123063D01*
X94170792Y-144132099D01*
X94056261Y-144246829D01*
X94047249Y-144258240D01*
X93962184Y-144396243D01*
X93956037Y-144409424D01*
X93904862Y-144563710D01*
X93901995Y-144577086D01*
X93892328Y-144671438D01*
X93892000Y-144677855D01*
X93892000Y-145127885D01*
X93431941Y-145127885D01*
X93415946Y-145093583D01*
X93410466Y-145084093D01*
X93381589Y-145042851D01*
X93371113Y-145034477D01*
X93357666Y-145041545D01*
X92692021Y-145707189D01*
X92684408Y-145721132D01*
X91954356Y-145721132D01*
X91955592Y-145718868D01*
X91955461Y-145717034D01*
X91951210Y-145710420D01*
X91281609Y-145040820D01*
X91269839Y-145034393D01*
X91257824Y-145043689D01*
X91229534Y-145084093D01*
X91224054Y-145093583D01*
X91190195Y-145166194D01*
X91143277Y-145219479D01*
X91075000Y-145238940D01*
X91007040Y-145218398D01*
X90960975Y-145164375D01*
X90950000Y-145112944D01*
X90950000Y-144668887D01*
X91634477Y-144668887D01*
X91641545Y-144682334D01*
X92307189Y-145347979D01*
X92321132Y-145355592D01*
X92322966Y-145355461D01*
X92329580Y-145351210D01*
X92999180Y-144681609D01*
X93005607Y-144669839D01*
X92996313Y-144657825D01*
X92955912Y-144629536D01*
X92946416Y-144624053D01*
X92756887Y-144535674D01*
X92746595Y-144531928D01*
X92544599Y-144477804D01*
X92533804Y-144475901D01*
X92325475Y-144457674D01*
X92314525Y-144457674D01*
X92106196Y-144475901D01*
X92095401Y-144477804D01*
X91893405Y-144531928D01*
X91883113Y-144535674D01*
X91693583Y-144624054D01*
X91684093Y-144629534D01*
X91642851Y-144658411D01*
X91634477Y-144668887D01*
X90950000Y-144668887D01*
X90950000Y-144650000D01*
X85050000Y-144650000D01*
X85050000Y-145112944D01*
X85029998Y-145181065D01*
X84976342Y-145227558D01*
X84906068Y-145237662D01*
X84841488Y-145208168D01*
X84809805Y-145166194D01*
X84775946Y-145093583D01*
X84770466Y-145084093D01*
X84741589Y-145042851D01*
X84731113Y-145034477D01*
X84717666Y-145041545D01*
X84052021Y-145707189D01*
X84044408Y-145721132D01*
X84044539Y-145722966D01*
X84048790Y-145729580D01*
X84718391Y-146399180D01*
X84730161Y-146405607D01*
X84742176Y-146396311D01*
X84770466Y-146355907D01*
X84775946Y-146346417D01*
X84809805Y-146273806D01*
X84856723Y-146220521D01*
X84925000Y-146201060D01*
X84992960Y-146221602D01*
X85039025Y-146275625D01*
X85050000Y-146327056D01*
X85050000Y-149669646D01*
X85029998Y-149737767D01*
X84976342Y-149784260D01*
X84906068Y-149794364D01*
X84841488Y-149764870D01*
X84803104Y-149705144D01*
X84800110Y-149692607D01*
X84797233Y-149677083D01*
X84743846Y-149487789D01*
X84739724Y-149477050D01*
X84652736Y-149300656D01*
X84651577Y-149298765D01*
X84642732Y-149292126D01*
X84630312Y-149298898D01*
X84052022Y-149877188D01*
X84044408Y-149891132D01*
X84044539Y-149892965D01*
X84048790Y-149899580D01*
X84628603Y-150479393D01*
X84640983Y-150486153D01*
X84647563Y-150481227D01*
X84716662Y-150357840D01*
X84721336Y-150347343D01*
X84784557Y-150161101D01*
X84787245Y-150149905D01*
X84799304Y-150066734D01*
X84828874Y-150002188D01*
X84888646Y-149963876D01*
X84959642Y-149963960D01*
X85019323Y-150002415D01*
X85048739Y-150067031D01*
X85050000Y-150084814D01*
X85050000Y-151620000D01*
X85029998Y-151688121D01*
X84976342Y-151734614D01*
X84924000Y-151746000D01*
X82136293Y-151746000D01*
X82068172Y-151725998D01*
X82021679Y-151672342D01*
X82011575Y-151602068D01*
X82041069Y-151537488D01*
X82055978Y-151522915D01*
X82246339Y-151365435D01*
X82249390Y-151362911D01*
X82469080Y-151128964D01*
X82471408Y-151125760D01*
X82655385Y-150872537D01*
X82655388Y-150872532D01*
X82657716Y-150869328D01*
X82668717Y-150849319D01*
X83085041Y-150849319D01*
X83094923Y-150861809D01*
X83132259Y-150886756D01*
X83142371Y-150892247D01*
X83323081Y-150969885D01*
X83334014Y-150973437D01*
X83525844Y-151016845D01*
X83537253Y-151018347D01*
X83733783Y-151026068D01*
X83745265Y-151025466D01*
X83939905Y-150997245D01*
X83951101Y-150994557D01*
X84137343Y-150931336D01*
X84147840Y-150926662D01*
X84266401Y-150860266D01*
X84276264Y-150850189D01*
X84273309Y-150842519D01*
X83692812Y-150262022D01*
X83678868Y-150254408D01*
X83677035Y-150254539D01*
X83670420Y-150258790D01*
X83091237Y-150837973D01*
X83085041Y-150849319D01*
X82668717Y-150849319D01*
X82672455Y-150842519D01*
X82810421Y-150591559D01*
X82810422Y-150591556D01*
X82812324Y-150588097D01*
X82927011Y-150298433D01*
X82955068Y-150255722D01*
X84268407Y-148942383D01*
X84275167Y-148930003D01*
X84269137Y-148921948D01*
X84201459Y-148879246D01*
X84191211Y-148874025D01*
X84008531Y-148801143D01*
X83997504Y-148797876D01*
X83804605Y-148759506D01*
X83793159Y-148758303D01*
X83596507Y-148755730D01*
X83585027Y-148756633D01*
X83391199Y-148789938D01*
X83380079Y-148792918D01*
X83195557Y-148860992D01*
X83185180Y-148865942D01*
X83143503Y-148890737D01*
X83074733Y-148908377D01*
X83007343Y-148886037D01*
X82962729Y-148830809D01*
X82957038Y-148813786D01*
X82931448Y-148714118D01*
X82931447Y-148714116D01*
X82930466Y-148710294D01*
X82812324Y-148411903D01*
X82657716Y-148130672D01*
X82553977Y-147987886D01*
X82471408Y-147874240D01*
X82471407Y-147874238D01*
X82469080Y-147871036D01*
X82249390Y-147637089D01*
X82002110Y-147432522D01*
X81731142Y-147260561D01*
X81727563Y-147258877D01*
X81727556Y-147258873D01*
X81444348Y-147125605D01*
X81444344Y-147125603D01*
X81440758Y-147123916D01*
X81135538Y-147024744D01*
X80820294Y-146964608D01*
X80724975Y-146958611D01*
X80582152Y-146949625D01*
X80582136Y-146949624D01*
X80580157Y-146949500D01*
X80419843Y-146949500D01*
X80417864Y-146949624D01*
X80417848Y-146949625D01*
X80275025Y-146958611D01*
X80179706Y-146964608D01*
X79864462Y-147024744D01*
X79559242Y-147123916D01*
X79555656Y-147125603D01*
X79555652Y-147125605D01*
X79272444Y-147258873D01*
X79272437Y-147258877D01*
X79268858Y-147260561D01*
X78997890Y-147432522D01*
X78750610Y-147637089D01*
X78530920Y-147871036D01*
X78528593Y-147874238D01*
X78528592Y-147874240D01*
X78481936Y-147938457D01*
X78425714Y-147981811D01*
X78354978Y-147987886D01*
X78292186Y-147954755D01*
X78257275Y-147892935D01*
X78254000Y-147864396D01*
X78254000Y-146770161D01*
X82994393Y-146770161D01*
X83003687Y-146782175D01*
X83044088Y-146810464D01*
X83053584Y-146815947D01*
X83243113Y-146904326D01*
X83253405Y-146908072D01*
X83455401Y-146962196D01*
X83466196Y-146964099D01*
X83674525Y-146982326D01*
X83685475Y-146982326D01*
X83893804Y-146964099D01*
X83904599Y-146962196D01*
X84106595Y-146908072D01*
X84116887Y-146904326D01*
X84306416Y-146815947D01*
X84315912Y-146810464D01*
X84357148Y-146781590D01*
X84365523Y-146771112D01*
X84358457Y-146757668D01*
X83692811Y-146092021D01*
X83678868Y-146084408D01*
X83677034Y-146084539D01*
X83670420Y-146088790D01*
X83000820Y-146758391D01*
X82994393Y-146770161D01*
X78254000Y-146770161D01*
X78254000Y-145725475D01*
X82417674Y-145725475D01*
X82435901Y-145933804D01*
X82437804Y-145944599D01*
X82491928Y-146146595D01*
X82495674Y-146156887D01*
X82584054Y-146346417D01*
X82589534Y-146355907D01*
X82618411Y-146397149D01*
X82628887Y-146405523D01*
X82642334Y-146398455D01*
X83307979Y-145732811D01*
X83315592Y-145718868D01*
X83315461Y-145717034D01*
X83311210Y-145710420D01*
X82641609Y-145040820D01*
X82629839Y-145034393D01*
X82617824Y-145043689D01*
X82589534Y-145084093D01*
X82584054Y-145093583D01*
X82495674Y-145283113D01*
X82491928Y-145293405D01*
X82437804Y-145495401D01*
X82435901Y-145506196D01*
X82417674Y-145714525D01*
X82417674Y-145725475D01*
X78254000Y-145725475D01*
X78254000Y-144668887D01*
X82994477Y-144668887D01*
X83001545Y-144682334D01*
X83667189Y-145347979D01*
X83681132Y-145355592D01*
X83682966Y-145355461D01*
X83689580Y-145351210D01*
X84359180Y-144681609D01*
X84365607Y-144669839D01*
X84356313Y-144657825D01*
X84315912Y-144629536D01*
X84306416Y-144624053D01*
X84116887Y-144535674D01*
X84106595Y-144531928D01*
X83904599Y-144477804D01*
X83893804Y-144475901D01*
X83685475Y-144457674D01*
X83674525Y-144457674D01*
X83466196Y-144475901D01*
X83455401Y-144477804D01*
X83253405Y-144531928D01*
X83243113Y-144535674D01*
X83053583Y-144624054D01*
X83044093Y-144629534D01*
X83002851Y-144658411D01*
X82994477Y-144668887D01*
X78254000Y-144668887D01*
X78254000Y-119135604D01*
X78274002Y-119067483D01*
X78327658Y-119020990D01*
X78397932Y-119010886D01*
X78462512Y-119040380D01*
X78481936Y-119061543D01*
X78530920Y-119128964D01*
X78750610Y-119362911D01*
X78997890Y-119567478D01*
X79268858Y-119739439D01*
X79272437Y-119741123D01*
X79272444Y-119741127D01*
X79555652Y-119874395D01*
X79555656Y-119874397D01*
X79559242Y-119876084D01*
X79864462Y-119975256D01*
X80179706Y-120035392D01*
X80275025Y-120041389D01*
X80417848Y-120050375D01*
X80417864Y-120050376D01*
X80419843Y-120050500D01*
X80580157Y-120050500D01*
X80582136Y-120050376D01*
X80582152Y-120050375D01*
X80724975Y-120041389D01*
X80820294Y-120035392D01*
X81135538Y-119975256D01*
X81440758Y-119876084D01*
X81444344Y-119874397D01*
X81444348Y-119874395D01*
X81727556Y-119741127D01*
X81727563Y-119741123D01*
X81731142Y-119739439D01*
X82002110Y-119567478D01*
X82249390Y-119362911D01*
X82469080Y-119128964D01*
X82494965Y-119093336D01*
X82655385Y-118872537D01*
X82655388Y-118872532D01*
X82657716Y-118869328D01*
X82731629Y-118734882D01*
X82810421Y-118591559D01*
X82810422Y-118591556D01*
X82812324Y-118588097D01*
X82930466Y-118289706D01*
X83010277Y-117978861D01*
X83050500Y-117660464D01*
X83050500Y-117339536D01*
X83010277Y-117021139D01*
X82930466Y-116710294D01*
X82908802Y-116655576D01*
X82892710Y-116614934D01*
X82812324Y-116411903D01*
X82810421Y-116408441D01*
X82659625Y-116134144D01*
X82659623Y-116134141D01*
X82657716Y-116130672D01*
X82599818Y-116050981D01*
X82471408Y-115874240D01*
X82471407Y-115874238D01*
X82469080Y-115871036D01*
X82249390Y-115637089D01*
X82246339Y-115634565D01*
X82055978Y-115477085D01*
X82016239Y-115418251D01*
X82014617Y-115347273D01*
X82051626Y-115286686D01*
X82115517Y-115255725D01*
X82136293Y-115254000D01*
X83962575Y-115254000D01*
X83987153Y-115256421D01*
X84000000Y-115258976D01*
X84009134Y-115257159D01*
X84016809Y-115256555D01*
X84016810Y-115256555D01*
X84066747Y-115252625D01*
X84196775Y-115242392D01*
X84388706Y-115196313D01*
X84393279Y-115194419D01*
X84566491Y-115122673D01*
X84566495Y-115122671D01*
X84571065Y-115120778D01*
X84739362Y-115017645D01*
X84889454Y-114889454D01*
X85017645Y-114739362D01*
X85120778Y-114571065D01*
X85138823Y-114527502D01*
X85194419Y-114393279D01*
X85194420Y-114393277D01*
X85196313Y-114388706D01*
X85242392Y-114196775D01*
X85257159Y-114009134D01*
X85258976Y-114000000D01*
X85256421Y-113987153D01*
X85254000Y-113962575D01*
X85254000Y-105993096D01*
X93590729Y-105993096D01*
X93608113Y-106150553D01*
X93610723Y-106157684D01*
X93610723Y-106157686D01*
X93659942Y-106292183D01*
X93662553Y-106299319D01*
X93666789Y-106305622D01*
X93666789Y-106305623D01*
X93729705Y-106399251D01*
X93750908Y-106430805D01*
X93756527Y-106435918D01*
X93756528Y-106435919D01*
X93829299Y-106502135D01*
X93866222Y-106562775D01*
X93870500Y-106595329D01*
X93870500Y-108760465D01*
X93868949Y-108780175D01*
X93865769Y-108800253D01*
X93866374Y-108804073D01*
X93883177Y-109445737D01*
X93933838Y-110089452D01*
X93934053Y-110091087D01*
X93934054Y-110091094D01*
X94017903Y-110727989D01*
X94017906Y-110728010D01*
X94018120Y-110729633D01*
X94135790Y-111364526D01*
X94136166Y-111366092D01*
X94136170Y-111366111D01*
X94228641Y-111751277D01*
X94286527Y-111992391D01*
X94469918Y-112611506D01*
X94685459Y-113220174D01*
X94932559Y-113816728D01*
X94933273Y-113818224D01*
X94933273Y-113818225D01*
X95113833Y-114196775D01*
X95210543Y-114399532D01*
X95518647Y-114966989D01*
X95856027Y-115517544D01*
X95856952Y-115518889D01*
X95856954Y-115518893D01*
X95936453Y-115634565D01*
X96221758Y-116049686D01*
X96614838Y-116561959D01*
X97034190Y-117052957D01*
X97476035Y-117518564D01*
X97478308Y-117521692D01*
X97494753Y-117533640D01*
X97509787Y-117546481D01*
X110599965Y-130636659D01*
X110612805Y-130651692D01*
X110624754Y-130668138D01*
X110632774Y-130673965D01*
X110639788Y-130680979D01*
X110639679Y-130681088D01*
X110650780Y-130691351D01*
X110692540Y-130740246D01*
X110721571Y-130805036D01*
X110710966Y-130875236D01*
X110699816Y-130894526D01*
X110668950Y-130938444D01*
X110666190Y-130945523D01*
X110628923Y-131041109D01*
X110611406Y-131086037D01*
X110610414Y-131093570D01*
X110610414Y-131093571D01*
X110593189Y-131224414D01*
X110590729Y-131243096D01*
X110591563Y-131250646D01*
X110606089Y-131382218D01*
X110608113Y-131400553D01*
X110610723Y-131407684D01*
X110610723Y-131407686D01*
X110655937Y-131531239D01*
X110662553Y-131549319D01*
X110666789Y-131555622D01*
X110666789Y-131555623D01*
X110746419Y-131674124D01*
X110750908Y-131680805D01*
X110756527Y-131685918D01*
X110756528Y-131685919D01*
X110836090Y-131758314D01*
X110868076Y-131787419D01*
X111007293Y-131863008D01*
X111160522Y-131903207D01*
X111244477Y-131904526D01*
X111311319Y-131905576D01*
X111311322Y-131905576D01*
X111318916Y-131905695D01*
X111473332Y-131870329D01*
X111552053Y-131830737D01*
X111608072Y-131802563D01*
X111608075Y-131802561D01*
X111614855Y-131799151D01*
X111620628Y-131794220D01*
X111620633Y-131794217D01*
X111662670Y-131758314D01*
X111727459Y-131729283D01*
X111797659Y-131739888D01*
X111850982Y-131786763D01*
X111870500Y-131854125D01*
X111870500Y-132155187D01*
X111850498Y-132223308D01*
X111827330Y-132250135D01*
X111760039Y-132308838D01*
X111668950Y-132438444D01*
X111641236Y-132509527D01*
X111615764Y-132574860D01*
X111611406Y-132586037D01*
X111610414Y-132593570D01*
X111610414Y-132593571D01*
X111592535Y-132729379D01*
X111590729Y-132743096D01*
X111595282Y-132784337D01*
X111606753Y-132888233D01*
X111608113Y-132900553D01*
X111610723Y-132907684D01*
X111610723Y-132907686D01*
X111641979Y-132993096D01*
X111662553Y-133049319D01*
X111666789Y-133055622D01*
X111666789Y-133055623D01*
X111741066Y-133166158D01*
X111750908Y-133180805D01*
X111756527Y-133185918D01*
X111756528Y-133185919D01*
X111767903Y-133196269D01*
X111868076Y-133287419D01*
X112007293Y-133363008D01*
X112160522Y-133403207D01*
X112244477Y-133404526D01*
X112311319Y-133405576D01*
X112311322Y-133405576D01*
X112318916Y-133405695D01*
X112473332Y-133370329D01*
X112557775Y-133327859D01*
X112608072Y-133302563D01*
X112608075Y-133302561D01*
X112614855Y-133299151D01*
X112620626Y-133294222D01*
X112620629Y-133294220D01*
X112729536Y-133201204D01*
X112729536Y-133201203D01*
X112735314Y-133196269D01*
X112827755Y-133067624D01*
X112830589Y-133060575D01*
X112830592Y-133060569D01*
X112884089Y-132927489D01*
X112928055Y-132871744D01*
X112995180Y-132848619D01*
X113064152Y-132865456D01*
X113113071Y-132916908D01*
X113119322Y-132931184D01*
X113141979Y-132993096D01*
X113162553Y-133049319D01*
X113166789Y-133055622D01*
X113166789Y-133055623D01*
X113241066Y-133166158D01*
X113250908Y-133180805D01*
X113256527Y-133185918D01*
X113256528Y-133185919D01*
X113267903Y-133196269D01*
X113368076Y-133287419D01*
X113507293Y-133363008D01*
X113660522Y-133403207D01*
X113744477Y-133404526D01*
X113811319Y-133405576D01*
X113811322Y-133405576D01*
X113818916Y-133405695D01*
X113973332Y-133370329D01*
X114057775Y-133327859D01*
X114108072Y-133302563D01*
X114108075Y-133302561D01*
X114114855Y-133299151D01*
X114120626Y-133294222D01*
X114120629Y-133294220D01*
X114229536Y-133201204D01*
X114229536Y-133201203D01*
X114235314Y-133196269D01*
X114327755Y-133067624D01*
X114386842Y-132920641D01*
X114394696Y-132865456D01*
X114408581Y-132767891D01*
X114408581Y-132767888D01*
X114409162Y-132763807D01*
X114409307Y-132750000D01*
X114390276Y-132592733D01*
X114334280Y-132444546D01*
X114302270Y-132397971D01*
X114248855Y-132320251D01*
X114248854Y-132320249D01*
X114244553Y-132313992D01*
X114171681Y-132249065D01*
X114134126Y-132188816D01*
X114129500Y-132154989D01*
X114129500Y-129289788D01*
X114131051Y-129270077D01*
X114134231Y-129250000D01*
X114133302Y-129244133D01*
X114130144Y-129208031D01*
X114125068Y-129150016D01*
X114116590Y-129053115D01*
X114109962Y-129028377D01*
X114066861Y-128867522D01*
X114066860Y-128867520D01*
X114065438Y-128862212D01*
X114028367Y-128782713D01*
X113984239Y-128688080D01*
X113984236Y-128688075D01*
X113981913Y-128683093D01*
X113971011Y-128667523D01*
X113871712Y-128525709D01*
X113871710Y-128525706D01*
X113868553Y-128521198D01*
X113728802Y-128381447D01*
X113566908Y-128268087D01*
X113561926Y-128265764D01*
X113561921Y-128265761D01*
X113392770Y-128186885D01*
X113392769Y-128186884D01*
X113387788Y-128184562D01*
X113382480Y-128183140D01*
X113382478Y-128183139D01*
X113313861Y-128164753D01*
X113196885Y-128133410D01*
X113073789Y-128122640D01*
X113068677Y-128121870D01*
X113066149Y-128120982D01*
X113060584Y-128120500D01*
X113054831Y-128120500D01*
X113043848Y-128120020D01*
X113012980Y-128117319D01*
X113012965Y-128117319D01*
X113005867Y-128116698D01*
X113000000Y-128115769D01*
X112979923Y-128118949D01*
X112960212Y-128120500D01*
X111996894Y-128120500D01*
X111977183Y-128118949D01*
X111957106Y-128115769D01*
X111947313Y-128117320D01*
X111941012Y-128117320D01*
X111921930Y-128118194D01*
X111792061Y-128109682D01*
X111775721Y-128107531D01*
X111698657Y-128092202D01*
X111621591Y-128076873D01*
X111605681Y-128072610D01*
X111456876Y-128022097D01*
X111441650Y-128015791D01*
X111300707Y-127946285D01*
X111286434Y-127938044D01*
X111155776Y-127850741D01*
X111142701Y-127840708D01*
X111044849Y-127754895D01*
X111031980Y-127740789D01*
X111027518Y-127736327D01*
X111021692Y-127728308D01*
X111005246Y-127716359D01*
X110990213Y-127703519D01*
X99228462Y-115941768D01*
X99215621Y-115926734D01*
X99209502Y-115918311D01*
X99209500Y-115918309D01*
X99203673Y-115910289D01*
X99195653Y-115904462D01*
X99195650Y-115904459D01*
X99192352Y-115902063D01*
X99174854Y-115886689D01*
X98798738Y-115488858D01*
X98794028Y-115483588D01*
X98419153Y-115039647D01*
X98414747Y-115034121D01*
X98065373Y-114569884D01*
X98061283Y-114564120D01*
X97738474Y-114081002D01*
X97734725Y-114075035D01*
X97439501Y-113574557D01*
X97436098Y-113568401D01*
X97256200Y-113220174D01*
X97169409Y-113052175D01*
X97166346Y-113045815D01*
X96972005Y-112611506D01*
X96929012Y-112515426D01*
X96926324Y-112508934D01*
X96719118Y-111966111D01*
X96716783Y-111959441D01*
X96540332Y-111405832D01*
X96538376Y-111399041D01*
X96393252Y-110836438D01*
X96391679Y-110829548D01*
X96372129Y-110731263D01*
X96278321Y-110259663D01*
X96277141Y-110252717D01*
X96195917Y-109677381D01*
X96195126Y-109670357D01*
X96146291Y-109091386D01*
X96145895Y-109084330D01*
X96130540Y-108537071D01*
X96132042Y-108513825D01*
X96132680Y-108509797D01*
X96132680Y-108509793D01*
X96134231Y-108500000D01*
X96131051Y-108479922D01*
X96129500Y-108460212D01*
X96129500Y-108289788D01*
X96131051Y-108270077D01*
X96132680Y-108259794D01*
X96132680Y-108259793D01*
X96134231Y-108250000D01*
X96132679Y-108240204D01*
X96132679Y-108234110D01*
X96133757Y-108217659D01*
X96139959Y-108170553D01*
X96148471Y-108138786D01*
X96172791Y-108080073D01*
X96189235Y-108051593D01*
X96227920Y-108001178D01*
X96251178Y-107977920D01*
X96301593Y-107939235D01*
X96330073Y-107922791D01*
X96388786Y-107898471D01*
X96420553Y-107889959D01*
X96427113Y-107889095D01*
X96467663Y-107883757D01*
X96484110Y-107882679D01*
X96490204Y-107882679D01*
X96500000Y-107884231D01*
X96509793Y-107882680D01*
X96509794Y-107882680D01*
X96520077Y-107881051D01*
X96539788Y-107879500D01*
X104210212Y-107879500D01*
X104229923Y-107881051D01*
X104240206Y-107882680D01*
X104240207Y-107882680D01*
X104250000Y-107884231D01*
X104257518Y-107883040D01*
X104263026Y-107882679D01*
X104263133Y-107882679D01*
X104263286Y-107882662D01*
X104491736Y-107867689D01*
X104491740Y-107867688D01*
X104495851Y-107867419D01*
X104499891Y-107866615D01*
X104499894Y-107866615D01*
X104733444Y-107820159D01*
X104733450Y-107820157D01*
X104737494Y-107819353D01*
X104741400Y-107818027D01*
X104741404Y-107818026D01*
X104966897Y-107741481D01*
X104966899Y-107741480D01*
X104970797Y-107740157D01*
X104974492Y-107738335D01*
X105188062Y-107633014D01*
X105188067Y-107633011D01*
X105191766Y-107631187D01*
X105396622Y-107494307D01*
X105581859Y-107331859D01*
X105744307Y-107146622D01*
X105881187Y-106941766D01*
X105990157Y-106720797D01*
X105991481Y-106716897D01*
X106018157Y-106638314D01*
X106058995Y-106580238D01*
X106080855Y-106566252D01*
X106108068Y-106552565D01*
X106108071Y-106552563D01*
X106114855Y-106549151D01*
X106120626Y-106544222D01*
X106120629Y-106544220D01*
X106229536Y-106451204D01*
X106229536Y-106451203D01*
X106235314Y-106446269D01*
X106327755Y-106317624D01*
X106386842Y-106170641D01*
X106392965Y-106127615D01*
X106408581Y-106017891D01*
X106408581Y-106017888D01*
X106409162Y-106013807D01*
X106409307Y-106000000D01*
X106390276Y-105842733D01*
X106334280Y-105694546D01*
X106244553Y-105563992D01*
X106126275Y-105458611D01*
X106118889Y-105454700D01*
X105992988Y-105388039D01*
X105992989Y-105388039D01*
X105986274Y-105384484D01*
X105832633Y-105345892D01*
X105825034Y-105345852D01*
X105825033Y-105345852D01*
X105759181Y-105345507D01*
X105674221Y-105345062D01*
X105666841Y-105346834D01*
X105666839Y-105346834D01*
X105527563Y-105380271D01*
X105527560Y-105380272D01*
X105520184Y-105382043D01*
X105379414Y-105454700D01*
X105260039Y-105558838D01*
X105168950Y-105688444D01*
X105111406Y-105836037D01*
X105110414Y-105843570D01*
X105110414Y-105843571D01*
X105104147Y-105891178D01*
X105090729Y-105993096D01*
X105108113Y-106150553D01*
X105110723Y-106157684D01*
X105110723Y-106157686D01*
X105159942Y-106292183D01*
X105162553Y-106299319D01*
X105166789Y-106305622D01*
X105166789Y-106305623D01*
X105228841Y-106397966D01*
X105250233Y-106465663D01*
X105238454Y-106521491D01*
X105225038Y-106550262D01*
X105214056Y-106569283D01*
X105199941Y-106589441D01*
X105177127Y-106622024D01*
X105114676Y-106711213D01*
X105100558Y-106728038D01*
X104978038Y-106850558D01*
X104961213Y-106864676D01*
X104819283Y-106964056D01*
X104800263Y-106975038D01*
X104643222Y-107048267D01*
X104622586Y-107055778D01*
X104455220Y-107100624D01*
X104433591Y-107104437D01*
X104284652Y-107117468D01*
X104269711Y-107116946D01*
X104269711Y-107117321D01*
X104259795Y-107117321D01*
X104250000Y-107115769D01*
X104240207Y-107117320D01*
X104240206Y-107117320D01*
X104229923Y-107118949D01*
X104210212Y-107120500D01*
X101665501Y-107120500D01*
X101597380Y-107100498D01*
X101550887Y-107046842D01*
X101540783Y-106976568D01*
X101569690Y-106912669D01*
X101628520Y-106843789D01*
X101628522Y-106843786D01*
X101631737Y-106840022D01*
X101671394Y-106775308D01*
X101737258Y-106667826D01*
X101737258Y-106667825D01*
X101739847Y-106663601D01*
X101748901Y-106641742D01*
X101793447Y-106586463D01*
X101808696Y-106577396D01*
X101858069Y-106552565D01*
X101858075Y-106552561D01*
X101864855Y-106549151D01*
X101870626Y-106544222D01*
X101870629Y-106544220D01*
X101979536Y-106451204D01*
X101979536Y-106451203D01*
X101985314Y-106446269D01*
X102077755Y-106317624D01*
X102136842Y-106170641D01*
X102142965Y-106127615D01*
X102158581Y-106017891D01*
X102158581Y-106017888D01*
X102159162Y-106013807D01*
X102159307Y-106000000D01*
X102140276Y-105842733D01*
X102084280Y-105694546D01*
X101994553Y-105563992D01*
X101876275Y-105458611D01*
X101868889Y-105454700D01*
X101742988Y-105388039D01*
X101742989Y-105388039D01*
X101736274Y-105384484D01*
X101582633Y-105345892D01*
X101575034Y-105345852D01*
X101575033Y-105345852D01*
X101509181Y-105345507D01*
X101424221Y-105345062D01*
X101416841Y-105346834D01*
X101416839Y-105346834D01*
X101277563Y-105380271D01*
X101277560Y-105380272D01*
X101270184Y-105382043D01*
X101129414Y-105454700D01*
X101010039Y-105558838D01*
X100918950Y-105688444D01*
X100861406Y-105836037D01*
X100860414Y-105843570D01*
X100860414Y-105843571D01*
X100854147Y-105891178D01*
X100840729Y-105993096D01*
X100858113Y-106150553D01*
X100860723Y-106157684D01*
X100860723Y-106157686D01*
X100865464Y-106170641D01*
X100912553Y-106299319D01*
X100934216Y-106331556D01*
X100955608Y-106399251D01*
X100937004Y-106467767D01*
X100896671Y-106508518D01*
X100818023Y-106557936D01*
X100792616Y-106570172D01*
X100701985Y-106601885D01*
X100674483Y-106608161D01*
X100599382Y-106616622D01*
X100584680Y-106616297D01*
X100584680Y-106617320D01*
X100574766Y-106617320D01*
X100564972Y-106615769D01*
X100547521Y-106618533D01*
X100544895Y-106618949D01*
X100525184Y-106620500D01*
X97355812Y-106620500D01*
X97287691Y-106600498D01*
X97241198Y-106546842D01*
X97231094Y-106476568D01*
X97253489Y-106420976D01*
X97327755Y-106317624D01*
X97386842Y-106170641D01*
X97392965Y-106127615D01*
X97408581Y-106017891D01*
X97408581Y-106017888D01*
X97409162Y-106013807D01*
X97409307Y-106000000D01*
X97390276Y-105842733D01*
X97334280Y-105694546D01*
X97244553Y-105563992D01*
X97126275Y-105458611D01*
X97118889Y-105454700D01*
X96992988Y-105388039D01*
X96992989Y-105388039D01*
X96986274Y-105384484D01*
X96832633Y-105345892D01*
X96825034Y-105345852D01*
X96825033Y-105345852D01*
X96759181Y-105345507D01*
X96674221Y-105345062D01*
X96666841Y-105346834D01*
X96666839Y-105346834D01*
X96527563Y-105380271D01*
X96527560Y-105380272D01*
X96520184Y-105382043D01*
X96379414Y-105454700D01*
X96260039Y-105558838D01*
X96255672Y-105565052D01*
X96193368Y-105653701D01*
X96137833Y-105697932D01*
X96127775Y-105701542D01*
X95904675Y-105771062D01*
X95901205Y-105772624D01*
X95901199Y-105772626D01*
X95745429Y-105842733D01*
X95642170Y-105889206D01*
X95638907Y-105891178D01*
X95638908Y-105891178D01*
X95407109Y-106031305D01*
X95395819Y-106038130D01*
X95313468Y-106102648D01*
X95217678Y-106177695D01*
X95169215Y-106215663D01*
X95098224Y-106286654D01*
X95035912Y-106320680D01*
X94965097Y-106315615D01*
X94908261Y-106273068D01*
X94883450Y-106206548D01*
X94886879Y-106170646D01*
X94886842Y-106170641D01*
X94886955Y-106169850D01*
X94886956Y-106169841D01*
X94890776Y-106143003D01*
X94908581Y-106017891D01*
X94908581Y-106017888D01*
X94909162Y-106013807D01*
X94909307Y-106000000D01*
X94890276Y-105842733D01*
X94834280Y-105694546D01*
X94744553Y-105563992D01*
X94626275Y-105458611D01*
X94618889Y-105454700D01*
X94492988Y-105388039D01*
X94492989Y-105388039D01*
X94486274Y-105384484D01*
X94332633Y-105345892D01*
X94325034Y-105345852D01*
X94325033Y-105345852D01*
X94259181Y-105345507D01*
X94174221Y-105345062D01*
X94166841Y-105346834D01*
X94166839Y-105346834D01*
X94027563Y-105380271D01*
X94027560Y-105380272D01*
X94020184Y-105382043D01*
X93879414Y-105454700D01*
X93760039Y-105558838D01*
X93668950Y-105688444D01*
X93611406Y-105836037D01*
X93610414Y-105843570D01*
X93610414Y-105843571D01*
X93604147Y-105891178D01*
X93590729Y-105993096D01*
X85254000Y-105993096D01*
X85254000Y-102581887D01*
X93533653Y-102581887D01*
X93533677Y-102582226D01*
X93539500Y-102590858D01*
X93872715Y-102895660D01*
X93875846Y-102898344D01*
X94346614Y-103276175D01*
X94349897Y-103278640D01*
X94844088Y-103625319D01*
X94847515Y-103627562D01*
X95363060Y-103941635D01*
X95366595Y-103943635D01*
X95901368Y-104223802D01*
X95905006Y-104225561D01*
X96456712Y-104470619D01*
X96460502Y-104472158D01*
X97026872Y-104681103D01*
X97030737Y-104682389D01*
X97609415Y-104854350D01*
X97613356Y-104855384D01*
X98201917Y-104989642D01*
X98205912Y-104990419D01*
X98801930Y-105086419D01*
X98805969Y-105086936D01*
X99406918Y-105144272D01*
X99410987Y-105144528D01*
X100014384Y-105162964D01*
X100018470Y-105162956D01*
X100621812Y-105142414D01*
X100625856Y-105142145D01*
X101226622Y-105082710D01*
X101230658Y-105082179D01*
X101826321Y-104984102D01*
X101830324Y-104983309D01*
X102418425Y-104846995D01*
X102422345Y-104845952D01*
X103000442Y-104671964D01*
X103004275Y-104670674D01*
X103569914Y-104459753D01*
X103573707Y-104458197D01*
X103863598Y-104328219D01*
X103933940Y-104318600D01*
X103998316Y-104348538D01*
X104036286Y-104408528D01*
X104035796Y-104479523D01*
X104004243Y-104532286D01*
X103222044Y-105314485D01*
X103162363Y-105347909D01*
X103129688Y-105355753D01*
X103027563Y-105380271D01*
X103027560Y-105380272D01*
X103020184Y-105382043D01*
X102879414Y-105454700D01*
X102760039Y-105558838D01*
X102668950Y-105688444D01*
X102611406Y-105836037D01*
X102610414Y-105843570D01*
X102610414Y-105843571D01*
X102604147Y-105891178D01*
X102590729Y-105993096D01*
X102608113Y-106150553D01*
X102610723Y-106157684D01*
X102610723Y-106157686D01*
X102659942Y-106292183D01*
X102662553Y-106299319D01*
X102666789Y-106305622D01*
X102666789Y-106305623D01*
X102729705Y-106399251D01*
X102750908Y-106430805D01*
X102756527Y-106435918D01*
X102756528Y-106435919D01*
X102791529Y-106467767D01*
X102868076Y-106537419D01*
X103007293Y-106613008D01*
X103160522Y-106653207D01*
X103244477Y-106654526D01*
X103311319Y-106655576D01*
X103311322Y-106655576D01*
X103318916Y-106655695D01*
X103473332Y-106620329D01*
X103558696Y-106577396D01*
X103608072Y-106552563D01*
X103608075Y-106552561D01*
X103614855Y-106549151D01*
X103620626Y-106544222D01*
X103620629Y-106544220D01*
X103729536Y-106451204D01*
X103729536Y-106451203D01*
X103735314Y-106446269D01*
X103827755Y-106317624D01*
X103886842Y-106170641D01*
X103896518Y-106102647D01*
X103925918Y-106038025D01*
X103932166Y-106031305D01*
X110319751Y-99643720D01*
X110335768Y-99630172D01*
X110347961Y-99621491D01*
X110351922Y-99618671D01*
X110360835Y-99609973D01*
X110363754Y-99606078D01*
X110366167Y-99603329D01*
X110370954Y-99597584D01*
X110484158Y-99475120D01*
X110651040Y-99294587D01*
X110916352Y-98958041D01*
X110930663Y-98936624D01*
X111148572Y-98610498D01*
X111203049Y-98564970D01*
X111253337Y-98554500D01*
X112603543Y-98554499D01*
X112725066Y-98554499D01*
X112760818Y-98547388D01*
X112787126Y-98542156D01*
X112787128Y-98542155D01*
X112799301Y-98539734D01*
X112809621Y-98532839D01*
X112809622Y-98532838D01*
X112873168Y-98490377D01*
X112883484Y-98483484D01*
X112939734Y-98399301D01*
X112954500Y-98325067D01*
X112954499Y-93174934D01*
X112939734Y-93100699D01*
X112883484Y-93016516D01*
X112799301Y-92960266D01*
X112725067Y-92945500D01*
X111450207Y-92945500D01*
X110174934Y-92945501D01*
X110139182Y-92952612D01*
X110112874Y-92957844D01*
X110112872Y-92957845D01*
X110100699Y-92960266D01*
X110090379Y-92967161D01*
X110090378Y-92967162D01*
X110088461Y-92968443D01*
X110016516Y-93016516D01*
X109960266Y-93100699D01*
X109945500Y-93174933D01*
X109945501Y-98325066D01*
X109960266Y-98399301D01*
X109967160Y-98409619D01*
X109970844Y-98418513D01*
X109978431Y-98489103D01*
X109954397Y-98543431D01*
X109908997Y-98602598D01*
X109901931Y-98611019D01*
X109672912Y-98860949D01*
X109654344Y-98877566D01*
X109644457Y-98884789D01*
X109638986Y-98891906D01*
X109638985Y-98891907D01*
X109625247Y-98909779D01*
X109614446Y-98922083D01*
X108784735Y-99751794D01*
X108722423Y-99785820D01*
X108651608Y-99780755D01*
X108594772Y-99738208D01*
X108569961Y-99671688D01*
X108581585Y-99609150D01*
X108644512Y-99475120D01*
X108646114Y-99471401D01*
X108866884Y-98909502D01*
X108868241Y-98905692D01*
X109052293Y-98330714D01*
X109053399Y-98326832D01*
X109199966Y-97741165D01*
X109200818Y-97737221D01*
X109309281Y-97143335D01*
X109309882Y-97139310D01*
X109379790Y-96539698D01*
X109380132Y-96535621D01*
X109411238Y-95932012D01*
X109411318Y-95929395D01*
X109413027Y-95751337D01*
X109412997Y-95748661D01*
X109393486Y-95144588D01*
X109393223Y-95140530D01*
X109334836Y-94539662D01*
X109334316Y-94535652D01*
X109237275Y-93939796D01*
X109236487Y-93935783D01*
X109101206Y-93347474D01*
X109100160Y-93343518D01*
X108927195Y-92765163D01*
X108925897Y-92761282D01*
X108715959Y-92195262D01*
X108714433Y-92191524D01*
X108468405Y-91640231D01*
X108466625Y-91636566D01*
X108185537Y-91102303D01*
X108183528Y-91098768D01*
X107868550Y-90583762D01*
X107866322Y-90580371D01*
X107518748Y-90086739D01*
X107516322Y-90083520D01*
X107137619Y-89613349D01*
X107134975Y-89610276D01*
X106842813Y-89291994D01*
X106829209Y-89283792D01*
X106828810Y-89283804D01*
X106820017Y-89289193D01*
X93541267Y-102567943D01*
X93533653Y-102581887D01*
X85254000Y-102581887D01*
X85254000Y-93174933D01*
X87045500Y-93174933D01*
X87045501Y-98325066D01*
X87060266Y-98399301D01*
X87116516Y-98483484D01*
X87200699Y-98539734D01*
X87274933Y-98554500D01*
X88549793Y-98554500D01*
X89825066Y-98554499D01*
X89860818Y-98547388D01*
X89887126Y-98542156D01*
X89887128Y-98542155D01*
X89899301Y-98539734D01*
X89909621Y-98532839D01*
X89909622Y-98532838D01*
X89973168Y-98490377D01*
X89983484Y-98483484D01*
X90039734Y-98399301D01*
X90054500Y-98325067D01*
X90054500Y-95961514D01*
X90589403Y-95961514D01*
X90589495Y-95965588D01*
X90622667Y-96568368D01*
X90623022Y-96572420D01*
X90695028Y-97171822D01*
X90695638Y-97175812D01*
X90806173Y-97769317D01*
X90807045Y-97773282D01*
X90955647Y-98358405D01*
X90956772Y-98362303D01*
X91142827Y-98936624D01*
X91144203Y-98940445D01*
X91366923Y-99501541D01*
X91368554Y-99505292D01*
X91627015Y-100050839D01*
X91628873Y-100054453D01*
X91922019Y-100582217D01*
X91924094Y-100585684D01*
X92250683Y-101093424D01*
X92252999Y-101096781D01*
X92611653Y-101582359D01*
X92614184Y-101585564D01*
X93003434Y-102046995D01*
X93006161Y-102050024D01*
X93157555Y-102207621D01*
X93171340Y-102215511D01*
X93172504Y-102215451D01*
X93180137Y-102210653D01*
X99627978Y-95762812D01*
X99635592Y-95748868D01*
X99635461Y-95747035D01*
X99631210Y-95740420D01*
X93180806Y-89290016D01*
X93166862Y-89282402D01*
X93165057Y-89282531D01*
X93158404Y-89286810D01*
X93128383Y-89316885D01*
X93125621Y-89319835D01*
X92727560Y-89773737D01*
X92724995Y-89776860D01*
X92357060Y-90255497D01*
X92354697Y-90258785D01*
X92018413Y-90760172D01*
X92016271Y-90763601D01*
X91713052Y-91285630D01*
X91711126Y-91289208D01*
X91442232Y-91829706D01*
X91440535Y-91833415D01*
X91207078Y-92390146D01*
X91205638Y-92393916D01*
X91008586Y-92964579D01*
X91007390Y-92968443D01*
X90847586Y-93550591D01*
X90846629Y-93554578D01*
X90724729Y-94145806D01*
X90724033Y-94149835D01*
X90640539Y-94747713D01*
X90640107Y-94751757D01*
X90595367Y-95353802D01*
X90595197Y-95357860D01*
X90589403Y-95961514D01*
X90054500Y-95961514D01*
X90054499Y-93174934D01*
X90039734Y-93100699D01*
X89983484Y-93016516D01*
X89899301Y-92960266D01*
X89825067Y-92945500D01*
X88550207Y-92945500D01*
X87274934Y-92945501D01*
X87239182Y-92952612D01*
X87212874Y-92957844D01*
X87212872Y-92957845D01*
X87200699Y-92960266D01*
X87190379Y-92967161D01*
X87190378Y-92967162D01*
X87188461Y-92968443D01*
X87116516Y-93016516D01*
X87060266Y-93100699D01*
X87045500Y-93174933D01*
X85254000Y-93174933D01*
X85254000Y-88918808D01*
X93532090Y-88918808D01*
X93532225Y-88920670D01*
X93536453Y-88927243D01*
X99987188Y-95377978D01*
X100001132Y-95385592D01*
X100002965Y-95385461D01*
X100009580Y-95381210D01*
X106457803Y-88932987D01*
X106465417Y-88919043D01*
X106465339Y-88917941D01*
X106460326Y-88910325D01*
X106287807Y-88745175D01*
X106284777Y-88742456D01*
X105822650Y-88353998D01*
X105819478Y-88351502D01*
X105333249Y-87993677D01*
X105329891Y-87991369D01*
X104821601Y-87665679D01*
X104818083Y-87663582D01*
X104289845Y-87371377D01*
X104286220Y-87369522D01*
X103740225Y-87112014D01*
X103736457Y-87110384D01*
X103174988Y-86888649D01*
X103171159Y-86887278D01*
X102596502Y-86702222D01*
X102592627Y-86701111D01*
X102007229Y-86553526D01*
X102003268Y-86552663D01*
X101409588Y-86443167D01*
X101405566Y-86442558D01*
X100806029Y-86371598D01*
X100802027Y-86371255D01*
X100199136Y-86339131D01*
X100195119Y-86339047D01*
X99591442Y-86345896D01*
X99587380Y-86346073D01*
X98985416Y-86391864D01*
X98981389Y-86392301D01*
X98383660Y-86476839D01*
X98379623Y-86477543D01*
X97788587Y-86600478D01*
X97784639Y-86601434D01*
X97202765Y-86762254D01*
X97198873Y-86763467D01*
X96628579Y-86961506D01*
X96624796Y-86962959D01*
X96068481Y-87197384D01*
X96064782Y-87199085D01*
X95524758Y-87468920D01*
X95521156Y-87470868D01*
X94999693Y-87774975D01*
X94996229Y-87777148D01*
X94495452Y-88114292D01*
X94492161Y-88116665D01*
X94014195Y-88485414D01*
X94011040Y-88488013D01*
X93557848Y-88886854D01*
X93554900Y-88889622D01*
X93539690Y-88904859D01*
X93532090Y-88918808D01*
X85254000Y-88918808D01*
X85254000Y-87037425D01*
X85256421Y-87012844D01*
X85256555Y-87012170D01*
X85258976Y-87000000D01*
X85256555Y-86987829D01*
X85256555Y-86975419D01*
X85257198Y-86975419D01*
X85256527Y-86964674D01*
X85271129Y-86760509D01*
X85273687Y-86742715D01*
X85322810Y-86516899D01*
X85327875Y-86499650D01*
X85408633Y-86283127D01*
X85416102Y-86266774D01*
X85526852Y-86063951D01*
X85536571Y-86048827D01*
X85675063Y-85863824D01*
X85686836Y-85850238D01*
X85850238Y-85686836D01*
X85863824Y-85675063D01*
X86048827Y-85536571D01*
X86063951Y-85526852D01*
X86266774Y-85416102D01*
X86283123Y-85408635D01*
X86416852Y-85358757D01*
X86499650Y-85327875D01*
X86516899Y-85322810D01*
X86742715Y-85273687D01*
X86760509Y-85271129D01*
X86964674Y-85256527D01*
X86975419Y-85257198D01*
X86975419Y-85256555D01*
X86987829Y-85256555D01*
X87000000Y-85258976D01*
X87012847Y-85256421D01*
X87037425Y-85254000D01*
X112962575Y-85254000D01*
X112987153Y-85256421D01*
G37*
%TD.AperFunction*%
%TD*%
M02*
