M48
; DRILL file {KiCad (6.0.2-0)} date Monday, 07 March 2022 at 07:25:34
; FORMAT={-:-/ absolute / inch / decimal}
; #@! TF.CreationDate,2022-03-07T07:25:34+00:00
; #@! TF.GenerationSoftware,Kicad,Pcbnew,(6.0.2-0)
; #@! TF.FileFunction,Plated,1,2,PTH
FMAT,2
INCH
; #@! TA.AperFunction,Plated,PTH,ViaDrill
T1C0.0157
; #@! TA.AperFunction,Plated,PTH,ComponentDrill
T2C0.0236
; #@! TA.AperFunction,Plated,PTH,ComponentDrill
T3C0.0335
; #@! TA.AperFunction,Plated,PTH,ComponentDrill
T4C0.0394
; #@! TA.AperFunction,Plated,PTH,ComponentDrill
T5C0.0492
%
G90
G05
T1
X3.3366Y-5.3346
X3.3661Y-5.6201
X3.376Y-5.2854
X3.4154Y-5.2362
X3.4449Y-4.5669
X3.4449Y-4.6654
X3.4449Y-4.7146
X3.4449Y-4.7638
X3.4941Y-5.1575
X3.5433Y-5.2461
X3.5536Y-5.4631
X3.563Y-5.6229
X3.7106Y-4.1732
X3.8091Y-4.1732
X3.8976Y-5.3543
X3.9464Y-5.1762
X3.9469Y-4.8524
X3.9469Y-5.315
X3.9961Y-4.1732
X4.0256Y-5.6496
X4.0256Y-5.689
X4.0256Y-5.7283
X4.065Y-4.1732
X4.1339Y-5.4823
X4.1634Y-4.1732
X4.1732Y-5.2953
X4.2717Y-5.4035
X4.311Y-5.4035
X4.3504Y-5.4035
X4.3799Y-5.1673
X4.3898Y-5.4035
X4.4193Y-5.2264
X4.4488Y-5.0984
X4.4783Y-5.2264
X4.626Y-5.4429
T2
X3.3508Y-5.7563
X3.5783Y-5.7563
T3
X3.75Y-5.7244
X3.8484Y-5.7244
T4
X3.2945Y-5.9012
X3.6346Y-5.9012
X4.7244Y-4.9559
X4.7244Y-5.0559
X4.7244Y-5.1559
X4.7244Y-5.2559
X4.7244Y-5.3559
X4.7244Y-5.4559
X4.7244Y-5.5559
T5
X3.2945Y-5.737
X3.6346Y-5.737
T0
M30
