%TF.GenerationSoftware,KiCad,Pcbnew,(6.0.2-0)*%
%TF.CreationDate,2022-03-09T14:12:55+00:00*%
%TF.ProjectId,Display,44697370-6c61-4792-9e6b-696361645f70,5*%
%TF.SameCoordinates,Original*%
%TF.FileFunction,Legend,Bot*%
%TF.FilePolarity,Positive*%
%FSLAX46Y46*%
G04 Gerber Fmt 4.6, Leading zero omitted, Abs format (unit mm)*
G04 Created by KiCad (PCBNEW (6.0.2-0)) date 2022-03-09 14:12:55*
%MOMM*%
%LPD*%
G01*
G04 APERTURE LIST*
%ADD10C,0.150000*%
G04 APERTURE END LIST*
D10*
X95821428Y-150235535D02*
X95821428Y-149485535D01*
X95642857Y-149485535D01*
X95535714Y-149521250D01*
X95464285Y-149592678D01*
X95428571Y-149664107D01*
X95392857Y-149806964D01*
X95392857Y-149914107D01*
X95428571Y-150056964D01*
X95464285Y-150128392D01*
X95535714Y-150199821D01*
X95642857Y-150235535D01*
X95821428Y-150235535D01*
X94642857Y-150164107D02*
X94678571Y-150199821D01*
X94785714Y-150235535D01*
X94857142Y-150235535D01*
X94964285Y-150199821D01*
X95035714Y-150128392D01*
X95071428Y-150056964D01*
X95107142Y-149914107D01*
X95107142Y-149806964D01*
X95071428Y-149664107D01*
X95035714Y-149592678D01*
X94964285Y-149521250D01*
X94857142Y-149485535D01*
X94785714Y-149485535D01*
X94678571Y-149521250D01*
X94642857Y-149556964D01*
X96928571Y-150943035D02*
X96928571Y-151443035D01*
X97107142Y-150657321D02*
X97285714Y-151193035D01*
X96821428Y-151193035D01*
X96642857Y-150693035D02*
X96392857Y-151443035D01*
X96142857Y-150693035D01*
X95892857Y-151157321D02*
X95321428Y-151157321D01*
X94642857Y-150693035D02*
X94785714Y-150693035D01*
X94857142Y-150728750D01*
X94892857Y-150764464D01*
X94964285Y-150871607D01*
X95000000Y-151014464D01*
X95000000Y-151300178D01*
X94964285Y-151371607D01*
X94928571Y-151407321D01*
X94857142Y-151443035D01*
X94714285Y-151443035D01*
X94642857Y-151407321D01*
X94607142Y-151371607D01*
X94571428Y-151300178D01*
X94571428Y-151121607D01*
X94607142Y-151050178D01*
X94642857Y-151014464D01*
X94714285Y-150978750D01*
X94857142Y-150978750D01*
X94928571Y-151014464D01*
X94964285Y-151050178D01*
X95000000Y-151121607D01*
X94107142Y-150693035D02*
X94035714Y-150693035D01*
X93964285Y-150728750D01*
X93928571Y-150764464D01*
X93892857Y-150835892D01*
X93857142Y-150978750D01*
X93857142Y-151157321D01*
X93892857Y-151300178D01*
X93928571Y-151371607D01*
X93964285Y-151407321D01*
X94035714Y-151443035D01*
X94107142Y-151443035D01*
X94178571Y-151407321D01*
X94214285Y-151371607D01*
X94250000Y-151300178D01*
X94285714Y-151157321D01*
X94285714Y-150978750D01*
X94250000Y-150835892D01*
X94214285Y-150764464D01*
X94178571Y-150728750D01*
X94107142Y-150693035D01*
X93642857Y-150693035D02*
X93392857Y-151443035D01*
X93142857Y-150693035D01*
X115688214Y-117287380D02*
X116164404Y-117287380D01*
X116164404Y-116287380D01*
X115354880Y-116763571D02*
X115021547Y-116763571D01*
X114878690Y-117287380D02*
X115354880Y-117287380D01*
X115354880Y-116287380D01*
X114878690Y-116287380D01*
X114450119Y-117287380D02*
X114450119Y-116287380D01*
X114212023Y-116287380D01*
X114069166Y-116335000D01*
X113973928Y-116430238D01*
X113926309Y-116525476D01*
X113878690Y-116715952D01*
X113878690Y-116858809D01*
X113926309Y-117049285D01*
X113973928Y-117144523D01*
X114069166Y-117239761D01*
X114212023Y-117287380D01*
X114450119Y-117287380D01*
X113450119Y-117192142D02*
X113402500Y-117239761D01*
X113450119Y-117287380D01*
X113497738Y-117239761D01*
X113450119Y-117192142D01*
X113450119Y-117287380D01*
X113450119Y-116668333D02*
X113402500Y-116715952D01*
X113450119Y-116763571D01*
X113497738Y-116715952D01*
X113450119Y-116668333D01*
X113450119Y-116763571D01*
X112259642Y-116382619D02*
X112212023Y-116335000D01*
X112116785Y-116287380D01*
X111878690Y-116287380D01*
X111783452Y-116335000D01*
X111735833Y-116382619D01*
X111688214Y-116477857D01*
X111688214Y-116573095D01*
X111735833Y-116715952D01*
X112307261Y-117287380D01*
X111688214Y-117287380D01*
X110735833Y-117287380D02*
X111307261Y-117287380D01*
X111021547Y-117287380D02*
X111021547Y-116287380D01*
X111116785Y-116430238D01*
X111212023Y-116525476D01*
X111307261Y-116573095D01*
X109592976Y-116239761D02*
X110450119Y-117525476D01*
X109307261Y-116382619D02*
X109259642Y-116335000D01*
X109164404Y-116287380D01*
X108926309Y-116287380D01*
X108831071Y-116335000D01*
X108783452Y-116382619D01*
X108735833Y-116477857D01*
X108735833Y-116573095D01*
X108783452Y-116715952D01*
X109354880Y-117287380D01*
X108735833Y-117287380D01*
X108354880Y-116382619D02*
X108307261Y-116335000D01*
X108212023Y-116287380D01*
X107973928Y-116287380D01*
X107878690Y-116335000D01*
X107831071Y-116382619D01*
X107783452Y-116477857D01*
X107783452Y-116573095D01*
X107831071Y-116715952D01*
X108402500Y-117287380D01*
X107783452Y-117287380D01*
X106640595Y-116239761D02*
X107497738Y-117525476D01*
X105783452Y-117287380D02*
X106354880Y-117287380D01*
X106069166Y-117287380D02*
X106069166Y-116287380D01*
X106164404Y-116430238D01*
X106259642Y-116525476D01*
X106354880Y-116573095D01*
X105307261Y-117287380D02*
X105116785Y-117287380D01*
X105021547Y-117239761D01*
X104973928Y-117192142D01*
X104878690Y-117049285D01*
X104831071Y-116858809D01*
X104831071Y-116477857D01*
X104878690Y-116382619D01*
X104926309Y-116335000D01*
X105021547Y-116287380D01*
X105212023Y-116287380D01*
X105307261Y-116335000D01*
X105354880Y-116382619D01*
X105402500Y-116477857D01*
X105402500Y-116715952D01*
X105354880Y-116811190D01*
X105307261Y-116858809D01*
X105212023Y-116906428D01*
X105021547Y-116906428D01*
X104926309Y-116858809D01*
X104878690Y-116811190D01*
X104831071Y-116715952D01*
X115640595Y-117945000D02*
X115735833Y-117897380D01*
X115878690Y-117897380D01*
X116021547Y-117945000D01*
X116116785Y-118040238D01*
X116164404Y-118135476D01*
X116212023Y-118325952D01*
X116212023Y-118468809D01*
X116164404Y-118659285D01*
X116116785Y-118754523D01*
X116021547Y-118849761D01*
X115878690Y-118897380D01*
X115783452Y-118897380D01*
X115640595Y-118849761D01*
X115592976Y-118802142D01*
X115592976Y-118468809D01*
X115783452Y-118468809D01*
X115164404Y-118897380D02*
X115164404Y-117897380D01*
X114783452Y-117897380D01*
X114688214Y-117945000D01*
X114640595Y-117992619D01*
X114592976Y-118087857D01*
X114592976Y-118230714D01*
X114640595Y-118325952D01*
X114688214Y-118373571D01*
X114783452Y-118421190D01*
X115164404Y-118421190D01*
X114212023Y-118849761D02*
X114069166Y-118897380D01*
X113831071Y-118897380D01*
X113735833Y-118849761D01*
X113688214Y-118802142D01*
X113640595Y-118706904D01*
X113640595Y-118611666D01*
X113688214Y-118516428D01*
X113735833Y-118468809D01*
X113831071Y-118421190D01*
X114021547Y-118373571D01*
X114116785Y-118325952D01*
X114164404Y-118278333D01*
X114212023Y-118183095D01*
X114212023Y-118087857D01*
X114164404Y-117992619D01*
X114116785Y-117945000D01*
X114021547Y-117897380D01*
X113783452Y-117897380D01*
X113640595Y-117945000D01*
X113354880Y-117897380D02*
X112783452Y-117897380D01*
X113069166Y-118897380D02*
X113069166Y-117897380D01*
X112450119Y-118897380D02*
X112450119Y-117897380D01*
X111402500Y-118802142D02*
X111450119Y-118849761D01*
X111592976Y-118897380D01*
X111688214Y-118897380D01*
X111831071Y-118849761D01*
X111926309Y-118754523D01*
X111973928Y-118659285D01*
X112021547Y-118468809D01*
X112021547Y-118325952D01*
X111973928Y-118135476D01*
X111926309Y-118040238D01*
X111831071Y-117945000D01*
X111688214Y-117897380D01*
X111592976Y-117897380D01*
X111450119Y-117945000D01*
X111402500Y-117992619D01*
X110973928Y-118897380D02*
X110973928Y-117897380D01*
X110402500Y-118897380D02*
X110831071Y-118325952D01*
X110402500Y-117897380D02*
X110973928Y-118468809D01*
X109973928Y-118802142D02*
X109926309Y-118849761D01*
X109973928Y-118897380D01*
X110021547Y-118849761D01*
X109973928Y-118802142D01*
X109973928Y-118897380D01*
X109973928Y-118278333D02*
X109926309Y-118325952D01*
X109973928Y-118373571D01*
X110021547Y-118325952D01*
X109973928Y-118278333D01*
X109973928Y-118373571D01*
X108831071Y-117897380D02*
X108212023Y-117897380D01*
X108545357Y-118278333D01*
X108402500Y-118278333D01*
X108307261Y-118325952D01*
X108259642Y-118373571D01*
X108212023Y-118468809D01*
X108212023Y-118706904D01*
X108259642Y-118802142D01*
X108307261Y-118849761D01*
X108402500Y-118897380D01*
X108688214Y-118897380D01*
X108783452Y-118849761D01*
X108831071Y-118802142D01*
X107878690Y-117897380D02*
X107259642Y-117897380D01*
X107592976Y-118278333D01*
X107450119Y-118278333D01*
X107354880Y-118325952D01*
X107307261Y-118373571D01*
X107259642Y-118468809D01*
X107259642Y-118706904D01*
X107307261Y-118802142D01*
X107354880Y-118849761D01*
X107450119Y-118897380D01*
X107735833Y-118897380D01*
X107831071Y-118849761D01*
X107878690Y-118802142D01*
X115640595Y-119555000D02*
X115735833Y-119507380D01*
X115878690Y-119507380D01*
X116021547Y-119555000D01*
X116116785Y-119650238D01*
X116164404Y-119745476D01*
X116212023Y-119935952D01*
X116212023Y-120078809D01*
X116164404Y-120269285D01*
X116116785Y-120364523D01*
X116021547Y-120459761D01*
X115878690Y-120507380D01*
X115783452Y-120507380D01*
X115640595Y-120459761D01*
X115592976Y-120412142D01*
X115592976Y-120078809D01*
X115783452Y-120078809D01*
X115164404Y-120507380D02*
X115164404Y-119507380D01*
X114783452Y-119507380D01*
X114688214Y-119555000D01*
X114640595Y-119602619D01*
X114592976Y-119697857D01*
X114592976Y-119840714D01*
X114640595Y-119935952D01*
X114688214Y-119983571D01*
X114783452Y-120031190D01*
X115164404Y-120031190D01*
X114212023Y-120459761D02*
X114069166Y-120507380D01*
X113831071Y-120507380D01*
X113735833Y-120459761D01*
X113688214Y-120412142D01*
X113640595Y-120316904D01*
X113640595Y-120221666D01*
X113688214Y-120126428D01*
X113735833Y-120078809D01*
X113831071Y-120031190D01*
X114021547Y-119983571D01*
X114116785Y-119935952D01*
X114164404Y-119888333D01*
X114212023Y-119793095D01*
X114212023Y-119697857D01*
X114164404Y-119602619D01*
X114116785Y-119555000D01*
X114021547Y-119507380D01*
X113783452Y-119507380D01*
X113640595Y-119555000D01*
X112640595Y-120507380D02*
X112973928Y-120031190D01*
X113212023Y-120507380D02*
X113212023Y-119507380D01*
X112831071Y-119507380D01*
X112735833Y-119555000D01*
X112688214Y-119602619D01*
X112640595Y-119697857D01*
X112640595Y-119840714D01*
X112688214Y-119935952D01*
X112735833Y-119983571D01*
X112831071Y-120031190D01*
X113212023Y-120031190D01*
X112307261Y-119507380D02*
X111640595Y-120507380D01*
X111640595Y-119507380D02*
X112307261Y-120507380D01*
X111259642Y-120412142D02*
X111212023Y-120459761D01*
X111259642Y-120507380D01*
X111307261Y-120459761D01*
X111259642Y-120412142D01*
X111259642Y-120507380D01*
X111259642Y-119888333D02*
X111212023Y-119935952D01*
X111259642Y-119983571D01*
X111307261Y-119935952D01*
X111259642Y-119888333D01*
X111259642Y-119983571D01*
X110116785Y-119507380D02*
X109497738Y-119507380D01*
X109831071Y-119888333D01*
X109688214Y-119888333D01*
X109592976Y-119935952D01*
X109545357Y-119983571D01*
X109497738Y-120078809D01*
X109497738Y-120316904D01*
X109545357Y-120412142D01*
X109592976Y-120459761D01*
X109688214Y-120507380D01*
X109973928Y-120507380D01*
X110069166Y-120459761D01*
X110116785Y-120412142D01*
X109116785Y-119602619D02*
X109069166Y-119555000D01*
X108973928Y-119507380D01*
X108735833Y-119507380D01*
X108640595Y-119555000D01*
X108592976Y-119602619D01*
X108545357Y-119697857D01*
X108545357Y-119793095D01*
X108592976Y-119935952D01*
X109164404Y-120507380D01*
X108545357Y-120507380D01*
X115640595Y-121165000D02*
X115735833Y-121117380D01*
X115878690Y-121117380D01*
X116021547Y-121165000D01*
X116116785Y-121260238D01*
X116164404Y-121355476D01*
X116212023Y-121545952D01*
X116212023Y-121688809D01*
X116164404Y-121879285D01*
X116116785Y-121974523D01*
X116021547Y-122069761D01*
X115878690Y-122117380D01*
X115783452Y-122117380D01*
X115640595Y-122069761D01*
X115592976Y-122022142D01*
X115592976Y-121688809D01*
X115783452Y-121688809D01*
X115164404Y-122117380D02*
X115164404Y-121117380D01*
X114783452Y-121117380D01*
X114688214Y-121165000D01*
X114640595Y-121212619D01*
X114592976Y-121307857D01*
X114592976Y-121450714D01*
X114640595Y-121545952D01*
X114688214Y-121593571D01*
X114783452Y-121641190D01*
X115164404Y-121641190D01*
X114212023Y-122069761D02*
X114069166Y-122117380D01*
X113831071Y-122117380D01*
X113735833Y-122069761D01*
X113688214Y-122022142D01*
X113640595Y-121926904D01*
X113640595Y-121831666D01*
X113688214Y-121736428D01*
X113735833Y-121688809D01*
X113831071Y-121641190D01*
X114021547Y-121593571D01*
X114116785Y-121545952D01*
X114164404Y-121498333D01*
X114212023Y-121403095D01*
X114212023Y-121307857D01*
X114164404Y-121212619D01*
X114116785Y-121165000D01*
X114021547Y-121117380D01*
X113783452Y-121117380D01*
X113640595Y-121165000D01*
X113354880Y-121117380D02*
X112783452Y-121117380D01*
X113069166Y-122117380D02*
X113069166Y-121117380D01*
X112545357Y-121117380D02*
X111878690Y-122117380D01*
X111878690Y-121117380D02*
X112545357Y-122117380D01*
X111497738Y-122022142D02*
X111450119Y-122069761D01*
X111497738Y-122117380D01*
X111545357Y-122069761D01*
X111497738Y-122022142D01*
X111497738Y-122117380D01*
X111497738Y-121498333D02*
X111450119Y-121545952D01*
X111497738Y-121593571D01*
X111545357Y-121545952D01*
X111497738Y-121498333D01*
X111497738Y-121593571D01*
X110307261Y-121212619D02*
X110259642Y-121165000D01*
X110164404Y-121117380D01*
X109926309Y-121117380D01*
X109831071Y-121165000D01*
X109783452Y-121212619D01*
X109735833Y-121307857D01*
X109735833Y-121403095D01*
X109783452Y-121545952D01*
X110354880Y-122117380D01*
X109735833Y-122117380D01*
X108831071Y-121117380D02*
X109307261Y-121117380D01*
X109354880Y-121593571D01*
X109307261Y-121545952D01*
X109212023Y-121498333D01*
X108973928Y-121498333D01*
X108878690Y-121545952D01*
X108831071Y-121593571D01*
X108783452Y-121688809D01*
X108783452Y-121926904D01*
X108831071Y-122022142D01*
X108878690Y-122069761D01*
X108973928Y-122117380D01*
X109212023Y-122117380D01*
X109307261Y-122069761D01*
X109354880Y-122022142D01*
X121382285Y-140311285D02*
X121382285Y-140775571D01*
X121668000Y-140525571D01*
X121668000Y-140632714D01*
X121703714Y-140704142D01*
X121739428Y-140739857D01*
X121810857Y-140775571D01*
X121989428Y-140775571D01*
X122060857Y-140739857D01*
X122096571Y-140704142D01*
X122132285Y-140632714D01*
X122132285Y-140418428D01*
X122096571Y-140347000D01*
X122060857Y-140311285D01*
X122060857Y-141097000D02*
X122096571Y-141132714D01*
X122132285Y-141097000D01*
X122096571Y-141061285D01*
X122060857Y-141097000D01*
X122132285Y-141097000D01*
X121382285Y-141382714D02*
X121382285Y-141847000D01*
X121668000Y-141597000D01*
X121668000Y-141704142D01*
X121703714Y-141775571D01*
X121739428Y-141811285D01*
X121810857Y-141847000D01*
X121989428Y-141847000D01*
X122060857Y-141811285D01*
X122096571Y-141775571D01*
X122132285Y-141704142D01*
X122132285Y-141489857D01*
X122096571Y-141418428D01*
X122060857Y-141382714D01*
X121703714Y-135945571D02*
X121668000Y-135874142D01*
X121632285Y-135838428D01*
X121560857Y-135802714D01*
X121525142Y-135802714D01*
X121453714Y-135838428D01*
X121418000Y-135874142D01*
X121382285Y-135945571D01*
X121382285Y-136088428D01*
X121418000Y-136159857D01*
X121453714Y-136195571D01*
X121525142Y-136231285D01*
X121560857Y-136231285D01*
X121632285Y-136195571D01*
X121668000Y-136159857D01*
X121703714Y-136088428D01*
X121703714Y-135945571D01*
X121739428Y-135874142D01*
X121775142Y-135838428D01*
X121846571Y-135802714D01*
X121989428Y-135802714D01*
X122060857Y-135838428D01*
X122096571Y-135874142D01*
X122132285Y-135945571D01*
X122132285Y-136088428D01*
X122096571Y-136159857D01*
X122060857Y-136195571D01*
X121989428Y-136231285D01*
X121846571Y-136231285D01*
X121775142Y-136195571D01*
X121739428Y-136159857D01*
X121703714Y-136088428D01*
X121703714Y-138199857D02*
X121703714Y-138914142D01*
X121918000Y-138342714D02*
X121918000Y-138771285D01*
X121382285Y-138557000D02*
X121703714Y-138557000D01*
X122132285Y-138628428D02*
X122132285Y-138485571D01*
X121453714Y-132905571D02*
X121418000Y-132941285D01*
X121382285Y-133012714D01*
X121382285Y-133191285D01*
X121418000Y-133262714D01*
X121453714Y-133298428D01*
X121525142Y-133334142D01*
X121596571Y-133334142D01*
X121703714Y-133298428D01*
X122132285Y-132869857D01*
X122132285Y-133334142D01*
X121382285Y-133977000D02*
X121382285Y-133834142D01*
X121418000Y-133762714D01*
X121453714Y-133727000D01*
X121560857Y-133655571D01*
X121703714Y-133619857D01*
X121989428Y-133619857D01*
X122060857Y-133655571D01*
X122096571Y-133691285D01*
X122132285Y-133762714D01*
X122132285Y-133905571D01*
X122096571Y-133977000D01*
X122060857Y-134012714D01*
X121989428Y-134048428D01*
X121810857Y-134048428D01*
X121739428Y-134012714D01*
X121703714Y-133977000D01*
X121668000Y-133905571D01*
X121668000Y-133762714D01*
X121703714Y-133691285D01*
X121739428Y-133655571D01*
X121810857Y-133619857D01*
X121453714Y-130365571D02*
X121418000Y-130401285D01*
X121382285Y-130472714D01*
X121382285Y-130651285D01*
X121418000Y-130722714D01*
X121453714Y-130758428D01*
X121525142Y-130794142D01*
X121596571Y-130794142D01*
X121703714Y-130758428D01*
X122132285Y-130329857D01*
X122132285Y-130794142D01*
X121382285Y-131044142D02*
X121382285Y-131544142D01*
X122132285Y-131222714D01*
X122132285Y-128254142D02*
X122132285Y-127825571D01*
X122132285Y-128039857D02*
X121382285Y-128039857D01*
X121489428Y-127968428D01*
X121560857Y-127897000D01*
X121596571Y-127825571D01*
X121632285Y-128897000D02*
X122132285Y-128897000D01*
X121346571Y-128718428D02*
X121882285Y-128539857D01*
X121882285Y-129004142D01*
X122132285Y-125714142D02*
X122132285Y-125285571D01*
X122132285Y-125499857D02*
X121382285Y-125499857D01*
X121489428Y-125428428D01*
X121560857Y-125357000D01*
X121596571Y-125285571D01*
X121382285Y-125964142D02*
X121382285Y-126428428D01*
X121668000Y-126178428D01*
X121668000Y-126285571D01*
X121703714Y-126357000D01*
X121739428Y-126392714D01*
X121810857Y-126428428D01*
X121989428Y-126428428D01*
X122060857Y-126392714D01*
X122096571Y-126357000D01*
X122132285Y-126285571D01*
X122132285Y-126071285D01*
X122096571Y-125999857D01*
X122060857Y-125964142D01*
M02*
