%TF.GenerationSoftware,KiCad,Pcbnew,(6.0.2-0)*%
%TF.CreationDate,2022-03-06T18:18:51+00:00*%
%TF.ProjectId,Display,44697370-6c61-4792-9e6b-696361645f70,5*%
%TF.SameCoordinates,Original*%
%TF.FileFunction,Soldermask,Top*%
%TF.FilePolarity,Negative*%
%FSLAX46Y46*%
G04 Gerber Fmt 4.6, Leading zero omitted, Abs format (unit mm)*
G04 Created by KiCad (PCBNEW (6.0.2-0)) date 2022-03-06 18:18:51*
%MOMM*%
%LPD*%
G01*
G04 APERTURE LIST*
G04 Aperture macros list*
%AMRoundRect*
0 Rectangle with rounded corners*
0 $1 Rounding radius*
0 $2 $3 $4 $5 $6 $7 $8 $9 X,Y pos of 4 corners*
0 Add a 4 corners polygon primitive as box body*
4,1,4,$2,$3,$4,$5,$6,$7,$8,$9,$2,$3,0*
0 Add four circle primitives for the rounded corners*
1,1,$1+$1,$2,$3*
1,1,$1+$1,$4,$5*
1,1,$1+$1,$6,$7*
1,1,$1+$1,$8,$9*
0 Add four rect primitives between the rounded corners*
20,1,$1+$1,$2,$3,$4,$5,0*
20,1,$1+$1,$4,$5,$6,$7,0*
20,1,$1+$1,$6,$7,$8,$9,0*
20,1,$1+$1,$8,$9,$2,$3,0*%
%AMOutline5P*
0 Free polygon, 5 corners , with rotation*
0 The origin of the aperture is its center*
0 number of corners: always 5*
0 $1 to $10 corner X, Y*
0 $11 Rotation angle, in degrees counterclockwise*
0 create outline with 5 corners*
4,1,5,$1,$2,$3,$4,$5,$6,$7,$8,$9,$10,$1,$2,$11*%
%AMOutline6P*
0 Free polygon, 6 corners , with rotation*
0 The origin of the aperture is its center*
0 number of corners: always 6*
0 $1 to $12 corner X, Y*
0 $13 Rotation angle, in degrees counterclockwise*
0 create outline with 6 corners*
4,1,6,$1,$2,$3,$4,$5,$6,$7,$8,$9,$10,$11,$12,$1,$2,$13*%
%AMOutline7P*
0 Free polygon, 7 corners , with rotation*
0 The origin of the aperture is its center*
0 number of corners: always 7*
0 $1 to $14 corner X, Y*
0 $15 Rotation angle, in degrees counterclockwise*
0 create outline with 7 corners*
4,1,7,$1,$2,$3,$4,$5,$6,$7,$8,$9,$10,$11,$12,$13,$14,$1,$2,$15*%
%AMOutline8P*
0 Free polygon, 8 corners , with rotation*
0 The origin of the aperture is its center*
0 number of corners: always 8*
0 $1 to $16 corner X, Y*
0 $17 Rotation angle, in degrees counterclockwise*
0 create outline with 8 corners*
4,1,8,$1,$2,$3,$4,$5,$6,$7,$8,$9,$10,$11,$12,$13,$14,$15,$16,$1,$2,$17*%
G04 Aperture macros list end*
%ADD10C,0.450000*%
%ADD11RoundRect,0.062500X-0.287500X-0.062500X0.287500X-0.062500X0.287500X0.062500X-0.287500X0.062500X0*%
%ADD12RoundRect,0.062500X-0.062500X-0.287500X0.062500X-0.287500X0.062500X0.287500X-0.062500X0.287500X0*%
%ADD13Outline5P,-1.000000X0.750000X-0.750000X1.000000X1.000000X1.000000X1.000000X-1.000000X-1.000000X-1.000000X0.000000*%
%ADD14RoundRect,0.200000X0.275000X-0.200000X0.275000X0.200000X-0.275000X0.200000X-0.275000X-0.200000X0*%
%ADD15R,0.850000X0.500000*%
%ADD16RoundRect,0.200000X0.200000X0.275000X-0.200000X0.275000X-0.200000X-0.275000X0.200000X-0.275000X0*%
%ADD17R,0.600000X1.140000*%
%ADD18RoundRect,0.075000X-0.075000X-0.495000X0.075000X-0.495000X0.075000X0.495000X-0.075000X0.495000X0*%
%ADD19C,0.870000*%
%ADD20C,1.250000*%
%ADD21C,1.500000*%
%ADD22R,5.000000X5.490000*%
%ADD23RoundRect,0.200000X-0.200000X-0.275000X0.200000X-0.275000X0.200000X0.275000X-0.200000X0.275000X0*%
%ADD24R,0.800000X0.400000*%
%ADD25R,0.400000X0.800000*%
%ADD26Outline5P,-0.725000X0.130500X-0.130500X0.725000X0.725000X0.725000X0.725000X-0.725000X-0.725000X-0.725000X180.000000*%
%ADD27R,1.450000X1.450000*%
%ADD28R,0.700000X0.700000*%
%ADD29RoundRect,0.250000X0.625000X-0.375000X0.625000X0.375000X-0.625000X0.375000X-0.625000X-0.375000X0*%
%ADD30C,1.700000*%
%ADD31C,5.000000*%
%ADD32RoundRect,0.225000X0.250000X-0.225000X0.250000X0.225000X-0.250000X0.225000X-0.250000X-0.225000X0*%
%ADD33RoundRect,0.249375X-0.463125X-0.625625X0.463125X-0.625625X0.463125X0.625625X-0.463125X0.625625X0*%
%ADD34R,1.425000X3.700000*%
%ADD35R,0.600000X1.100000*%
%ADD36RoundRect,0.250000X-0.475000X0.250000X-0.475000X-0.250000X0.475000X-0.250000X0.475000X0.250000X0*%
%ADD37RoundRect,0.250000X-0.600000X-0.675000X0.600000X-0.675000X0.600000X0.675000X-0.600000X0.675000X0*%
%ADD38O,1.700000X1.850000*%
%ADD39RoundRect,0.500000X0.000000X0.750000X0.000000X-0.750000X0.000000X-0.750000X0.000000X0.750000X0*%
%ADD40R,2.250000X1.500000*%
G04 APERTURE END LIST*
D10*
%TO.C,Logo2*%
X109400000Y-123500000D02*
X106400000Y-127700000D01*
X111200000Y-123600000D02*
X109400000Y-125600000D01*
X109400000Y-125600000D02*
X107900000Y-125600000D01*
X109400000Y-123500000D02*
X109400000Y-127700000D01*
X109400000Y-125600000D02*
X111200000Y-127700000D01*
X107900000Y-127700000D02*
G75*
G03*
X109400000Y-127700000I750000J0D01*
G01*
%TD*%
D11*
%TO.C,U3*%
X85850000Y-135350000D03*
X85850000Y-135850000D03*
X85850000Y-136350000D03*
X85850000Y-136850000D03*
X85850000Y-137350000D03*
D12*
X86750000Y-138250000D03*
X87250000Y-138250000D03*
X87750000Y-138250000D03*
X88250000Y-138250000D03*
X88750000Y-138250000D03*
D11*
X89650000Y-137350000D03*
X89650000Y-136850000D03*
X89650000Y-136350000D03*
X89650000Y-135850000D03*
X89650000Y-135350000D03*
D12*
X88750000Y-134450000D03*
X88250000Y-134450000D03*
X87750000Y-134450000D03*
X87250000Y-134450000D03*
X86750000Y-134450000D03*
D13*
X87750000Y-136350000D03*
%TD*%
D14*
%TO.C,R1*%
X117500000Y-141075000D03*
X117500000Y-139425000D03*
%TD*%
%TO.C,R5*%
X87250000Y-142075000D03*
X87250000Y-140425000D03*
%TD*%
D15*
%TO.C,D2*%
X84625000Y-116000000D03*
X86375000Y-116000000D03*
X86375000Y-117000000D03*
X84625000Y-117000000D03*
%TD*%
D16*
%TO.C,R3*%
X91325000Y-143750000D03*
X89675000Y-143750000D03*
%TD*%
D14*
%TO.C,R4*%
X88500000Y-142075000D03*
X88500000Y-140425000D03*
%TD*%
D17*
%TO.C,J2*%
X84800000Y-145140000D03*
X85600000Y-145140000D03*
D18*
X86750000Y-145140000D03*
X87750000Y-145140000D03*
X88250000Y-145140000D03*
X89250000Y-145140000D03*
D17*
X91200000Y-145140000D03*
X90400000Y-145140000D03*
D18*
X89750000Y-145140000D03*
X88750000Y-145140000D03*
X87250000Y-145140000D03*
X86250000Y-145140000D03*
D19*
X90890000Y-146210000D03*
D20*
X92320000Y-149890000D03*
D21*
X83680000Y-145720000D03*
D22*
X88000000Y-149255000D03*
D21*
X92320000Y-145720000D03*
D19*
X85110000Y-146210000D03*
D20*
X83680000Y-149890000D03*
%TD*%
D23*
%TO.C,R10*%
X84675000Y-119750000D03*
X86325000Y-119750000D03*
%TD*%
D24*
%TO.C,U2*%
X115650000Y-145056750D03*
X115650000Y-144256750D03*
X115650000Y-143456750D03*
X115650000Y-142656750D03*
X115650000Y-141856750D03*
X115650000Y-141056750D03*
X115650000Y-140256750D03*
X115650000Y-139456750D03*
X115650000Y-138656750D03*
X115650000Y-137856750D03*
X115650000Y-137056750D03*
D25*
X114550000Y-136156750D03*
X113750000Y-136156750D03*
X112950000Y-136156750D03*
X112150000Y-136156750D03*
X111350000Y-136156750D03*
X110550000Y-136156750D03*
X109750000Y-136156750D03*
X108950000Y-136156750D03*
X108150000Y-136156750D03*
X107350000Y-136156750D03*
X106550000Y-136156750D03*
X105750000Y-136156750D03*
X104950000Y-136156750D03*
D24*
X103850000Y-137056750D03*
X103850000Y-137856750D03*
X103850000Y-138656750D03*
X103850000Y-139456750D03*
X103850000Y-140256750D03*
X103850000Y-141056750D03*
X103850000Y-141856750D03*
X103850000Y-142656750D03*
X103850000Y-143456750D03*
X103850000Y-144256750D03*
X103850000Y-145056750D03*
D25*
X104950000Y-145956750D03*
X105750000Y-145956750D03*
X106550000Y-145956750D03*
X107350000Y-145956750D03*
X108150000Y-145956750D03*
X108950000Y-145956750D03*
X109750000Y-145956750D03*
X110550000Y-145956750D03*
X111350000Y-145956750D03*
X112150000Y-145956750D03*
X112950000Y-145956750D03*
X113750000Y-145956750D03*
X114550000Y-145956750D03*
D26*
X111725000Y-143031750D03*
D27*
X111725000Y-139081750D03*
X107775000Y-139081750D03*
X111725000Y-141056750D03*
X109750000Y-143031750D03*
X109750000Y-139081750D03*
X107775000Y-143031750D03*
X107775000Y-141056750D03*
X109750000Y-141056750D03*
D28*
X103800000Y-146006750D03*
X103800000Y-136106750D03*
X115700000Y-136106750D03*
X115700000Y-146006750D03*
%TD*%
D29*
%TO.C,D1*%
X99250000Y-142900000D03*
X99250000Y-140100000D03*
%TD*%
D23*
%TO.C,R7*%
X94425000Y-141000000D03*
X96075000Y-141000000D03*
%TD*%
%TO.C,R9*%
X84675000Y-118500000D03*
X86325000Y-118500000D03*
%TD*%
D30*
%TO.C,M1*%
X120000000Y-141120000D03*
X120000000Y-138580000D03*
X120000000Y-136040000D03*
X120000000Y-133500000D03*
X120000000Y-130960000D03*
X120000000Y-128420000D03*
X120000000Y-125880000D03*
D31*
X80500000Y-149500000D03*
X120000000Y-149500000D03*
X80500000Y-117500000D03*
X120000000Y-117500000D03*
%TD*%
D32*
%TO.C,U4*%
X95950000Y-128925000D03*
D33*
X98847500Y-131070000D03*
D34*
X100450000Y-127950000D03*
D35*
X99000000Y-129250000D03*
D32*
X95950000Y-127375000D03*
D35*
X99000000Y-126550000D03*
X97100000Y-129250000D03*
D36*
X97200000Y-130500000D03*
D35*
X98050000Y-129250000D03*
D36*
X103450000Y-132400000D03*
X97200000Y-132400000D03*
D33*
X101812500Y-131070000D03*
D35*
X98050000Y-126550000D03*
D36*
X103450000Y-130500000D03*
D34*
X103450000Y-127950000D03*
D35*
X97100000Y-126550000D03*
%TD*%
D23*
%TO.C,R12*%
X95925000Y-124400000D03*
X97575000Y-124400000D03*
%TD*%
%TO.C,R6*%
X91675000Y-141000000D03*
X93325000Y-141000000D03*
%TD*%
%TO.C,R11*%
X84675000Y-121000000D03*
X86325000Y-121000000D03*
%TD*%
D14*
%TO.C,C1*%
X91500000Y-137275000D03*
X91500000Y-135725000D03*
%TD*%
D16*
%TO.C,R2*%
X86325000Y-143750000D03*
X84675000Y-143750000D03*
%TD*%
D37*
%TO.C,J1*%
X95250000Y-145400000D03*
D38*
X97750000Y-145400000D03*
%TD*%
D39*
%TO.C,U1*%
X93450000Y-107950000D03*
D40*
X92825000Y-107450000D03*
D39*
X95990000Y-107950000D03*
X98530000Y-107950000D03*
X101070000Y-107950000D03*
X103610000Y-107950000D03*
X106150000Y-107950000D03*
X106150000Y-92450000D03*
X103610000Y-92450000D03*
X101070000Y-92450000D03*
X98530000Y-92450000D03*
X95990000Y-92450000D03*
X93450000Y-92450000D03*
%TD*%
D16*
%TO.C,R8*%
X100325000Y-124400000D03*
X98675000Y-124400000D03*
%TD*%
M02*
