%TF.GenerationSoftware,KiCad,Pcbnew,(6.0.2-0)*%
%TF.CreationDate,2022-03-06T08:48:50+00:00*%
%TF.ProjectId,L86,4c38362e-6b69-4636-9164-5f7063625858,rev?*%
%TF.SameCoordinates,Original*%
%TF.FileFunction,Copper,L1,Top*%
%TF.FilePolarity,Positive*%
%FSLAX46Y46*%
G04 Gerber Fmt 4.6, Leading zero omitted, Abs format (unit mm)*
G04 Created by KiCad (PCBNEW (6.0.2-0)) date 2022-03-06 08:48:50*
%MOMM*%
%LPD*%
G01*
G04 APERTURE LIST*
G04 Aperture macros list*
%AMRoundRect*
0 Rectangle with rounded corners*
0 $1 Rounding radius*
0 $2 $3 $4 $5 $6 $7 $8 $9 X,Y pos of 4 corners*
0 Add a 4 corners polygon primitive as box body*
4,1,4,$2,$3,$4,$5,$6,$7,$8,$9,$2,$3,0*
0 Add four circle primitives for the rounded corners*
1,1,$1+$1,$2,$3*
1,1,$1+$1,$4,$5*
1,1,$1+$1,$6,$7*
1,1,$1+$1,$8,$9*
0 Add four rect primitives between the rounded corners*
20,1,$1+$1,$2,$3,$4,$5,0*
20,1,$1+$1,$4,$5,$6,$7,0*
20,1,$1+$1,$6,$7,$8,$9,0*
20,1,$1+$1,$8,$9,$2,$3,0*%
G04 Aperture macros list end*
%TA.AperFunction,ComponentPad*%
%ADD10RoundRect,0.250000X0.675000X-0.600000X0.675000X0.600000X-0.675000X0.600000X-0.675000X-0.600000X0*%
%TD*%
%TA.AperFunction,ComponentPad*%
%ADD11O,1.850000X1.700000*%
%TD*%
%TA.AperFunction,SMDPad,CuDef*%
%ADD12RoundRect,0.500000X-0.750000X0.000000X0.750000X0.000000X0.750000X0.000000X-0.750000X0.000000X0*%
%TD*%
%TA.AperFunction,ViaPad*%
%ADD13C,0.800000*%
%TD*%
%TA.AperFunction,Conductor*%
%ADD14C,0.250000*%
%TD*%
G04 APERTURE END LIST*
D10*
%TO.P,J1,1,Pin_1*%
%TO.N,Net-(J1-Pad1)*%
X116900000Y-106250000D03*
D11*
%TO.P,J1,2,Pin_2*%
%TO.N,Net-(J1-Pad2)*%
X116900000Y-103750000D03*
%TO.P,J1,3,Pin_3*%
%TO.N,GND*%
X116900000Y-101250000D03*
%TO.P,J1,4,Pin_4*%
%TO.N,Net-(J1-Pad4)*%
X116900000Y-98750000D03*
%TO.P,J1,5,Pin_5*%
%TO.N,Net-(J1-Pad5)*%
X116900000Y-96250000D03*
%TO.P,J1,6,Pin_6*%
%TO.N,Net-(J1-Pad6)*%
X116900000Y-93750000D03*
%TD*%
D12*
%TO.P,U1,1,RXD1*%
%TO.N,Net-(J1-Pad1)*%
X107950000Y-106550000D03*
%TO.P,U1,2,TXD1*%
%TO.N,Net-(J1-Pad2)*%
X107950000Y-104010000D03*
%TO.P,U1,3,GND*%
%TO.N,GND*%
X107950000Y-101470000D03*
%TO.P,U1,4,VCC*%
%TO.N,Net-(J1-Pad4)*%
X107950000Y-98930000D03*
%TO.P,U1,5,V_BKCP*%
%TO.N,Net-(J1-Pad5)*%
X107950000Y-96390000D03*
%TO.P,U1,6,1PPS*%
%TO.N,Net-(J1-Pad6)*%
X107950000Y-93850000D03*
%TO.P,U1,7,FORCE_ON*%
%TO.N,unconnected-(U1-Pad7)*%
X92450000Y-93850000D03*
%TO.P,U1,8,AADET_N*%
%TO.N,unconnected-(U1-Pad8)*%
X92450000Y-96390000D03*
%TO.P,U1,9,NC*%
%TO.N,unconnected-(U1-Pad9)*%
X92450000Y-98930000D03*
%TO.P,U1,10,RESET*%
%TO.N,unconnected-(U1-Pad10)*%
X92450000Y-101470000D03*
%TO.P,U1,11,EX_ANT*%
%TO.N,unconnected-(U1-Pad11)*%
X92450000Y-104010000D03*
%TO.P,U1,12,GND*%
%TO.N,unconnected-(U1-Pad12)*%
X92450000Y-106550000D03*
%TD*%
D13*
%TO.N,Net-(J1-Pad1)*%
X106000000Y-106250000D03*
%TO.N,Net-(J1-Pad2)*%
X106000000Y-103750000D03*
%TO.N,Net-(J1-Pad4)*%
X106000000Y-98750000D03*
%TO.N,Net-(J1-Pad5)*%
X106000000Y-96250000D03*
%TO.N,Net-(J1-Pad6)*%
X106000000Y-93750000D03*
%TD*%
D14*
%TO.N,Net-(J1-Pad1)*%
X106000000Y-106250000D02*
X107650000Y-106250000D01*
X107650000Y-106250000D02*
X107950000Y-106550000D01*
%TO.N,Net-(J1-Pad2)*%
X106000000Y-103750000D02*
X107690000Y-103750000D01*
X107690000Y-103750000D02*
X107950000Y-104010000D01*
%TO.N,Net-(J1-Pad4)*%
X107770000Y-98750000D02*
X107950000Y-98930000D01*
X106000000Y-98750000D02*
X107770000Y-98750000D01*
%TO.N,Net-(J1-Pad5)*%
X106000000Y-96250000D02*
X107810000Y-96250000D01*
X107810000Y-96250000D02*
X107950000Y-96390000D01*
%TO.N,Net-(J1-Pad6)*%
X106000000Y-93750000D02*
X107850000Y-93750000D01*
X107850000Y-93750000D02*
X107950000Y-93850000D01*
%TD*%
%TA.AperFunction,Conductor*%
%TO.N,GND*%
G36*
X112987153Y-85256421D02*
G01*
X113000000Y-85258976D01*
X113012171Y-85256555D01*
X113024581Y-85256555D01*
X113024581Y-85257198D01*
X113035326Y-85256527D01*
X113239491Y-85271129D01*
X113257285Y-85273687D01*
X113483101Y-85322810D01*
X113500350Y-85327875D01*
X113583148Y-85358757D01*
X113716877Y-85408635D01*
X113733226Y-85416102D01*
X113936049Y-85526852D01*
X113951173Y-85536571D01*
X114136176Y-85675063D01*
X114149762Y-85686836D01*
X114313164Y-85850238D01*
X114324937Y-85863824D01*
X114463429Y-86048827D01*
X114473148Y-86063951D01*
X114583898Y-86266774D01*
X114591367Y-86283127D01*
X114672125Y-86499650D01*
X114677190Y-86516899D01*
X114726313Y-86742715D01*
X114728871Y-86760509D01*
X114743473Y-86964674D01*
X114742802Y-86975419D01*
X114743445Y-86975419D01*
X114743445Y-86987829D01*
X114741024Y-87000000D01*
X114743445Y-87012170D01*
X114743579Y-87012844D01*
X114746000Y-87037425D01*
X114746000Y-90962575D01*
X114743579Y-90987153D01*
X114741024Y-91000000D01*
X114746000Y-91025017D01*
X114760737Y-91099106D01*
X114816876Y-91183124D01*
X114900894Y-91239263D01*
X115000000Y-91258976D01*
X115012847Y-91256421D01*
X115037425Y-91254000D01*
X123120000Y-91254000D01*
X123188121Y-91274002D01*
X123234614Y-91327658D01*
X123246000Y-91380000D01*
X123246000Y-108620000D01*
X123225998Y-108688121D01*
X123172342Y-108734614D01*
X123120000Y-108746000D01*
X115037425Y-108746000D01*
X115012847Y-108743579D01*
X115000000Y-108741024D01*
X114987828Y-108743445D01*
X114974983Y-108746000D01*
X114900894Y-108760737D01*
X114816876Y-108816876D01*
X114760737Y-108900894D01*
X114741024Y-109000000D01*
X114743445Y-109012170D01*
X114743579Y-109012844D01*
X114746000Y-109037425D01*
X114746000Y-112962575D01*
X114743579Y-112987153D01*
X114741024Y-113000000D01*
X114743445Y-113012171D01*
X114743445Y-113024581D01*
X114742802Y-113024581D01*
X114743473Y-113035326D01*
X114728871Y-113239491D01*
X114726313Y-113257285D01*
X114677190Y-113483101D01*
X114672125Y-113500350D01*
X114591367Y-113716873D01*
X114583898Y-113733226D01*
X114473148Y-113936049D01*
X114463429Y-113951173D01*
X114324937Y-114136176D01*
X114313164Y-114149762D01*
X114149762Y-114313164D01*
X114136176Y-114324937D01*
X113951173Y-114463429D01*
X113936049Y-114473148D01*
X113733226Y-114583898D01*
X113716877Y-114591365D01*
X113583148Y-114641243D01*
X113500350Y-114672125D01*
X113483101Y-114677190D01*
X113257285Y-114726313D01*
X113239491Y-114728871D01*
X113035326Y-114743473D01*
X113024581Y-114742802D01*
X113024581Y-114743445D01*
X113012171Y-114743445D01*
X113000000Y-114741024D01*
X112987153Y-114743579D01*
X112962575Y-114746000D01*
X87037425Y-114746000D01*
X87012847Y-114743579D01*
X87000000Y-114741024D01*
X86987829Y-114743445D01*
X86975419Y-114743445D01*
X86975419Y-114742802D01*
X86964674Y-114743473D01*
X86760509Y-114728871D01*
X86742715Y-114726313D01*
X86516899Y-114677190D01*
X86499650Y-114672125D01*
X86416852Y-114641243D01*
X86283123Y-114591365D01*
X86266774Y-114583898D01*
X86063951Y-114473148D01*
X86048827Y-114463429D01*
X85863824Y-114324937D01*
X85850238Y-114313164D01*
X85686836Y-114149762D01*
X85675063Y-114136176D01*
X85536571Y-113951173D01*
X85526852Y-113936049D01*
X85416102Y-113733226D01*
X85408633Y-113716873D01*
X85327875Y-113500350D01*
X85322810Y-113483101D01*
X85273687Y-113257285D01*
X85271129Y-113239491D01*
X85256527Y-113035326D01*
X85257198Y-113024581D01*
X85256555Y-113024581D01*
X85256555Y-113012171D01*
X85258976Y-113000000D01*
X85256421Y-112987153D01*
X85254000Y-112962575D01*
X85254000Y-107950000D01*
X99700000Y-107950000D01*
X101950000Y-107950000D01*
X101950000Y-106700000D01*
X99700000Y-106700000D01*
X99700000Y-107950000D01*
X85254000Y-107950000D01*
X85254000Y-106600128D01*
X90945500Y-106600128D01*
X90945837Y-106603374D01*
X90945837Y-106603378D01*
X90954402Y-106685919D01*
X90956417Y-106705343D01*
X90958598Y-106711879D01*
X90958598Y-106711881D01*
X90985008Y-106791042D01*
X91012097Y-106872237D01*
X91047380Y-106929253D01*
X91061207Y-106951597D01*
X91104678Y-107021846D01*
X91229194Y-107146144D01*
X91378964Y-107238464D01*
X91385912Y-107240769D01*
X91385913Y-107240769D01*
X91539424Y-107291687D01*
X91539426Y-107291687D01*
X91545955Y-107293853D01*
X91649872Y-107304500D01*
X93250128Y-107304500D01*
X93253374Y-107304163D01*
X93253378Y-107304163D01*
X93348485Y-107294295D01*
X93348489Y-107294294D01*
X93355343Y-107293583D01*
X93361879Y-107291402D01*
X93361881Y-107291402D01*
X93500257Y-107245236D01*
X93522237Y-107237903D01*
X93579253Y-107202620D01*
X93665620Y-107149175D01*
X93665621Y-107149174D01*
X93671846Y-107145322D01*
X93796144Y-107020806D01*
X93888464Y-106871036D01*
X93908381Y-106810989D01*
X93941687Y-106710576D01*
X93941687Y-106710574D01*
X93943853Y-106704045D01*
X93954500Y-106600128D01*
X93954500Y-106499872D01*
X93943583Y-106394657D01*
X93893018Y-106243096D01*
X105340729Y-106243096D01*
X105358113Y-106400553D01*
X105360723Y-106407684D01*
X105360723Y-106407686D01*
X105395636Y-106503090D01*
X105412553Y-106549319D01*
X105416789Y-106555622D01*
X105416789Y-106555623D01*
X105444534Y-106596911D01*
X105500908Y-106680805D01*
X105506527Y-106685918D01*
X105506528Y-106685919D01*
X105526921Y-106704475D01*
X105618076Y-106787419D01*
X105757293Y-106863008D01*
X105910522Y-106903207D01*
X105994477Y-106904526D01*
X106061319Y-106905576D01*
X106061322Y-106905576D01*
X106068916Y-106905695D01*
X106223332Y-106870329D01*
X106341317Y-106810989D01*
X106411163Y-106798251D01*
X106476807Y-106825295D01*
X106510906Y-106868667D01*
X106512097Y-106872237D01*
X106515951Y-106878465D01*
X106561207Y-106951597D01*
X106604678Y-107021846D01*
X106729194Y-107146144D01*
X106878964Y-107238464D01*
X106885912Y-107240769D01*
X106885913Y-107240769D01*
X107039424Y-107291687D01*
X107039426Y-107291687D01*
X107045955Y-107293853D01*
X107149872Y-107304500D01*
X108750128Y-107304500D01*
X108753374Y-107304163D01*
X108753378Y-107304163D01*
X108848485Y-107294295D01*
X108848489Y-107294294D01*
X108855343Y-107293583D01*
X108861879Y-107291402D01*
X108861881Y-107291402D01*
X109000257Y-107245236D01*
X109022237Y-107237903D01*
X109079253Y-107202620D01*
X109165620Y-107149175D01*
X109165621Y-107149174D01*
X109171846Y-107145322D01*
X109296144Y-107020806D01*
X109371993Y-106897756D01*
X115720500Y-106897756D01*
X115720869Y-106901152D01*
X115720869Y-106901153D01*
X115721350Y-106905576D01*
X115727202Y-106959448D01*
X115777929Y-107094764D01*
X115783309Y-107101943D01*
X115783311Y-107101946D01*
X115819314Y-107149984D01*
X115864596Y-107210404D01*
X115871776Y-107215785D01*
X115973054Y-107291689D01*
X115973057Y-107291691D01*
X115980236Y-107297071D01*
X116069954Y-107330704D01*
X116108157Y-107345026D01*
X116108159Y-107345026D01*
X116115552Y-107347798D01*
X116123402Y-107348651D01*
X116123403Y-107348651D01*
X116173847Y-107354131D01*
X116177244Y-107354500D01*
X117622756Y-107354500D01*
X117626153Y-107354131D01*
X117676597Y-107348651D01*
X117676598Y-107348651D01*
X117684448Y-107347798D01*
X117691841Y-107345026D01*
X117691843Y-107345026D01*
X117730046Y-107330704D01*
X117819764Y-107297071D01*
X117826943Y-107291691D01*
X117826946Y-107291689D01*
X117928224Y-107215785D01*
X117935404Y-107210404D01*
X117980686Y-107149984D01*
X118016689Y-107101946D01*
X118016691Y-107101943D01*
X118022071Y-107094764D01*
X118072798Y-106959448D01*
X118078651Y-106905576D01*
X118079131Y-106901153D01*
X118079131Y-106901152D01*
X118079500Y-106897756D01*
X118079500Y-105602244D01*
X118072798Y-105540552D01*
X118022071Y-105405236D01*
X118016691Y-105398057D01*
X118016689Y-105398054D01*
X117940785Y-105296776D01*
X117935404Y-105289596D01*
X117914977Y-105274287D01*
X117826946Y-105208311D01*
X117826943Y-105208309D01*
X117819764Y-105202929D01*
X117730046Y-105169296D01*
X117691843Y-105154974D01*
X117691841Y-105154974D01*
X117684448Y-105152202D01*
X117676598Y-105151349D01*
X117676597Y-105151349D01*
X117626153Y-105145869D01*
X117626152Y-105145869D01*
X117622756Y-105145500D01*
X116177244Y-105145500D01*
X116173848Y-105145869D01*
X116173847Y-105145869D01*
X116123403Y-105151349D01*
X116123402Y-105151349D01*
X116115552Y-105152202D01*
X116108159Y-105154974D01*
X116108157Y-105154974D01*
X116069954Y-105169296D01*
X115980236Y-105202929D01*
X115973057Y-105208309D01*
X115973054Y-105208311D01*
X115885023Y-105274287D01*
X115864596Y-105289596D01*
X115859215Y-105296776D01*
X115783311Y-105398054D01*
X115783309Y-105398057D01*
X115777929Y-105405236D01*
X115727202Y-105540552D01*
X115720500Y-105602244D01*
X115720500Y-106897756D01*
X109371993Y-106897756D01*
X109388464Y-106871036D01*
X109408381Y-106810989D01*
X109441687Y-106710576D01*
X109441687Y-106710574D01*
X109443853Y-106704045D01*
X109454500Y-106600128D01*
X109454500Y-106499872D01*
X109443583Y-106394657D01*
X109387903Y-106227763D01*
X109352620Y-106170747D01*
X109299175Y-106084380D01*
X109299174Y-106084379D01*
X109295322Y-106078154D01*
X109170806Y-105953856D01*
X109021036Y-105861536D01*
X108913746Y-105825949D01*
X108860576Y-105808313D01*
X108860574Y-105808313D01*
X108854045Y-105806147D01*
X108750128Y-105795500D01*
X107149872Y-105795500D01*
X107146626Y-105795837D01*
X107146622Y-105795837D01*
X107051515Y-105805705D01*
X107051511Y-105805706D01*
X107044657Y-105806417D01*
X107038121Y-105808598D01*
X107038119Y-105808598D01*
X106877763Y-105862097D01*
X106877331Y-105860802D01*
X106833774Y-105870500D01*
X106599682Y-105870500D01*
X106531561Y-105850498D01*
X106505114Y-105824860D01*
X106503878Y-105825949D01*
X106498855Y-105820251D01*
X106494553Y-105813992D01*
X106376275Y-105708611D01*
X106368889Y-105704700D01*
X106242988Y-105638039D01*
X106242989Y-105638039D01*
X106236274Y-105634484D01*
X106082633Y-105595892D01*
X106075034Y-105595852D01*
X106075033Y-105595852D01*
X106009181Y-105595507D01*
X105924221Y-105595062D01*
X105916841Y-105596834D01*
X105916839Y-105596834D01*
X105777563Y-105630271D01*
X105777560Y-105630272D01*
X105770184Y-105632043D01*
X105629414Y-105704700D01*
X105510039Y-105808838D01*
X105418950Y-105938444D01*
X105361406Y-106086037D01*
X105360414Y-106093570D01*
X105360414Y-106093571D01*
X105341833Y-106234711D01*
X105340729Y-106243096D01*
X93893018Y-106243096D01*
X93887903Y-106227763D01*
X93852620Y-106170747D01*
X93799175Y-106084380D01*
X93799174Y-106084379D01*
X93795322Y-106078154D01*
X93670806Y-105953856D01*
X93521036Y-105861536D01*
X93413746Y-105825949D01*
X93360576Y-105808313D01*
X93360574Y-105808313D01*
X93354045Y-105806147D01*
X93250128Y-105795500D01*
X91649872Y-105795500D01*
X91646626Y-105795837D01*
X91646622Y-105795837D01*
X91551515Y-105805705D01*
X91551511Y-105805706D01*
X91544657Y-105806417D01*
X91538121Y-105808598D01*
X91538119Y-105808598D01*
X91489376Y-105824860D01*
X91377763Y-105862097D01*
X91371531Y-105865953D01*
X91371532Y-105865953D01*
X91235688Y-105950016D01*
X91228154Y-105954678D01*
X91103856Y-106079194D01*
X91011536Y-106228964D01*
X91009231Y-106235912D01*
X91009231Y-106235913D01*
X91006849Y-106243096D01*
X90956147Y-106395955D01*
X90945500Y-106499872D01*
X90945500Y-106600128D01*
X85254000Y-106600128D01*
X85254000Y-104060128D01*
X90945500Y-104060128D01*
X90945837Y-104063374D01*
X90945837Y-104063378D01*
X90951369Y-104116688D01*
X90956417Y-104165343D01*
X90958598Y-104171879D01*
X90958598Y-104171881D01*
X90971941Y-104211874D01*
X91012097Y-104332237D01*
X91104678Y-104481846D01*
X91229194Y-104606144D01*
X91378964Y-104698464D01*
X91385912Y-104700769D01*
X91385913Y-104700769D01*
X91539424Y-104751687D01*
X91539426Y-104751687D01*
X91545955Y-104753853D01*
X91649872Y-104764500D01*
X93250128Y-104764500D01*
X93253374Y-104764163D01*
X93253378Y-104764163D01*
X93348485Y-104754295D01*
X93348489Y-104754294D01*
X93355343Y-104753583D01*
X93361879Y-104751402D01*
X93361881Y-104751402D01*
X93500257Y-104705236D01*
X93522237Y-104697903D01*
X93641697Y-104623979D01*
X93665620Y-104609175D01*
X93665621Y-104609174D01*
X93671846Y-104605322D01*
X93796144Y-104480806D01*
X93888464Y-104331036D01*
X93893231Y-104316665D01*
X93941687Y-104170576D01*
X93941687Y-104170574D01*
X93943853Y-104164045D01*
X93954500Y-104060128D01*
X93954500Y-103959872D01*
X93954163Y-103956622D01*
X93944295Y-103861515D01*
X93944294Y-103861511D01*
X93943583Y-103854657D01*
X93906364Y-103743096D01*
X105340729Y-103743096D01*
X105358113Y-103900553D01*
X105360723Y-103907684D01*
X105360723Y-103907686D01*
X105401254Y-104018442D01*
X105412553Y-104049319D01*
X105416789Y-104055622D01*
X105416789Y-104055623D01*
X105485910Y-104158485D01*
X105500908Y-104180805D01*
X105506527Y-104185918D01*
X105506528Y-104185919D01*
X105540763Y-104217070D01*
X105618076Y-104287419D01*
X105757293Y-104363008D01*
X105910522Y-104403207D01*
X105994477Y-104404526D01*
X106061319Y-104405576D01*
X106061322Y-104405576D01*
X106068916Y-104405695D01*
X106223332Y-104370329D01*
X106330032Y-104316665D01*
X106358477Y-104302359D01*
X106428322Y-104289621D01*
X106493966Y-104316665D01*
X106522235Y-104348621D01*
X106557554Y-104405695D01*
X106604678Y-104481846D01*
X106729194Y-104606144D01*
X106878964Y-104698464D01*
X106885912Y-104700769D01*
X106885913Y-104700769D01*
X107039424Y-104751687D01*
X107039426Y-104751687D01*
X107045955Y-104753853D01*
X107149872Y-104764500D01*
X108750128Y-104764500D01*
X108753374Y-104764163D01*
X108753378Y-104764163D01*
X108848485Y-104754295D01*
X108848489Y-104754294D01*
X108855343Y-104753583D01*
X108861879Y-104751402D01*
X108861881Y-104751402D01*
X109000257Y-104705236D01*
X109022237Y-104697903D01*
X109141697Y-104623979D01*
X109165620Y-104609175D01*
X109165621Y-104609174D01*
X109171846Y-104605322D01*
X109296144Y-104480806D01*
X109388464Y-104331036D01*
X109393231Y-104316665D01*
X109441687Y-104170576D01*
X109441687Y-104170574D01*
X109443853Y-104164045D01*
X109454500Y-104060128D01*
X109454500Y-103959872D01*
X109454163Y-103956622D01*
X109444295Y-103861515D01*
X109444294Y-103861511D01*
X109443583Y-103854657D01*
X109406364Y-103743096D01*
X109390221Y-103694711D01*
X109387903Y-103687763D01*
X109295322Y-103538154D01*
X109170806Y-103413856D01*
X109021036Y-103321536D01*
X108967703Y-103303846D01*
X108860576Y-103268313D01*
X108860574Y-103268313D01*
X108854045Y-103266147D01*
X108750128Y-103255500D01*
X107149872Y-103255500D01*
X107146626Y-103255837D01*
X107146622Y-103255837D01*
X107051515Y-103265705D01*
X107051511Y-103265706D01*
X107044657Y-103266417D01*
X107038121Y-103268598D01*
X107038119Y-103268598D01*
X106902057Y-103313992D01*
X106877763Y-103322097D01*
X106871535Y-103325951D01*
X106871533Y-103325952D01*
X106830016Y-103351644D01*
X106763713Y-103370500D01*
X106599682Y-103370500D01*
X106531561Y-103350498D01*
X106505114Y-103324860D01*
X106503878Y-103325949D01*
X106498855Y-103320251D01*
X106494553Y-103313992D01*
X106459690Y-103282930D01*
X106443284Y-103268313D01*
X106376275Y-103208611D01*
X106368889Y-103204700D01*
X106242988Y-103138039D01*
X106242989Y-103138039D01*
X106236274Y-103134484D01*
X106082633Y-103095892D01*
X106075034Y-103095852D01*
X106075033Y-103095852D01*
X106009181Y-103095507D01*
X105924221Y-103095062D01*
X105916841Y-103096834D01*
X105916839Y-103096834D01*
X105777563Y-103130271D01*
X105777560Y-103130272D01*
X105770184Y-103132043D01*
X105629414Y-103204700D01*
X105510039Y-103308838D01*
X105418950Y-103438444D01*
X105361406Y-103586037D01*
X105360414Y-103593570D01*
X105360414Y-103593571D01*
X105346941Y-103695913D01*
X105340729Y-103743096D01*
X93906364Y-103743096D01*
X93890221Y-103694711D01*
X93887903Y-103687763D01*
X93795322Y-103538154D01*
X93670806Y-103413856D01*
X93521036Y-103321536D01*
X93467703Y-103303846D01*
X93360576Y-103268313D01*
X93360574Y-103268313D01*
X93354045Y-103266147D01*
X93250128Y-103255500D01*
X91649872Y-103255500D01*
X91646626Y-103255837D01*
X91646622Y-103255837D01*
X91551515Y-103265705D01*
X91551511Y-103265706D01*
X91544657Y-103266417D01*
X91538121Y-103268598D01*
X91538119Y-103268598D01*
X91402057Y-103313992D01*
X91377763Y-103322097D01*
X91371531Y-103325953D01*
X91371532Y-103325953D01*
X91235688Y-103410016D01*
X91228154Y-103414678D01*
X91103856Y-103539194D01*
X91011536Y-103688964D01*
X91009231Y-103695912D01*
X91009231Y-103695913D01*
X90973314Y-103804200D01*
X90956147Y-103855955D01*
X90945500Y-103959872D01*
X90945500Y-104060128D01*
X85254000Y-104060128D01*
X85254000Y-101520128D01*
X90945500Y-101520128D01*
X90945837Y-101523374D01*
X90945837Y-101523378D01*
X90947290Y-101537376D01*
X90956417Y-101625343D01*
X90958598Y-101631879D01*
X90958598Y-101631881D01*
X90989331Y-101724000D01*
X91012097Y-101792237D01*
X91104678Y-101941846D01*
X91229194Y-102066144D01*
X91378964Y-102158464D01*
X91385912Y-102160769D01*
X91385913Y-102160769D01*
X91539424Y-102211687D01*
X91539426Y-102211687D01*
X91545955Y-102213853D01*
X91649872Y-102224500D01*
X93250128Y-102224500D01*
X93253374Y-102224163D01*
X93253378Y-102224163D01*
X93348485Y-102214295D01*
X93348489Y-102214294D01*
X93355343Y-102213583D01*
X93361879Y-102211402D01*
X93361881Y-102211402D01*
X93500257Y-102165236D01*
X93522237Y-102157903D01*
X93603236Y-102107779D01*
X93665620Y-102069175D01*
X93665621Y-102069174D01*
X93671846Y-102065322D01*
X93786966Y-101950000D01*
X99700000Y-101950000D01*
X101950000Y-101950000D01*
X101950000Y-101743533D01*
X106226823Y-101743533D01*
X106230163Y-101760096D01*
X106233750Y-101771828D01*
X106304978Y-101942943D01*
X106310778Y-101953759D01*
X106413885Y-102107779D01*
X106421678Y-102117266D01*
X106552734Y-102248322D01*
X106562221Y-102256115D01*
X106716241Y-102359222D01*
X106727057Y-102365022D01*
X106898167Y-102436248D01*
X106909909Y-102439838D01*
X107093055Y-102476767D01*
X107102267Y-102477923D01*
X107105319Y-102478000D01*
X107677885Y-102478000D01*
X107693124Y-102473525D01*
X107694329Y-102472135D01*
X107696000Y-102464452D01*
X107696000Y-102459885D01*
X108204000Y-102459885D01*
X108208475Y-102475124D01*
X108209865Y-102476329D01*
X108217548Y-102478000D01*
X108794681Y-102478000D01*
X108797733Y-102477923D01*
X108806945Y-102476767D01*
X108990091Y-102439838D01*
X109001833Y-102436248D01*
X109172943Y-102365022D01*
X109183759Y-102359222D01*
X109337779Y-102256115D01*
X109347266Y-102248322D01*
X109478322Y-102117266D01*
X109486115Y-102107779D01*
X109589222Y-101953759D01*
X109595022Y-101942943D01*
X109666250Y-101771828D01*
X109669837Y-101760096D01*
X109673535Y-101741758D01*
X109672421Y-101728941D01*
X109657188Y-101724000D01*
X108222115Y-101724000D01*
X108206876Y-101728475D01*
X108205671Y-101729865D01*
X108204000Y-101737548D01*
X108204000Y-102459885D01*
X107696000Y-102459885D01*
X107696000Y-101742115D01*
X107691525Y-101726876D01*
X107690135Y-101725671D01*
X107682452Y-101724000D01*
X106241000Y-101724000D01*
X106228656Y-101727624D01*
X106226823Y-101743533D01*
X101950000Y-101743533D01*
X101950000Y-101518580D01*
X115493752Y-101518580D01*
X115518477Y-101636421D01*
X115521537Y-101646617D01*
X115602263Y-101851029D01*
X115606994Y-101860561D01*
X115721016Y-102048462D01*
X115727280Y-102057052D01*
X115871327Y-102223052D01*
X115878958Y-102230472D01*
X116048911Y-102369826D01*
X116057678Y-102375850D01*
X116248682Y-102484576D01*
X116258345Y-102489041D01*
X116340788Y-102518966D01*
X116397996Y-102561010D01*
X116423392Y-102627309D01*
X116408912Y-102696814D01*
X116355490Y-102749421D01*
X116225590Y-102816324D01*
X116220875Y-102820028D01*
X116064568Y-102942808D01*
X116064564Y-102942812D01*
X116059851Y-102946514D01*
X116055920Y-102951044D01*
X116055919Y-102951045D01*
X115925650Y-103101165D01*
X115925646Y-103101170D01*
X115921719Y-103105696D01*
X115816181Y-103288126D01*
X115747043Y-103487222D01*
X115746183Y-103493155D01*
X115746182Y-103493158D01*
X115717966Y-103687763D01*
X115716801Y-103695800D01*
X115726545Y-103906333D01*
X115775924Y-104111226D01*
X115778406Y-104116684D01*
X115778407Y-104116688D01*
X115802909Y-104170576D01*
X115863157Y-104303084D01*
X115985096Y-104474986D01*
X116137340Y-104620728D01*
X116142375Y-104623979D01*
X116309360Y-104731800D01*
X116309363Y-104731801D01*
X116314397Y-104735052D01*
X116509878Y-104813834D01*
X116632688Y-104837817D01*
X116712283Y-104853361D01*
X116712286Y-104853361D01*
X116716729Y-104854229D01*
X116722270Y-104854500D01*
X117027659Y-104854500D01*
X117184806Y-104839507D01*
X117387042Y-104780177D01*
X117470304Y-104737294D01*
X117569079Y-104686422D01*
X117569082Y-104686420D01*
X117574410Y-104683676D01*
X117650408Y-104623979D01*
X117735432Y-104557192D01*
X117735436Y-104557188D01*
X117740149Y-104553486D01*
X117744081Y-104548955D01*
X117874350Y-104398835D01*
X117874354Y-104398830D01*
X117878281Y-104394304D01*
X117983819Y-104211874D01*
X118052957Y-104012778D01*
X118060155Y-103963138D01*
X118082338Y-103810140D01*
X118082338Y-103810137D01*
X118083199Y-103804200D01*
X118073455Y-103593667D01*
X118061829Y-103545424D01*
X118025482Y-103394607D01*
X118025481Y-103394605D01*
X118024076Y-103388774D01*
X118015768Y-103370500D01*
X117944458Y-103213664D01*
X117936843Y-103196916D01*
X117814904Y-103025014D01*
X117662660Y-102879272D01*
X117565171Y-102816324D01*
X117490640Y-102768200D01*
X117490637Y-102768199D01*
X117485603Y-102764948D01*
X117475643Y-102760934D01*
X117460226Y-102754720D01*
X117404521Y-102710704D01*
X117381456Y-102643558D01*
X117398354Y-102574602D01*
X117455576Y-102522973D01*
X117632970Y-102443063D01*
X117642256Y-102437894D01*
X117824575Y-102315150D01*
X117832870Y-102308481D01*
X117991900Y-102156772D01*
X117998941Y-102148814D01*
X118130141Y-101972475D01*
X118135745Y-101963438D01*
X118235357Y-101767516D01*
X118239357Y-101757665D01*
X118304534Y-101547760D01*
X118306817Y-101537376D01*
X118308861Y-101521957D01*
X118306665Y-101507793D01*
X118293478Y-101504000D01*
X115508808Y-101504000D01*
X115495277Y-101507973D01*
X115493752Y-101518580D01*
X101950000Y-101518580D01*
X101950000Y-101198242D01*
X106226465Y-101198242D01*
X106227579Y-101211059D01*
X106242812Y-101216000D01*
X107677885Y-101216000D01*
X107693124Y-101211525D01*
X107694329Y-101210135D01*
X107696000Y-101202452D01*
X107696000Y-101197885D01*
X108204000Y-101197885D01*
X108208475Y-101213124D01*
X108209865Y-101214329D01*
X108217548Y-101216000D01*
X109659000Y-101216000D01*
X109671344Y-101212376D01*
X109673177Y-101196467D01*
X109669837Y-101179904D01*
X109666250Y-101168172D01*
X109595022Y-100997057D01*
X109589222Y-100986241D01*
X109583734Y-100978043D01*
X115491139Y-100978043D01*
X115493335Y-100992207D01*
X115506522Y-100996000D01*
X118291192Y-100996000D01*
X118304723Y-100992027D01*
X118306248Y-100981420D01*
X118281523Y-100863579D01*
X118278463Y-100853383D01*
X118197737Y-100648971D01*
X118193006Y-100639439D01*
X118078984Y-100451538D01*
X118072720Y-100442948D01*
X117928673Y-100276948D01*
X117921042Y-100269528D01*
X117751089Y-100130174D01*
X117742322Y-100124150D01*
X117551318Y-100015424D01*
X117541655Y-100010959D01*
X117459212Y-99981034D01*
X117402004Y-99938990D01*
X117376608Y-99872691D01*
X117391088Y-99803186D01*
X117444510Y-99750579D01*
X117445350Y-99750147D01*
X117574410Y-99683676D01*
X117654494Y-99620769D01*
X117735432Y-99557192D01*
X117735436Y-99557188D01*
X117740149Y-99553486D01*
X117761245Y-99529175D01*
X117874350Y-99398835D01*
X117874354Y-99398830D01*
X117878281Y-99394304D01*
X117983819Y-99211874D01*
X118052957Y-99012778D01*
X118058158Y-98976911D01*
X118082338Y-98810140D01*
X118082338Y-98810137D01*
X118083199Y-98804200D01*
X118073455Y-98593667D01*
X118049233Y-98493158D01*
X118025482Y-98394607D01*
X118025481Y-98394605D01*
X118024076Y-98388774D01*
X118015768Y-98370500D01*
X117957386Y-98242097D01*
X117936843Y-98196916D01*
X117814904Y-98025014D01*
X117662660Y-97879272D01*
X117560918Y-97813578D01*
X117490640Y-97768200D01*
X117490637Y-97768199D01*
X117485603Y-97764948D01*
X117290122Y-97686166D01*
X117155739Y-97659923D01*
X117087717Y-97646639D01*
X117087714Y-97646639D01*
X117083271Y-97645771D01*
X117077730Y-97645500D01*
X116772341Y-97645500D01*
X116615194Y-97660493D01*
X116412958Y-97719823D01*
X116407619Y-97722573D01*
X116230921Y-97813578D01*
X116230918Y-97813580D01*
X116225590Y-97816324D01*
X116220875Y-97820028D01*
X116064568Y-97942808D01*
X116064564Y-97942812D01*
X116059851Y-97946514D01*
X116055920Y-97951044D01*
X116055919Y-97951045D01*
X115925650Y-98101165D01*
X115925646Y-98101170D01*
X115921719Y-98105696D01*
X115816181Y-98288126D01*
X115747043Y-98487222D01*
X115746183Y-98493155D01*
X115746182Y-98493158D01*
X115729391Y-98608964D01*
X115716801Y-98695800D01*
X115726545Y-98906333D01*
X115775924Y-99111226D01*
X115863157Y-99303084D01*
X115985096Y-99474986D01*
X116137340Y-99620728D01*
X116142375Y-99623979D01*
X116309360Y-99731800D01*
X116309363Y-99731801D01*
X116314397Y-99735052D01*
X116319963Y-99737295D01*
X116339774Y-99745280D01*
X116395479Y-99789296D01*
X116418544Y-99856442D01*
X116401646Y-99925398D01*
X116344424Y-99977027D01*
X116167030Y-100056937D01*
X116157744Y-100062106D01*
X115975425Y-100184850D01*
X115967130Y-100191519D01*
X115808100Y-100343228D01*
X115801059Y-100351186D01*
X115669859Y-100527525D01*
X115664255Y-100536562D01*
X115564643Y-100732484D01*
X115560643Y-100742335D01*
X115495466Y-100952240D01*
X115493183Y-100962624D01*
X115491139Y-100978043D01*
X109583734Y-100978043D01*
X109486115Y-100832221D01*
X109478322Y-100822734D01*
X109347266Y-100691678D01*
X109337779Y-100683885D01*
X109183759Y-100580778D01*
X109172943Y-100574978D01*
X109001833Y-100503752D01*
X108990091Y-100500162D01*
X108806945Y-100463233D01*
X108797733Y-100462077D01*
X108794681Y-100462000D01*
X108222115Y-100462000D01*
X108206876Y-100466475D01*
X108205671Y-100467865D01*
X108204000Y-100475548D01*
X108204000Y-101197885D01*
X107696000Y-101197885D01*
X107696000Y-100480115D01*
X107691525Y-100464876D01*
X107690135Y-100463671D01*
X107682452Y-100462000D01*
X107105319Y-100462000D01*
X107102267Y-100462077D01*
X107093055Y-100463233D01*
X106909909Y-100500162D01*
X106898167Y-100503752D01*
X106727057Y-100574978D01*
X106716241Y-100580778D01*
X106562221Y-100683885D01*
X106552734Y-100691678D01*
X106421678Y-100822734D01*
X106413885Y-100832221D01*
X106310778Y-100986241D01*
X106304978Y-100997057D01*
X106233750Y-101168172D01*
X106230163Y-101179904D01*
X106226465Y-101198242D01*
X101950000Y-101198242D01*
X101950000Y-99700000D01*
X99700000Y-99700000D01*
X99700000Y-101950000D01*
X93786966Y-101950000D01*
X93796144Y-101940806D01*
X93888464Y-101791036D01*
X93896265Y-101767516D01*
X93941687Y-101630576D01*
X93941687Y-101630574D01*
X93943853Y-101624045D01*
X93954500Y-101520128D01*
X93954500Y-101419872D01*
X93943583Y-101314657D01*
X93887903Y-101147763D01*
X93795322Y-100998154D01*
X93670806Y-100873856D01*
X93521036Y-100781536D01*
X93402850Y-100742335D01*
X93360576Y-100728313D01*
X93360574Y-100728313D01*
X93354045Y-100726147D01*
X93250128Y-100715500D01*
X91649872Y-100715500D01*
X91646626Y-100715837D01*
X91646622Y-100715837D01*
X91551515Y-100725705D01*
X91551511Y-100725706D01*
X91544657Y-100726417D01*
X91538121Y-100728598D01*
X91538119Y-100728598D01*
X91399743Y-100774764D01*
X91377763Y-100782097D01*
X91371531Y-100785953D01*
X91371532Y-100785953D01*
X91235688Y-100870016D01*
X91228154Y-100874678D01*
X91103856Y-100999194D01*
X91011536Y-101148964D01*
X91009231Y-101155912D01*
X91009231Y-101155913D01*
X90993795Y-101202452D01*
X90956147Y-101315955D01*
X90945500Y-101419872D01*
X90945500Y-101520128D01*
X85254000Y-101520128D01*
X85254000Y-98980128D01*
X90945500Y-98980128D01*
X90945837Y-98983374D01*
X90945837Y-98983378D01*
X90948888Y-99012778D01*
X90956417Y-99085343D01*
X90958598Y-99091879D01*
X90958598Y-99091881D01*
X90989972Y-99185919D01*
X91012097Y-99252237D01*
X91015953Y-99258468D01*
X91086224Y-99372024D01*
X91104678Y-99401846D01*
X91229194Y-99526144D01*
X91378964Y-99618464D01*
X91385912Y-99620769D01*
X91385913Y-99620769D01*
X91539424Y-99671687D01*
X91539426Y-99671687D01*
X91545955Y-99673853D01*
X91649872Y-99684500D01*
X93250128Y-99684500D01*
X93253374Y-99684163D01*
X93253378Y-99684163D01*
X93348485Y-99674295D01*
X93348489Y-99674294D01*
X93355343Y-99673583D01*
X93361879Y-99671402D01*
X93361881Y-99671402D01*
X93504025Y-99623979D01*
X93522237Y-99617903D01*
X93633656Y-99548955D01*
X93665620Y-99529175D01*
X93665621Y-99529174D01*
X93671846Y-99525322D01*
X93796144Y-99400806D01*
X93888464Y-99251036D01*
X93933026Y-99116688D01*
X93941687Y-99090576D01*
X93941687Y-99090574D01*
X93943853Y-99084045D01*
X93954500Y-98980128D01*
X93954500Y-98879872D01*
X93947265Y-98810140D01*
X93944295Y-98781515D01*
X93944294Y-98781511D01*
X93943583Y-98774657D01*
X93935573Y-98750646D01*
X93933054Y-98743096D01*
X105340729Y-98743096D01*
X105344357Y-98775955D01*
X105355830Y-98879872D01*
X105358113Y-98900553D01*
X105360723Y-98907684D01*
X105360723Y-98907686D01*
X105401254Y-99018442D01*
X105412553Y-99049319D01*
X105416789Y-99055622D01*
X105416789Y-99055623D01*
X105441154Y-99091881D01*
X105500908Y-99180805D01*
X105506527Y-99185918D01*
X105506528Y-99185919D01*
X105540763Y-99217070D01*
X105618076Y-99287419D01*
X105757293Y-99363008D01*
X105910522Y-99403207D01*
X105994477Y-99404526D01*
X106061319Y-99405576D01*
X106061322Y-99405576D01*
X106068916Y-99405695D01*
X106223332Y-99370329D01*
X106312360Y-99325553D01*
X106358072Y-99302563D01*
X106358075Y-99302561D01*
X106364855Y-99299151D01*
X106370627Y-99294221D01*
X106376959Y-99290014D01*
X106378105Y-99291739D01*
X106433270Y-99267015D01*
X106503471Y-99277614D01*
X106557466Y-99325553D01*
X106596797Y-99389111D01*
X106604678Y-99401846D01*
X106729194Y-99526144D01*
X106878964Y-99618464D01*
X106885912Y-99620769D01*
X106885913Y-99620769D01*
X107039424Y-99671687D01*
X107039426Y-99671687D01*
X107045955Y-99673853D01*
X107149872Y-99684500D01*
X108750128Y-99684500D01*
X108753374Y-99684163D01*
X108753378Y-99684163D01*
X108848485Y-99674295D01*
X108848489Y-99674294D01*
X108855343Y-99673583D01*
X108861879Y-99671402D01*
X108861881Y-99671402D01*
X109004025Y-99623979D01*
X109022237Y-99617903D01*
X109133656Y-99548955D01*
X109165620Y-99529175D01*
X109165621Y-99529174D01*
X109171846Y-99525322D01*
X109296144Y-99400806D01*
X109388464Y-99251036D01*
X109433026Y-99116688D01*
X109441687Y-99090576D01*
X109441687Y-99090574D01*
X109443853Y-99084045D01*
X109454500Y-98980128D01*
X109454500Y-98879872D01*
X109447265Y-98810140D01*
X109444295Y-98781515D01*
X109444294Y-98781511D01*
X109443583Y-98774657D01*
X109435573Y-98750646D01*
X109390221Y-98614711D01*
X109387903Y-98607763D01*
X109295322Y-98458154D01*
X109170806Y-98333856D01*
X109021036Y-98241536D01*
X109014087Y-98239231D01*
X108860576Y-98188313D01*
X108860574Y-98188313D01*
X108854045Y-98186147D01*
X108750128Y-98175500D01*
X107149872Y-98175500D01*
X107146626Y-98175837D01*
X107146622Y-98175837D01*
X107051515Y-98185705D01*
X107051511Y-98185706D01*
X107044657Y-98186417D01*
X107038121Y-98188598D01*
X107038119Y-98188598D01*
X106978133Y-98208611D01*
X106877763Y-98242097D01*
X106871531Y-98245953D01*
X106871532Y-98245953D01*
X106734381Y-98330824D01*
X106734380Y-98330825D01*
X106728154Y-98334678D01*
X106722982Y-98339859D01*
X106718709Y-98343246D01*
X106652899Y-98369883D01*
X106640445Y-98370500D01*
X106599682Y-98370500D01*
X106531561Y-98350498D01*
X106505114Y-98324860D01*
X106503878Y-98325949D01*
X106498855Y-98320251D01*
X106494553Y-98313992D01*
X106459690Y-98282930D01*
X106418187Y-98245953D01*
X106376275Y-98208611D01*
X106368889Y-98204700D01*
X106242988Y-98138039D01*
X106242989Y-98138039D01*
X106236274Y-98134484D01*
X106082633Y-98095892D01*
X106075034Y-98095852D01*
X106075033Y-98095852D01*
X106009181Y-98095507D01*
X105924221Y-98095062D01*
X105916841Y-98096834D01*
X105916839Y-98096834D01*
X105777563Y-98130271D01*
X105777560Y-98130272D01*
X105770184Y-98132043D01*
X105629414Y-98204700D01*
X105510039Y-98308838D01*
X105418950Y-98438444D01*
X105361406Y-98586037D01*
X105360414Y-98593570D01*
X105360414Y-98593571D01*
X105346956Y-98695800D01*
X105340729Y-98743096D01*
X93933054Y-98743096D01*
X93890221Y-98614711D01*
X93887903Y-98607763D01*
X93795322Y-98458154D01*
X93670806Y-98333856D01*
X93521036Y-98241536D01*
X93514087Y-98239231D01*
X93360576Y-98188313D01*
X93360574Y-98188313D01*
X93354045Y-98186147D01*
X93250128Y-98175500D01*
X91649872Y-98175500D01*
X91646626Y-98175837D01*
X91646622Y-98175837D01*
X91551515Y-98185705D01*
X91551511Y-98185706D01*
X91544657Y-98186417D01*
X91538121Y-98188598D01*
X91538119Y-98188598D01*
X91478133Y-98208611D01*
X91377763Y-98242097D01*
X91371531Y-98245953D01*
X91371532Y-98245953D01*
X91235688Y-98330016D01*
X91228154Y-98334678D01*
X91103856Y-98459194D01*
X91011536Y-98608964D01*
X91009231Y-98615912D01*
X91009231Y-98615913D01*
X90964542Y-98750646D01*
X90956147Y-98775955D01*
X90945500Y-98879872D01*
X90945500Y-98980128D01*
X85254000Y-98980128D01*
X85254000Y-96440128D01*
X90945500Y-96440128D01*
X90945837Y-96443374D01*
X90945837Y-96443378D01*
X90953626Y-96518442D01*
X90956417Y-96545343D01*
X90958598Y-96551879D01*
X90958598Y-96551881D01*
X91003317Y-96685919D01*
X91012097Y-96712237D01*
X91015953Y-96718468D01*
X91067993Y-96802563D01*
X91104678Y-96861846D01*
X91229194Y-96986144D01*
X91378964Y-97078464D01*
X91385912Y-97080769D01*
X91385913Y-97080769D01*
X91539424Y-97131687D01*
X91539426Y-97131687D01*
X91545955Y-97133853D01*
X91649872Y-97144500D01*
X93250128Y-97144500D01*
X93253374Y-97144163D01*
X93253378Y-97144163D01*
X93348485Y-97134295D01*
X93348489Y-97134294D01*
X93355343Y-97133583D01*
X93361879Y-97131402D01*
X93361881Y-97131402D01*
X93500257Y-97085236D01*
X93522237Y-97077903D01*
X93579253Y-97042620D01*
X93665620Y-96989175D01*
X93665621Y-96989174D01*
X93671846Y-96985322D01*
X93796144Y-96860806D01*
X93888464Y-96711036D01*
X93943853Y-96544045D01*
X93954500Y-96440128D01*
X93954500Y-96339872D01*
X93950799Y-96304200D01*
X93944459Y-96243096D01*
X105340729Y-96243096D01*
X105341563Y-96250646D01*
X105351414Y-96339872D01*
X105358113Y-96400553D01*
X105360723Y-96407684D01*
X105360723Y-96407686D01*
X105401254Y-96518442D01*
X105412553Y-96549319D01*
X105500908Y-96680805D01*
X105506527Y-96685918D01*
X105506528Y-96685919D01*
X105612357Y-96782215D01*
X105618076Y-96787419D01*
X105757293Y-96863008D01*
X105910522Y-96903207D01*
X105994477Y-96904526D01*
X106061319Y-96905576D01*
X106061322Y-96905576D01*
X106068916Y-96905695D01*
X106223332Y-96870329D01*
X106293742Y-96834917D01*
X106358072Y-96802563D01*
X106358075Y-96802561D01*
X106364855Y-96799151D01*
X106370626Y-96794222D01*
X106370629Y-96794220D01*
X106384684Y-96782215D01*
X106449473Y-96753183D01*
X106519673Y-96763787D01*
X106573660Y-96811722D01*
X106604678Y-96861846D01*
X106729194Y-96986144D01*
X106878964Y-97078464D01*
X106885912Y-97080769D01*
X106885913Y-97080769D01*
X107039424Y-97131687D01*
X107039426Y-97131687D01*
X107045955Y-97133853D01*
X107149872Y-97144500D01*
X108750128Y-97144500D01*
X108753374Y-97144163D01*
X108753378Y-97144163D01*
X108848485Y-97134295D01*
X108848489Y-97134294D01*
X108855343Y-97133583D01*
X108861879Y-97131402D01*
X108861881Y-97131402D01*
X109000257Y-97085236D01*
X109022237Y-97077903D01*
X109079253Y-97042620D01*
X109165620Y-96989175D01*
X109165621Y-96989174D01*
X109171846Y-96985322D01*
X109296144Y-96860806D01*
X109388464Y-96711036D01*
X109443853Y-96544045D01*
X109454500Y-96440128D01*
X109454500Y-96339872D01*
X109450799Y-96304200D01*
X109444295Y-96241515D01*
X109444294Y-96241511D01*
X109443583Y-96234657D01*
X109430620Y-96195800D01*
X115716801Y-96195800D01*
X115726545Y-96406333D01*
X115775924Y-96611226D01*
X115778406Y-96616684D01*
X115778407Y-96616688D01*
X115818692Y-96705289D01*
X115863157Y-96803084D01*
X115985096Y-96974986D01*
X116137340Y-97120728D01*
X116142375Y-97123979D01*
X116309360Y-97231800D01*
X116309363Y-97231801D01*
X116314397Y-97235052D01*
X116509878Y-97313834D01*
X116632688Y-97337817D01*
X116712283Y-97353361D01*
X116712286Y-97353361D01*
X116716729Y-97354229D01*
X116722270Y-97354500D01*
X117027659Y-97354500D01*
X117184806Y-97339507D01*
X117387042Y-97280177D01*
X117470304Y-97237294D01*
X117569079Y-97186422D01*
X117569082Y-97186420D01*
X117574410Y-97183676D01*
X117637275Y-97134295D01*
X117735432Y-97057192D01*
X117735436Y-97057188D01*
X117740149Y-97053486D01*
X117798586Y-96986144D01*
X117874350Y-96898835D01*
X117874354Y-96898830D01*
X117878281Y-96894304D01*
X117983819Y-96711874D01*
X118052957Y-96512778D01*
X118063020Y-96443378D01*
X118082338Y-96310140D01*
X118082338Y-96310137D01*
X118083199Y-96304200D01*
X118073455Y-96093667D01*
X118069177Y-96075913D01*
X118025482Y-95894607D01*
X118025481Y-95894605D01*
X118024076Y-95888774D01*
X118015768Y-95870500D01*
X117944458Y-95713664D01*
X117936843Y-95696916D01*
X117814904Y-95525014D01*
X117662660Y-95379272D01*
X117560918Y-95313578D01*
X117490640Y-95268200D01*
X117490637Y-95268199D01*
X117485603Y-95264948D01*
X117290122Y-95186166D01*
X117155739Y-95159923D01*
X117087717Y-95146639D01*
X117087714Y-95146639D01*
X117083271Y-95145771D01*
X117077730Y-95145500D01*
X116772341Y-95145500D01*
X116615194Y-95160493D01*
X116412958Y-95219823D01*
X116407619Y-95222573D01*
X116230921Y-95313578D01*
X116230918Y-95313580D01*
X116225590Y-95316324D01*
X116220875Y-95320028D01*
X116064568Y-95442808D01*
X116064564Y-95442812D01*
X116059851Y-95446514D01*
X116055920Y-95451044D01*
X116055919Y-95451045D01*
X115925650Y-95601165D01*
X115925646Y-95601170D01*
X115921719Y-95605696D01*
X115816181Y-95788126D01*
X115747043Y-95987222D01*
X115746183Y-95993155D01*
X115746182Y-95993158D01*
X115732454Y-96087840D01*
X115716801Y-96195800D01*
X109430620Y-96195800D01*
X109390221Y-96074711D01*
X109387903Y-96067763D01*
X109295322Y-95918154D01*
X109170806Y-95793856D01*
X109021036Y-95701536D01*
X109014087Y-95699231D01*
X108860576Y-95648313D01*
X108860574Y-95648313D01*
X108854045Y-95646147D01*
X108750128Y-95635500D01*
X107149872Y-95635500D01*
X107146626Y-95635837D01*
X107146622Y-95635837D01*
X107051515Y-95645705D01*
X107051511Y-95645706D01*
X107044657Y-95646417D01*
X107038121Y-95648598D01*
X107038119Y-95648598D01*
X106907941Y-95692029D01*
X106877763Y-95702097D01*
X106728154Y-95794678D01*
X106722982Y-95799859D01*
X106722977Y-95799863D01*
X106689382Y-95833517D01*
X106627100Y-95867597D01*
X106600209Y-95870500D01*
X106599682Y-95870500D01*
X106531561Y-95850498D01*
X106505114Y-95824860D01*
X106503878Y-95825949D01*
X106498855Y-95820251D01*
X106494553Y-95813992D01*
X106459690Y-95782930D01*
X106381946Y-95713664D01*
X106376275Y-95708611D01*
X106368889Y-95704700D01*
X106330565Y-95684409D01*
X106236274Y-95634484D01*
X106082633Y-95595892D01*
X106075034Y-95595852D01*
X106075033Y-95595852D01*
X106009181Y-95595507D01*
X105924221Y-95595062D01*
X105916841Y-95596834D01*
X105916839Y-95596834D01*
X105777563Y-95630271D01*
X105777560Y-95630272D01*
X105770184Y-95632043D01*
X105629414Y-95704700D01*
X105510039Y-95808838D01*
X105418950Y-95938444D01*
X105416190Y-95945524D01*
X105365822Y-96074711D01*
X105361406Y-96086037D01*
X105360414Y-96093570D01*
X105360414Y-96093571D01*
X105342529Y-96229424D01*
X105340729Y-96243096D01*
X93944459Y-96243096D01*
X93944295Y-96241515D01*
X93944294Y-96241511D01*
X93943583Y-96234657D01*
X93930620Y-96195800D01*
X93890221Y-96074711D01*
X93887903Y-96067763D01*
X93795322Y-95918154D01*
X93670806Y-95793856D01*
X93521036Y-95701536D01*
X93514087Y-95699231D01*
X93360576Y-95648313D01*
X93360574Y-95648313D01*
X93354045Y-95646147D01*
X93250128Y-95635500D01*
X91649872Y-95635500D01*
X91646626Y-95635837D01*
X91646622Y-95635837D01*
X91551515Y-95645705D01*
X91551511Y-95645706D01*
X91544657Y-95646417D01*
X91538121Y-95648598D01*
X91538119Y-95648598D01*
X91407941Y-95692029D01*
X91377763Y-95702097D01*
X91359071Y-95713664D01*
X91235688Y-95790016D01*
X91228154Y-95794678D01*
X91103856Y-95919194D01*
X91011536Y-96068964D01*
X90956147Y-96235955D01*
X90945500Y-96339872D01*
X90945500Y-96440128D01*
X85254000Y-96440128D01*
X85254000Y-93900128D01*
X90945500Y-93900128D01*
X90956417Y-94005343D01*
X90958598Y-94011879D01*
X90958598Y-94011881D01*
X90989796Y-94105393D01*
X91012097Y-94172237D01*
X91033118Y-94206206D01*
X91089854Y-94297890D01*
X91104678Y-94321846D01*
X91229194Y-94446144D01*
X91378964Y-94538464D01*
X91385912Y-94540769D01*
X91385913Y-94540769D01*
X91539424Y-94591687D01*
X91539426Y-94591687D01*
X91545955Y-94593853D01*
X91649872Y-94604500D01*
X93250128Y-94604500D01*
X93253374Y-94604163D01*
X93253378Y-94604163D01*
X93348485Y-94594295D01*
X93348489Y-94594294D01*
X93355343Y-94593583D01*
X93361879Y-94591402D01*
X93361881Y-94591402D01*
X93500257Y-94545236D01*
X93522237Y-94537903D01*
X93631805Y-94470100D01*
X93665620Y-94449175D01*
X93665621Y-94449174D01*
X93671846Y-94445322D01*
X93796144Y-94320806D01*
X93888464Y-94171036D01*
X93928836Y-94049319D01*
X93941687Y-94010576D01*
X93941687Y-94010574D01*
X93943853Y-94004045D01*
X93954500Y-93900128D01*
X93954500Y-93799872D01*
X93954163Y-93796622D01*
X93948609Y-93743096D01*
X105340729Y-93743096D01*
X105358113Y-93900553D01*
X105360723Y-93907684D01*
X105360723Y-93907686D01*
X105401254Y-94018442D01*
X105412553Y-94049319D01*
X105416789Y-94055622D01*
X105416789Y-94055623D01*
X105495151Y-94172237D01*
X105500908Y-94180805D01*
X105506527Y-94185918D01*
X105506528Y-94185919D01*
X105597157Y-94268384D01*
X105618076Y-94287419D01*
X105757293Y-94363008D01*
X105910522Y-94403207D01*
X105994477Y-94404526D01*
X106061319Y-94405576D01*
X106061322Y-94405576D01*
X106068916Y-94405695D01*
X106223332Y-94370329D01*
X106319731Y-94321846D01*
X106358072Y-94302563D01*
X106358075Y-94302561D01*
X106364855Y-94299151D01*
X106370628Y-94294220D01*
X106370633Y-94294217D01*
X106400879Y-94268384D01*
X106465668Y-94239352D01*
X106535868Y-94249957D01*
X106589853Y-94297889D01*
X106604678Y-94321846D01*
X106729194Y-94446144D01*
X106878964Y-94538464D01*
X106885912Y-94540769D01*
X106885913Y-94540769D01*
X107039424Y-94591687D01*
X107039426Y-94591687D01*
X107045955Y-94593853D01*
X107149872Y-94604500D01*
X108750128Y-94604500D01*
X108753374Y-94604163D01*
X108753378Y-94604163D01*
X108848485Y-94594295D01*
X108848489Y-94594294D01*
X108855343Y-94593583D01*
X108861879Y-94591402D01*
X108861881Y-94591402D01*
X109000257Y-94545236D01*
X109022237Y-94537903D01*
X109131805Y-94470100D01*
X109165620Y-94449175D01*
X109165621Y-94449174D01*
X109171846Y-94445322D01*
X109296144Y-94320806D01*
X109388464Y-94171036D01*
X109428836Y-94049319D01*
X109441687Y-94010576D01*
X109441687Y-94010574D01*
X109443853Y-94004045D01*
X109454500Y-93900128D01*
X109454500Y-93799872D01*
X109454163Y-93796622D01*
X109444295Y-93701515D01*
X109444294Y-93701511D01*
X109443702Y-93695800D01*
X115716801Y-93695800D01*
X115726545Y-93906333D01*
X115775924Y-94111226D01*
X115778406Y-94116684D01*
X115778407Y-94116688D01*
X115806497Y-94178468D01*
X115863157Y-94303084D01*
X115985096Y-94474986D01*
X116137340Y-94620728D01*
X116142375Y-94623979D01*
X116309360Y-94731800D01*
X116309363Y-94731801D01*
X116314397Y-94735052D01*
X116509878Y-94813834D01*
X116632688Y-94837817D01*
X116712283Y-94853361D01*
X116712286Y-94853361D01*
X116716729Y-94854229D01*
X116722270Y-94854500D01*
X117027659Y-94854500D01*
X117184806Y-94839507D01*
X117387042Y-94780177D01*
X117470304Y-94737294D01*
X117569079Y-94686422D01*
X117569082Y-94686420D01*
X117574410Y-94683676D01*
X117650408Y-94623979D01*
X117735432Y-94557192D01*
X117735436Y-94557188D01*
X117740149Y-94553486D01*
X117744081Y-94548955D01*
X117874350Y-94398835D01*
X117874354Y-94398830D01*
X117878281Y-94394304D01*
X117983819Y-94211874D01*
X118052957Y-94012778D01*
X118054224Y-94004045D01*
X118082338Y-93810140D01*
X118082338Y-93810137D01*
X118083199Y-93804200D01*
X118073455Y-93593667D01*
X118059537Y-93535913D01*
X118025482Y-93394607D01*
X118025481Y-93394605D01*
X118024076Y-93388774D01*
X118019721Y-93379194D01*
X117965463Y-93259863D01*
X117936843Y-93196916D01*
X117814904Y-93025014D01*
X117662660Y-92879272D01*
X117560918Y-92813578D01*
X117490640Y-92768200D01*
X117490637Y-92768199D01*
X117485603Y-92764948D01*
X117290122Y-92686166D01*
X117155739Y-92659923D01*
X117087717Y-92646639D01*
X117087714Y-92646639D01*
X117083271Y-92645771D01*
X117077730Y-92645500D01*
X116772341Y-92645500D01*
X116615194Y-92660493D01*
X116412958Y-92719823D01*
X116407619Y-92722573D01*
X116230921Y-92813578D01*
X116230918Y-92813580D01*
X116225590Y-92816324D01*
X116220875Y-92820028D01*
X116064568Y-92942808D01*
X116064564Y-92942812D01*
X116059851Y-92946514D01*
X116055920Y-92951044D01*
X116055919Y-92951045D01*
X115925650Y-93101165D01*
X115925646Y-93101170D01*
X115921719Y-93105696D01*
X115816181Y-93288126D01*
X115747043Y-93487222D01*
X115746183Y-93493155D01*
X115746182Y-93493158D01*
X115717725Y-93689424D01*
X115716801Y-93695800D01*
X109443702Y-93695800D01*
X109443583Y-93694657D01*
X109387903Y-93527763D01*
X109328784Y-93432228D01*
X109299175Y-93384380D01*
X109299174Y-93384379D01*
X109295322Y-93378154D01*
X109170806Y-93253856D01*
X109021036Y-93161536D01*
X109014087Y-93159231D01*
X108860576Y-93108313D01*
X108860574Y-93108313D01*
X108854045Y-93106147D01*
X108750128Y-93095500D01*
X107149872Y-93095500D01*
X107146626Y-93095837D01*
X107146622Y-93095837D01*
X107051515Y-93105705D01*
X107051511Y-93105706D01*
X107044657Y-93106417D01*
X107038121Y-93108598D01*
X107038119Y-93108598D01*
X106957412Y-93135524D01*
X106877763Y-93162097D01*
X106728154Y-93254678D01*
X106722982Y-93259859D01*
X106722977Y-93259863D01*
X106670569Y-93312363D01*
X106608287Y-93346443D01*
X106537467Y-93341440D01*
X106495687Y-93312719D01*
X106494553Y-93313992D01*
X106381946Y-93213664D01*
X106376275Y-93208611D01*
X106368889Y-93204700D01*
X106242988Y-93138039D01*
X106242989Y-93138039D01*
X106236274Y-93134484D01*
X106082633Y-93095892D01*
X106075034Y-93095852D01*
X106075033Y-93095852D01*
X106009181Y-93095507D01*
X105924221Y-93095062D01*
X105916841Y-93096834D01*
X105916839Y-93096834D01*
X105777563Y-93130271D01*
X105777560Y-93130272D01*
X105770184Y-93132043D01*
X105629414Y-93204700D01*
X105510039Y-93308838D01*
X105418950Y-93438444D01*
X105416190Y-93445524D01*
X105386088Y-93522732D01*
X105361406Y-93586037D01*
X105360414Y-93593570D01*
X105360414Y-93593571D01*
X105346403Y-93700000D01*
X105340729Y-93743096D01*
X93948609Y-93743096D01*
X93944295Y-93701515D01*
X93944294Y-93701511D01*
X93944137Y-93700000D01*
X99700000Y-93700000D01*
X101950000Y-93700000D01*
X101950000Y-92450000D01*
X99700000Y-92450000D01*
X99700000Y-93700000D01*
X93944137Y-93700000D01*
X93943583Y-93694657D01*
X93887903Y-93527763D01*
X93828784Y-93432228D01*
X93799175Y-93384380D01*
X93799174Y-93384379D01*
X93795322Y-93378154D01*
X93670806Y-93253856D01*
X93521036Y-93161536D01*
X93514087Y-93159231D01*
X93360576Y-93108313D01*
X93360574Y-93108313D01*
X93354045Y-93106147D01*
X93250128Y-93095500D01*
X91649872Y-93095500D01*
X91646626Y-93095837D01*
X91646622Y-93095837D01*
X91551515Y-93105705D01*
X91551511Y-93105706D01*
X91544657Y-93106417D01*
X91538121Y-93108598D01*
X91538119Y-93108598D01*
X91457412Y-93135524D01*
X91377763Y-93162097D01*
X91371531Y-93165953D01*
X91371532Y-93165953D01*
X91235688Y-93250016D01*
X91228154Y-93254678D01*
X91103856Y-93379194D01*
X91011536Y-93528964D01*
X91009231Y-93535912D01*
X91009231Y-93535913D01*
X90990107Y-93593571D01*
X90956147Y-93695955D01*
X90945500Y-93799872D01*
X90945500Y-93900128D01*
X85254000Y-93900128D01*
X85254000Y-87037425D01*
X85256421Y-87012844D01*
X85256555Y-87012170D01*
X85258976Y-87000000D01*
X85256555Y-86987829D01*
X85256555Y-86975419D01*
X85257198Y-86975419D01*
X85256527Y-86964674D01*
X85271129Y-86760509D01*
X85273687Y-86742715D01*
X85322810Y-86516899D01*
X85327875Y-86499650D01*
X85408633Y-86283127D01*
X85416102Y-86266774D01*
X85526852Y-86063951D01*
X85536571Y-86048827D01*
X85675063Y-85863824D01*
X85686836Y-85850238D01*
X85850238Y-85686836D01*
X85863824Y-85675063D01*
X86048827Y-85536571D01*
X86063951Y-85526852D01*
X86266774Y-85416102D01*
X86283123Y-85408635D01*
X86416852Y-85358757D01*
X86499650Y-85327875D01*
X86516899Y-85322810D01*
X86742715Y-85273687D01*
X86760509Y-85271129D01*
X86964674Y-85256527D01*
X86975419Y-85257198D01*
X86975419Y-85256555D01*
X86987829Y-85256555D01*
X87000000Y-85258976D01*
X87012847Y-85256421D01*
X87037425Y-85254000D01*
X112962575Y-85254000D01*
X112987153Y-85256421D01*
G37*
%TD.AperFunction*%
%TD*%
M02*
