%TF.GenerationSoftware,KiCad,Pcbnew,(6.0.2-0)*%
%TF.CreationDate,2022-03-06T08:48:50+00:00*%
%TF.ProjectId,L86,4c38362e-6b69-4636-9164-5f7063625858,rev?*%
%TF.SameCoordinates,Original*%
%TF.FileFunction,Copper,L2,Bot*%
%TF.FilePolarity,Positive*%
%FSLAX46Y46*%
G04 Gerber Fmt 4.6, Leading zero omitted, Abs format (unit mm)*
G04 Created by KiCad (PCBNEW (6.0.2-0)) date 2022-03-06 08:48:50*
%MOMM*%
%LPD*%
G01*
G04 APERTURE LIST*
G04 Aperture macros list*
%AMRoundRect*
0 Rectangle with rounded corners*
0 $1 Rounding radius*
0 $2 $3 $4 $5 $6 $7 $8 $9 X,Y pos of 4 corners*
0 Add a 4 corners polygon primitive as box body*
4,1,4,$2,$3,$4,$5,$6,$7,$8,$9,$2,$3,0*
0 Add four circle primitives for the rounded corners*
1,1,$1+$1,$2,$3*
1,1,$1+$1,$4,$5*
1,1,$1+$1,$6,$7*
1,1,$1+$1,$8,$9*
0 Add four rect primitives between the rounded corners*
20,1,$1+$1,$2,$3,$4,$5,0*
20,1,$1+$1,$4,$5,$6,$7,0*
20,1,$1+$1,$6,$7,$8,$9,0*
20,1,$1+$1,$8,$9,$2,$3,0*%
G04 Aperture macros list end*
%ADD10C,0.100000*%
%TA.AperFunction,NonConductor*%
%ADD11C,0.100000*%
%TD*%
%TA.AperFunction,EtchedComponent*%
%ADD12C,0.080000*%
%TD*%
%TA.AperFunction,EtchedComponent*%
%ADD13C,0.250000*%
%TD*%
%TA.AperFunction,ComponentPad*%
%ADD14RoundRect,0.250000X0.675000X-0.600000X0.675000X0.600000X-0.675000X0.600000X-0.675000X-0.600000X0*%
%TD*%
%TA.AperFunction,ComponentPad*%
%ADD15O,1.850000X1.700000*%
%TD*%
%TA.AperFunction,SMDPad,CuDef*%
%ADD16R,1.400000X0.200000*%
%TD*%
%TA.AperFunction,SMDPad,CuDef*%
%ADD17R,0.400000X0.200000*%
%TD*%
%TA.AperFunction,SMDPad,CuDef*%
%ADD18R,0.200000X1.200000*%
%TD*%
%TA.AperFunction,SMDPad,CuDef*%
%ADD19R,0.400000X0.400000*%
%TD*%
%TA.AperFunction,SMDPad,CuDef*%
%ADD20R,0.600000X0.600000*%
%TD*%
%TA.AperFunction,SMDPad,CuDef*%
%ADD21R,0.200000X1.000000*%
%TD*%
%TA.AperFunction,SMDPad,CuDef*%
%ADD22R,0.200000X0.200000*%
%TD*%
%TA.AperFunction,SMDPad,CuDef*%
%ADD23R,0.200000X0.800000*%
%TD*%
%TA.AperFunction,SMDPad,CuDef*%
%ADD24R,1.000000X0.200000*%
%TD*%
%TA.AperFunction,SMDPad,CuDef*%
%ADD25R,0.200000X0.400000*%
%TD*%
%TA.AperFunction,SMDPad,CuDef*%
%ADD26R,0.200000X0.600000*%
%TD*%
%TA.AperFunction,SMDPad,CuDef*%
%ADD27R,0.600000X0.200000*%
%TD*%
%TA.AperFunction,SMDPad,CuDef*%
%ADD28R,0.800000X0.200000*%
%TD*%
%TA.AperFunction,ViaPad*%
%ADD29C,0.800000*%
%TD*%
%TA.AperFunction,Conductor*%
%ADD30C,0.250000*%
%TD*%
G04 APERTURE END LIST*
D10*
%TO.C,U2*%
D11*
X102428571Y-106373809D02*
X102404761Y-106350000D01*
X102357142Y-106326190D01*
X102238095Y-106326190D01*
X102190476Y-106350000D01*
X102166666Y-106373809D01*
X102142857Y-106421428D01*
X102142857Y-106469047D01*
X102166666Y-106540476D01*
X102452380Y-106826190D01*
X102142857Y-106826190D01*
X101833333Y-106326190D02*
X101785714Y-106326190D01*
X101738095Y-106350000D01*
X101714285Y-106373809D01*
X101690476Y-106421428D01*
X101666666Y-106516666D01*
X101666666Y-106635714D01*
X101690476Y-106730952D01*
X101714285Y-106778571D01*
X101738095Y-106802380D01*
X101785714Y-106826190D01*
X101833333Y-106826190D01*
X101880952Y-106802380D01*
X101904761Y-106778571D01*
X101928571Y-106730952D01*
X101952380Y-106635714D01*
X101952380Y-106516666D01*
X101928571Y-106421428D01*
X101904761Y-106373809D01*
X101880952Y-106350000D01*
X101833333Y-106326190D01*
X101476190Y-106373809D02*
X101452380Y-106350000D01*
X101404761Y-106326190D01*
X101285714Y-106326190D01*
X101238095Y-106350000D01*
X101214285Y-106373809D01*
X101190476Y-106421428D01*
X101190476Y-106469047D01*
X101214285Y-106540476D01*
X101500000Y-106826190D01*
X101190476Y-106826190D01*
X101000000Y-106373809D02*
X100976190Y-106350000D01*
X100928571Y-106326190D01*
X100809523Y-106326190D01*
X100761904Y-106350000D01*
X100738095Y-106373809D01*
X100714285Y-106421428D01*
X100714285Y-106469047D01*
X100738095Y-106540476D01*
X101023809Y-106826190D01*
X100714285Y-106826190D01*
X100500000Y-106635714D02*
X100119047Y-106635714D01*
X99785714Y-106326190D02*
X99738095Y-106326190D01*
X99690476Y-106350000D01*
X99666666Y-106373809D01*
X99642857Y-106421428D01*
X99619047Y-106516666D01*
X99619047Y-106635714D01*
X99642857Y-106730952D01*
X99666666Y-106778571D01*
X99690476Y-106802380D01*
X99738095Y-106826190D01*
X99785714Y-106826190D01*
X99833333Y-106802380D01*
X99857142Y-106778571D01*
X99880952Y-106730952D01*
X99904761Y-106635714D01*
X99904761Y-106516666D01*
X99880952Y-106421428D01*
X99857142Y-106373809D01*
X99833333Y-106350000D01*
X99785714Y-106326190D01*
X99452380Y-106326190D02*
X99142857Y-106326190D01*
X99309523Y-106516666D01*
X99238095Y-106516666D01*
X99190476Y-106540476D01*
X99166666Y-106564285D01*
X99142857Y-106611904D01*
X99142857Y-106730952D01*
X99166666Y-106778571D01*
X99190476Y-106802380D01*
X99238095Y-106826190D01*
X99380952Y-106826190D01*
X99428571Y-106802380D01*
X99452380Y-106778571D01*
X98928571Y-106635714D02*
X98547619Y-106635714D01*
X98214285Y-106326190D02*
X98166666Y-106326190D01*
X98119047Y-106350000D01*
X98095238Y-106373809D01*
X98071428Y-106421428D01*
X98047619Y-106516666D01*
X98047619Y-106635714D01*
X98071428Y-106730952D01*
X98095238Y-106778571D01*
X98119047Y-106802380D01*
X98166666Y-106826190D01*
X98214285Y-106826190D01*
X98261904Y-106802380D01*
X98285714Y-106778571D01*
X98309523Y-106730952D01*
X98333333Y-106635714D01*
X98333333Y-106516666D01*
X98309523Y-106421428D01*
X98285714Y-106373809D01*
X98261904Y-106350000D01*
X98214285Y-106326190D01*
X97619047Y-106326190D02*
X97714285Y-106326190D01*
X97761904Y-106350000D01*
X97785714Y-106373809D01*
X97833333Y-106445238D01*
X97857142Y-106540476D01*
X97857142Y-106730952D01*
X97833333Y-106778571D01*
X97809523Y-106802380D01*
X97761904Y-106826190D01*
X97666666Y-106826190D01*
X97619047Y-106802380D01*
X97595238Y-106778571D01*
X97571428Y-106730952D01*
X97571428Y-106611904D01*
X97595238Y-106564285D01*
X97619047Y-106540476D01*
X97666666Y-106516666D01*
X97761904Y-106516666D01*
X97809523Y-106540476D01*
X97833333Y-106564285D01*
X97857142Y-106611904D01*
D12*
%TO.C,Logo1*%
X100250000Y-97485000D02*
X100150000Y-97485000D01*
D13*
X99400000Y-93275000D02*
X99400000Y-97475000D01*
D12*
X100250000Y-97325000D02*
X100250000Y-97625000D01*
D13*
X97600000Y-93375000D02*
X99400000Y-95375000D01*
X99400000Y-95375000D02*
X97600000Y-97475000D01*
D12*
X100150000Y-97485000D02*
X100050000Y-97625000D01*
D13*
X99400000Y-95375000D02*
X100900000Y-95375000D01*
X99400000Y-93275000D02*
X102400000Y-97475000D01*
D12*
X100250000Y-97325000D02*
X100150000Y-97325000D01*
X100150000Y-97325000D02*
G75*
G03*
X100150000Y-97485000I0J-80000D01*
G01*
D13*
X99400000Y-97475000D02*
G75*
G03*
X100900000Y-97475000I750000J0D01*
G01*
D12*
X100470000Y-97485000D02*
G75*
G03*
X100470000Y-97485000I-300000J0D01*
G01*
%TD*%
D14*
%TO.P,J1,1,Pin_1*%
%TO.N,Net-(J1-Pad1)*%
X116900000Y-106250000D03*
D15*
%TO.P,J1,2,Pin_2*%
%TO.N,Net-(J1-Pad2)*%
X116900000Y-103750000D03*
%TO.P,J1,3,Pin_3*%
%TO.N,GND*%
X116900000Y-101250000D03*
%TO.P,J1,4,Pin_4*%
%TO.N,Net-(J1-Pad4)*%
X116900000Y-98750000D03*
%TO.P,J1,5,Pin_5*%
%TO.N,Net-(J1-Pad5)*%
X116900000Y-96250000D03*
%TO.P,J1,6,Pin_6*%
%TO.N,Net-(J1-Pad6)*%
X116900000Y-93750000D03*
%TD*%
D16*
%TO.P,U2,*%
%TO.N,*%
X101400000Y-105000000D03*
D17*
X100300000Y-105000000D03*
X99700000Y-105000000D03*
D16*
X98600000Y-105000000D03*
D18*
X102000000Y-104300000D03*
X100800000Y-104300000D03*
D19*
X99900000Y-104700000D03*
D18*
X99200000Y-104300000D03*
X98000000Y-104300000D03*
D20*
X101400000Y-104400000D03*
X98600000Y-104400000D03*
D17*
X100300000Y-104400000D03*
X99700000Y-104400000D03*
D21*
X100400000Y-103800000D03*
D22*
X100000000Y-104200000D03*
D23*
X99600000Y-103900000D03*
D22*
X100200000Y-104000000D03*
D24*
X101400000Y-103800000D03*
D25*
X100000000Y-103700000D03*
D24*
X98600000Y-103800000D03*
D22*
X100200000Y-103600000D03*
D26*
X99800000Y-103400000D03*
D22*
X102000000Y-103400000D03*
X101200000Y-103400000D03*
D17*
X100700000Y-103400000D03*
D24*
X99000000Y-103400000D03*
D22*
X98000000Y-103400000D03*
X101600000Y-103200000D03*
X100600000Y-103200000D03*
D23*
X100000000Y-102900000D03*
D27*
X99400000Y-103200000D03*
D22*
X98800000Y-103200000D03*
X98200000Y-103200000D03*
D26*
X102000000Y-102800000D03*
D25*
X101400000Y-102900000D03*
D22*
X100800000Y-103000000D03*
D17*
X99100000Y-103000000D03*
X98500000Y-103000000D03*
D22*
X98000000Y-103000000D03*
X101800000Y-102800000D03*
D25*
X101200000Y-102700000D03*
D22*
X100200000Y-102800000D03*
D27*
X99400000Y-102800000D03*
D26*
X98800000Y-102600000D03*
D25*
X98200000Y-102700000D03*
D28*
X100700000Y-102600000D03*
D17*
X99700000Y-102600000D03*
D26*
X99200000Y-102400000D03*
D22*
X98000000Y-102600000D03*
D25*
X100400000Y-102300000D03*
D17*
X99500000Y-102400000D03*
X98500000Y-102400000D03*
D16*
X101400000Y-102200000D03*
D19*
X99900000Y-102100000D03*
D22*
X99400000Y-102200000D03*
D18*
X102000000Y-101500000D03*
X100800000Y-101500000D03*
D22*
X99000000Y-102000000D03*
X98000000Y-102000000D03*
D20*
X101400000Y-101600000D03*
D17*
X100300000Y-101800000D03*
D19*
X98300000Y-101700000D03*
D26*
X100200000Y-101400000D03*
D22*
X99800000Y-101600000D03*
D17*
X99100000Y-101600000D03*
D23*
X98600000Y-101300000D03*
D22*
X98000000Y-101600000D03*
D26*
X99600000Y-101200000D03*
X99200000Y-101200000D03*
D22*
X98400000Y-101400000D03*
D25*
X100000000Y-101100000D03*
X99400000Y-101100000D03*
X98800000Y-101100000D03*
X98000000Y-101100000D03*
D24*
X101400000Y-101000000D03*
D22*
X100400000Y-101000000D03*
X99000000Y-101000000D03*
X98200000Y-101000000D03*
%TD*%
D29*
%TO.N,Net-(J1-Pad1)*%
X106000000Y-106250000D03*
%TO.N,Net-(J1-Pad2)*%
X106000000Y-103750000D03*
%TO.N,Net-(J1-Pad4)*%
X106000000Y-98750000D03*
%TO.N,Net-(J1-Pad5)*%
X106000000Y-96250000D03*
%TO.N,Net-(J1-Pad6)*%
X106000000Y-93750000D03*
%TD*%
D30*
%TO.N,Net-(J1-Pad1)*%
X106000000Y-106250000D02*
X116900000Y-106250000D01*
%TO.N,Net-(J1-Pad2)*%
X106000000Y-103750000D02*
X116900000Y-103750000D01*
%TO.N,Net-(J1-Pad4)*%
X106000000Y-98750000D02*
X116900000Y-98750000D01*
%TO.N,Net-(J1-Pad5)*%
X106000000Y-96250000D02*
X116900000Y-96250000D01*
%TO.N,Net-(J1-Pad6)*%
X106000000Y-93750000D02*
X116900000Y-93750000D01*
%TD*%
%TA.AperFunction,Conductor*%
%TO.N,GND*%
G36*
X112987153Y-85256421D02*
G01*
X113000000Y-85258976D01*
X113012171Y-85256555D01*
X113024581Y-85256555D01*
X113024581Y-85257198D01*
X113035326Y-85256527D01*
X113239491Y-85271129D01*
X113257285Y-85273687D01*
X113483101Y-85322810D01*
X113500350Y-85327875D01*
X113583148Y-85358757D01*
X113716877Y-85408635D01*
X113733226Y-85416102D01*
X113936049Y-85526852D01*
X113951173Y-85536571D01*
X114136176Y-85675063D01*
X114149762Y-85686836D01*
X114313164Y-85850238D01*
X114324937Y-85863824D01*
X114463429Y-86048827D01*
X114473148Y-86063951D01*
X114583898Y-86266774D01*
X114591367Y-86283127D01*
X114672125Y-86499650D01*
X114677190Y-86516899D01*
X114726313Y-86742715D01*
X114728871Y-86760509D01*
X114743473Y-86964674D01*
X114742802Y-86975419D01*
X114743445Y-86975419D01*
X114743445Y-86987829D01*
X114741024Y-87000000D01*
X114743445Y-87012170D01*
X114743579Y-87012844D01*
X114746000Y-87037425D01*
X114746000Y-90962575D01*
X114743579Y-90987153D01*
X114741024Y-91000000D01*
X114746000Y-91025017D01*
X114760737Y-91099106D01*
X114816876Y-91183124D01*
X114900894Y-91239263D01*
X115000000Y-91258976D01*
X115012847Y-91256421D01*
X115037425Y-91254000D01*
X123120000Y-91254000D01*
X123188121Y-91274002D01*
X123234614Y-91327658D01*
X123246000Y-91380000D01*
X123246000Y-108620000D01*
X123225998Y-108688121D01*
X123172342Y-108734614D01*
X123120000Y-108746000D01*
X115037425Y-108746000D01*
X115012847Y-108743579D01*
X115000000Y-108741024D01*
X114987828Y-108743445D01*
X114974983Y-108746000D01*
X114900894Y-108760737D01*
X114816876Y-108816876D01*
X114760737Y-108900894D01*
X114741024Y-109000000D01*
X114743445Y-109012170D01*
X114743579Y-109012844D01*
X114746000Y-109037425D01*
X114746000Y-112962575D01*
X114743579Y-112987153D01*
X114741024Y-113000000D01*
X114743445Y-113012171D01*
X114743445Y-113024581D01*
X114742802Y-113024581D01*
X114743473Y-113035326D01*
X114728871Y-113239491D01*
X114726313Y-113257285D01*
X114677190Y-113483101D01*
X114672125Y-113500350D01*
X114591367Y-113716873D01*
X114583898Y-113733226D01*
X114473148Y-113936049D01*
X114463429Y-113951173D01*
X114324937Y-114136176D01*
X114313164Y-114149762D01*
X114149762Y-114313164D01*
X114136176Y-114324937D01*
X113951173Y-114463429D01*
X113936049Y-114473148D01*
X113733226Y-114583898D01*
X113716877Y-114591365D01*
X113583148Y-114641243D01*
X113500350Y-114672125D01*
X113483101Y-114677190D01*
X113257285Y-114726313D01*
X113239491Y-114728871D01*
X113035326Y-114743473D01*
X113024581Y-114742802D01*
X113024581Y-114743445D01*
X113012171Y-114743445D01*
X113000000Y-114741024D01*
X112987153Y-114743579D01*
X112962575Y-114746000D01*
X87037425Y-114746000D01*
X87012847Y-114743579D01*
X87000000Y-114741024D01*
X86987829Y-114743445D01*
X86975419Y-114743445D01*
X86975419Y-114742802D01*
X86964674Y-114743473D01*
X86760509Y-114728871D01*
X86742715Y-114726313D01*
X86516899Y-114677190D01*
X86499650Y-114672125D01*
X86416852Y-114641243D01*
X86283123Y-114591365D01*
X86266774Y-114583898D01*
X86063951Y-114473148D01*
X86048827Y-114463429D01*
X85863824Y-114324937D01*
X85850238Y-114313164D01*
X85686836Y-114149762D01*
X85675063Y-114136176D01*
X85536571Y-113951173D01*
X85526852Y-113936049D01*
X85416102Y-113733226D01*
X85408633Y-113716873D01*
X85327875Y-113500350D01*
X85322810Y-113483101D01*
X85273687Y-113257285D01*
X85271129Y-113239491D01*
X85256527Y-113035326D01*
X85257198Y-113024581D01*
X85256555Y-113024581D01*
X85256555Y-113012171D01*
X85258976Y-113000000D01*
X85256421Y-112987153D01*
X85254000Y-112962575D01*
X85254000Y-107350000D01*
X97050000Y-107350000D01*
X102950000Y-107350000D01*
X102950000Y-106243096D01*
X105340729Y-106243096D01*
X105358113Y-106400553D01*
X105412553Y-106549319D01*
X105500908Y-106680805D01*
X105506527Y-106685918D01*
X105506528Y-106685919D01*
X105517903Y-106696269D01*
X105618076Y-106787419D01*
X105757293Y-106863008D01*
X105910522Y-106903207D01*
X105994477Y-106904526D01*
X106061319Y-106905576D01*
X106061322Y-106905576D01*
X106068916Y-106905695D01*
X106223332Y-106870329D01*
X106293742Y-106834917D01*
X106358072Y-106802563D01*
X106358075Y-106802561D01*
X106364855Y-106799151D01*
X106370626Y-106794222D01*
X106370629Y-106794220D01*
X106479542Y-106701199D01*
X106479543Y-106701198D01*
X106485314Y-106696269D01*
X106495586Y-106681974D01*
X106551581Y-106638326D01*
X106597909Y-106629500D01*
X115594500Y-106629500D01*
X115662621Y-106649502D01*
X115709114Y-106703158D01*
X115720500Y-106755500D01*
X115720500Y-106897756D01*
X115720869Y-106901152D01*
X115720869Y-106901153D01*
X115721350Y-106905576D01*
X115727202Y-106959448D01*
X115777929Y-107094764D01*
X115783309Y-107101943D01*
X115783311Y-107101946D01*
X115849287Y-107189977D01*
X115864596Y-107210404D01*
X115871776Y-107215785D01*
X115973054Y-107291689D01*
X115973057Y-107291691D01*
X115980236Y-107297071D01*
X116069954Y-107330704D01*
X116108157Y-107345026D01*
X116108159Y-107345026D01*
X116115552Y-107347798D01*
X116123402Y-107348651D01*
X116123403Y-107348651D01*
X116135821Y-107350000D01*
X116177244Y-107354500D01*
X117622756Y-107354500D01*
X117664179Y-107350000D01*
X117676597Y-107348651D01*
X117676598Y-107348651D01*
X117684448Y-107347798D01*
X117691841Y-107345026D01*
X117691843Y-107345026D01*
X117730046Y-107330704D01*
X117819764Y-107297071D01*
X117826943Y-107291691D01*
X117826946Y-107291689D01*
X117928224Y-107215785D01*
X117935404Y-107210404D01*
X117950713Y-107189977D01*
X118016689Y-107101946D01*
X118016691Y-107101943D01*
X118022071Y-107094764D01*
X118072798Y-106959448D01*
X118078651Y-106905576D01*
X118079131Y-106901153D01*
X118079131Y-106901152D01*
X118079500Y-106897756D01*
X118079500Y-105602244D01*
X118072798Y-105540552D01*
X118022071Y-105405236D01*
X118016691Y-105398057D01*
X118016689Y-105398054D01*
X117940785Y-105296776D01*
X117935404Y-105289596D01*
X117914977Y-105274287D01*
X117826946Y-105208311D01*
X117826943Y-105208309D01*
X117819764Y-105202929D01*
X117730046Y-105169296D01*
X117691843Y-105154974D01*
X117691841Y-105154974D01*
X117684448Y-105152202D01*
X117676598Y-105151349D01*
X117676597Y-105151349D01*
X117626153Y-105145869D01*
X117626152Y-105145869D01*
X117622756Y-105145500D01*
X116177244Y-105145500D01*
X116173848Y-105145869D01*
X116173847Y-105145869D01*
X116123403Y-105151349D01*
X116123402Y-105151349D01*
X116115552Y-105152202D01*
X116108159Y-105154974D01*
X116108157Y-105154974D01*
X116069954Y-105169296D01*
X115980236Y-105202929D01*
X115973057Y-105208309D01*
X115973054Y-105208311D01*
X115885023Y-105274287D01*
X115864596Y-105289596D01*
X115859215Y-105296776D01*
X115783311Y-105398054D01*
X115783309Y-105398057D01*
X115777929Y-105405236D01*
X115727202Y-105540552D01*
X115720500Y-105602244D01*
X115720500Y-105744500D01*
X115700498Y-105812621D01*
X115646842Y-105859114D01*
X115594500Y-105870500D01*
X106599682Y-105870500D01*
X106531561Y-105850498D01*
X106505114Y-105824860D01*
X106503878Y-105825949D01*
X106498855Y-105820251D01*
X106494553Y-105813992D01*
X106376275Y-105708611D01*
X106368889Y-105704700D01*
X106242988Y-105638039D01*
X106242989Y-105638039D01*
X106236274Y-105634484D01*
X106082633Y-105595892D01*
X106075034Y-105595852D01*
X106075033Y-105595852D01*
X106009181Y-105595507D01*
X105924221Y-105595062D01*
X105916841Y-105596834D01*
X105916839Y-105596834D01*
X105777563Y-105630271D01*
X105777560Y-105630272D01*
X105770184Y-105632043D01*
X105629414Y-105704700D01*
X105510039Y-105808838D01*
X105418950Y-105938444D01*
X105361406Y-106086037D01*
X105340729Y-106243096D01*
X102950000Y-106243096D01*
X102950000Y-103743096D01*
X105340729Y-103743096D01*
X105358113Y-103900553D01*
X105360723Y-103907684D01*
X105360723Y-103907686D01*
X105401254Y-104018442D01*
X105412553Y-104049319D01*
X105500908Y-104180805D01*
X105506527Y-104185918D01*
X105506528Y-104185919D01*
X105540763Y-104217070D01*
X105618076Y-104287419D01*
X105757293Y-104363008D01*
X105910522Y-104403207D01*
X105994477Y-104404526D01*
X106061319Y-104405576D01*
X106061322Y-104405576D01*
X106068916Y-104405695D01*
X106223332Y-104370329D01*
X106293742Y-104334917D01*
X106358072Y-104302563D01*
X106358075Y-104302561D01*
X106364855Y-104299151D01*
X106370626Y-104294222D01*
X106370629Y-104294220D01*
X106479542Y-104201199D01*
X106479543Y-104201198D01*
X106485314Y-104196269D01*
X106495586Y-104181974D01*
X106551581Y-104138326D01*
X106597909Y-104129500D01*
X115703109Y-104129500D01*
X115771230Y-104149502D01*
X115817810Y-104203349D01*
X115863157Y-104303084D01*
X115985096Y-104474986D01*
X116137340Y-104620728D01*
X116142375Y-104623979D01*
X116309360Y-104731800D01*
X116309363Y-104731801D01*
X116314397Y-104735052D01*
X116509878Y-104813834D01*
X116632688Y-104837817D01*
X116712283Y-104853361D01*
X116712286Y-104853361D01*
X116716729Y-104854229D01*
X116722270Y-104854500D01*
X117027659Y-104854500D01*
X117184806Y-104839507D01*
X117387042Y-104780177D01*
X117470304Y-104737294D01*
X117569079Y-104686422D01*
X117569082Y-104686420D01*
X117574410Y-104683676D01*
X117650408Y-104623979D01*
X117735432Y-104557192D01*
X117735436Y-104557188D01*
X117740149Y-104553486D01*
X117804674Y-104479128D01*
X117874350Y-104398835D01*
X117874354Y-104398830D01*
X117878281Y-104394304D01*
X117983819Y-104211874D01*
X118052957Y-104012778D01*
X118068195Y-103907686D01*
X118082338Y-103810140D01*
X118082338Y-103810137D01*
X118083199Y-103804200D01*
X118073455Y-103593667D01*
X118036047Y-103438444D01*
X118025482Y-103394607D01*
X118025481Y-103394605D01*
X118024076Y-103388774D01*
X118015768Y-103370500D01*
X117944458Y-103213664D01*
X117936843Y-103196916D01*
X117814904Y-103025014D01*
X117662660Y-102879272D01*
X117565171Y-102816324D01*
X117490640Y-102768200D01*
X117490637Y-102768199D01*
X117485603Y-102764948D01*
X117475643Y-102760934D01*
X117460226Y-102754720D01*
X117404521Y-102710704D01*
X117381456Y-102643558D01*
X117398354Y-102574602D01*
X117455576Y-102522973D01*
X117632970Y-102443063D01*
X117642256Y-102437894D01*
X117824575Y-102315150D01*
X117832870Y-102308481D01*
X117991900Y-102156772D01*
X117998941Y-102148814D01*
X118130141Y-101972475D01*
X118135745Y-101963438D01*
X118235357Y-101767516D01*
X118239357Y-101757665D01*
X118304534Y-101547760D01*
X118306817Y-101537376D01*
X118308861Y-101521957D01*
X118306665Y-101507793D01*
X118293478Y-101504000D01*
X115508808Y-101504000D01*
X115495277Y-101507973D01*
X115493752Y-101518580D01*
X115518477Y-101636421D01*
X115521537Y-101646617D01*
X115602263Y-101851029D01*
X115606994Y-101860561D01*
X115721016Y-102048462D01*
X115727280Y-102057052D01*
X115871327Y-102223052D01*
X115878958Y-102230472D01*
X116048911Y-102369826D01*
X116057678Y-102375850D01*
X116248682Y-102484576D01*
X116258345Y-102489041D01*
X116340788Y-102518966D01*
X116397996Y-102561010D01*
X116423392Y-102627309D01*
X116408912Y-102696814D01*
X116355490Y-102749421D01*
X116225590Y-102816324D01*
X116220875Y-102820028D01*
X116064568Y-102942808D01*
X116064564Y-102942812D01*
X116059851Y-102946514D01*
X116055920Y-102951044D01*
X116055919Y-102951045D01*
X115925650Y-103101165D01*
X115925646Y-103101170D01*
X115921719Y-103105696D01*
X115816181Y-103288126D01*
X115814214Y-103293791D01*
X115812766Y-103296953D01*
X115766221Y-103350564D01*
X115698203Y-103370500D01*
X106599682Y-103370500D01*
X106531561Y-103350498D01*
X106505114Y-103324860D01*
X106503878Y-103325949D01*
X106498855Y-103320251D01*
X106494553Y-103313992D01*
X106376275Y-103208611D01*
X106368889Y-103204700D01*
X106242988Y-103138039D01*
X106242989Y-103138039D01*
X106236274Y-103134484D01*
X106082633Y-103095892D01*
X106075034Y-103095852D01*
X106075033Y-103095852D01*
X106009181Y-103095507D01*
X105924221Y-103095062D01*
X105916841Y-103096834D01*
X105916839Y-103096834D01*
X105777563Y-103130271D01*
X105777560Y-103130272D01*
X105770184Y-103132043D01*
X105629414Y-103204700D01*
X105510039Y-103308838D01*
X105418950Y-103438444D01*
X105361406Y-103586037D01*
X105360414Y-103593570D01*
X105360414Y-103593571D01*
X105360402Y-103593667D01*
X105340729Y-103743096D01*
X102950000Y-103743096D01*
X102950000Y-100050000D01*
X97050000Y-100050000D01*
X97050000Y-107350000D01*
X85254000Y-107350000D01*
X85254000Y-98743096D01*
X105340729Y-98743096D01*
X105358113Y-98900553D01*
X105360723Y-98907684D01*
X105360723Y-98907686D01*
X105401254Y-99018442D01*
X105412553Y-99049319D01*
X105500908Y-99180805D01*
X105506527Y-99185918D01*
X105506528Y-99185919D01*
X105540763Y-99217070D01*
X105618076Y-99287419D01*
X105757293Y-99363008D01*
X105910522Y-99403207D01*
X105994477Y-99404526D01*
X106061319Y-99405576D01*
X106061322Y-99405576D01*
X106068916Y-99405695D01*
X106223332Y-99370329D01*
X106293742Y-99334917D01*
X106358072Y-99302563D01*
X106358075Y-99302561D01*
X106364855Y-99299151D01*
X106370626Y-99294222D01*
X106370629Y-99294220D01*
X106479542Y-99201199D01*
X106479543Y-99201198D01*
X106485314Y-99196269D01*
X106495586Y-99181974D01*
X106551581Y-99138326D01*
X106597909Y-99129500D01*
X115703109Y-99129500D01*
X115771230Y-99149502D01*
X115817810Y-99203349D01*
X115863157Y-99303084D01*
X115985096Y-99474986D01*
X116137340Y-99620728D01*
X116142375Y-99623979D01*
X116309360Y-99731800D01*
X116309363Y-99731801D01*
X116314397Y-99735052D01*
X116319963Y-99737295D01*
X116339774Y-99745280D01*
X116395479Y-99789296D01*
X116418544Y-99856442D01*
X116401646Y-99925398D01*
X116344424Y-99977027D01*
X116167030Y-100056937D01*
X116157744Y-100062106D01*
X115975425Y-100184850D01*
X115967130Y-100191519D01*
X115808100Y-100343228D01*
X115801059Y-100351186D01*
X115669859Y-100527525D01*
X115664255Y-100536562D01*
X115564643Y-100732484D01*
X115560643Y-100742335D01*
X115495466Y-100952240D01*
X115493183Y-100962624D01*
X115491139Y-100978043D01*
X115493335Y-100992207D01*
X115506522Y-100996000D01*
X118291192Y-100996000D01*
X118304723Y-100992027D01*
X118306248Y-100981420D01*
X118281523Y-100863579D01*
X118278463Y-100853383D01*
X118197737Y-100648971D01*
X118193006Y-100639439D01*
X118078984Y-100451538D01*
X118072720Y-100442948D01*
X117928673Y-100276948D01*
X117921042Y-100269528D01*
X117751089Y-100130174D01*
X117742322Y-100124150D01*
X117551318Y-100015424D01*
X117541655Y-100010959D01*
X117459212Y-99981034D01*
X117402004Y-99938990D01*
X117376608Y-99872691D01*
X117391088Y-99803186D01*
X117444510Y-99750579D01*
X117445350Y-99750147D01*
X117574410Y-99683676D01*
X117650408Y-99623979D01*
X117735432Y-99557192D01*
X117735436Y-99557188D01*
X117740149Y-99553486D01*
X117804674Y-99479128D01*
X117874350Y-99398835D01*
X117874354Y-99398830D01*
X117878281Y-99394304D01*
X117983819Y-99211874D01*
X118052957Y-99012778D01*
X118068195Y-98907686D01*
X118082338Y-98810140D01*
X118082338Y-98810137D01*
X118083199Y-98804200D01*
X118073455Y-98593667D01*
X118059954Y-98537643D01*
X118025482Y-98394607D01*
X118025481Y-98394605D01*
X118024076Y-98388774D01*
X118015768Y-98370500D01*
X117944458Y-98213664D01*
X117936843Y-98196916D01*
X117814904Y-98025014D01*
X117662660Y-97879272D01*
X117585516Y-97829461D01*
X117490640Y-97768200D01*
X117490637Y-97768199D01*
X117485603Y-97764948D01*
X117290122Y-97686166D01*
X117155739Y-97659923D01*
X117087717Y-97646639D01*
X117087714Y-97646639D01*
X117083271Y-97645771D01*
X117077730Y-97645500D01*
X116772341Y-97645500D01*
X116615194Y-97660493D01*
X116412958Y-97719823D01*
X116337560Y-97758655D01*
X116230921Y-97813578D01*
X116230918Y-97813580D01*
X116225590Y-97816324D01*
X116192833Y-97842055D01*
X116064568Y-97942808D01*
X116064564Y-97942812D01*
X116059851Y-97946514D01*
X116055920Y-97951044D01*
X116055919Y-97951045D01*
X115925650Y-98101165D01*
X115925646Y-98101170D01*
X115921719Y-98105696D01*
X115816181Y-98288126D01*
X115814214Y-98293791D01*
X115812766Y-98296953D01*
X115766221Y-98350564D01*
X115698203Y-98370500D01*
X106599682Y-98370500D01*
X106531561Y-98350498D01*
X106505114Y-98324860D01*
X106503878Y-98325949D01*
X106498855Y-98320251D01*
X106494553Y-98313992D01*
X106376275Y-98208611D01*
X106368889Y-98204700D01*
X106242988Y-98138039D01*
X106242989Y-98138039D01*
X106236274Y-98134484D01*
X106082633Y-98095892D01*
X106075034Y-98095852D01*
X106075033Y-98095852D01*
X106009181Y-98095507D01*
X105924221Y-98095062D01*
X105916841Y-98096834D01*
X105916839Y-98096834D01*
X105777563Y-98130271D01*
X105777560Y-98130272D01*
X105770184Y-98132043D01*
X105629414Y-98204700D01*
X105510039Y-98308838D01*
X105418950Y-98438444D01*
X105361406Y-98586037D01*
X105360414Y-98593570D01*
X105360414Y-98593571D01*
X105360402Y-98593667D01*
X105340729Y-98743096D01*
X85254000Y-98743096D01*
X85254000Y-97456221D01*
X97216218Y-97456221D01*
X97217423Y-97466559D01*
X97217423Y-97466560D01*
X97227844Y-97555953D01*
X97230827Y-97581547D01*
X97258035Y-97638465D01*
X97280752Y-97685990D01*
X97280754Y-97685992D01*
X97285243Y-97695384D01*
X97373599Y-97785458D01*
X97486369Y-97842055D01*
X97611390Y-97859072D01*
X97621610Y-97857058D01*
X97621611Y-97857058D01*
X97724964Y-97836690D01*
X97735184Y-97834676D01*
X97766908Y-97816324D01*
X97837545Y-97775461D01*
X97837547Y-97775459D01*
X97844400Y-97771495D01*
X97848380Y-97767592D01*
X98799335Y-96658145D01*
X98858853Y-96619441D01*
X98929848Y-96619060D01*
X98989780Y-96657122D01*
X99019619Y-96721544D01*
X99021000Y-96740145D01*
X99021000Y-97435256D01*
X99019449Y-97454966D01*
X99016276Y-97475000D01*
X99017194Y-97480797D01*
X99033905Y-97671798D01*
X99061419Y-97774483D01*
X99079807Y-97843107D01*
X99085034Y-97862616D01*
X99087357Y-97867597D01*
X99087357Y-97867598D01*
X99166196Y-98036670D01*
X99166199Y-98036675D01*
X99168522Y-98041657D01*
X99207794Y-98097743D01*
X99277236Y-98196916D01*
X99281832Y-98203480D01*
X99421520Y-98343168D01*
X99583344Y-98456478D01*
X99588322Y-98458799D01*
X99588325Y-98458801D01*
X99757402Y-98537643D01*
X99762384Y-98539966D01*
X99767692Y-98541388D01*
X99767694Y-98541389D01*
X99947887Y-98589671D01*
X99947888Y-98589671D01*
X99953202Y-98591095D01*
X100150000Y-98608313D01*
X100346798Y-98591095D01*
X100352112Y-98589671D01*
X100352113Y-98589671D01*
X100532306Y-98541389D01*
X100532308Y-98541388D01*
X100537616Y-98539966D01*
X100542598Y-98537643D01*
X100711670Y-98458804D01*
X100711675Y-98458801D01*
X100716657Y-98456478D01*
X100839446Y-98370500D01*
X100873969Y-98346327D01*
X100873972Y-98346325D01*
X100878480Y-98343168D01*
X101018168Y-98203480D01*
X101022765Y-98196916D01*
X101092206Y-98097743D01*
X101131478Y-98041657D01*
X101133801Y-98036675D01*
X101133804Y-98036670D01*
X101212643Y-97867598D01*
X101212643Y-97867597D01*
X101214966Y-97862616D01*
X101220194Y-97843107D01*
X101238581Y-97774483D01*
X101266095Y-97671798D01*
X101282806Y-97480797D01*
X101283724Y-97475000D01*
X101264943Y-97356423D01*
X101210439Y-97249453D01*
X101125547Y-97164561D01*
X101018577Y-97110057D01*
X101008787Y-97108506D01*
X101008786Y-97108506D01*
X100909792Y-97092827D01*
X100900000Y-97091276D01*
X100890208Y-97092827D01*
X100791214Y-97108506D01*
X100791213Y-97108506D01*
X100781423Y-97110057D01*
X100766666Y-97117576D01*
X100696891Y-97130681D01*
X100631106Y-97103983D01*
X100609500Y-97082014D01*
X100598673Y-97067904D01*
X100598669Y-97067900D01*
X100593646Y-97061354D01*
X100469563Y-96966142D01*
X100325065Y-96906289D01*
X100170000Y-96885874D01*
X100014935Y-96906289D01*
X100007303Y-96909450D01*
X100007304Y-96909450D01*
X99953218Y-96931853D01*
X99882628Y-96939442D01*
X99819141Y-96907663D01*
X99782914Y-96846605D01*
X99779000Y-96815444D01*
X99779000Y-95880000D01*
X99799002Y-95811879D01*
X99852658Y-95765386D01*
X99905000Y-95754000D01*
X100640119Y-95754000D01*
X100708240Y-95774002D01*
X100742648Y-95806763D01*
X101166784Y-96400553D01*
X102096973Y-97702818D01*
X102109897Y-97720912D01*
X102176530Y-97787573D01*
X102289826Y-97843107D01*
X102343402Y-97849887D01*
X102404670Y-97857640D01*
X102404673Y-97857640D01*
X102415002Y-97858947D01*
X102425197Y-97856838D01*
X102425199Y-97856838D01*
X102528368Y-97835497D01*
X102528371Y-97835496D01*
X102538561Y-97833388D01*
X102647179Y-97769184D01*
X102729144Y-97673256D01*
X102775617Y-97555953D01*
X102781588Y-97429920D01*
X102759694Y-97354500D01*
X102748621Y-97316359D01*
X102748620Y-97316358D01*
X102746411Y-97308747D01*
X102743575Y-97303949D01*
X101985823Y-96243096D01*
X105340729Y-96243096D01*
X105358113Y-96400553D01*
X105360723Y-96407684D01*
X105360723Y-96407686D01*
X105401254Y-96518442D01*
X105412553Y-96549319D01*
X105416789Y-96555622D01*
X105416789Y-96555623D01*
X105484994Y-96657122D01*
X105500908Y-96680805D01*
X105506527Y-96685918D01*
X105506528Y-96685919D01*
X105540763Y-96717070D01*
X105618076Y-96787419D01*
X105757293Y-96863008D01*
X105910522Y-96903207D01*
X105994477Y-96904526D01*
X106061319Y-96905576D01*
X106061322Y-96905576D01*
X106068916Y-96905695D01*
X106223332Y-96870329D01*
X106332460Y-96815444D01*
X106358072Y-96802563D01*
X106358075Y-96802561D01*
X106364855Y-96799151D01*
X106370626Y-96794222D01*
X106370629Y-96794220D01*
X106479542Y-96701199D01*
X106479543Y-96701198D01*
X106485314Y-96696269D01*
X106495586Y-96681974D01*
X106551581Y-96638326D01*
X106597909Y-96629500D01*
X115703109Y-96629500D01*
X115771230Y-96649502D01*
X115817810Y-96703349D01*
X115863157Y-96803084D01*
X115985096Y-96974986D01*
X116137340Y-97120728D01*
X116142375Y-97123979D01*
X116309360Y-97231800D01*
X116309363Y-97231801D01*
X116314397Y-97235052D01*
X116509878Y-97313834D01*
X116607612Y-97332920D01*
X116712283Y-97353361D01*
X116712286Y-97353361D01*
X116716729Y-97354229D01*
X116722270Y-97354500D01*
X117027659Y-97354500D01*
X117184806Y-97339507D01*
X117237624Y-97324012D01*
X117381278Y-97281868D01*
X117387042Y-97280177D01*
X117470304Y-97237294D01*
X117569079Y-97186422D01*
X117569082Y-97186420D01*
X117574410Y-97183676D01*
X117650408Y-97123979D01*
X117735432Y-97057192D01*
X117735436Y-97057188D01*
X117740149Y-97053486D01*
X117804674Y-96979128D01*
X117874350Y-96898835D01*
X117874354Y-96898830D01*
X117878281Y-96894304D01*
X117983819Y-96711874D01*
X118052957Y-96512778D01*
X118068195Y-96407686D01*
X118082338Y-96310140D01*
X118082338Y-96310137D01*
X118083199Y-96304200D01*
X118073455Y-96093667D01*
X118036047Y-95938444D01*
X118025482Y-95894607D01*
X118025481Y-95894605D01*
X118024076Y-95888774D01*
X118015768Y-95870500D01*
X117944458Y-95713664D01*
X117936843Y-95696916D01*
X117814904Y-95525014D01*
X117662660Y-95379272D01*
X117538091Y-95298839D01*
X117490640Y-95268200D01*
X117490637Y-95268199D01*
X117485603Y-95264948D01*
X117290122Y-95186166D01*
X117155739Y-95159923D01*
X117087717Y-95146639D01*
X117087714Y-95146639D01*
X117083271Y-95145771D01*
X117077730Y-95145500D01*
X116772341Y-95145500D01*
X116615194Y-95160493D01*
X116412958Y-95219823D01*
X116407619Y-95222573D01*
X116230921Y-95313578D01*
X116230918Y-95313580D01*
X116225590Y-95316324D01*
X116220875Y-95320028D01*
X116064568Y-95442808D01*
X116064564Y-95442812D01*
X116059851Y-95446514D01*
X116055920Y-95451044D01*
X116055919Y-95451045D01*
X115925650Y-95601165D01*
X115925646Y-95601170D01*
X115921719Y-95605696D01*
X115816181Y-95788126D01*
X115814214Y-95793791D01*
X115812766Y-95796953D01*
X115766221Y-95850564D01*
X115698203Y-95870500D01*
X106599682Y-95870500D01*
X106531561Y-95850498D01*
X106505114Y-95824860D01*
X106503878Y-95825949D01*
X106498855Y-95820251D01*
X106494553Y-95813992D01*
X106486441Y-95806764D01*
X106381946Y-95713664D01*
X106376275Y-95708611D01*
X106368889Y-95704700D01*
X106242988Y-95638039D01*
X106242989Y-95638039D01*
X106236274Y-95634484D01*
X106082633Y-95595892D01*
X106075034Y-95595852D01*
X106075033Y-95595852D01*
X106009181Y-95595507D01*
X105924221Y-95595062D01*
X105916841Y-95596834D01*
X105916839Y-95596834D01*
X105777563Y-95630271D01*
X105777560Y-95630272D01*
X105770184Y-95632043D01*
X105629414Y-95704700D01*
X105510039Y-95808838D01*
X105418950Y-95938444D01*
X105361406Y-96086037D01*
X105360414Y-96093570D01*
X105360414Y-96093571D01*
X105360402Y-96093667D01*
X105340729Y-96243096D01*
X101985823Y-96243096D01*
X101728834Y-95883312D01*
X101215628Y-95164823D01*
X101212306Y-95159935D01*
X101184197Y-95116401D01*
X101178172Y-95111651D01*
X101173630Y-95106026D01*
X100993969Y-94854500D01*
X100200108Y-93743096D01*
X105340729Y-93743096D01*
X105358113Y-93900553D01*
X105360723Y-93907684D01*
X105360723Y-93907686D01*
X105401254Y-94018442D01*
X105412553Y-94049319D01*
X105500908Y-94180805D01*
X105506527Y-94185918D01*
X105506528Y-94185919D01*
X105540763Y-94217070D01*
X105618076Y-94287419D01*
X105757293Y-94363008D01*
X105910522Y-94403207D01*
X105994477Y-94404526D01*
X106061319Y-94405576D01*
X106061322Y-94405576D01*
X106068916Y-94405695D01*
X106223332Y-94370329D01*
X106293742Y-94334917D01*
X106358072Y-94302563D01*
X106358075Y-94302561D01*
X106364855Y-94299151D01*
X106370626Y-94294222D01*
X106370629Y-94294220D01*
X106479542Y-94201199D01*
X106479543Y-94201198D01*
X106485314Y-94196269D01*
X106495586Y-94181974D01*
X106551581Y-94138326D01*
X106597909Y-94129500D01*
X115703109Y-94129500D01*
X115771230Y-94149502D01*
X115817810Y-94203349D01*
X115863157Y-94303084D01*
X115985096Y-94474986D01*
X116137340Y-94620728D01*
X116142375Y-94623979D01*
X116309360Y-94731800D01*
X116309363Y-94731801D01*
X116314397Y-94735052D01*
X116509878Y-94813834D01*
X116632688Y-94837817D01*
X116712283Y-94853361D01*
X116712286Y-94853361D01*
X116716729Y-94854229D01*
X116722270Y-94854500D01*
X117027659Y-94854500D01*
X117184806Y-94839507D01*
X117387042Y-94780177D01*
X117472390Y-94736220D01*
X117569079Y-94686422D01*
X117569082Y-94686420D01*
X117574410Y-94683676D01*
X117650408Y-94623979D01*
X117735432Y-94557192D01*
X117735436Y-94557188D01*
X117740149Y-94553486D01*
X117804674Y-94479128D01*
X117874350Y-94398835D01*
X117874354Y-94398830D01*
X117878281Y-94394304D01*
X117983819Y-94211874D01*
X118052957Y-94012778D01*
X118068195Y-93907686D01*
X118082338Y-93810140D01*
X118082338Y-93810137D01*
X118083199Y-93804200D01*
X118073455Y-93593667D01*
X118071505Y-93585573D01*
X118025482Y-93394607D01*
X118025481Y-93394605D01*
X118024076Y-93388774D01*
X118015768Y-93370500D01*
X117969359Y-93268430D01*
X117936843Y-93196916D01*
X117842743Y-93064259D01*
X117818370Y-93029900D01*
X117818369Y-93029899D01*
X117814904Y-93025014D01*
X117662660Y-92879272D01*
X117560918Y-92813578D01*
X117490640Y-92768200D01*
X117490637Y-92768199D01*
X117485603Y-92764948D01*
X117290122Y-92686166D01*
X117155739Y-92659923D01*
X117087717Y-92646639D01*
X117087714Y-92646639D01*
X117083271Y-92645771D01*
X117077730Y-92645500D01*
X116772341Y-92645500D01*
X116615194Y-92660493D01*
X116412958Y-92719823D01*
X116407619Y-92722573D01*
X116230921Y-92813578D01*
X116230918Y-92813580D01*
X116225590Y-92816324D01*
X116220875Y-92820028D01*
X116064568Y-92942808D01*
X116064564Y-92942812D01*
X116059851Y-92946514D01*
X116055920Y-92951044D01*
X116055919Y-92951045D01*
X115925650Y-93101165D01*
X115925646Y-93101170D01*
X115921719Y-93105696D01*
X115816181Y-93288126D01*
X115814214Y-93293791D01*
X115812766Y-93296953D01*
X115766221Y-93350564D01*
X115698203Y-93370500D01*
X106599682Y-93370500D01*
X106531561Y-93350498D01*
X106505114Y-93324860D01*
X106503878Y-93325949D01*
X106498855Y-93320251D01*
X106494553Y-93313992D01*
X106376275Y-93208611D01*
X106368889Y-93204700D01*
X106255480Y-93144653D01*
X106236274Y-93134484D01*
X106082633Y-93095892D01*
X106075034Y-93095852D01*
X106075033Y-93095852D01*
X106009181Y-93095507D01*
X105924221Y-93095062D01*
X105916841Y-93096834D01*
X105916839Y-93096834D01*
X105777563Y-93130271D01*
X105777560Y-93130272D01*
X105770184Y-93132043D01*
X105629414Y-93204700D01*
X105510039Y-93308838D01*
X105418950Y-93438444D01*
X105390178Y-93512241D01*
X105366955Y-93571805D01*
X105361406Y-93586037D01*
X105360414Y-93593570D01*
X105360414Y-93593571D01*
X105360402Y-93593667D01*
X105340729Y-93743096D01*
X100200108Y-93743096D01*
X99726966Y-93080697D01*
X99718609Y-93067294D01*
X99708556Y-93048663D01*
X99703610Y-93039496D01*
X99693229Y-93029900D01*
X99664606Y-93003441D01*
X99661021Y-92999992D01*
X99630834Y-92969792D01*
X99630830Y-92969789D01*
X99623470Y-92962426D01*
X99616585Y-92959051D01*
X99610957Y-92953849D01*
X99562355Y-92932362D01*
X99557921Y-92930297D01*
X99510174Y-92906893D01*
X99502568Y-92905930D01*
X99495557Y-92902831D01*
X99450519Y-92898930D01*
X99442643Y-92898248D01*
X99437695Y-92897721D01*
X99433904Y-92897241D01*
X99384998Y-92891052D01*
X99377492Y-92892605D01*
X99369853Y-92891943D01*
X99359745Y-92894454D01*
X99359743Y-92894454D01*
X99318298Y-92904749D01*
X99313448Y-92905853D01*
X99261439Y-92916612D01*
X99254840Y-92920513D01*
X99247399Y-92922361D01*
X99231875Y-92932385D01*
X99202772Y-92951177D01*
X99198537Y-92953794D01*
X99161785Y-92975517D01*
X99161783Y-92975519D01*
X99152821Y-92980816D01*
X99147840Y-92986645D01*
X99141401Y-92990803D01*
X99134954Y-92998981D01*
X99134953Y-92998982D01*
X99108521Y-93032512D01*
X99105368Y-93036353D01*
X99070856Y-93076743D01*
X99068032Y-93083871D01*
X99063287Y-93089890D01*
X99059836Y-93099717D01*
X99045693Y-93139991D01*
X99043955Y-93144646D01*
X99024383Y-93194047D01*
X99024020Y-93201708D01*
X99021481Y-93208938D01*
X99021000Y-93214491D01*
X99021000Y-93262467D01*
X99020859Y-93268430D01*
X99018412Y-93320080D01*
X99020570Y-93327512D01*
X99021000Y-93334827D01*
X99021000Y-94058991D01*
X99000998Y-94127112D01*
X98947342Y-94173605D01*
X98877068Y-94183709D01*
X98812488Y-94154215D01*
X98801345Y-94143281D01*
X98796886Y-94138326D01*
X98441178Y-93743096D01*
X97864119Y-93101919D01*
X97864118Y-93101918D01*
X97860644Y-93098058D01*
X97842849Y-93083871D01*
X97795090Y-93045796D01*
X97795088Y-93045795D01*
X97786945Y-93039303D01*
X97668128Y-92996847D01*
X97657716Y-92996708D01*
X97657714Y-92996708D01*
X97605046Y-92996007D01*
X97541964Y-92995168D01*
X97422059Y-93034445D01*
X97413746Y-93040717D01*
X97413747Y-93040717D01*
X97329653Y-93104170D01*
X97329652Y-93104171D01*
X97321340Y-93110443D01*
X97306337Y-93132634D01*
X97262821Y-93196998D01*
X97250670Y-93214970D01*
X97247946Y-93225022D01*
X97247945Y-93225024D01*
X97220595Y-93325949D01*
X97217667Y-93336752D01*
X97225891Y-93462658D01*
X97274456Y-93579112D01*
X97277813Y-93583562D01*
X98821564Y-95298841D01*
X98852266Y-95362854D01*
X98843486Y-95433305D01*
X98823574Y-95465129D01*
X97300164Y-97242442D01*
X97291750Y-97252258D01*
X97242992Y-97332920D01*
X97240783Y-97343091D01*
X97240783Y-97343092D01*
X97238553Y-97353361D01*
X97216218Y-97456221D01*
X85254000Y-97456221D01*
X85254000Y-87037425D01*
X85256421Y-87012844D01*
X85256555Y-87012170D01*
X85258976Y-87000000D01*
X85256555Y-86987829D01*
X85256555Y-86975419D01*
X85257198Y-86975419D01*
X85256527Y-86964674D01*
X85271129Y-86760509D01*
X85273687Y-86742715D01*
X85322810Y-86516899D01*
X85327875Y-86499650D01*
X85408633Y-86283127D01*
X85416102Y-86266774D01*
X85526852Y-86063951D01*
X85536571Y-86048827D01*
X85675063Y-85863824D01*
X85686836Y-85850238D01*
X85850238Y-85686836D01*
X85863824Y-85675063D01*
X86048827Y-85536571D01*
X86063951Y-85526852D01*
X86266774Y-85416102D01*
X86283123Y-85408635D01*
X86416852Y-85358757D01*
X86499650Y-85327875D01*
X86516899Y-85322810D01*
X86742715Y-85273687D01*
X86760509Y-85271129D01*
X86964674Y-85256527D01*
X86975419Y-85257198D01*
X86975419Y-85256555D01*
X86987829Y-85256555D01*
X87000000Y-85258976D01*
X87012847Y-85256421D01*
X87037425Y-85254000D01*
X112962575Y-85254000D01*
X112987153Y-85256421D01*
G37*
%TD.AperFunction*%
%TD*%
M02*
