%TF.GenerationSoftware,KiCad,Pcbnew,(6.0.2-0)*%
%TF.CreationDate,2022-03-06T13:34:15+00:00*%
%TF.ProjectId,L86,4c38362e-6b69-4636-9164-5f7063625858,rev?*%
%TF.SameCoordinates,Original*%
%TF.FileFunction,Legend,Top*%
%TF.FilePolarity,Positive*%
%FSLAX46Y46*%
G04 Gerber Fmt 4.6, Leading zero omitted, Abs format (unit mm)*
G04 Created by KiCad (PCBNEW (6.0.2-0)) date 2022-03-06 13:34:15*
%MOMM*%
%LPD*%
G01*
G04 APERTURE LIST*
%ADD10C,0.120000*%
G04 APERTURE END LIST*
D10*
%TO.C,J1*%
X115500000Y-108850000D02*
X123250000Y-108850000D01*
X115500000Y-108850000D02*
X115500000Y-91150000D01*
X115500000Y-91150000D02*
X123250000Y-91150000D01*
%TO.C,U1*%
X109200000Y-97000000D02*
X109200000Y-98476000D01*
X90800000Y-109200000D02*
X90800000Y-92000000D01*
X109200000Y-109200000D02*
X109200000Y-107112000D01*
X109200000Y-90800000D02*
X109200000Y-93396000D01*
X92000000Y-90800000D02*
X109200000Y-90800000D01*
X109200000Y-104572000D02*
X109200000Y-106096000D01*
X109200000Y-99492000D02*
X109200000Y-101000000D01*
X109200000Y-102032000D02*
X109200000Y-103556000D01*
X90800000Y-109200000D02*
X109200000Y-109200000D01*
X109200000Y-94400000D02*
X109200000Y-95936000D01*
X92000000Y-90800000D02*
X90800000Y-92000000D01*
X101800000Y-100830000D02*
G75*
G03*
X101800000Y-100830000I-1000000J0D01*
G01*
X105915000Y-106550000D02*
X104645000Y-107185000D01*
X104645000Y-107185000D02*
X104645000Y-105915000D01*
X104645000Y-105915000D02*
X105915000Y-106550000D01*
G36*
X105915000Y-106550000D02*
G01*
X104645000Y-107185000D01*
X104645000Y-105915000D01*
X105915000Y-106550000D01*
G37*
X105915000Y-106550000D02*
X104645000Y-107185000D01*
X104645000Y-105915000D01*
X105915000Y-106550000D01*
%TD*%
M02*
