%TF.GenerationSoftware,KiCad,Pcbnew,(6.0.2-0)*%
%TF.CreationDate,2022-03-06T07:34:13+00:00*%
%TF.ProjectId,L86,4c38362e-6b69-4636-9164-5f7063625858,rev?*%
%TF.SameCoordinates,Original*%
%TF.FileFunction,Legend,Bot*%
%TF.FilePolarity,Positive*%
%FSLAX46Y46*%
G04 Gerber Fmt 4.6, Leading zero omitted, Abs format (unit mm)*
G04 Created by KiCad (PCBNEW (6.0.2-0)) date 2022-03-06 07:34:13*
%MOMM*%
%LPD*%
G01*
G04 APERTURE LIST*
%ADD10C,0.150000*%
%ADD11C,0.100000*%
G04 APERTURE END LIST*
D10*
X121238095Y-96178571D02*
X121095238Y-96226190D01*
X121047619Y-96273809D01*
X121000000Y-96369047D01*
X121000000Y-96511904D01*
X121047619Y-96607142D01*
X121095238Y-96654761D01*
X121190476Y-96702380D01*
X121571428Y-96702380D01*
X121571428Y-95702380D01*
X121238095Y-95702380D01*
X121142857Y-95750000D01*
X121095238Y-95797619D01*
X121047619Y-95892857D01*
X121047619Y-95988095D01*
X121095238Y-96083333D01*
X121142857Y-96130952D01*
X121238095Y-96178571D01*
X121571428Y-96178571D01*
X120619047Y-96416666D02*
X120142857Y-96416666D01*
X120714285Y-96702380D02*
X120380952Y-95702380D01*
X120047619Y-96702380D01*
X119857142Y-95702380D02*
X119285714Y-95702380D01*
X119571428Y-96702380D02*
X119571428Y-95702380D01*
X121738095Y-94202380D02*
X121738095Y-93202380D01*
X121357142Y-93202380D01*
X121261904Y-93250000D01*
X121214285Y-93297619D01*
X121166666Y-93392857D01*
X121166666Y-93535714D01*
X121214285Y-93630952D01*
X121261904Y-93678571D01*
X121357142Y-93726190D01*
X121738095Y-93726190D01*
X120738095Y-94202380D02*
X120738095Y-93202380D01*
X120357142Y-93202380D01*
X120261904Y-93250000D01*
X120214285Y-93297619D01*
X120166666Y-93392857D01*
X120166666Y-93535714D01*
X120214285Y-93630952D01*
X120261904Y-93678571D01*
X120357142Y-93726190D01*
X120738095Y-93726190D01*
X119785714Y-94154761D02*
X119642857Y-94202380D01*
X119404761Y-94202380D01*
X119309523Y-94154761D01*
X119261904Y-94107142D01*
X119214285Y-94011904D01*
X119214285Y-93916666D01*
X119261904Y-93821428D01*
X119309523Y-93773809D01*
X119404761Y-93726190D01*
X119595238Y-93678571D01*
X119690476Y-93630952D01*
X119738095Y-93583333D01*
X119785714Y-93488095D01*
X119785714Y-93392857D01*
X119738095Y-93297619D01*
X119690476Y-93250000D01*
X119595238Y-93202380D01*
X119357142Y-93202380D01*
X119214285Y-93250000D01*
X121833333Y-98202380D02*
X121500000Y-99202380D01*
X121166666Y-98202380D01*
X120261904Y-99107142D02*
X120309523Y-99154761D01*
X120452380Y-99202380D01*
X120547619Y-99202380D01*
X120690476Y-99154761D01*
X120785714Y-99059523D01*
X120833333Y-98964285D01*
X120880952Y-98773809D01*
X120880952Y-98630952D01*
X120833333Y-98440476D01*
X120785714Y-98345238D01*
X120690476Y-98250000D01*
X120547619Y-98202380D01*
X120452380Y-98202380D01*
X120309523Y-98250000D01*
X120261904Y-98297619D01*
X119261904Y-99107142D02*
X119309523Y-99154761D01*
X119452380Y-99202380D01*
X119547619Y-99202380D01*
X119690476Y-99154761D01*
X119785714Y-99059523D01*
X119833333Y-98964285D01*
X119880952Y-98773809D01*
X119880952Y-98630952D01*
X119833333Y-98440476D01*
X119785714Y-98345238D01*
X119690476Y-98250000D01*
X119547619Y-98202380D01*
X119452380Y-98202380D01*
X119309523Y-98250000D01*
X119261904Y-98297619D01*
X121857142Y-106321428D02*
X121095238Y-106321428D01*
X121285714Y-106511904D02*
X121095238Y-106321428D01*
X121285714Y-106130952D01*
X120047619Y-106702380D02*
X120380952Y-106226190D01*
X120619047Y-106702380D02*
X120619047Y-105702380D01*
X120238095Y-105702380D01*
X120142857Y-105750000D01*
X120095238Y-105797619D01*
X120047619Y-105892857D01*
X120047619Y-106035714D01*
X120095238Y-106130952D01*
X120142857Y-106178571D01*
X120238095Y-106226190D01*
X120619047Y-106226190D01*
X119714285Y-105702380D02*
X119047619Y-106702380D01*
X119047619Y-105702380D02*
X119714285Y-106702380D01*
X120976190Y-103821428D02*
X121738095Y-103821428D01*
X121547619Y-104011904D02*
X121738095Y-103821428D01*
X121547619Y-103630952D01*
X120642857Y-103202380D02*
X120071428Y-103202380D01*
X120357142Y-104202380D02*
X120357142Y-103202380D01*
X119833333Y-103202380D02*
X119166666Y-104202380D01*
X119166666Y-103202380D02*
X119833333Y-104202380D01*
X121261904Y-100750000D02*
X121357142Y-100702380D01*
X121500000Y-100702380D01*
X121642857Y-100750000D01*
X121738095Y-100845238D01*
X121785714Y-100940476D01*
X121833333Y-101130952D01*
X121833333Y-101273809D01*
X121785714Y-101464285D01*
X121738095Y-101559523D01*
X121642857Y-101654761D01*
X121500000Y-101702380D01*
X121404761Y-101702380D01*
X121261904Y-101654761D01*
X121214285Y-101607142D01*
X121214285Y-101273809D01*
X121404761Y-101273809D01*
X120785714Y-101702380D02*
X120785714Y-100702380D01*
X120214285Y-101702380D01*
X120214285Y-100702380D01*
X119738095Y-101702380D02*
X119738095Y-100702380D01*
X119500000Y-100702380D01*
X119357142Y-100750000D01*
X119261904Y-100845238D01*
X119214285Y-100940476D01*
X119166666Y-101130952D01*
X119166666Y-101273809D01*
X119214285Y-101464285D01*
X119261904Y-101559523D01*
X119357142Y-101654761D01*
X119500000Y-101702380D01*
X119738095Y-101702380D01*
D11*
%TO.C,Logo1*%
X102487142Y-98985714D02*
X102363333Y-99419047D01*
X102239523Y-99109523D01*
X102115714Y-99419047D01*
X101991904Y-98985714D01*
X101806190Y-98985714D02*
X101682380Y-99419047D01*
X101558571Y-99109523D01*
X101434761Y-99419047D01*
X101310952Y-98985714D01*
X101125238Y-98985714D02*
X101001428Y-99419047D01*
X100877619Y-99109523D01*
X100753809Y-99419047D01*
X100630000Y-98985714D01*
X100382380Y-99357142D02*
X100351428Y-99388095D01*
X100382380Y-99419047D01*
X100413333Y-99388095D01*
X100382380Y-99357142D01*
X100382380Y-99419047D01*
X100072857Y-99419047D02*
X100072857Y-98985714D01*
X100072857Y-99047619D02*
X100041904Y-99016666D01*
X99980000Y-98985714D01*
X99887142Y-98985714D01*
X99825238Y-99016666D01*
X99794285Y-99078571D01*
X99794285Y-99419047D01*
X99794285Y-99078571D02*
X99763333Y-99016666D01*
X99701428Y-98985714D01*
X99608571Y-98985714D01*
X99546666Y-99016666D01*
X99515714Y-99078571D01*
X99515714Y-99419047D01*
X98958571Y-99388095D02*
X99020476Y-99419047D01*
X99144285Y-99419047D01*
X99206190Y-99388095D01*
X99237142Y-99326190D01*
X99237142Y-99078571D01*
X99206190Y-99016666D01*
X99144285Y-98985714D01*
X99020476Y-98985714D01*
X98958571Y-99016666D01*
X98927619Y-99078571D01*
X98927619Y-99140476D01*
X99237142Y-99202380D01*
X98649047Y-99357142D02*
X98618095Y-99388095D01*
X98649047Y-99419047D01*
X98680000Y-99388095D01*
X98649047Y-99357142D01*
X98649047Y-99419047D01*
X98060952Y-98985714D02*
X98060952Y-99419047D01*
X98339523Y-98985714D02*
X98339523Y-99326190D01*
X98308571Y-99388095D01*
X98246666Y-99419047D01*
X98153809Y-99419047D01*
X98091904Y-99388095D01*
X98060952Y-99357142D01*
X97751428Y-99419047D02*
X97751428Y-98769047D01*
X97689523Y-99171428D02*
X97503809Y-99419047D01*
X97503809Y-98985714D02*
X97751428Y-99233333D01*
%TD*%
M02*
